<svg id="Layer_1" data-name="Layer 1" xmlns="http://www.w3.org/2000/svg" xmlns:xlink="http://www.w3.org/1999/xlink" viewBox="0 0 1534.5 1534.5"><defs><style>.cls-1{fill:url(#Gradiente_sem_nome_2);}.cls-2{fill:url(#Gradiente_sem_nome_3);}.cls-3{fill:url(#Gradiente_sem_nome_2-2);}.cls-4{fill:url(#Gradiente_sem_nome_3-2);}.cls-5{fill:none;}.cls-6{fill:#0b52ff;}.cls-7{fill:#2075ff;}.cls-8{fill:#fac5ca;}.cls-9{fill:#f9c0bd;}.cls-10{fill:#1c213d;}.cls-11{fill:#ff769d;}.cls-12{fill:#feb05c;}.cls-13{fill:#f36e21;}.cls-14{fill:#fec262;}.cls-15{fill:#fcb316;}.cls-16{fill:#fe920d;}.cls-17{fill:#ff3784;}</style><linearGradient id="Gradiente_sem_nome_2" x1="5265.59" y1="2635.54" x2="5266.89" y2="2635.54" gradientTransform="matrix(-347.24, 1079.06, -778.88, -250.64, 3877900.79, -5008242.74)" gradientUnits="userSpaceOnUse"><stop offset="0" stop-color="#0f467a"/><stop offset="1" stop-color="#ea8eb4"/></linearGradient><linearGradient id="Gradiente_sem_nome_3" x1="5255.34" y1="2637.95" x2="5256.47" y2="2637.95" gradientTransform="translate(4570653.87 -4573383.67) rotate(111.87) scale(1131.81 961.52)" gradientUnits="userSpaceOnUse"><stop offset="0" stop-color="#79c4c8"/><stop offset="1" stop-color="#c56a93"/></linearGradient><linearGradient id="Gradiente_sem_nome_2-2" x1="5265.59" y1="2635.28" x2="5266.89" y2="2635.28" xlink:href="#Gradiente_sem_nome_2"/><linearGradient id="Gradiente_sem_nome_3-2" x1="5255.34" y1="2638.2" x2="5256.47" y2="2638.2" xlink:href="#Gradiente_sem_nome_3"/></defs><path class="cls-1" d="M559,1091.07c10.25-151.22,86.23-257.89,101.53-381.17,14.19-114.39-72.57-248-57.89-354.11C626.28,184.7,800.45,124,932.1,108.16c17.2-2.06,37-2.37,58.38-.91C915.58,58.73,825.24,30.94,762,29c-150.53-4.56-357.35,35.87-416.8,231.48-36.87,121.29-184,257-221.95,388-40.86,141.26,72.13,288.05,31.54,462.82-32,137.89,54.89,232.23,205.76,310.78,112.93,58.79,263.69,126.16,416.27,101.21,131.68-21.53,228-77.92,296.63-148.72C801.15,1420.23,546.15,1279.9,559,1091.07Z"/><path class="cls-2" d="M1469.64,848.82c-40.08-174.37-240-242.71-245.18-319.31-5-73.18,53.14-110.35,64.71-173.21,29.43-159.93-164.39-239.83-298.69-249,94.94,61.5,165.09,156.31,123.78,273.94C1089.2,452.56,1017,485.8,1008.44,572.1c-8.93,90.35,201.88,205.11,213.22,415.71,5.56,103.16-31.06,266-148.22,386.8a634.9,634.9,0,0,0,85.9-20.62C1461.14,1258.86,1500.78,984.28,1469.64,848.82Z"/><path class="cls-3" d="M1221.66,987.81c-11.34-210.6-222.15-325.36-213.22-415.71,8.53-86.3,80.76-119.54,105.82-190.91,41.31-117.63-28.84-212.44-123.78-273.94-21.34-1.46-41.18-1.15-58.38.91C800.45,124,626.28,184.7,602.6,355.79c-14.68,106.08,72.08,239.72,57.89,354.11-15.3,123.28-91.28,230-101.53,381.17-12.81,188.83,242.19,329.16,514.48,283.54C1190.6,1253.78,1227.22,1091,1221.66,987.81Z"/><path class="cls-4" d="M1221.66,987.81c-11.34-210.6-222.15-325.36-213.22-415.71,8.53-86.3,80.76-119.54,105.82-190.91,41.31-117.63-28.84-212.44-123.78-273.94-21.34-1.46-41.18-1.15-58.38.91C800.45,124,626.28,184.7,602.6,355.79c-14.68,106.08,72.08,239.72,57.89,354.11-15.3,123.28-91.28,230-101.53,381.17-12.81,188.83,242.19,329.16,514.48,283.54C1190.6,1253.78,1227.22,1091,1221.66,987.81Z"/><polygon class="cls-5" points="608.13 307.01 605.13 302.85 606.87 313.08 608.13 307.01"/><path class="cls-6" d="M716,1487.05c-3.24,12.88-6.64,26.48-10.15,40.61q22.53,1.32,45.39,1.34,19,0,37.69-.92c-2.41-13.71-4.75-26.94-7-39.61Z"/><path class="cls-7" d="M486.62,1482.1a761.93,761.93,0,0,0,126,34.4L638,1485.37Z"/><path class="cls-7" d="M638,1485.37l-25.36,31.13a767.28,767.28,0,0,0,93.19,11.16c3.51-14.13,6.91-27.73,10.15-40.61Z"/><path class="cls-8" d="M1400.78,1133.44c-3.66-9.14-53.21-11.72-80.91-12.45a391,391,0,0,1-32.81,81.8C1352,1187.19,1404.67,1143.18,1400.78,1133.44Z"/><path class="cls-9" d="M694.66,160.37l7.61,200.92s52.16,17.64,67.71-4.71c14.18-20.38,72.68-26.08,82.9-26.93,10.18-73.54-6.44-171.52-6.44-171.52L844,154.76C807.05,169.27,694.66,160.37,694.66,160.37Z"/><path class="cls-9" d="M586.23,447.72c5-5,8.66-7.66,10.45-7.14,11.89,3.39,57.74,47.55,125.67,35.66l3.11,2.31c2.32-.85,3.58-1.36,3.58-1.36l-6.52-6.81c-31.87-5.84-58.32-13.71-58.32-13.71S655.58,237.24,626,225.8s-26.53,44.06-26.53,44.06l5.62,33,3,4.16-1.26,6.07L616.06,367,591.33,381.1l-15.21,62.44c.63.13,1.26.28,1.88.43A28.22,28.22,0,0,1,586.23,447.72Z"/><path class="cls-10" d="M606.87,313.08l-1.75-10.23-38.51-53.37L676.8,150.17l139-34.51L844,154.76c6.74-2.64,11-6.06,11.56-10.45,3.83-28.49,12.86-87-9-98.56C819.33,31.32,753.5,33.31,705.66,24.4s-176.55,17.5-168.72,119,50.32,240.07,50.32,240.07l4.07-2.32L601,341.44Z"/><path class="cls-10" d="M804.6,408.46c-81.75,15-99.26,13.87-99.26,13.87l-.21,29.88,17.39,18.17c37.65,6.89,82.86,10.95,101-4.18,33.42-27.93,30.93-136.67,30.93-136.67l-1.54.12C847.29,370.08,833.6,403.13,804.6,408.46Z"/><path class="cls-10" d="M676.8,150.17,566.61,249.48l38.51,53.37-5.62-33s-3-55.51,26.53-44.06S664.2,456.67,664.2,456.67s26.45,7.87,58.32,13.71l-17.39-18.17.21-29.88s17.51,1.16,99.26-13.87c29-5.33,42.69-38.38,48.28-78.81-10.22.85-68.72,6.55-82.9,26.93-15.55,22.35-67.71,4.71-67.71,4.71l-7.61-200.92s112.39,8.9,149.35-5.61l-28.17-39.1Z"/><polygon class="cls-10" points="606.87 313.08 600.98 341.44 591.33 381.1 616.06 367 606.87 313.08"/><path class="cls-11" d="M759.85,1364.77c4.56,25.28,12.45,69.18,22.1,123.7l136,2.94-10.75-83.81q-19.1-1.68-38.34-5.27A392.53,392.53,0,0,1,759.85,1364.77Z"/><path class="cls-11" d="M616,498.91a81,81,0,0,1-1.66,31.28C642.17,540.56,738.24,597.75,719,644.36c-4.19,10.13-3.2,27,1,47.28A394.1,394.1,0,0,1,820,642.5c-6.22-51.18-10.89-85.47-12.71-89.84-7.46-17.91-67.39-63.37-81.8-74.11C711.35,483.74,658.27,502,616,498.91Z"/><path class="cls-11" d="M555.13,943.87A395.77,395.77,0,0,1,569.2,890c-11.86-34.84-20.62-75.55-19.29-122.88-32.52,131-65.31,269.56-65.31,269.56l67.92,36.93A392.31,392.31,0,0,1,555.13,943.87Z"/><path class="cls-11" d="M733.92,1367.69l9.67-11.87a391.45,391.45,0,0,1-88.31-70.23c-77.41-21.53-182-52.58-256.9-82.3-12,92.92-22.47,174.2-28.86,224.08q7.88,4.53,15.86,8.87c4.61-55.63,7.43-92.08,7.43-92.08Z"/><path class="cls-11" d="M743.59,1355.82l-9.67,11.87,12.51.86s-12.89,48.82-30.42,118.5l65.94,1.42c-9.65-54.52-17.54-98.42-22.1-123.7Q751.6,1360.48,743.59,1355.82Z"/><path class="cls-11" d="M733.92,1367.69l-341.11-23.53s-2.82,36.45-7.43,92.08a762.41,762.41,0,0,0,101.24,45.86L638,1485.37Z"/><path class="cls-11" d="M733.92,1367.69,638,1485.37l78,1.68c17.53-69.68,30.42-118.5,30.42-118.5Z"/><path class="cls-11" d="M569.2,890A391.79,391.79,0,0,1,720,691.64c-4.2-20.32-5.19-37.15-1-47.28,19.29-46.61-76.78-103.8-104.63-114.17a87.64,87.64,0,0,1-4.05,12.28c-9,21.77-34.6,120.83-60.36,224.61C548.58,814.41,557.34,855.12,569.2,890Z"/><path class="cls-11" d="M596.68,440.58c-1.79-.52-5.47,2.18-10.45,7.14,12.64,8.12,26.32,27.18,29.75,51.19,42.29,3,95.37-15.17,109.48-20.36l-3.11-2.31C654.42,488.13,608.57,444,596.68,440.58Z"/><path class="cls-12" d="M1225,1207.31a289.19,289.19,0,0,1-44-8.62,302.5,302.5,0,0,1-63.7,61.93,296.42,296.42,0,0,1-77.53,50c-34,19.89-82.67,38-130.63,32.52q-5.24-.6-10.36-1.4l8.45,65.83c158.25,13.94,306.76-69.32,379.82-204.81C1267.1,1207.59,1246,1209.71,1225,1207.31Z"/><path class="cls-12" d="M996.73,720.06C1160.29,750.71,1268,908.14,1237.4,1071.7a303.59,303.59,0,0,1-7.44,30.71c32.08-6,80.81-14,84.21-7.18,5.09,10.19-12.74,25.47-12.74,25.47s7.53,0,18.44.29q4.38-15.91,7.49-32.43c40-213.25-100.53-418.51-313.77-458.46A391.06,391.06,0,0,0,820,642.5c3.28,27,7,58.79,11,93.34A299.69,299.69,0,0,1,996.73,720.06Z"/><path class="cls-12" d="M1314.17,1095.23c-3.4-6.8-52.13,1.14-84.21,7.18a299,299,0,0,1-49,96.28,289.19,289.19,0,0,0,44,8.62c21,2.4,42.09.28,62-4.52a391,391,0,0,0,32.81-81.8c-10.91-.29-18.44-.29-18.44-.29S1319.26,1105.42,1314.17,1095.23Z"/><path class="cls-12" d="M627.22,1021.41c-3.56-3.57-5.88-7-6.76-10.24-7.78-28.51-33.14-68-51.26-121.21a395.61,395.61,0,0,0-16.68,183.61l84.58,46A292.62,292.62,0,0,1,627.22,1021.41Z"/><path class="cls-12" d="M749.32,784a302.62,302.62,0,0,1,81.61-48.2c-4-34.55-7.68-66.3-11-93.34a394.1,394.1,0,0,0-100,49.14C725.56,718.73,736.89,752,749.32,784Z"/><path class="cls-12" d="M810.23,1314.14a293.52,293.52,0,0,1-36-17.54l-14.53,16.85s-43.9-11-104.43-27.86a391.45,391.45,0,0,0,88.31,70.23l12-14.71s1.54,8.47,4.28,23.66a392.53,392.53,0,0,0,109,37.56q19.23,3.62,38.34,5.27l-8.45-65.83C865,1336.59,834.58,1325.53,810.23,1314.14Z"/><path class="cls-12" d="M755.57,1341.11l-12,14.71q8,4.67,16.26,9C757.11,1349.58,755.57,1341.11,755.57,1341.11Z"/><path class="cls-12" d="M569.2,890c18.12,53.18,43.48,92.7,51.26,121.21.88,3.24,3.2,6.67,6.76,10.24a299.57,299.57,0,0,1,4.37-34.35,294,294,0,0,1,33.71-91.77,300.51,300.51,0,0,1,84-111.25c-12.43-32-23.76-65.31-29.37-92.4A391.79,391.79,0,0,0,569.2,890Z"/><path class="cls-13" d="M975.2,751.89c159.83,29.94,265.12,183.78,235.17,343.61-.7,3.77-1.49,7.51-2.33,11.23,5-1,12.78-2.6,21.92-4.32a303.59,303.59,0,0,0,7.44-30.71c30.64-163.56-77.11-321-240.67-351.64a299.69,299.69,0,0,0-165.8,15.78q1.35,11.89,2.76,24.23A292.81,292.81,0,0,1,975.2,751.89Z"/><path class="cls-13" d="M1117.31,1260.62a302.5,302.5,0,0,0,63.7-61.93c-3.2-.88-6.34-1.81-9.45-2.77A294.31,294.31,0,0,1,1117.31,1260.62Z"/><path class="cls-13" d="M1171.56,1195.92c3.11,1,6.25,1.89,9.45,2.77a299,299,0,0,0,49-96.28c-9.14,1.72-16.92,3.29-21.92,4.32A292.86,292.86,0,0,1,1171.56,1195.92Z"/><path class="cls-13" d="M833.69,760.07q-1.4-12.32-2.76-24.23A302.62,302.62,0,0,0,749.32,784c1.85,4.76,3.73,9.5,5.61,14.18A295.5,295.5,0,0,1,833.69,760.07Z"/><path class="cls-13" d="M665.3,895.29a294.82,294.82,0,0,1,89.63-97.07c-1.88-4.68-3.76-9.42-5.61-14.18A300.51,300.51,0,0,0,665.3,895.29Z"/><path class="cls-14" d="M1039.78,1310.65a296.42,296.42,0,0,0,77.53-50,304,304,0,0,1-44.94,26.81A203.1,203.1,0,0,1,1039.78,1310.65Z"/><path class="cls-14" d="M640.3,1031.77a85.73,85.73,0,0,1-13.08-10.36,292.62,292.62,0,0,0,9.88,98.14L664,1134.16A299.73,299.73,0,0,1,640.3,1031.77Z"/><path class="cls-14" d="M774.24,1296.6a293.52,293.52,0,0,0,36,17.54,380.83,380.83,0,0,1-35-18.67Z"/><path class="cls-14" d="M645.1,960.73a302.1,302.1,0,0,1,20.2-65.44,294,294,0,0,0-33.71,91.77,299.57,299.57,0,0,0-4.37,34.35,85.73,85.73,0,0,0,13.08,10.36A301.5,301.5,0,0,1,645.1,960.73Z"/><path class="cls-15" d="M940.26,974.39l20.39-74-.52,0-20,73.9Z"/><path class="cls-16" d="M939.46,901.74a47.65,47.65,0,0,0-15.81,6.3,33.81,33.81,0,0,0-10.27,10.33A38,38,0,0,0,909,928.46a34.87,34.87,0,0,0,.57,12,36.9,36.9,0,0,0,5.92,12.89,58.91,58.91,0,0,0,10.61,11.15,119.13,119.13,0,0,0,14,9.76l20-73.9A79.86,79.86,0,0,0,939.46,901.74Z"/><path class="cls-16" d="M855.23,930.56c.18-1.14.38-2.3.6-3.47s.49-2,.72-3c.19-1.2.28-2.33.51-3.56A85.79,85.79,0,0,1,870,888.85,88.82,88.82,0,0,1,894.9,863.8q15.15-10.26,35.48-14.93c13.54-3.12,28.45-3.18,44.63-.15l7.71-27.66a15.84,15.84,0,0,1,6.23-8.78,13.77,13.77,0,0,1,11.19-2.29l20.1,3.76-1.8,6.47.57.11-10.14,36.38q22.33,8.09,37.43,20.62a149.8,149.8,0,0,1,25.59,27l-3.52,3.64c.75,1,1.56,1.94,2.29,2.94l-17,17.61a26.88,26.88,0,0,1-7.43,5.48,12.8,12.8,0,0,1-7.93.81,19.72,19.72,0,0,1-7.45-3.58c-2.76-2-5.89-4.3-9.44-7s-7.45-5.54-11.77-8.49a90.77,90.77,0,0,0-14.73-8l-23.15,83.78q14.74,7.72,29,16.34a123.31,123.31,0,0,1,12.41,8.6l137.2,74.6-15,17.34,5.62-2.91,61.14,2.55s2.19-.47,6-1.24c.84-3.72,1.63-7.46,2.33-11.23,30-159.83-75.34-313.67-235.17-343.61a292.81,292.81,0,0,0-141.51,8.18c6,53.23,12.51,111.68,18.77,169Z"/><path class="cls-16" d="M885.4,1174c-2.31-.77-4.58-1.6-6.82-2.45.74,7,1.43,13.51,2.08,19.61Z"/><path class="cls-16" d="M1171.56,1195.92a370.6,370.6,0,0,1-80.48-36.3l-15.51,18s-27.55-6.91-69.11-18.16c-1.52,1.24-3.07,2.46-4.68,3.62a102.18,102.18,0,0,1-36.57,16.36q-20.82,5-45.9,2.16l-8.74,32a15.9,15.9,0,0,1-6.19,8.57,13.79,13.79,0,0,1-11.2,2.36l-9.18-1.72,2.23,21.06s107-22.92,112.08-12.73-12.74,25.47-12.74,25.47,94.25,0,99.34,12.74c1.27,3.15-3.42,9.91-12.54,18.13a304,304,0,0,0,44.94-26.81A294.31,294.31,0,0,0,1171.56,1195.92Z"/><path class="cls-16" d="M1141,1105.42l-5.62,2.91-44.25,51.29a370.6,370.6,0,0,0,80.48,36.3,292.86,292.86,0,0,0,36.48-89.19c-3.76.77-6,1.24-6,1.24Z"/><path class="cls-16" d="M1135.33,1108.33l15-17.34-137.2-74.6a112.09,112.09,0,0,1,12.84,11.81,74.35,74.35,0,0,1,15.89,26.87q5.13,15.26,1.25,36c-.22,1.19-.55,2.32-.81,3.48s-.22,2-.42,3.1a109.59,109.59,0,0,1-14.1,37.29,95.94,95.94,0,0,1-21.28,24.46c41.56,11.25,69.11,18.16,69.11,18.16l15.51-18a269,269,0,0,1-24-16Z"/><path class="cls-16" d="M899.39,1123l25.22-91.12q-14.6-7.29-28.61-16a106.74,106.74,0,0,1-24.65-21,75,75,0,0,1-14.69-27.34c5.38,49.54,10.5,97.1,14.92,138.37q3.57,3.08,7.66,6.23A78.1,78.1,0,0,0,899.39,1123Z"/><path class="cls-16" d="M852.46,929.06q.75,6.75,1.48,13.46a109.19,109.19,0,0,1,1.29-12Z"/><path class="cls-16" d="M1067.08,1143.63a269,269,0,0,0,24,16l44.25-51.29Z"/><path class="cls-16" d="M852.46,929.06c-6.26-57.31-12.73-115.76-18.77-169a295.5,295.5,0,0,0-78.76,38.15c22.13,55,45.54,102.57,45.54,102.57Z"/><path class="cls-16" d="M874.86,1214.23l-.55-.1,6.35-23c-.65-6.1-1.34-12.65-2.08-19.61a168,168,0,0,1-38.52-20.6,139.15,139.15,0,0,1-33.63-33.51l3.52-3.59c-.74-1-1.58-2-2.29-3l7.52-7.65c-73.32-23.77-142-49.56-174.88-71.42A299.73,299.73,0,0,0,664,1134.16l170.46,92.68-15,17.34,5.62-2.91,61.14,2.55L884,1222.76l-10.92-2Z"/><path class="cls-16" d="M640.3,1031.77c32.86,21.86,101.56,47.65,174.88,71.42l14-14.2a17.59,17.59,0,0,1,6.88-4.31,15.33,15.33,0,0,1,8-.68,20.16,20.16,0,0,1,9.71,5.36q4.92,4.47,11.12,10.44,3.11,3,6.71,6.07C867.16,1064.6,862,1017,856.66,967.5c-.14-.44-.29-.87-.42-1.31a73.1,73.1,0,0,1-2.3-23.67q-.74-6.72-1.48-13.46l-52-28.27s-23.41-47.59-45.54-102.57a294.82,294.82,0,0,0-89.63,97.07,301.81,301.81,0,0,0-25,136.48Z"/><path class="cls-15" d="M956.28,1048.32l-.11-.07L933.65,1130l.52,0Z"/><path class="cls-16" d="M971.49,1120.84q13.11-9.51,17.47-27.41a33.33,33.33,0,0,0-.65-12.28,35.65,35.65,0,0,0-6.29-12.72,55.69,55.69,0,0,0-11.16-10.78,134.66,134.66,0,0,0-14.58-9.33L934.17,1130C949.64,1130.69,962.11,1127.64,971.49,1120.84Z"/><path class="cls-13" d="M893.67,870.37q15.15-10.25,35.48-14.92t44.63-.15l7.71-27.66a15.84,15.84,0,0,1,6.23-8.78,13.79,13.79,0,0,1,11.18-2.3l19.54,3.66,1.8-6.47-20.1-3.76A13.77,13.77,0,0,0,989,812.28a15.84,15.84,0,0,0-6.23,8.78L975,848.72c-16.18-3-31.09-3-44.63.15S905,857,894.9,863.8A88.82,88.82,0,0,0,870,888.85a85.79,85.79,0,0,0-12.89,31.67c-.23,1.23-.32,2.36-.51,3.56a85.88,85.88,0,0,1,12.17-28.65A88.85,88.85,0,0,1,893.67,870.37Z"/><path class="cls-13" d="M1045.07,883.91a151.48,151.48,0,0,1,23.3,24l3.52-3.64a149.8,149.8,0,0,0-25.59-27q-15.08-12.54-37.43-20.62l-1.78,6.36Q1029.8,871.2,1045.07,883.91Z"/><path class="cls-13" d="M972,1120.74q-14.19,10.38-37.8,9.32v0l-.52,0-1.81,6.56q24,1.31,38.42-9.14t18.28-31c.05-.22.07-.45.11-.67C985.61,1106.45,980.05,1114.81,972,1120.74Z"/><path class="cls-13" d="M971.49,1120.84c-9.38,6.8-21.85,9.85-37.32,9.18v0q23.58,1.05,37.8-9.32c8.09-5.93,13.65-14.29,16.69-25,.12-.78.22-1.54.31-2.3Q984.58,1111.29,971.49,1120.84Z"/><path class="cls-13" d="M1013.09,1016.39a123.31,123.31,0,0,0-12.41-8.6q-14.19-8.61-29-16.34l-.58,2.13Z"/><path class="cls-13" d="M970,997.75q15,7.85,29.47,16.62a116.45,116.45,0,0,1,25.25,20.4,74.39,74.39,0,0,1,15.89,26.88c3.15,9.39,3.64,20.42,1.67,32.93.26-1.16.59-2.29.81-3.48q3.9-20.77-1.25-36a74.35,74.35,0,0,0-15.89-26.87,112.09,112.09,0,0,0-12.84-11.81l-42-22.81Z"/><path class="cls-13" d="M898.16,1129.54l.19-.67-6.2-1.83C894.07,1127.91,896.07,1128.75,898.16,1129.54Z"/><path class="cls-13" d="M878,1118.68a72,72,0,0,0,14.14,8.36l6.2,1.83,26.77-96.75-.51-.27L899.39,1123a78.1,78.1,0,0,1-20.15-10.87q-4.08-3.16-7.66-6.23.45,4.23.89,8.37Q875.11,1116.43,878,1118.68Z"/><path class="cls-13" d="M810,1113.83l9.2-9.35-4-1.29-7.52,7.65C808.37,1111.87,809.21,1112.83,810,1113.83Z"/><path class="cls-13" d="M827.91,1095.57a17.61,17.61,0,0,1,6.88-4.32,15.18,15.18,0,0,1,8-.67,20.15,20.15,0,0,1,9.72,5.36q4.92,4.45,11.11,10.44,4,3.86,8.84,7.86-.44-4.14-.89-8.37-3.62-3.07-6.71-6.07-6.2-6-11.12-10.44A20.16,20.16,0,0,0,844,1084a15.33,15.33,0,0,0-8,.68,17.59,17.59,0,0,0-6.88,4.31l-14,14.2,4,1.29Z"/><path class="cls-13" d="M880.82,1192.67l5.11-18.49-.53-.2-4.74,17.16C880.71,1191.65,880.77,1192.16,880.82,1192.67Z"/><path class="cls-13" d="M874.31,1214.13l.55.1,6-21.56c-.05-.51-.11-1-.16-1.53Z"/><path class="cls-13" d="M960.65,900.42l-20.39,74-.15-.09,0,.13a120.11,120.11,0,0,1-14.21-9.8,58.92,58.92,0,0,1-10.65-11.09,36.86,36.86,0,0,1-6-12.87,33.91,33.91,0,0,1-.8-9.94l-.21,1a35.05,35.05,0,0,0,6,28.25,52.68,52.68,0,0,0,3.92,4.82l22,12,21-76.31C961,900.42,960.85,900.43,960.65,900.42Z"/><path class="cls-13" d="M924.87,971.11A118,118,0,0,0,939,981l1.16-4.22-22-12A62.36,62.36,0,0,0,924.87,971.11Z"/><path class="cls-13" d="M909.24,940.67a36.86,36.86,0,0,0,6,12.87,58.92,58.92,0,0,0,10.65,11.09,120.11,120.11,0,0,0,14.21,9.8l0-.13a119.13,119.13,0,0,1-14-9.76,58.91,58.91,0,0,1-10.61-11.15,36.9,36.9,0,0,1-5.92-12.89,34.87,34.87,0,0,1-.57-12c-.21.75-.39,1.51-.56,2.27A33.91,33.91,0,0,0,909.24,940.67Z"/><path class="cls-12" d="M914.26,960a35.05,35.05,0,0,1-6-28.25l.21-1c0-.69.1-1.38.17-2.09A38.43,38.43,0,0,1,913,918.52a33.89,33.89,0,0,1,10.23-10.37A47.77,47.77,0,0,1,939,901.77a80.75,80.75,0,0,1,21.18-1.41v0l.52,0c.2,0,.38,0,.58,0l-21,76.31,30.95,16.83.58-2.13,23.15-83.78a90.77,90.77,0,0,1,14.73,8c4.32,3,8.26,5.79,11.77,8.49s6.68,5.07,9.44,7a19.72,19.72,0,0,0,7.45,3.58,12.8,12.8,0,0,0,7.93-.81,26.88,26.88,0,0,0,7.43-5.48l17-17.61c-.73-1-1.54-2-2.29-2.94a151.48,151.48,0,0,0-23.3-24q-15.27-12.69-38-20.84l1.78-6.36L1019,820.33l-.57-.11-19.54-3.66a13.79,13.79,0,0,0-11.18,2.3,15.84,15.84,0,0,0-6.23,8.78l-7.71,27.66q-24.28-4.54-44.63.15t-35.48,14.92a88.85,88.85,0,0,0-24.95,25.06,85.88,85.88,0,0,0-12.17,28.65c-.23,1-.53,2-.72,3s-.42,2.33-.6,3.47l62.95,34.23A52.68,52.68,0,0,1,914.26,960Z"/><path class="cls-12" d="M898.16,1129.54c-2.09-.79-4.09-1.63-6-2.5q-9.4-2.8-18.92-5.68c2,18.33,3.75,35.19,5.35,50.17,2.24.85,4.51,1.68,6.82,2.45l.53.2-5.11,18.49c1.26,11.91,2.34,22,3.18,30.09l9.18,1.72a13.79,13.79,0,0,0,11.2-2.36,15.9,15.9,0,0,0,6.19-8.57l8.74-32q25.05,2.85,45.9-2.16a102.18,102.18,0,0,0,36.57-16.36c1.61-1.16,3.16-2.38,4.68-3.62-30.33-8.21-68.13-18.73-108.11-30.56Z"/><path class="cls-12" d="M872.47,1114.24q.39,3.6.76,7.12,9.51,2.88,18.92,5.68a72,72,0,0,1-14.14-8.36Q875.12,1116.43,872.47,1114.24Z"/><path class="cls-12" d="M1027.74,1135a109.59,109.59,0,0,0,14.1-37.29c.2-1.07.26-2,.42-3.1,2-12.51,1.48-23.54-1.67-32.93a74.39,74.39,0,0,0-15.89-26.88,116.45,116.45,0,0,0-25.25-20.4Q985,1005.6,970,997.75l1.16-4.17-30.95-16.83L939,981a118,118,0,0,1-14.16-9.86,62.36,62.36,0,0,1-6.69-6.32l-62.95-34.23a109.19,109.19,0,0,0-1.29,12q1.37,12.56,2.72,25a75,75,0,0,0,14.69,27.34,106.74,106.74,0,0,0,24.65,21q14,8.72,28.61,16l.51.27-26.77,96.75c40,11.83,77.78,22.35,108.11,30.56A95.94,95.94,0,0,0,1027.74,1135Zm-38.44-41.72c-.2.84-.42,1.66-.65,2.48,0,.22-.06.45-.11.67q-3.84,20.56-18.28,31t-38.42,9.14l1.81-6.56,22.52-81.75.11.07,0-.1a134.87,134.87,0,0,1,14.74,9.33,55.47,55.47,0,0,1,11.2,10.73,35.63,35.63,0,0,1,6.35,12.7A33.22,33.22,0,0,1,989.3,1093.25Z"/><path class="cls-12" d="M810,1113.83l-3.52,3.59a139.15,139.15,0,0,0,33.63,33.51,168,168,0,0,0,38.52,20.6c-1.6-15-3.39-31.84-5.35-50.17-18-5.44-36.14-11.1-54.08-16.88Z"/><path class="cls-12" d="M874.86,1214.23l-1.78,6.48,10.92,2c-.84-8-1.92-18.18-3.18-30.09Z"/><path class="cls-12" d="M863.63,1106.38q-6.2-6-11.11-10.44a20.15,20.15,0,0,0-9.72-5.36,15.18,15.18,0,0,0-8,.67,17.61,17.61,0,0,0-6.88,4.32l-8.76,8.91c17.94,5.78,36.12,11.44,54.08,16.88q-.37-3.52-.76-7.12Q867.64,1110.23,863.63,1106.38Z"/><path class="cls-12" d="M856.24,966.19c.13.44.28.87.42,1.31q-1.35-12.42-2.72-25A73.1,73.1,0,0,0,856.24,966.19Z"/><path class="cls-12" d="M913.38,918.37A33.81,33.81,0,0,1,923.65,908a47.65,47.65,0,0,1,15.81-6.3,79.86,79.86,0,0,1,20.67-1.34v0A80.75,80.75,0,0,0,939,901.77a47.77,47.77,0,0,0-15.78,6.38A33.89,33.89,0,0,0,913,918.52a38.43,38.43,0,0,0-4.34,10.12c-.07.71-.13,1.4-.17,2.09.17-.76.35-1.52.56-2.27A38,38,0,0,1,913.38,918.37Z"/><path class="cls-12" d="M982.25,1068.28a55.47,55.47,0,0,0-11.2-10.73,134.87,134.87,0,0,0-14.74-9.33l0,.1a134.66,134.66,0,0,1,14.58,9.33A55.69,55.69,0,0,1,982,1068.43a35.65,35.65,0,0,1,6.29,12.72,33.33,33.33,0,0,1,.65,12.28c-.09.76-.19,1.52-.31,2.3.23-.82.45-1.64.65-2.48a33.22,33.22,0,0,0-.7-12.27A35.63,35.63,0,0,0,982.25,1068.28Z"/><path class="cls-8" d="M897.9,1334.82l.89,7q5.13.8,10.36,1.4c48,5.48,96.66-12.63,130.63-32.52A292.47,292.47,0,0,1,897.9,1334.82Z"/><path class="cls-8" d="M866.76,1330.67a295.31,295.31,0,0,1-56.53-16.53c24.35,11.39,54.8,22.45,88.56,27.63l-.89-7A297.05,297.05,0,0,1,866.76,1330.67Z"/><path class="cls-8" d="M895.22,1314l2.68,20.85a292.47,292.47,0,0,0,141.88-24.17,203.1,203.1,0,0,0,32.59-23.22A299.61,299.61,0,0,1,895.22,1314Z"/><path class="cls-8" d="M897.9,1334.82,895.22,1314c-3.15-.49-6.3-1-9.46-1.6a300.68,300.68,0,0,1-94.92-35l-15.62,18.11a380.83,380.83,0,0,0,35,18.67,297.46,297.46,0,0,0,87.67,20.68Z"/><path class="cls-8" d="M1072.37,1287.43c9.12-8.22,13.81-15,12.54-18.13-5.09-12.74-99.34-12.74-99.34-12.74s17.83-15.29,12.74-25.47-112.08,12.73-112.08,12.73l9,70.15A299.61,299.61,0,0,0,1072.37,1287.43Z"/><path class="cls-8" d="M819.47,1244.18l-28.63,33.18a300.68,300.68,0,0,0,94.92,35c3.16.59,6.31,1.11,9.46,1.6l-9-70.15-61.14-2.55Z"/><path class="cls-17" d="M567.41,469.19c0-10.14,7-18.72,7-18.72l1.69-6.93c-74.79-15.75-190.33,132.54-227.37,292.52-37.36,161.33-59.44,354.93-44.16,411,4.28,15.69,41.88,35.66,93.79,56.26,33.84-261.36,80.25-614.72,84.52-620.06C487.62,577.33,535,509.13,567.41,469.19Z"/><path class="cls-17" d="M567.41,469.19c7.23-8.89,13.71-16.38,18.82-21.47A28.22,28.22,0,0,0,578,444c-.62-.15-1.25-.3-1.88-.43l-1.69,6.93S567.36,459.05,567.41,469.19Z"/><path class="cls-17" d="M552.52,1073.57l-67.92-36.93s32.79-138.54,65.31-269.56a362.71,362.71,0,0,1,9.41-71.77C596.68,534,535.55,510.2,610.27,528.88a42.54,42.54,0,0,1,4.05,1.31A81,81,0,0,0,616,498.91,96.58,96.58,0,0,1,597.81,496c-24.07-6.49-30.34-17.32-30.4-26.79-32.44,39.94-79.79,108.14-84.51,114-4.27,5.34-50.68,358.7-84.52,620.06,74.86,29.72,179.49,60.77,256.9,82.3A393.73,393.73,0,0,1,552.52,1073.57Z"/><path class="cls-17" d="M614.32,530.19a42.54,42.54,0,0,0-4.05-1.31c-74.72-18.68-13.59,5.1-50.95,166.43a362.71,362.71,0,0,0-9.41,71.77c25.76-103.78,51.35-202.84,60.36-224.61A87.64,87.64,0,0,0,614.32,530.19Z"/><path class="cls-17" d="M586.23,447.72c-5.11,5.09-11.59,12.58-18.82,21.47.06,9.47,6.33,20.3,30.4,26.79A96.58,96.58,0,0,0,616,498.91C612.55,474.9,598.87,455.84,586.23,447.72Z"/><path class="cls-17" d="M774.24,1296.6a295.34,295.34,0,0,1-137.14-177l-84.58-46a393.73,393.73,0,0,0,102.76,212c60.53,16.84,104.43,27.86,104.43,27.86Z"/><path class="cls-17" d="M751.22,1279.48l23.43-12.12A302.36,302.36,0,0,1,664,1134.16l-26.87-14.61a295.34,295.34,0,0,0,137.14,177l1-1.13A269,269,0,0,1,751.22,1279.48Z"/><path class="cls-17" d="M834.43,1226.84,664,1134.16a302.36,302.36,0,0,0,110.68,133.2l44.82-23.18Z"/><path class="cls-17" d="M751.22,1279.48a269,269,0,0,0,24,16l15.62-18.11q-8.26-4.75-16.19-10Z"/><path class="cls-17" d="M774.65,1267.36q7.9,5.25,16.19,10l28.63-33.18Z"/></svg>