<svg id="Layer_1" data-name="Layer 1" xmlns="http://www.w3.org/2000/svg" xmlns:xlink="http://www.w3.org/1999/xlink" viewBox="0 0 116.02 116.02"><defs><style>.cls-1{fill:none;}.cls-2{clip-path:url(#clip-path);}.cls-3{fill:#fad365;}.cls-4{fill:url(#linear-gradient);}.cls-5{fill:#fff;}</style><clipPath id="clip-path"><path class="cls-1" d="M116,58A58,58,0,1,1,58,0,58,58,0,0,1,116,58Z"/></clipPath><linearGradient id="linear-gradient" x1="17.08" y1="122.45" x2="225.94" y2="122.45" gradientUnits="userSpaceOnUse"><stop offset="0" stop-color="#cc9d4e"/><stop offset="0.18" stop-color="#dbaf56"/><stop offset="0.46" stop-color="#ecc35e"/><stop offset="0.73" stop-color="#f7cf63"/><stop offset="1" stop-color="#fad365"/></linearGradient></defs><g class="cls-2"><path class="cls-3" d="M116,58A58,58,0,1,1,58,0,58,58,0,0,1,116,58Z"/><path class="cls-4" d="M95,39.39c-2.45-1.63-4.7-1.82-5.16,2.88-.18,1.76.32,3.08-.66,4.54-1.45,2.17-5.29,3.28-7.53,4.3-4.39,2-9.79,3.61-12.91-1.3-1.94-3-1.54-5.53-4.76-8-2.66-2-5.12-2-8.2-2.58-2.74-.55-6.34.73-9,.74-7,0-3.84-5.41-6.22-10-2.81-2.73-5.49-3.37-6.9-.23-1.53,3.39-.72,8.47-4.21,9.83-2.85,1.11-7.24-.37-9.66,1.58-2.24,1.8-3,6.56-1.93,9.2,3.06.16,4.57-3.09,8-1.09,2.58,1.5,3.54,4.58,3.83,7.76.82,9-6.49,9.52-11.52,5.34-1.11-.92-1,8.71-1,9.76.32,5.67,4.31,6.74,8.15,10.47L73.4,129.5l60.41,58.81,29.69,28.91,62.44-53.43L199,138.13,136.48,78.62,109.77,53.19l-9-8.61A47.79,47.79,0,0,0,95,39.39Z"/></g><path class="cls-5" d="M69.3,71.15c-2.44-4.33,5.58-6.53,8.18-6,2.21.46,5.6,1.78,5.85,4.4.22,2.2-1.86,3.93-2.24,6-.84,4.38,14.31.17,14.31.17s-1.85-9.26-.67-12.13,3.2-4,5.72-1.68S107,61.55,107,57s-4-7.25-6.57-4.89-4.54,1.18-5.72-1.68.67-12.13.67-12.13-15.15-4.21-14.31.17c.35,1.86,2.17,3,2.54,4.82.44,2.17-1.75,4-3.56,4.79a10.55,10.55,0,0,1-6.34.73c-2.09-.51-5.9-3.35-4.43-6s6.23-6.74-1.86-6.06A101.37,101.37,0,0,0,57,38s3.37,14.65-1.51,15.83a3,3,0,0,1-3.37-1.35,2.55,2.55,0,0,0-3.65-.77c-2.79,1.91-3.16,6.09-1.56,8.77,1.17,2,3.59,3.53,5.21,1.09a3,3,0,0,1,3.37-1.34C60.37,61.39,57,76,57,76s2.36.5,10.44,1.18S70.81,73.85,69.3,71.15Z"/><path class="cls-5" d="M36.94,28.48c.81,0,3.47.22,3.7,3a14.35,14.35,0,0,1-.2,3.09c-.45,3,.83,5.45,3.25,6.29a7.57,7.57,0,0,0,2.52.37c.85,0,1.69-.09,2.44-.16l.87-.09c1.91-.15,3.9-.38,5.92-.7,1.16,6.3.8,11.26-.42,11.55h0l-.12,0-.19,0a1,1,0,0,1-.91-.57,4.65,4.65,0,0,0-3.86-2.12,4.58,4.58,0,0,0-2.58.81c-3.81,2.61-4.18,8-2.15,11.44,1,1.61,2.75,3.32,4.94,3.32a4.37,4.37,0,0,0,3.65-2.14,1,1,0,0,1,.91-.56h.18l.15,0c.39.09,1.35,1.4,1.06,6.25a49.36,49.36,0,0,1-.66,5.35,52,52,0,0,0-7.19-.57H46.71a10.5,10.5,0,0,0-5.27,1c-1.82,1.08-2.53,3.42-1.93,6.42q.08.42.18.84c.51,2.37.46,3-.32,3.41a5,5,0,0,1-2.57.67,4.64,4.64,0,0,1-2.75-.83c-1.15-.85-1.1-1.46-.38-3.92.11-.36.21-.71.31-1.07a5.71,5.71,0,0,0-.82-4.49,4.22,4.22,0,0,0-3-1.9,16.37,16.37,0,0,0-1.64-.08c-1.05,0-2.13.09-3.09.16l-.66,0a49.24,49.24,0,0,0-5.2.66c-.2-1.56-.5-4.16-.84-8.23a14.18,14.18,0,0,1,0-2.07c.43.27.94.63,1.3.89A20.47,20.47,0,0,0,21.81,66a4.52,4.52,0,0,0,2.2.58c3.32,0,6-3.72,6.68-6.29a12.59,12.59,0,0,0-.84-7.63c-1-2.21-3.16-4.79-6.05-4.79a4.57,4.57,0,0,0-1,.1,7.86,7.86,0,0,0-3.12,1.59,8.27,8.27,0,0,1-1.2.78c-.3-1.45.09-5.35,1.21-9.93l2.07.26c.16,0,3.79.49,4.33.51l.41,0c.44,0,.94.06,1.48.06A6.41,6.41,0,0,0,32.16,40c2.12-1.81,1.6-4.62,1.3-6.31-.06-.29-.11-.57-.14-.83a5,5,0,0,1,.07-2.13,3.78,3.78,0,0,1,3.55-2.28m0-2a5.71,5.71,0,0,0-5.44,3.66,6.65,6.65,0,0,0-.16,3c.21,1.63,1,4.07-.48,5.36a4.55,4.55,0,0,1-2.85.7c-.66,0-1.29-.05-1.8-.07s-8-1-8-1-4,14.35-.16,14.35l.33,0c1.86-.36,3-2.18,4.82-2.55a2.75,2.75,0,0,1,.57,0c1.91,0,3.49,2,4.22,3.61a10.55,10.55,0,0,1,.73,6.34c-.43,1.76-2.53,4.76-4.74,4.76a2.41,2.41,0,0,1-1.22-.33c-1.53-.86-3.49-2.74-4.78-2.74-1,0-1.57,1.1-1.28,4.6A101.37,101.37,0,0,0,17.91,76.5a45.82,45.82,0,0,1,7-1c1.12-.09,2.4-.21,3.6-.21a12.8,12.8,0,0,1,1.41.07c1.69.19,2.51,2.43,2.13,3.88-.72,2.68-1.92,5.1.81,7.11a6.63,6.63,0,0,0,3.94,1.23,7.06,7.06,0,0,0,3.59-1c2.46-1.46,1.53-4.07,1.08-6.35-.26-1.33-.37-3.52,1-4.32a8.83,8.83,0,0,1,4.25-.76l1.51,0A49.76,49.76,0,0,1,57,76s3.37-14.65-1.51-15.83a2.78,2.78,0,0,0-.8-.11,3,3,0,0,0-2.57,1.45,2.39,2.39,0,0,1-2,1.25c-1.23,0-2.47-1.09-3.22-2.34-1.6-2.68-1.23-6.86,1.56-8.77a2.53,2.53,0,0,1,1.45-.47,2.65,2.65,0,0,1,2.2,1.24,3,3,0,0,0,2.57,1.45,3,3,0,0,0,.8-.1C60.21,52.67,57.22,39,57,38c-2.53.45-5.08.79-7.64,1-.93.07-2.08.24-3.16.24A5.78,5.78,0,0,1,44.35,39c-1.73-.61-2.18-2.49-1.94-4.11a15.52,15.52,0,0,0,.22-3.55c-.25-3.11-2.69-4.87-5.69-4.87ZM57.29,38H57V38l.28-.05Zm-39,.12Z"/></svg>