<svg id="Layer_1" data-name="Layer 1" xmlns="http://www.w3.org/2000/svg" xmlns:xlink="http://www.w3.org/1999/xlink" viewBox="0 0 116.02 116.02"><defs><style>.cls-1{fill:none;}.cls-2{fill:#fece66;}.cls-3{fill:#f5b540;}.cls-4{fill:#fff;}.cls-5{fill:#fd8369;}.cls-6{fill:#e24f3b;}.cls-7{fill:#343b43;}.cls-8{fill:#495057;}.cls-9{clip-path:url(#clip-path);}.cls-10{fill:#fad365;}.cls-11{fill:url(#linear-gradient);}</style><clipPath id="clip-path"><path class="cls-1" d="M-27.33,56.54a58,58,0,0,1-58,58,58,58,0,0,1-58-58,58,58,0,0,1,58-58A58,58,0,0,1-27.33,56.54Z"/></clipPath><linearGradient id="linear-gradient" x1="-124.87" y1="88.64" x2="21.35" y2="88.64" gradientUnits="userSpaceOnUse"><stop offset="0" stop-color="#c5653a"/><stop offset="0.09" stop-color="#cd693d"/><stop offset="0.4" stop-color="#e17343"/><stop offset="0.7" stop-color="#ed7947"/><stop offset="1" stop-color="#f17b48"/></linearGradient></defs><circle class="cls-2" cx="58.01" cy="58.01" r="58.01" transform="translate(-11.78 101.14) rotate(-76.72)"/><path class="cls-3" d="M115.57,65.15,76.85,26.44,74.72,24.3A25.18,25.18,0,0,0,41,61.75l.73.62a19.57,19.57,0,0,1,6.4,14.49v2.19H46.8V92.39a1.6,1.6,0,0,0,.45,1.12l0,0v0L68.76,115A58,58,0,0,0,115.57,65.15Z"/><path class="cls-4" d="M58,18A25.19,25.19,0,0,0,41,61.75c.24.19.48.4.73.62a19.57,19.57,0,0,1,6.4,14.49v2.19H67.85V76.86a19.51,19.51,0,0,1,6.41-14.49c.24-.22.48-.43.72-.62A25.19,25.19,0,0,0,58,18Z"/><path class="cls-5" d="M53,25.41a3.81,3.81,0,0,1,3.82,3.82V57a3.82,3.82,0,0,1-2.77,3.68h0c-.12,0-.23,0-.37.09l-.43.05H53a3.79,3.79,0,0,1-3.81-3.44h0a3.91,3.91,0,0,1-1.81.45,3.81,3.81,0,0,1-3.82-3.82,3.94,3.94,0,0,1,.23-1.3h-.23a3.84,3.84,0,0,1-2.94-6.28,3.82,3.82,0,0,1,.42-6.88,3.81,3.81,0,0,1,2.77-6.44h.07a3.84,3.84,0,0,1,3.67-4.9,4,4,0,0,1,1.67.37A3.82,3.82,0,0,1,53,25.41Z"/><path class="cls-5" d="M63,25.41a3.83,3.83,0,0,0-3.84,3.82V57a3.83,3.83,0,0,0,2.78,3.68h0c.11,0,.23,0,.37.09l.44.05H63a3.77,3.77,0,0,0,3.79-3.44h0a4,4,0,0,0,1.82.45,3.81,3.81,0,0,0,3.82-3.82,3.7,3.7,0,0,0-.23-1.3h.23a3.82,3.82,0,0,0,2.93-6.28,3.82,3.82,0,0,0-.4-6.88,3.81,3.81,0,0,0-2.78-6.44h-.07a3.81,3.81,0,0,0-3.68-4.9,4,4,0,0,0-1.66.37A3.81,3.81,0,0,0,63,25.41Z"/><path class="cls-6" d="M53,61.56a4.52,4.52,0,1,1,0-9,.7.7,0,0,1,0,1.39A3.13,3.13,0,1,0,56.16,57V29.23A3.13,3.13,0,1,0,53,32.36a.7.7,0,0,1,0,1.39,4.52,4.52,0,1,1,4.52-4.52V57A4.53,4.53,0,0,1,53,61.56Z"/><path class="cls-6" d="M47.42,58.57a4.52,4.52,0,0,1-4.52-4.52,4.45,4.45,0,0,1,.26-1.54.72.72,0,0,1,.66-.47,1,1,0,0,1,.24,0,.76.76,0,0,1,.39.36.72.72,0,0,1,0,.54,3.21,3.21,0,0,0-.19,1.07,3.12,3.12,0,0,0,4.61,2.76.64.64,0,0,1,.33-.08.69.69,0,0,1,.61.36.68.68,0,0,1-.28.94A4.52,4.52,0,0,1,47.42,58.57Z"/><path class="cls-6" d="M43.59,53.44A4.52,4.52,0,0,1,40.12,46a.67.67,0,0,1,.53-.25.7.7,0,0,1,.45.17.69.69,0,0,1,.08,1,3.11,3.11,0,0,0-.72,2,3.14,3.14,0,0,0,3.13,3.14h0a.41.41,0,0,0,.16,0,3.12,3.12,0,0,0,3-3.12.7.7,0,0,1,1.39,0,4.52,4.52,0,0,1-4.25,4.51Z"/><path class="cls-6" d="M53.09,49.62a.7.7,0,0,1-.69-.7,2.15,2.15,0,0,0-4.29,0,.7.7,0,1,1-1.39,0,3.54,3.54,0,0,1,7.07,0A.7.7,0,0,1,53.09,49.62Z"/><path class="cls-6" d="M42.51,47.65A4.52,4.52,0,1,1,47,43.13a.7.7,0,0,1-.7.7.69.69,0,0,1-.69-.7,3.13,3.13,0,1,0-3.13,3.13.7.7,0,0,1,0,1.39Z"/><path class="cls-6" d="M41.07,40.29a.7.7,0,0,1-.51-.22A4.46,4.46,0,0,1,39.33,37a4.52,4.52,0,0,1,4.51-4.52H44A4.21,4.21,0,0,1,48.2,35.8,2.34,2.34,0,0,0,50.36,38a.7.7,0,0,1,0,1.39A3.65,3.65,0,0,1,46.83,36a2.91,2.91,0,0,0-2.93-2.16h-.06a3.13,3.13,0,0,0-2.27,5.28.69.69,0,0,1,0,1A.71.71,0,0,1,41.07,40.29Z"/><path class="cls-6" d="M43.91,33.84a.69.69,0,0,1-.66-.51,4,4,0,0,1-.19-1.25,4.52,4.52,0,0,1,4.52-4.52,4.48,4.48,0,0,1,2,.45.69.69,0,0,1,.32.92.67.67,0,0,1-.62.4.73.73,0,0,1-.3-.07,3.12,3.12,0,0,0-4.49,2.82,2.9,2.9,0,0,0,.12.87.69.69,0,0,1-.48.86A.47.47,0,0,1,43.91,33.84Z"/><path class="cls-6" d="M63,61.56A4.53,4.53,0,0,1,58.47,57V29.23A4.53,4.53,0,1,1,63,33.75a.7.7,0,1,1,0-1.39,3.13,3.13,0,1,0-3.13-3.13V57A3.13,3.13,0,1,0,63,53.91a.7.7,0,1,1,0-1.39,4.52,4.52,0,0,1,0,9Z"/><path class="cls-6" d="M68.6,58.57A4.52,4.52,0,0,1,66.47,58a.69.69,0,0,1-.28-.94.7.7,0,0,1,.6-.36.68.68,0,0,1,.34.08,3.09,3.09,0,0,0,1.47.38,3.15,3.15,0,0,0,3.14-3.14A3,3,0,0,0,71.55,53a.68.68,0,0,1,0-.54.76.76,0,0,1,.39-.36,1,1,0,0,1,.24,0,.7.7,0,0,1,.65.46,4.34,4.34,0,0,1,.28,1.55A4.54,4.54,0,0,1,68.6,58.57Z"/><path class="cls-6" d="M72.43,53.44h-.27a4.51,4.51,0,0,1-4.24-4.51.69.69,0,1,1,1.38,0,3.12,3.12,0,0,0,3,3.12.62.62,0,0,0,.18,0,3.14,3.14,0,0,0,2.41-5.14.67.67,0,0,1-.16-.51.7.7,0,0,1,.24-.47.71.71,0,0,1,.45-.16.67.67,0,0,1,.53.25,4.52,4.52,0,0,1-3.47,7.41Z"/><path class="cls-6" d="M68.6,49.62a.7.7,0,0,1-.68-.7,2.15,2.15,0,0,0-4.3,0,.7.7,0,1,1-1.39,0,3.54,3.54,0,0,1,7.07,0A.7.7,0,0,1,68.6,49.62Z"/><path class="cls-6" d="M73.52,47.65a.7.7,0,1,1,0-1.39,3.13,3.13,0,1,0-3.13-3.13.7.7,0,0,1-1.4,0,4.52,4.52,0,1,1,4.53,4.52Z"/><path class="cls-6" d="M75,40.29a.71.71,0,0,1-.48-.19.69.69,0,0,1,0-1,3.13,3.13,0,0,0-2.27-5.28h-.06A2.91,2.91,0,0,0,69.19,36a3.65,3.65,0,0,1-3.53,3.43.7.7,0,0,1,0-1.39,2.33,2.33,0,0,0,2.15-2.24,4.24,4.24,0,0,1,4.26-3.35h.11A4.52,4.52,0,0,1,76.69,37a4.46,4.46,0,0,1-1.23,3.1A.7.7,0,0,1,75,40.29Z"/><path class="cls-6" d="M72.11,33.84a.46.46,0,0,1-.21,0,.69.69,0,0,1-.4-.32.7.7,0,0,1-.06-.53,3.26,3.26,0,0,0,.12-.87A3.13,3.13,0,0,0,68.43,29a3.08,3.08,0,0,0-1.36.31.73.73,0,0,1-.3.07.68.68,0,0,1-.62-.4.69.69,0,0,1,.32-.92,4.47,4.47,0,0,1,2-.45A4.52,4.52,0,0,1,73,32.08a4.47,4.47,0,0,1-.19,1.26A.68.68,0,0,1,72.11,33.84Z"/><polygon class="cls-4" points="58.01 98.06 51.21 93.99 64.82 93.99 58.01 98.06"/><path class="cls-7" d="M69.22,92.39a1.6,1.6,0,0,1-1.6,1.6H48.4a1.6,1.6,0,0,1-1.6-1.6V79.05H69.22Z"/><rect class="cls-8" x="46.8" y="80.71" width="22.42" height="1.65"/><rect class="cls-8" x="46.8" y="84.04" width="22.42" height="1.66"/><rect class="cls-8" x="46.8" y="87.35" width="22.42" height="1.66"/><rect class="cls-8" x="46.8" y="90.67" width="22.42" height="1.67"/><g class="cls-9"><path class="cls-10" d="M153.73,56.54a58,58,0,1,1-58-58A58,58,0,0,1,153.73,56.54Z"/><path class="cls-11" d="M-49.48,49.83A20.52,20.52,0,0,0-55,42a28.69,28.69,0,0,0-6.24-4l-8.38-8.38-.58-1-.07,0a29.3,29.3,0,0,0-2.29-3.11A29.26,29.26,0,0,0-76.23,22a29.42,29.42,0,0,0-2.71-2A29.66,29.66,0,0,0-95.24,15a29.66,29.66,0,0,0-29.63,29.63A29.64,29.64,0,0,0-110,70.32a28.48,28.48,0,0,0,4.74,2.21l11.91,11.92a5.35,5.35,0,0,0,1,2.26,5.27,5.27,0,0,0,3.15,1.91l73.64,73.63,36.9-41.59Z"/></g></svg>