<svg xmlns="http://www.w3.org/2000/svg" width="38" height="38" viewBox="0 0 38 38">
  <g id="instagram" transform="translate(-383 -8430)">
    <g id="Elipse_18" data-name="Elipse 18" transform="translate(383 8430)" fill="none" stroke="#9c9ca8" stroke-width="1">
      <circle cx="19" cy="19" r="19" stroke="none"/>
      <circle cx="19" cy="19" r="18.5" fill="none"/>
    </g>
    <g id="instagram-2" data-name="instagram" transform="translate(391 8439)">
      <g id="Grupo_2378" data-name="Grupo 2378">
        <g id="Grupo_2377" data-name="Grupo 2377">
          <path id="Caminho_9774" data-name="Caminho 9774" d="M14.438,0H6.563A6.563,6.563,0,0,0,0,6.563v7.875A6.563,6.563,0,0,0,6.563,21h7.875A6.563,6.563,0,0,0,21,14.438V6.563A6.563,6.563,0,0,0,14.438,0Zm4.594,14.438a4.6,4.6,0,0,1-4.594,4.594H6.563a4.6,4.6,0,0,1-4.594-4.594V6.563A4.6,4.6,0,0,1,6.563,1.969h7.875a4.6,4.6,0,0,1,4.594,4.594Z" fill="#0a243c"/>
        </g>
      </g>
      <g id="Grupo_2380" data-name="Grupo 2380" transform="translate(5.25 5.25)">
        <g id="Grupo_2379" data-name="Grupo 2379">
          <path id="Caminho_9775" data-name="Caminho 9775" d="M133.25,128a5.25,5.25,0,1,0,5.25,5.25A5.25,5.25,0,0,0,133.25,128Zm0,8.531a3.281,3.281,0,1,1,3.281-3.281A3.286,3.286,0,0,1,133.25,136.531Z" transform="translate(-128 -128)" fill="#0a243c"/>
        </g>
      </g>
      <g id="Grupo_2382" data-name="Grupo 2382" transform="translate(15.444 4.157)">
        <g id="Grupo_2381" data-name="Grupo 2381">
          <circle id="Elipse_28" data-name="Elipse 28" cx="0.7" cy="0.7" r="0.7" fill="#0a243c"/>
        </g>
      </g>
    </g>
  </g>
</svg>
