<?xml version="1.0" encoding="utf-8"?>
<!-- Generator: Adobe Illustrator 24.2.1, SVG Export Plug-In . SVG Version: 6.00 Build 0)  -->
<svg version="1.1" id="Camada_1" xmlns="http://www.w3.org/2000/svg" xmlns:xlink="http://www.w3.org/1999/xlink" x="0px" y="0px"
	 viewBox="0 0 116.7 62" style="enable-background:new 0 0 116.7 62;" xml:space="preserve">
<style type="text/css">
	.st0{enable-background:new    ;}
	.st1{fill:#0A243C;}
	.st2{fill:#79C4C8;}
</style>
<g class="st0">
	<path class="st1" d="M31.2,24.3c-0.7,2.2-1.4,6.5-1.4,9.4c0,2.9,0.6,3.6,2,3.6c1.5,0,2.8-1.3,3.6-2.2c0,0,0.1,0,0.1,0
		c0.2,0,0.5,0.3,0.5,0.7c0,1.8-3.8,4.3-6,4.3c-3.7,0-4.6-4.2-4.6-7.3c0-0.7,0-1.4,0.1-2.1c-0.7-0.4-2-0.9-3.1-0.9
		c-2.9,0-5.9,0.9-8.8,0.9c-0.2,0-0.4,0-0.6,0c-2.4,3-4.5,5.7-4.8,6.2c-0.6,0.9-1.1,1.3-1.5,1.3c-0.4,0-1-1.2-1-2.1
		c0-0.4,0.6-1.9,3.8-6.8c-1.2-0.9-1.5-2-1.5-4.1c0-1,0.2-2.1,0.7-2.1c0,0,1.3,1,3.6,1.9c6.1-8.4,16.9-20,19.3-20
		c1.2,0,1.8,1.8,2,2.1c1,1.4,2.6,2.1,2.6,2.6c0,0.1,0,0.3-0.1,0.5C34.5,13.8,33.1,18.1,31.2,24.3z M17.2,25.6c2-0.3,4.4-0.4,6-0.4
		c1.3,0,2.3,0.2,2.9,0.5c0.6-2.5,1.8-8.1,2.5-10.4C26.9,16.4,22.1,19.6,17.2,25.6z"/>
	<path class="st1" d="M46.7,34.6c-1.9,1.8-4.1,2.9-6.1,2.9c-1.6,0-4.6-1.4-5.2-2.7c-0.2-0.5-0.3-1.2-0.3-1.9
		c0-5.2,5.2-10.2,8.5-10.2c0.2,0,0.3,0,0.5,0c1,0.1,3.3,1.8,3.3,3.2c-0.1,1.2-1.2,3.4-2.1,3.4c-1.2,0-2.1-1.5-2.1-1.8
		c0-0.7,0.7-1.5,0.7-1.7c0-0.1-0.1-0.1-0.2-0.1c-0.6,0-4.5,3.7-4.5,7.2c0,1.2,0.4,2,1.9,2c2.1,0,4.2-1.5,6.6-4.6
		c0.3-0.3,0.6-0.5,0.8-0.5c0.5,0,1,0.5,1,1.1c0,0.2,0,0.4-0.1,0.6C49.2,31.8,48.1,33.3,46.7,34.6z"/>
	<path class="st1" d="M63.3,35.3c-1.4,1.3-3,3.1-5.1,3.1c-0.7,0-3.6-1.9-3.6-3.9c0-0.6,1.3-3.2,2.2-5c-1.2,1.2-1.6,1.4-4.2,3.8
		c-1.1,1-2.4,2.4-3.4,3.8c-0.2,0.3-0.4,0.4-0.8,0.4c-1.2,0-2.8-1.5-2.8-1.9c0-3.3,11.7-21.8,14.4-23.3c0.1-0.1,0.3-0.1,0.5-0.1
		c1.1,0,2.8,1.2,2.8,2.2c0,0.2-0.1,0.5-0.3,0.7c-1.6,1.6-7.3,10.2-10,15c2.7-2.3,7.5-7.2,8.8-7.2c1.3,0,2,2.2,2,3.6
		c0,0.5-0.1,0.9-0.3,1.2c-1.8,2.1-4.3,5.9-4.3,7.7c0,0.2,0.1,0.2,0.2,0.2c1.3,0,4.8-4.2,5.6-5.2c0.3-0.4,0.6-0.5,0.9-0.5
		c0.5,0,1,0.5,1,1.1c0,0.2-0.1,0.4-0.2,0.7C66.3,32.1,64.7,33.9,63.3,35.3z"/>
	<path class="st1" d="M76.6,34.6c-1.9,1.8-4.1,2.9-6.1,2.9c-1.6,0-4.6-1.4-5.2-2.7c-0.2-0.5-0.3-1.2-0.3-1.9
		c0-5.2,5.2-10.2,8.5-10.2c0.2,0,0.3,0,0.5,0c1,0.1,3.3,1.8,3.3,3.2c-0.2,2.6-3,5.8-4.7,5.8c-0.7,0-2.1-0.6-2.9-1.1
		c-0.4,1.1-0.6,1.9-0.6,2.5c0,1.3,0.6,1.8,2,1.8c2,0,4.1-1.6,6.5-4.6c0.3-0.3,0.6-0.5,0.8-0.5c0.5,0,1,0.5,1,1.1
		c0,0.2,0,0.4-0.1,0.6C79,31.8,78,33.3,76.6,34.6z M73.6,25.8c-0.4,0-1.7,1.1-2.8,2.8c0.3,0.2,0.8,0.4,1,0.4c0.8,0,2-2.2,2-2.9
		c0-0.1,0-0.2-0.1-0.2C73.7,25.8,73.7,25.8,73.6,25.8z"/>
	<path class="st1" d="M85.9,35.9c-1.5,1-3.1,1.7-4.5,1.7c-0.7,0-1.5-0.1-2.1-0.3c-1-0.3-2.5-2.2-2.5-3.8c0-2.4,5.3-9.9,6.3-10.5
		c0.2-0.1,0.4-0.1,0.6-0.1c1.3,0,2.8,1.5,2.8,2.4c0,0.6-1.9,2.8-3.7,5.9c-0.8,1.3-1.5,2.6-1.5,3.3c0,0.4,0.3,0.7,1,0.7
		c0.7,0,1.8-0.7,3.1-1.7c1.8-1.4,3.1-3.7,4.1-3.7c0.5,0,0.9,0.5,0.9,1c0,0.3-0.1,0.5-0.2,0.8C89.6,32.5,87.7,34.7,85.9,35.9z
		 M88.2,21.9c-1.2,0-2.5-1.4-2.5-2.4c0-1.3,2-3,2.7-3c1.3,0,2.5,1.1,2.5,1.9c0,0.7-0.4,1.4-0.7,2C89.5,21.4,88.9,21.9,88.2,21.9z"/>
</g>
<g class="st0">
	<path class="st1" d="M9.9,45c0,0.3-0.1,0.5-0.2,0.7c-0.1,0.1-0.3,0.2-0.6,0.2H6.4l-0.5,2.7h2.6l-0.1,0.9H5.8l-0.6,3.8H4.1L5.5,45
		H9.9z"/>
	<path class="st1" d="M12,53.5c-0.7,0-1.2-0.2-1.6-0.6c-0.4-0.4-0.5-1-0.5-1.7c0-0.7,0.1-1.4,0.4-2s0.6-1,1.1-1.4
		c0.5-0.3,1-0.5,1.6-0.5c0.4,0,0.8,0.1,1.1,0.3c0.3,0.2,0.5,0.5,0.7,0.8c0.2,0.4,0.2,0.8,0.2,1.2c0,0.7-0.1,1.4-0.4,2
		c-0.3,0.6-0.6,1-1.1,1.4C13.2,53.3,12.6,53.5,12,53.5z M11,51.1c0,0.5,0.1,0.8,0.3,1.1c0.2,0.3,0.5,0.4,0.8,0.4
		c0.4,0,0.7-0.1,1-0.4c0.3-0.3,0.5-0.6,0.7-1.1c0.2-0.4,0.2-0.9,0.2-1.5c0-0.5-0.1-0.8-0.3-1.1c-0.2-0.3-0.5-0.4-0.8-0.4
		c-0.4,0-0.7,0.1-1,0.4c-0.3,0.3-0.5,0.6-0.7,1.1C11.1,50.1,11,50.6,11,51.1z"/>
	<path class="st1" d="M18.6,48.2c0.5-0.6,1.1-0.9,1.6-0.9c0.3,0,0.5,0.1,0.7,0.2c0.2,0.1,0.2,0.3,0.2,0.5c0,0.2-0.1,0.4-0.4,0.6
		l-0.2,0.1c-0.1-0.3-0.4-0.5-0.7-0.5c-0.3,0-0.6,0.1-0.9,0.4c-0.3,0.3-0.5,0.6-0.5,1.1l-0.6,3.5h-1.1l1-5.9c0.1,0,0.2,0,0.2,0
		c0.4,0,0.7,0.2,0.7,0.6V48.2z"/>
	<path class="st1" d="M25.6,53.3l0.6-3.4c0-0.3,0.1-0.5,0.1-0.7c0-0.3-0.1-0.5-0.2-0.7c-0.1-0.2-0.3-0.2-0.6-0.2
		c-0.3,0-0.5,0.1-0.8,0.2c-0.2,0.1-0.5,0.3-0.6,0.5c-0.2,0.2-0.3,0.5-0.3,0.8l-0.6,3.6H22l1-5.9c0.1,0,0.2,0,0.2,0
		c0.4,0,0.7,0.2,0.7,0.6v0.1c0.2-0.3,0.5-0.5,0.9-0.7c0.3-0.2,0.7-0.2,1-0.2c0.5,0,0.9,0.1,1.1,0.4c0.3,0.3,0.4,0.7,0.4,1.2
		c0,0.3,0,0.6-0.1,0.9l-0.6,3.4H25.6z"/>
	<path class="st1" d="M33.4,52.8c-0.4,0.4-1.1,0.7-1.9,0.7c-0.7,0-1.3-0.2-1.6-0.6c-0.4-0.4-0.6-1-0.6-1.7c0-0.7,0.1-1.4,0.4-2
		c0.3-0.6,0.7-1,1.2-1.3c0.5-0.3,1-0.5,1.6-0.5c0.5,0,0.9,0.1,1.2,0.4c0.3,0.3,0.4,0.6,0.4,1.1c0,0.5-0.1,0.8-0.4,1.2
		c-0.3,0.3-0.7,0.6-1.2,0.8c-0.5,0.2-1,0.3-1.6,0.3c-0.3,0-0.5,0-0.6,0v0.2c0,0.5,0.1,0.9,0.4,1.1c0.2,0.3,0.6,0.4,1,0.4
		c0.6,0,1.2-0.3,1.6-0.8l0.2,0.1c0.2,0.1,0.3,0.3,0.3,0.4C33.6,52.5,33.5,52.6,33.4,52.8z M30.7,50.2c0.7,0,1.2-0.1,1.7-0.4
		c0.4-0.3,0.7-0.6,0.7-1c0-0.5-0.2-0.7-0.7-0.7c-0.5,0-0.9,0.2-1.2,0.6c-0.4,0.4-0.6,0.9-0.7,1.5C30.4,50.2,30.6,50.2,30.7,50.2z"/>
	<path class="st1" d="M39.4,52c0.2,0.1,0.3,0.3,0.3,0.4c0,0.1-0.1,0.3-0.2,0.4c-0.4,0.4-1,0.6-1.7,0.6c-0.7,0-1.2-0.2-1.6-0.6
		c-0.4-0.4-0.6-1-0.6-1.8c0-0.7,0.1-1.4,0.4-2c0.3-0.6,0.7-1,1.1-1.3s1-0.5,1.5-0.5c0.7,0,1.2,0.2,1.6,0.7c0.1,0.1,0.1,0.2,0.1,0.3
		c0,0.1,0,0.2-0.1,0.3c0,0.1-0.1,0.1-0.3,0.2l-0.2,0.1c-0.1-0.3-0.2-0.5-0.4-0.6c-0.2-0.1-0.5-0.2-0.8-0.2c-0.4,0-0.7,0.1-1,0.4
		c-0.3,0.3-0.5,0.6-0.7,1.1c-0.2,0.4-0.2,0.9-0.2,1.4c0,0.5,0.1,0.9,0.3,1.1c0.2,0.3,0.5,0.4,0.9,0.4c0.5,0,1-0.3,1.4-0.8L39.4,52z"
		/>
	<path class="st1" d="M45.6,52.8c-0.4,0.4-1.1,0.7-1.9,0.7c-0.7,0-1.3-0.2-1.6-0.6c-0.4-0.4-0.6-1-0.6-1.7c0-0.7,0.1-1.4,0.4-2
		c0.3-0.6,0.7-1,1.2-1.3c0.5-0.3,1-0.5,1.6-0.5c0.5,0,0.9,0.1,1.2,0.4c0.3,0.3,0.4,0.6,0.4,1.1c0,0.5-0.1,0.8-0.4,1.2
		c-0.3,0.3-0.7,0.6-1.2,0.8c-0.5,0.2-1,0.3-1.6,0.3c-0.3,0-0.5,0-0.6,0v0.2c0,0.5,0.1,0.9,0.4,1.1c0.2,0.3,0.6,0.4,1,0.4
		c0.6,0,1.2-0.3,1.6-0.8l0.2,0.1c0.2,0.1,0.3,0.3,0.3,0.4C45.9,52.5,45.8,52.6,45.6,52.8z M43,50.2c0.7,0,1.2-0.1,1.7-0.4
		c0.4-0.3,0.7-0.6,0.7-1c0-0.5-0.2-0.7-0.7-0.7c-0.5,0-0.9,0.2-1.2,0.6c-0.4,0.4-0.6,0.9-0.7,1.5C42.7,50.2,42.8,50.2,43,50.2z"/>
	<path class="st1" d="M52.4,52.1c0,0,0,0.1,0,0.1c0,0,0,0.1,0,0.1c0,0.1,0,0.2,0.1,0.3c0.1,0.1,0.1,0.1,0.3,0.1c0.1,0,0.2,0,0.2,0
		l0.1,0.5c-0.1,0-0.2,0.1-0.4,0.1s-0.3,0.1-0.4,0.1c-0.3,0-0.5-0.1-0.7-0.2c-0.2-0.1-0.3-0.3-0.3-0.6c-0.2,0.3-0.5,0.5-0.8,0.6
		c-0.3,0.2-0.6,0.2-0.9,0.2c-0.6,0-1-0.2-1.3-0.6c-0.3-0.4-0.5-0.9-0.5-1.7c0-0.7,0.1-1.4,0.4-2c0.3-0.6,0.7-1.1,1.2-1.4
		s1-0.5,1.6-0.5c0.2,0,0.4,0,0.6,0.1s0.4,0.1,0.5,0.2l0.5-3.2c0.1,0,0.2,0,0.2,0c0.5,0,0.7,0.2,0.7,0.7c0,0,0,0.1,0,0.2
		c0,0.1,0,0.1,0,0.2L52.4,52.1z M51,48.1c-0.4,0-0.8,0.1-1.1,0.4c-0.3,0.3-0.6,0.7-0.7,1.1c-0.2,0.5-0.3,1-0.3,1.5
		c0,0.5,0.1,0.8,0.3,1c0.2,0.2,0.4,0.3,0.8,0.3c0.2,0,0.5-0.1,0.7-0.2c0.2-0.1,0.4-0.3,0.6-0.5c0.1-0.2,0.2-0.5,0.3-0.8l0.4-2.6
		C51.7,48.2,51.4,48.1,51,48.1z"/>
	<path class="st1" d="M56.9,53.5c-0.7,0-1.2-0.2-1.6-0.6c-0.4-0.4-0.5-1-0.5-1.7c0-0.7,0.1-1.4,0.4-2s0.6-1,1.1-1.4
		c0.5-0.3,1-0.5,1.6-0.5c0.4,0,0.8,0.1,1.1,0.3c0.3,0.2,0.5,0.5,0.7,0.8c0.2,0.4,0.2,0.8,0.2,1.2c0,0.7-0.1,1.4-0.4,2
		s-0.6,1-1.1,1.4C58.1,53.3,57.5,53.5,56.9,53.5z M55.9,51.1c0,0.5,0.1,0.8,0.3,1.1c0.2,0.3,0.5,0.4,0.8,0.4c0.4,0,0.7-0.1,1-0.4
		c0.3-0.3,0.5-0.6,0.7-1.1c0.2-0.4,0.2-0.9,0.2-1.5c0-0.5-0.1-0.8-0.3-1.1c-0.2-0.3-0.5-0.4-0.8-0.4c-0.4,0-0.7,0.1-1,0.4
		c-0.3,0.3-0.5,0.6-0.7,1.1C56,50.1,55.9,50.6,55.9,51.1z"/>
	<path class="st1" d="M63.5,48.2c0.5-0.6,1.1-0.9,1.6-0.9c0.3,0,0.5,0.1,0.7,0.2S66,47.8,66,48c0,0.2-0.1,0.4-0.4,0.6l-0.2,0.1
		c-0.1-0.3-0.4-0.5-0.7-0.5c-0.3,0-0.6,0.1-0.9,0.4c-0.3,0.3-0.5,0.6-0.5,1.1l-0.6,3.5h-1.1l1-5.9c0.1,0,0.2,0,0.2,0
		c0.4,0,0.7,0.2,0.7,0.6V48.2z"/>
</g>
<g id="Grupo_1467" transform="translate(-40.861 -110.671)">
	<g id="Grupo_1466" transform="translate(0.177 0.136)">
		<path id="Caminho_7605" class="st2" d="M153.9,141.6l-5.5-5.5c-0.4-0.4-1-0.4-1.4,0l-0.7,0.7l-1.4-1.4c1.6-1.9,2.5-4.4,2.5-6.9
			c0-2.8-1.1-5.6-3.1-7.6c-1.6-1.6-3.7-2.7-5.9-3h0c-0.2,0-0.3,0-0.5-0.1c-0.1,0-0.2,0-0.3,0c-1.9-0.2-3.9,0.2-5.6,1.1
			c-0.4,0.2-0.8,0.4-1.1,0.6c-0.3,0.2-0.6,0.4-0.9,0.7c-0.3,0.2-0.5,0.5-0.8,0.7c-0.8,0.8-1.5,1.8-2,2.8c-1,2-1.3,4.2-1,6.4
			c0.4,2.2,1.4,4.3,3,5.9c0.2,0.2,0.3,0.3,0.5,0.5l0.3,0.3v0c0.3,0.3,0.7,0.6,1.1,0.8l0.1,0c1.7,1,3.6,1.6,5.6,1.6
			c2.5,0,4.9-0.9,6.9-2.5l1.4,1.4l-0.7,0.7c-0.2,0.2-0.3,0.4-0.3,0.7c0,0.3,0.1,0.5,0.3,0.7l5.5,5.5c0.5,0.5,1.3,0.9,2.1,0.9
			c0.8,0,1.5-0.3,2.1-0.9c0.6-0.6,0.9-1.3,0.9-2.1C154.8,142.9,154.5,142.2,153.9,141.6z M142.9,134.7c-1.6,1.7-3.9,2.6-6.2,2.6
			c-1.6,0-3.1-0.4-4.4-1.2l-0.1-0.1c-0.1-0.1-0.3-0.2-0.4-0.3c-0.2-0.1-0.4-0.3-0.6-0.4l-0.3-0.3c-0.1-0.1-0.3-0.2-0.4-0.4
			c-1.3-1.3-2.2-3-2.5-4.8c-0.3-1.8,0-3.6,0.8-5.3c0.4-0.9,1-1.6,1.6-2.3c0.2-0.2,0.4-0.4,0.7-0.6c0.2-0.2,0.5-0.4,0.7-0.5
			c0.3-0.2,0.6-0.4,0.9-0.5c1.4-0.7,3-1,4.6-0.9c0.2,0,0.5,0,0.7,0.1c0,0,0.1,0,0.1,0c1.8,0.3,3.4,1.2,4.7,2.4
			c1.7,1.6,2.6,3.9,2.6,6.2C145.5,130.9,144.6,133.1,142.9,134.7L142.9,134.7z"/>
	</g>
</g>
</svg>
