<svg id="Layer_1" data-name="Layer 1" xmlns="http://www.w3.org/2000/svg" xmlns:xlink="http://www.w3.org/1999/xlink" viewBox="0 0 116.02 116.02"><defs><style>.cls-1{fill:none;}.cls-2{clip-path:url(#clip-path);}.cls-3{fill:#3cb5bd;}.cls-4{fill:url(#linear-gradient);}.cls-5{fill:#fff;}</style><clipPath id="clip-path"><circle class="cls-1" cx="58.01" cy="58.01" r="58.01"/></clipPath><linearGradient id="linear-gradient" x1="17.4" y1="109.55" x2="187.78" y2="109.55" gradientUnits="userSpaceOnUse"><stop offset="0" stop-color="#36939a"/><stop offset="0.32" stop-color="#39a5ad"/><stop offset="0.66" stop-color="#3bb1b9"/><stop offset="1" stop-color="#3cb5bd"/></linearGradient></defs><g class="cls-2"><circle class="cls-3" cx="58.01" cy="58.01" r="58.01"/><path class="cls-4" d="M86.42,39.37a1.29,1.29,0,0,0-.4-.88l-4.89-4.66a1.35,1.35,0,0,0-.55-.3,1.51,1.51,0,0,0-.37-.07H60.26V31.05a1.33,1.33,0,0,0-1.33-1.33H54.61a1.33,1.33,0,0,0-1.33,1.33v2.41h-20a1.33,1.33,0,0,0-.92.37l-4.89,4.65a1.35,1.35,0,0,0-.32,1.46,1.08,1.08,0,0,0,.11.18v1.55a4.61,4.61,0,0,0-2.49,7.07l-7.1,20-.29.82.75.59a11.6,11.6,0,0,0,2.41,1.47L138.33,189.37l49.45-48.63Z"/></g><path class="cls-5" d="M93.65,48.11a1.09,1.09,0,0,0-.45-.54,3.83,3.83,0,0,0,.49-1.84,3.75,3.75,0,0,0-2.82-3.63,1.09,1.09,0,0,0,.19-.59V39.08a1.44,1.44,0,0,0,.62-.56,1.67,1.67,0,0,0-.06-1.71,2.91,2.91,0,0,0-.83-.9l-.18-.14-4.38-4H61.6V27.54H54.44v4.24H29.77L25.13,36l-.18.16a3.75,3.75,0,0,0-.75.78c-.79,1.19-.24,1.87,0,2.11a1.24,1.24,0,0,0,.71.3v2.15a1.09,1.09,0,0,0,.19.59,3.76,3.76,0,0,0-2.83,3.63,3.66,3.66,0,0,0,.5,1.83,1.11,1.11,0,0,0-.45.55l-8.55,24.1.63.5c3,2.38,7.2,3.32,11.29,3.32A26.32,26.32,0,0,0,33.23,75S37.4,73.62,38,72.44l.22-.51-.14-.44s0,0-8.24-23.06l-2.13.77s4.16,11.64,6.57,18.36H17.86l6.55-18.47a3.75,3.75,0,1,0,2.61-7,1.09,1.09,0,0,0,.19-.59V39.32H54.44V80.77H49.53v8.68H66.88V80.77H61.6V39.32H88.8v2.19a1.09,1.09,0,0,0,.19.59,3.76,3.76,0,0,0,.94,7.4,3.7,3.7,0,0,0,1.66-.41l6.56,18.47H81.73C84.14,60.84,88.3,49.2,88.3,49.2l-2.13-.77-8.23,23h0l-.15.55.22.43C78.6,73.61,82.73,75,82.78,75A26.27,26.27,0,0,0,90.28,76c4.08,0,8.28-.94,11.28-3.32l.64-.5Z"/></svg>