<svg id="Layer_1" data-name="Layer 1" xmlns="http://www.w3.org/2000/svg" xmlns:xlink="http://www.w3.org/1999/xlink" viewBox="0 0 1534.5 1534.5"><defs><style>.cls-1{fill:url(#Gradiente_sem_nome_2);}.cls-2{fill:url(#Gradiente_sem_nome_3);}.cls-3{fill:#3d639a;}.cls-4{fill:#374a68;}.cls-5{fill:#a6a4a4;opacity:0.14;}.cls-6{fill:#5471a9;}.cls-7{fill:#4670b6;}.cls-8{fill:#f9c0bd;}.cls-9{fill:#1c213d;}.cls-10{fill:#ff7a00;}.cls-11{fill:#ff9a00;}</style><linearGradient id="Gradiente_sem_nome_2" x1="3635.56" y1="2673.78" x2="3636.89" y2="2673.78" gradientTransform="matrix(801.55, 801.55, 578.57, -578.57, -4450919.53, -1357011.46)" gradientUnits="userSpaceOnUse"><stop offset="0" stop-color="#0f467a"/><stop offset="1" stop-color="#ea8eb4"/></linearGradient><linearGradient id="Gradiente_sem_nome_3" x1="3625.41" y1="2674.78" x2="3626.43" y2="2674.78" gradientTransform="matrix(1033.93, -460.4, -391.13, -878.37, -2701005.36, 4019398.87)" gradientUnits="userSpaceOnUse"><stop offset="0" stop-color="#79c4c8"/><stop offset="1" stop-color="#c56a93"/></linearGradient></defs><path id="Caminho_7881" data-name="Caminho 7881" class="cls-1" d="M276.48,587.76c54.88,52.06,134.32,48.66,181.3,121.55,49.19,76.3-86,274.64.07,467.2,66.85,149.58,296.56,384.25,640.27,273.38s525.22-461.57,365.35-650.51c-115.9-137-260.69-187.72-361.53-294.75-93.57-99.31-108.13-284.27-196.3-375.35C763.44-17.62,561,40.82,429.14,113.6,303.5,183,114.68,434.26,276.48,587.76Z"/><path id="Caminho_7759" data-name="Caminho 7759" class="cls-2" d="M259.45,1335.12c56.18-12.51,87.68-66,153.69-64,69.1,2.11,137.28,179.69,295.53,209.93,122.92,23.48,368.66-21.38,444.16-296.12S1083.4,633.77,896.17,653.48C760.44,667.77,667,739.71,556.58,757.59,454.13,774.19,331,700.6,236,717.36c-153.16,27-202,185.79-211.79,304.77C14.87,1135.52,93.82,1372,259.45,1335.12Z"/><path class="cls-3" d="M440.58,701.25a12.64,12.64,0,0,0,10.55,14.32l27.14,3.87a12.28,12.28,0,0,0,12.56-6.5l4.34-8.17L442,691.12Z"/><path class="cls-4" d="M439.84,501.66c6.93-53.8-7.53-74.43-9-76.42l.38-2.8-9.54-4.57L325,371.57a132.35,132.35,0,0,1,8.43,23.21L408.94,431a5.56,5.56,0,0,1,2.6,7.31,5.32,5.32,0,0,1-7.13,2.66l-67.87-32.51c3.79,19.39,6.13,45.71,3.11,79.73-.35,4-.78,7.76-1.24,11.46-.11.91-.23,1.81-.34,2.71-.48,3.59-1,7.1-1.56,10.43,0,.09,0,.17-.05.26-.56,3.27-1.18,6.37-1.82,9.39-.16.77-.33,1.54-.5,2.29-.66,3-1.36,5.92-2.09,8.67,0,0,0,.06,0,.09s0,.17-.08.27c-.78,2.92-1.61,5.67-2.46,8.32l-.51,1.62q-1.29,3.9-2.65,7.44c-.17.45-.35.87-.52,1.31-.87,2.21-1.76,4.32-2.66,6.31-.1.21-.19.43-.28.64-1,2.1-2,4.06-2.94,5.94-.22.4-.42.8-.63,1.18-1,1.81-2,3.53-3,5.13-.13.22-.27.42-.4.63-.93,1.48-1.85,2.86-2.76,4.16-.17.23-.33.48-.49.7q-1.47,2-2.9,3.79l-.61.74c-1,1.15-1.91,2.25-2.84,3.23l-.06.06c-.39.43-.78.81-1.17,1.2l102.42-17,3.08,3.76s.3-.2.74-.56C415.13,569.29,433.31,552.39,439.84,501.66Z"/><path class="cls-4" d="M404.41,440.94a5.32,5.32,0,0,0,7.13-2.66,5.56,5.56,0,0,0-2.6-7.31l-75.55-36.19c1.11,4.07,2.17,8.65,3.15,13.65Z"/><path class="cls-5" d="M404.41,440.94a5.32,5.32,0,0,0,7.13-2.66,5.56,5.56,0,0,0-2.6-7.31l-75.55-36.19c1.11,4.07,2.17,8.65,3.15,13.65Z"/><path class="cls-6" d="M565.48,590.47a103.8,103.8,0,0,1,6.8,11.76l11,1.56A9.63,9.63,0,0,0,594,595.43l3.54-26.1,6.48-47.81,6.48-47.82,3.54-26.1a9.8,9.8,0,0,0-8.15-11.06L442.08,413.18a9.63,9.63,0,0,0-10.78,8.36l-.12.9-.38,2.8c1.51,2,16,22.62,9,76.42-6.53,50.73-24.71,67.63-28.49,70.65a9.69,9.69,0,0,0,8.07,8.12l25,3.56-.09.68A10.22,10.22,0,0,0,445,590C466.45,588,558.47,580,565.48,590.47Z"/><path class="cls-6" d="M622.05,572.73c13.48.86,25.63-9.14,27.52-23.07l2.88-21.25,2.88-21.24c1.89-13.93-7.15-26.95-20.34-29.9L628.52,525Z"/><path class="cls-4" d="M597.58,569.33l22.49,3.2c.66.1,1.32.16,2,.2L628.52,525,635,477.27c-.65-.14-1.3-.27-2-.37l-22.48-3.2-6.48,47.82Z"/><path class="cls-7" d="M306.34,584.87c.93-1,1.88-2.08,2.84-3.23l.61-.74q1.43-1.75,2.9-3.79c.16-.22.32-.47.49-.7.91-1.3,1.83-2.68,2.76-4.16.13-.21.27-.41.4-.63,1-1.6,2-3.32,3-5.13.21-.38.41-.78.63-1.18,1-1.88,2-3.84,2.94-5.94.09-.21.18-.43.28-.64.9-2,1.79-4.1,2.66-6.31.17-.44.35-.86.52-1.31q1.37-3.54,2.65-7.44l.51-1.62c.85-2.65,1.68-5.4,2.46-8.32,0-.1.05-.18.08-.27s0-.06,0-.09c.73-2.75,1.43-5.67,2.09-8.67.17-.75.34-1.52.5-2.29.64-3,1.26-6.12,1.82-9.39,0-.09,0-.17.05-.26.57-3.33,1.08-6.84,1.56-10.43.11-.9.23-1.8.34-2.71.46-3.7.89-7.48,1.24-11.46,3-34,.68-60.34-3.11-79.73-1-5-2-9.58-3.15-13.65A132.35,132.35,0,0,0,325,371.57c-1.51-3.08-2.51-4.67-2.51-4.67L264.8,339.29c15.69,16.38,21.28,72.53,12.22,137.45-10.52,75.35-36.76,133.83-58.6,130.62l-.56-.07v0a13.8,13.8,0,0,0,4.76,0l68.8-11.44.22-.08a.51.51,0,0,0,.12-.05c.18-.07.43-.17.76-.32l.16-.08c.32-.14.69-.33,1.12-.55l.19-.1c.46-.25,1-.55,1.56-.89l.38-.24c.61-.38,1.25-.8,2-1.3l.21-.16c.66-.47,1.36-1,2.09-1.58l.44-.35c.78-.64,1.6-1.35,2.45-2.13l.51-.48c.5-.48,1-1,1.53-1.5s.78-.77,1.17-1.2Z"/><path class="cls-4" d="M277,476.74c9.06-64.92,3.47-121.07-12.22-137.45a14.66,14.66,0,0,0-8.3-4.78c-2.07-.3-15.62-.67-18.42.06a11.84,11.84,0,0,1,2.3-.06c21.85,3.21,31,66.89,20.52,142.23-9.49,68-31.76,122-52.07,129.66,3.68.45,7.28.69,9,.89l.56.07C240.26,610.57,266.5,552.09,277,476.74Z"/><path class="cls-7" d="M260.9,476.74c10.51-75.34,1.33-139-20.52-142.23a11.84,11.84,0,0,0-2.3.06c-21.35,1-46.15,57.82-56.3,130.55-10.52,75.35-1.33,139,20.52,142.24a13.18,13.18,0,0,0,6.53-1C229.14,598.78,251.41,544.71,260.9,476.74ZM205,588c-18.75-2.75-26.64-57.41-17.61-122.07s31.54-114.86,50.29-112.1,26.64,57.41,17.61,122.07S223.75,590.77,205,588Z"/><path class="cls-4" d="M255.29,475.92c9-64.66,1.15-119.32-17.61-122.07S196.42,401.29,187.39,466,186.25,585.27,205,588,246.27,540.58,255.29,475.92Z"/><path class="cls-8" d="M1120.64,694.74c-52.8-33.82-78.16-38.67-78.16-38.67l-10.08-85.7.47-3.23c-11.22-23,5.61-106.45,5.61-106.45s42.07-11.51,47.68-54.66-47.68-43.16-47.68-43.16-22.44-14.38-25.24-28.77,28-28.76,2.8-54.66-159.86-71.92-159.86-71.92-49.95,55.69-73.41,76.9c10,64.52,31.91,201.17,42.55,225.18,14,31.65,112.19,60.42,112.19,60.42l-8.41,86.31c-19,2-42.55,12.48-65.06,25.06,15.34,14.4,51.67,44.69,95.91,55.49C1004.51,747.77,1084.39,712.54,1120.64,694.74Z"/><path class="cls-8" d="M443.58,661.28a9.78,9.78,0,0,1-8.15-11.06l2.85-21a9.63,9.63,0,0,1,10.78-8.36l2.37.33,3.36-24.78-2.08-.3a9.9,9.9,0,0,1-7.68-6l-4.45.43-9.86,97.77L442,691.12l4-29.5Z"/><path class="cls-8" d="M570.93,1123.39l-.84-1L575,713.74s23-59.78-2.71-111.51l-12.82-1.83-.09.68a9.94,9.94,0,0,1-11.12,8.62l-2.36-.34-6.49,12.22-11.6,21.8L522.15,654l-12.43,23.38-14.55,27.36,1.29.33s-27.34,474.84-18.93,529.5c7.77,50.48,80.12,88.69,91.15,94.24C552.81,1317.12,559.42,1179.91,570.93,1123.39Z"/><path class="cls-8" d="M438.28,629.18l-2.85,21a9.78,9.78,0,0,0,8.15,11.06l2.37.34,5.48-40.47-2.37-.33A9.63,9.63,0,0,0,438.28,629.18Z"/><path class="cls-8" d="M480.62,673.27a12.41,12.41,0,0,1-10.35-14.06A12.21,12.21,0,0,1,484,648.58L522.15,654l5.65-10.65-42.31-6a12.41,12.41,0,0,1-10.36-14.05,12.21,12.21,0,0,1,13.71-10.63l44.77,6.39a11.87,11.87,0,0,1,5.79,2.52l6.49-12.22-91.1-13-3.36,24.78L446,661.62l-4,29.5,53.22,13.65,14.55-27.36Z"/><path class="cls-8" d="M488.84,612.67a12.21,12.21,0,0,0-13.71,10.63,12.41,12.41,0,0,0,10.36,14.05l42.31,6,11.6-21.8a11.87,11.87,0,0,0-5.79-2.52Z"/><path class="cls-8" d="M470.27,659.21a12.41,12.41,0,0,0,10.35,14.06l29.1,4.14L522.15,654,484,648.58A12.21,12.21,0,0,0,470.27,659.21Z"/><path class="cls-8" d="M452.71,596.07l2.08.3,91.1,13,2.36.34a9.94,9.94,0,0,0,11.12-8.62l.09-.68,12.82,1.83a103.8,103.8,0,0,0-6.8-11.76c-7-10.47-99-2.45-120.45-.43A9.9,9.9,0,0,0,452.71,596.07Z"/><path class="cls-9" d="M884.22,173l120.6,17.26L1108.6,348.49l-22.44,135.22-53.29,83.43c11.22,23,50.49,11.51,44.88-11.51s139.88-112.7,109.38-256c-33.66-158.23-244-201.39-305.71-207.14S760.81,170.11,755.2,198.89,758,302.46,774.84,291a83.15,83.15,0,0,0,7.93-6.53c-3.17-20.52-5.13-33.75-5.13-33.75Z"/><path class="cls-9" d="M856.18,207.52s134.62,46,159.86,71.92-5.61,40.28-2.8,54.66,25.24,28.77,25.24,28.77,53.29,0,47.68,43.16-47.68,54.66-47.68,54.66-16.83,83.43-5.61,106.45l53.29-83.43,22.44-135.22L1004.82,190.25,884.22,173,777.64,250.67s2,13.23,5.13,33.75C806.23,263.21,856.18,207.52,856.18,207.52Z"/><path class="cls-10" d="M1170.86,712.93a246.49,246.49,0,0,0-31.41-27.83s-7.15,3.92-18.81,9.64c13.93,8.93,29.78,19.88,47.57,33.28A87.92,87.92,0,0,1,1170.86,712.93Z"/><path class="cls-10" d="M1178.72,987.18c0-10.46-9.26-109.59-11.58-187.41L889.83,834.7,786.05,734s37.24-29.84,78-52.62c-5.08-4.77-7.86-7.8-7.86-7.8s-68.06,22.59-92.57,52.15c-.15,7.88-2.87,149.56-5.6,160.75C755.2,898,685.09,1226,685.09,1226s-2.66,3.14-7.17,8.31c-10.68,83.46-18.08,158.74-18.08,207.46,0,10.29-.15,20.74-.43,31.28a769,769,0,0,0,579.9-86.27l-24.13.33S1178.72,1004.44,1178.72,987.18Z"/><path class="cls-10" d="M756.84,736.74c2.83-4.76,4.89-8.21,5.95-10A40.18,40.18,0,0,0,756.84,736.74Z"/><path class="cls-10" d="M889.83,834.7l277.31-34.93c-.85-28.63-.76-54.37,1.07-71.75-17.79-13.4-33.64-24.35-47.57-33.28-36.25,17.8-116.13,53-160.69,42.14-44.24-10.8-80.57-41.09-95.91-55.49-40.75,22.78-78,52.62-78,52.62Z"/><path class="cls-11" d="M1175.91,705.24c-2.07.53-3.73,3.22-5.05,7.69,121.13,127.63,40.3,329.71,61.15,377.82,12.51,28.87,19.79,161.47,23.29,286.13,1.79-1.14,3.57-2.27,5.34-3.42l-3.39-29.53,40.31,4.13a771.22,771.22,0,0,0,104.43-92c-14.64-91.42-32.18-203.41-35.35-234.34C1361,967,1212.92,695.74,1175.91,705.24Z"/><path class="cls-11" d="M1260.64,1373.46q18.84-12.17,36.92-25.4l-40.31-4.13Z"/><path class="cls-11" d="M1170.86,712.93a87.92,87.92,0,0,0-2.65,15.09q9.12,6.87,18.92,14.61l22.44,51.79-42.43,5.35c2.32,77.82,11.58,177,11.58,187.41,0,17.26,36.46,399.9,36.46,399.9l24.13-.33q8.06-4.85,16-9.87c-3.5-124.66-10.78-257.26-23.29-286.13C1211.16,1042.64,1292,840.56,1170.86,712.93Z"/><path class="cls-11" d="M1167.14,799.77l42.43-5.35-22.44-51.79q-9.81-7.75-18.92-14.61C1166.38,745.4,1166.29,771.14,1167.14,799.77Z"/><path class="cls-11" d="M570.09,1329.54l-1.41-.7A3.88,3.88,0,0,0,570.09,1329.54Z"/><path class="cls-11" d="M756.84,736.74c-22.5,37.77-94.08,158.59-108.22,190-16.82,37.41-50.48,178.38-67.31,172.62-3.59-1.22-7.17,8.27-10.38,24l38.43,45-39.27,161.11c18.64,4.78,85.67-69.86,107.83-95.26,26.52-207.27,73.28-465,77.28-491.65A26.42,26.42,0,0,1,756.84,736.74Z"/><path class="cls-11" d="M763.62,725.38s-.29.47-.83,1.38c.27-.35.54-.69.82-1Z"/><path class="cls-11" d="M570.93,1123.39c-11.51,56.52-18.12,193.73-2.25,205.45l1.41.7,39.27-161.11Z"/><path class="cls-11" d="M758,886.49c2.73-11.19,5.45-152.87,5.6-160.75-.28.33-.55.67-.82,1-1.06,1.77-3.12,5.22-5.95,10a26.42,26.42,0,0,0-1.64,5.89c-4,26.67-50.76,284.38-77.28,491.65,4.51-5.17,7.17-8.31,7.17-8.31S755.2,898,758,886.49Z"/></svg>