<?xml version="1.0" encoding="utf-8"?>
<!-- Generator: Adobe Illustrator 25.2.3, SVG Export Plug-In . SVG Version: 6.00 Build 0)  -->
<svg version="1.1" id="Camada_1" xmlns="http://www.w3.org/2000/svg" xmlns:xlink="http://www.w3.org/1999/xlink" x="0px" y="0px"
	 viewBox="0 0 1001.6 853.4" style="enable-background:new 0 0 1001.6 853.4;" xml:space="preserve">
<style type="text/css">
	.st0{fill:#63C0C4;}
	.st1{fill:#212B53;}
	.st2{fill:#F7B58E;}
	.st3{fill:#053C5E;}
	.st4{fill:#FFD147;}
	.st5{fill:#FFFFFF;}
	.st6{fill:#F39F85;}
	.st7{fill:#00666B;}
	.st8{fill:#01888B;}
	.st9{fill:#F49B42;}
	.st10{fill:#E7375E;}
	.st11{fill:url(#SVGID_1_);}
	.st12{fill:#AFD8C7;}
	.st13{fill:#197272;}
	.st14{fill:url(#SVGID_2_);}
	.st15{fill:url(#SVGID_3_);}
</style>
<g id="proposito" transform="translate(16.272 -1140)">
	<path id="Caminho_8633" class="st0" d="M813.5,1344.7c-50.1,4-83.6,44.8-140.4,35.7c-59.5-9.5-97.5-164.2-230.8-207
		c-103.5-33.2-321.2-23.8-418.8,195.1c-97.6,218.9-4.7,464,159.4,468.7c119,3.5,204.6-78.5,302.2-80.9
		c90.5-2.2,193.8,84.4,276,102.3c130.9,28.5,196.4-131.1,218.9-228.4C1001.4,1537.4,961,1332.8,813.5,1344.7z"/>
</g>
<g>
	<g>
		<path class="st1" d="M769.8,776.1c0,0-5.2,7.2-29.8,13.5c-5.4,1.4-11.2,2.3-11.2,11.2c11.5,0,24.3,0,24.3,0l24.8-4.3v4.3h13.4
			c0,0,3.7-21.9-4.1-24.7C779.8,776.1,769.8,776.1,769.8,776.1z"/>
		<path class="st2" d="M768.5,760.4l1.3,15.7l0,0c4.9,3.4,11.3,3.6,16.4,0.5l0.9-0.5v-15.7H768.5z"/>
	</g>
	<g>
		<path class="st1" d="M894.2,779.3c0,0-5.2,7.2-29.8,13.5c-5.4,1.4-11.2,2.3-11.2,11.2c11.5,0,24.3,0,24.3,0l24.8-4.3v4.3h13.4
			c0,0,3.7-21.9-4.1-24.7C904.2,779.3,894.2,779.3,894.2,779.3z"/>
		<path class="st2" d="M892.9,763.5l1.3,15.7l0,0c4.9,3.4,11.3,3.6,16.4,0.6l0.9-0.6v-15.7H892.9z"/>
	</g>
	<path class="st1" d="M758.6,373.7l6,395.2h28.8c0,0,43.8-319.1,34.5-395.2S758.6,373.7,758.6,373.7z"/>
	<path class="st3" d="M789,373.7c0,0,10,121.4,33,188.6c23,67.2,64.6,206.7,64.6,206.7h29.8c0,0-49.8-291.5-38.4-395.3l0,0H789z"/>
	<path class="st4" d="M763.1,172.5c0,0-35.5,82.7-44.5,82.7c-7.2,0,2.7-67.6,2.7-67.6h-29.7c0,0-37.4,115.8-7.7,137
		c29.7,21.2,95-59.9,95-59.9L763.1,172.5z"/>
	<path class="st2" d="M868.9,384.2l-10.8,26.6c-5.2,10.4-24.2,10.7-36.8,7.4c-1.9-0.5-2.6-2.9-1.2-4.3c6.9-7.6,24.9-27.1,31.2-31.5
		L868.9,384.2z"/>
	<path class="st4" d="M792.5,155.2c-11.6,0.1-22.7,5.9-28.6,15.8c-2.1,3.5-3.5,7.3-3.5,11.4c0,14.4,0,191.3,0,191.3H869V194.8
		c0,0-2.2-39.8-41.1-39.8C811.4,155.1,800,155.1,792.5,155.2z"/>
	<g>
		<polygon class="st5" points="762.2,373.7 762.2,202 758.6,202.1 758.6,373.7 		"/>
	</g>
	<path class="st6" d="M832.2,118.6l-11.6,43.6c0,0-9.9,8-23,4.5c-13.1-3.5-10.6-12.9-10.6-12.9l7.4-27.9l20.7,0.1L832.2,118.6z"/>
	<path class="st2" d="M790.6,133.7c-4-1.2-7.6-2.8-9-5.1c-6.7-21.6,19.8-68,19.8-68l40.2,18.8l-7.5,33.8c-2,9-8.2,16.6-16.7,20.3
		l0,0C808.6,136.1,799.3,136.3,790.6,133.7z"/>
	<path class="st1" d="M847.1,63.8c-7.2-6.7-11.4-5.1-25-6.6C802,54.9,792.4,47,792.4,47s-13.7,13.7,0.3,20.3
		c14,6.5,28.7,7.6,28.7,7.6l-10,40.5c2.9,2,5.6,4.2,8.1,6.8l6.1-22.9c0.7-2.5,2.6-4.6,5.1-5.1c2.3-0.5,5,0.3,6.4,4.9
		c-2.2,8.2-7.8,31.2-8.5,34.5c0.1,0.2,0.2,0.4,0.3,0.5l1.9,0.5l17.9-41.9C848.7,92.8,856.9,72.9,847.1,63.8z"/>
	<path class="st2" d="M697.3,187.7l1-5.7c2.3-12.6,14.4-28.4,26.6-32.5h12.6l-3.9,27l-17.8,11.2H697.3z"/>
	<path class="st2" d="M834.7,94.1c-3.2-1.1-7.1,1.1-8.8,5.1c-1.7,3.9-0.5,8,2.7,9.2c3.2,1.1,7.1-1.1,8.8-5.1
		C839,99.3,837.8,95.2,834.7,94.1z"/>
	<path class="st2" d="M728.4,173.5l-24.6,14.2c0,0,15.4-0.2,15.7,0l26-21.8c0,0-1.9-3.8-7.8-0.6
		C731.8,168.5,728.4,173.5,728.4,173.5z"/>
	<path class="st4" d="M857.4,167.1c0,0,61.4,68.2,61.4,109.1c0,40.9-49.8,112.9-49.8,112.9l-24.6-7.2c0,0,22.2-89.2,22.2-112.9
		c0-23.7-45.6-58.5-45.6-58.5"/>
	<g>
		<path class="st5" d="M864.8,269c0,20.4-18.1,95.1-22.3,112.5c1.2,0.3,1.8,0.4,3.6,0.9c5.2-21.5,22.3-93.3,22.3-113.4
			c0-24.3-44.4-58.5-46.3-59.9l-2.2,2.9C820.3,212.3,864.8,246.4,864.8,269z"/>
	</g>
	<g>
		<path class="st7" d="M744.5,132.7c0,0,1.7,26.8-17.1,45.9c-1.2,1.2-3,1.9-4.9,2c-3.8,0-6.3-1.6-8.3-2.5c-2.9-1.2-4.1-2.9-4.6-4.3
			c-0.4-1.2-0.1-2.4,0.8-3.5c3.9-4.5,16.1-20,13.4-35.5C733.3,128.9,744.5,132.7,744.5,132.7z"/>
		<path class="st8" d="M712.1,176.9c-1.7-1.2-2-1.8-2.5-3.1c-0.4-1.2-0.1-2.4,0.8-3.5c3.9-4.5,16.1-20,13.4-35.5
			c3.4-2.1,6.9-2.9,10.1-3.2C732.4,148,727.5,158.5,712.1,176.9z"/>
		<g>
			<g>
				<path class="st7" d="M727.3,152.5c-1.2,3.7-3.4,6.2-4.8,5.7c-1.4-0.5-1.6-3.8-0.4-7.5c1.2-3.7,3.4-6.2,4.9-5.7
					C728.4,145.5,728.5,148.9,727.3,152.5z"/>
				<polygon class="st9" points="727.2,145.2 725.7,144.6 725.7,145.4 726.7,145.9 				"/>
				<polygon class="st10" points="722.8,158.3 721,157.7 723.1,157.7 				"/>
			</g>
			<path class="st0" d="M726.1,152.1c-1.2,3.7-3.4,6.2-4.9,5.7c-1.4-0.5-1.6-3.8-0.4-7.5c1.2-3.7,3.4-6.2,4.8-5.7
				C727.2,145.1,727.3,148.4,726.1,152.1z"/>
		</g>
		<path class="st7" d="M753.8,111.4l2.9,0.4c5.5,0.7,9.5,5.6,8.8,10.8l-1,7.6c-0.7,5.3-5.7,9-11.2,8.3l-2.9-0.4L753.8,111.4z"/>
		<path class="st1" d="M664.6,107.9c-2.6,20.7,0.1,38.1,5.9,38.9c5.9,0.7,12.7-15.5,15.3-36.2c2.6-20.7-0.1-38.1-5.9-38.9
			C674.1,71,667.2,87.2,664.6,107.9z"/>
		<polygon class="st5" points="688.1,96.8 679,101.2 677.5,113.4 685.1,122.3 690.1,106.9 		"/>
		<path class="st4" d="M685.9,110.6c2.2-17.4,0.6-32.4-3.4-37.2c0,0,0,0,0,0c32.1,29.9,72.9,38.6,72.9,38.6l-3.3,26.5
			c0,0-55.5-10.1-78.7,7.4c0,0,0,0,0,0C678.5,142.2,683.7,128,685.9,110.6z"/>
		<path class="st4" d="M677.1,107.1c-0.4,3.4-0.2,6.2,0.4,6.2c0.6,0.1,1.5-2.6,1.9-6c0.4-3.4,0.2-6.2-0.4-6.2
			C678.4,101.1,677.5,103.7,677.1,107.1z"/>
	</g>
	<path class="st2" d="M710.9,168.1c0.9,0.3,3.9,2.2,13.7,2.2c7.1,0,10.4-8.8,11.6-13.6c0.4-1.7,0.8-4.1-1.3-5.1l-11.5-1.6
		L710.9,168.1z"/>
</g>
<g>
	
		<linearGradient id="SVGID_1_" gradientUnits="userSpaceOnUse" x1="548.4556" y1="194.0599" x2="571.465" y2="194.0599" gradientTransform="matrix(0.9953 -9.690000e-02 9.690000e-02 0.9953 -21.9315 164.269)">
		<stop  offset="0" style="stop-color:#DFEFEA"/>
		<stop  offset="1" style="stop-color:#BFE3EE"/>
	</linearGradient>
	<polygon class="st11" points="555,270.7 563.5,279.5 554.4,331.4 545.9,336.3 	"/>
	<path class="st6" d="M192.1,336.6c0,0,39.6,78.7,63.8,83.2c24.2,4.5,134.2-35.3,134.2-35.3v-15.7l-110,2.6l-26.1-54L192.1,336.6z"
		/>
	<path class="st4" d="M235,240.7c-130.3,6.6-115.5,228.1-115.5,228.1h139.7C259.2,468.9,283.5,387.9,235,240.7z"/>
	<g>
		<path class="st1" d="M238.8,763.2c0,0,0.1,17.6,35.3,28.1c7.2,2.2,4.9,4.3,6.2,7.3c-11.6,0-40.6,0-40.6,0L224,780.8L219,785
			l-11.5-11.3c0,0,5.3-16.3,14.1-16.4C228.8,759.8,238.8,763.2,238.8,763.2z"/>
		<path class="st2" d="M248.2,741.7l-9.3,21.5l0,0c-6,1.7-12.4-0.2-16.5-5l-0.7-0.9l5.3-15.6H248.2z"/>
	</g>
	<g>
		<path class="st6" d="M210.9,205.2l-4.4,41c0,0,5.8,10.9,18.4,12.3c12.5,1.4,13.5-7.7,13.5-7.7l2.9-26.7l-18-6.8L210.9,205.2z"/>
		<path class="st2" d="M241.9,232.2c3.9,0.3,7.5,0.1,9.6-1.4c13-16.5,5.5-65.7,5.5-65.7l-41.1,2.9l-4.7,31.9
			c-1.3,8.5,1.6,17.1,7.7,23.2l0,0C225.5,228.2,233.5,231.6,241.9,232.2z"/>
		<path class="st1" d="M234.8,170.9c0,0,13.1,4,27.5,3c14.4-1,7-17.5,7-17.5s-10.9,3.6-29.2-1.1c-12.3-3.2-15.4-6-23.9-2.6
			c-11.5,4.6-11,24.6-11,24.6l1.5,42.3l2.3,2.9c0,0,3.2-27.4,4.1-35.9c2.8-3.6,5.3-3.3,7.2-2.1c2,1.3,3,3.7,2.7,6.1l-4.7,43.3
			c0,0,26.3,14.9,33.5,13.5c7.2-1.4,6-34,6-34s-7.7-4.4-14.7,2c-7,6.3-13.7-1.8-13.7-1.8L234.8,170.9z"/>
		<path class="st2" d="M216.9,183.1c3.1,0.1,5.8,3.4,5.9,7.3c0.2,4-2.3,7.1-5.4,7.1c-3.1-0.1-5.8-3.4-5.9-7.3
			C211.4,186.2,213.8,183,216.9,183.1z"/>
	</g>
	<path class="st1" d="M259.2,468.9c0,0,65,36.5,97.6,80.5c8.3,11.2,8.6,26.3,0.7,37.8C310.3,655,248.1,744.8,248.1,744.8h-24.4
		c0,0,32.2-117,71.2-185.9C298.7,533.4,259.2,468.9,259.2,468.9z"/>
	<path class="st6" d="M390.1,368.8l19.7,3.2l18.5,20c0,0-9,4.4-22.5-9.6c-26.6-1.9-19.4-6.7-19.4-6.7L390.1,368.8z"/>
	<path class="st2" d="M171.2,359.8c0,0,39.6,78.7,63.8,83.2c24.2,4.5,129.8-47.2,129.8-47.2l4.3-16.9l-110,15.7l-26.1-54
		L171.2,359.8z"/>
	<g>
		<path class="st1" d="M411.4,772.7c0,0,11.3,10.5,37.1,17.1c5.7,1.4,11.8-0.5,11.8,8.9c-12,0-31.3,0-31.3,0l-26-4.5v4.5h-14.1
			c0,0-3.9-23,4.3-25.9C400.8,772.7,411.4,772.7,411.4,772.7z"/>
		<path class="st2" d="M408.7,756.2l2.8,16.5l0,0c-5.1,3.6-11.9,3.8-17.2,0.6l-1-0.6l-4.1-16.5H408.7z"/>
	</g>
	<path class="st2" d="M410.8,387.5c0.1-1.8-0.9-3.5-2.6-4.2l-16.5-6.4c-4.1-1.6-8.6-1.6-12.7-0.1l-16.3,3.2L361,383l-1.2,15
		c3.2-1.3,5-2.1,5-2.1l10.4-1.3c0,0,22.5,15.2,29.7-2.2c3,16.8,7.8,14.7,7.8,14.7L410.8,387.5z"/>
	<path class="st3" d="M119.5,468.9c0,0-20.3,85.5,167.1,114.9c13,2,23.5,11.7,26.7,24.5c16.1,63.5,75.3,154.5,75.3,154.5h24.2
		l-39.3-173.5c-2.8-12.4-9.3-23.7-18.7-32.3l-95.6-88.1H119.5z"/>
	<g>
		<g>
			<polygon class="st12" points="236.5,805.1 205,575.5 199.2,576.3 230.6,805.1 			"/>
		</g>
		<g>
			<g>
				<path class="st13" d="M245.4,575.9H107.2c0,0,0-9.7,0-27.1c48.5-22.3,138.2,13.6,138.2,13.6V575.9z"/>
				<g>
					<path class="st12" d="M107.2,573v-5.8c-0.8,0-19.4-0.6-19.4-31c0-33,20.6-82.9,20.8-83.4l-5.4-2.2C102.4,452.6,82,502,82,536.1
						C82,572.5,106.9,573,107.2,573z"/>
				</g>
				<path class="st13" d="M139.2,459.5c-33.9-7.9-38.2-3.5-38.2-3.5s10.4-40.1,0.5-64.1c41.6-24,49.3,4.6,49.3,4.6
					S158,420.8,139.2,459.5z"/>
			</g>
			<g>
				<polygon class="st12" points="93.6,805.1 125,576.3 119.3,575.5 87.7,805.1 				"/>
			</g>
		</g>
	</g>
	<g>
		<path class="st1" d="M641.9,423.3H342.7l0,0c0-6,4.9-10.9,10.9-10.9H631C637,412.4,641.9,417.3,641.9,423.3L641.9,423.3z"/>
		<g>
			<polygon class="st12" points="348.3,805.1 341.6,804 372.4,422.9 379.1,424.1 			"/>
		</g>
		<g>
			<polygon class="st12" points="632.7,805.1 639.4,804 608.7,422.9 602,424.1 			"/>
		</g>
	</g>
	<linearGradient id="SVGID_2_" gradientUnits="userSpaceOnUse" x1="379.0764" y1="409.7741" x2="441.8924" y2="409.7741">
		<stop  offset="0" style="stop-color:#DFEFEA"/>
		<stop  offset="1" style="stop-color:#BFE3EE"/>
	</linearGradient>
	<rect x="379.1" y="407.2" class="st14" width="62.8" height="5.2"/>
	<g>
		<linearGradient id="SVGID_3_" gradientUnits="userSpaceOnUse" x1="464.7569" y1="303.5232" x2="570.429" y2="303.5232">
			<stop  offset="0" style="stop-color:#DFEFEA"/>
			<stop  offset="1" style="stop-color:#BFE3EE"/>
		</linearGradient>
		<path class="st15" d="M509.3,411.3h-44.6v-6.7h44.6c12,0,22.3-9,24-20.9l30.5-187.8l6.7,1.1L540,384.6
			C537.9,399.8,524.7,411.3,509.3,411.3z"/>
	</g>
	<polygon class="st1" points="563.8,195.8 559.2,199.3 530.5,371.2 534.6,375.7 	"/>
</g>
</svg>
