<?xml version="1.0" encoding="utf-8"?>
<!-- Generator: Adobe Illustrator 24.2.1, SVG Export Plug-In . SVG Version: 6.00 Build 0)  -->
<svg version="1.1" id="Camada_1" xmlns="http://www.w3.org/2000/svg" xmlns:xlink="http://www.w3.org/1999/xlink" x="0px" y="0px"
	 viewBox="0 0 1217.6 866.3" style="enable-background:new 0 0 1217.6 866.3;" xml:space="preserve">
<style type="text/css">
	.st0{fill:url(#Caminho_8645_1_);}
	.st1{fill:#163F59;}
	.st2{fill:#FFFFFF;}
	.st3{fill:#D1DBEA;}
	.st4{fill:#E9D6B8;}
	.st5{fill:#194866;}
	.st6{fill:#843EB3;}
	.st7{fill:#B0BFDE;}
	.st8{fill:url(#Caminho_8672_1_);}
	.st9{fill:url(#Caminho_8673_1_);}
	.st10{fill:url(#Caminho_8674_1_);}
	.st11{fill:url(#Caminho_8675_1_);}
	.st12{fill:#D2BE9F;}
	.st13{fill:#DBDAC6;}
	.st14{fill:#15100C;}
	.st15{fill:#CDD5D7;}
	.st16{fill:#B7BEC0;}
	.st17{fill:#FFC40E;}
	.st18{fill:#161711;}
	.st19{fill:url(#Caminho_8719_1_);}
	.st20{fill:#010101;}
</style>
<g id="imagem-index" transform="translate(-3313.937 -1638.51)">
	
		<linearGradient id="Caminho_8645_1_" gradientUnits="userSpaceOnUse" x1="2963.874" y1="2612.5295" x2="2964.2812" y2="2612.168" gradientTransform="matrix(343.05 0 0 -269.2889 -1013250.8125 705286.5625)">
		<stop  offset="0" style="stop-color:#B08EEA"/>
		<stop  offset="1" style="stop-color:#1B5CD6"/>
	</linearGradient>
	<path id="Caminho_8645" class="st0" d="M3646.4,1698.9c-63.4-33.6-126.8-36.8-183.2-22s-78.1,28.7-70.1,96.1
		c8,67.4,30.4,105.7,62.3,104.5c91.3-3.6,114.4-5.7,162.4-1.7l-15.3,34.9l38.6-33c48,1.8,55.3-20.2,58.3-37.5
		C3699.5,1840.1,3709.8,1732.5,3646.4,1698.9z"/>
	<g id="Grupo_1886" transform="translate(3381.82 1860.995)">
		<path id="Caminho_8646" class="st1" d="M118.2,547.2c0.8,1.1,0.2,3.9,0.2,3.9s-14.1,1.8-18.6,0.6c-1.8-0.6-3.5-1.5-5-2.6
			c-0.3-0.2-0.9-1.4-1.2-1.6c-0.6-0.4-0.9,0.3-1.3-0.1c-0.8-0.5-1.5-1-2.1-1.6c-1.2-7.1,0.4-9.9,0.4-9.9s12-4.4,14.2-1.4
			C110,541.7,116.4,544.9,118.2,547.2z"/>
		<path id="Caminho_8647" class="st1" d="M192.4,538l2.1,11.5h5.5c0,0,0.6-1.6,1.6-1.6c0.8,0,1.8,1.6,2.9,1.6h28.3
			c0,0,0.5-2.4-0.1-3.2c-1-0.7-2.2-1.2-3.4-1.5c-5.8-1.7-22.2-7-25.1-12.8C200.7,524.9,192.4,538,192.4,538z"/>
		<g id="Grupo_1883" transform="translate(0 65.45)">
			<path id="Caminho_8648" class="st2" d="M115.7,220.2l-11.7-6.5l-1.4-1.5l1.6-2.6l2.6,0.3l-0.4-7.6l12.3-2.2l6.3-2.9l-5.8,20.7"/>
			<path id="Caminho_8649" class="st3" d="M170.1,33.7c0,0-13.2,14.5,27.4,52.8s47.9,27.1,47.9,27.1l12.2-8.1l9.1-42.6l-19.6-4.5
				l-2.1,2.5c0,0-4.2,0.4-6.3-2.6s-15.5-13.1-34.9-37.9C194.9,8.8,172.7,30.9,170.1,33.7z"/>
			<path id="Caminho_8650" class="st4" d="M263.5,65.2c0,0,40.9-0.7,44.1-43.3c1-12.6,4.2-0.4,6.4,11.7s-5.2,46.1-27.1,59.8
				s-31.2,17-39.6,11.5S263.5,65.2,263.5,65.2z"/>
			<path id="Caminho_8651" class="st1" d="M203.2,472.6c0,0-6.3,9.2-11,0.6c-10.8-19.8-26.7-68.8-27.3-91.1
				c-0.8-32,4.6-54.2,4.6-54.2l34.1-11.1L203.2,472.6z"/>
			<path id="Caminho_8652" class="st1" d="M202.1,170.3l1.5,146.5l-31,17.1c0,0-18.6-35-20.9-79.6c-1-18.9-1.5-61.4,9.1-75.9
				C175.2,158.9,202.1,170.3,202.1,170.3z"/>
			<path id="Caminho_8653" class="st5" d="M190.8,170.3l-5.1,50.7L172,276l-14.6,51.4L105,470.1l-15.2,1.2c0,0,1.9-107.1,20.5-138.3
				c9.8-16.5,9.8-53.2,14.4-92.7c0.8-7.1-3.2-23.2-2.6-29.7c1.8-15.9,7.2-31.2,15.7-44.8L190.8,170.3z"/>
			<path id="Caminho_8654" class="st3" d="M202.6,172.5l-67.1-1.5l-28.6-95.9c0,0-18.6-58,17-58.7s76.7-0.7,76.7-0.7
				S230,69.7,202.6,172.5z"/>
			<path id="Caminho_8655" class="st4" d="M82.2,144.5l42.5,51.7c0,0-1.5,7.5-4.9,3.5c-0.4-0.5,1.6-2-0.9-3.4
				c-10.4-5.7-35-14.5-44-23.2c-7.7-7.6-14.5-16-20.4-25.1L82.2,144.5z"/>
			<path id="Caminho_8656" class="st6" d="M166.1,29.1c0,0,31.2,53.8,22.4,113.4c-0.7,4.7-6.3,8-6.3,8l-7.7-6.7
				C174.5,143.8,175.1,76.4,166.1,29.1z"/>
			<path id="Caminho_8657" class="st7" d="M165,27.7l-1.7,11.9l-20.4-19.3v-3L165,27.7z"/>
			<path id="Caminho_8658" class="st7" d="M171.4,20l3.6,15.5l-9-7.8L171.4,20z"/>
			<path id="Caminho_8659" class="st7" d="M231.9,72.5l5.3-9.6l2.4-3.7c1.6,1.2,3.5,1.8,5.4,1.6l-5.3,6.4l-4.9,8.7l-2.7,13.3
				L231.9,72.5z"/>
			<path id="Caminho_8660" class="st3" d="M110.1,73.4l-23.3,67.2l-5.1,2l2.8,4.5l-28.8,5l-12.6-22l33.6-91.2c0,0,13-19.2,41.9-22.3
				C139.6,14.3,111.8,67.8,110.1,73.4z"/>
			<path id="Caminho_8661" class="st7" d="M54,136.5c0,0,19.6,3.7,29.9,5.2l-2.2,0.9l2.8,4.5l-10,1.7L60,149.1l-2.3-5.4l4.2-1.1
				L54,136.5z"/>
			<path id="Caminho_8662" class="st4" d="M140.4,2.9c0.8,3.7,2.1,9.4,3.6,12.7c2.3,5.2,22.4,11.9,25.6,12.6s-0.8-15.6-0.8-19.3
				c0-2.8-1.8-2,0.4-6H140.4z"/>
		</g>
		<g id="Grupo_1884" transform="translate(81.902)">
			<path id="Caminho_8663" class="st4" d="M92.9,60.1c0.5,3.2-1.7,6.2-4.8,6.7l-26,4.2c-3.2,0.5-6.2-1.7-6.7-4.8l-6.2-38.5
				c-0.5-3.2,1.7-6.2,4.8-6.7c0,0,0,0,0,0l26-4.2c3.2-0.5,6.2,1.7,6.7,4.8L92.9,60.1z"/>
			<path id="Caminho_8664" class="st1" d="M88,29.5c0,0,2.9-4.3,3.2-6.7c0.1-1.2-1.7-5.4-4.8-6.6s-5.1,2.3-5.1,2.3s5,1.8,5.4,2.8
				S88,29.5,88,29.5z"/>
			<path id="Caminho_8665" class="st5" d="M49.4,45.4c0,0-6.3-14.2-6.3-18.6s0-7.5,5.2-8.9c7.8-2,8.2-0.3,11.6-3.3
				s9.4-9.9,11.7-10.9c3.8-1.6,10.2-1.3,11.7,6.1c1.1,5.5,4.7,6.3,4.7,6.5c-0.2,0.7-1.5,1.6-3.9,3.2c-6.6,4.8-10.8,6.2-16.6,5.6
				s-16.6-2-17.1,2.3s1.9,16.7,1.6,17.7S50.4,45.9,49.4,45.4z"/>
			<path id="Caminho_8666" class="st4" d="M59.4,55.6c0.2,1.1-0.6,2.1-1.6,2.2l-5.6,0.9c-1.1,0.2-2.1-0.6-2.2-1.6c0,0,0,0,0,0
				l-1.6-10.3c-0.2-1.1,0.6-2.1,1.6-2.2l5.6-0.9c1.1-0.2,2.1,0.6,2.2,1.6L59.4,55.6z"/>
			<path id="Caminho_8667" class="st4" d="M92.8,50.2c0.2,1.1-0.5,2.1-1.6,2.2c0,0,0,0,0,0l-5.6,0.9c-1.1,0.2-2.1-0.6-2.2-1.6
				c0,0,0,0,0,0l-1.6-10.3c-0.2-1.1,0.5-2.1,1.6-2.2c0,0,0,0,0,0l5.6-0.9c1.1-0.2,2.1,0.6,2.2,1.6c0,0,0,0,0,0L92.8,50.2z"/>
			<path id="Caminho_8668" class="st5" d="M52.4,48.3c0,0,2.4,15.1,3.2,20.2c0.7,4.6,4.2,14.3,29.9,10.2
				c15.3-2.4,12.9-13.6,12.3-17.3c-0.5-2.8-5-10.7-6.8-12.1c-0.1,0,1,6.2,1,6.2c-2.8-3.4-7.1-5.1-11.4-4.4
				c-11.7,1.9-13.3,9.2-18.4,9.9C58.2,61.6,54.2,55.6,52.4,48.3z"/>
			<path id="Caminho_8669" class="st2" d="M77.4,61.9l8-1.3c1.1-0.2,1.8-1.2,1.6-2.2c0,0,0,0,0,0l-0.2-1.1L75,59.2l0.2,1.1
				C75.4,61.3,76.3,62.1,77.4,61.9C77.4,61.9,77.4,61.9,77.4,61.9z"/>
		</g>
		<g id="Grupo_1885" transform="translate(261.471 57.351)">
			<path id="Caminho_8670" class="st4" d="M45.5,37.2c0,0-3.9-13.1-1.9-16.3s10-14.7,10-14.7L56,3.5c0,0,4.2,1.1-1.3,8.7
				s-0.9,5.5-0.9,5.5l7.4-4.9l9.5-5.2l3.9-2.9c0,0,2.1-1.8,3-1.8C80.1,3,79.1,5,79.1,5L64.6,17.6l16.3-7.7c0,0,2.2-0.6,2.9,0.4
				c0.7,1,0,1.4,0,1.4L67.4,25.1l8.8-3c0,0,2.2-0.5,2.9,0.5c0.8,1.1,1,1.4,1,1.4L47.7,40.4L45.5,37.2z"/>
			<path id="Caminho_8671" class="st4" d="M66.9,20.2l11.8-4.7c0,0,2.5-1.4,4.1-1.2c1,0,1.7,0.9,1.7,1.8l-17.1,9L66.9,20.2z"/>
		</g>
	</g>
	<g id="Grupo_1887" transform="translate(3705.517 1777.098)">
		
			<linearGradient id="Caminho_8672_1_" gradientUnits="userSpaceOnUse" x1="-741.3079" y1="834.7881" x2="-741.4558" y2="835.6781" gradientTransform="matrix(324.397 0 0 -221.5066 240780.3281 185177.2656)">
			<stop  offset="0" style="stop-color:#88EEBE"/>
			<stop  offset="1" style="stop-color:#17ABFE"/>
		</linearGradient>
		<path id="Caminho_8672" class="st8" d="M348.8,213.9c-59.8,9.3-159.4,15.4-201.3,5.9c-42.3-9.8-62.1-119.2-38.5-150.6
			c24-31.2,99.9-49,137.8-56.1C341.5-4.6,427.8-7.7,423.2,78.8C418.4,168.5,413.6,203.8,348.8,213.9z"/>
		
			<linearGradient id="Caminho_8673_1_" gradientUnits="userSpaceOnUse" x1="-743.0984" y1="835.9442" x2="-744.0984" y2="838.6342" gradientTransform="matrix(48.0803 0 0 -73.2808 35976.9062 61537.8633)">
			<stop  offset="0" style="stop-color:#88EEBE"/>
			<stop  offset="1" style="stop-color:#17ABFE"/>
		</linearGradient>
		<path id="Caminho_8673" class="st9" d="M206.5,213.7c0,0,2.4,33.7,48.1,52.9c0,0-23.7-46.8-2.4-69.7
			C264.9,183.1,206.5,213.7,206.5,213.7z"/>
	</g>
	<g id="Grupo_1888" transform="translate(3864.449 1670.485)">
		
			<linearGradient id="Caminho_8674_1_" gradientUnits="userSpaceOnUse" x1="-900.5729" y1="942.4312" x2="-899.9009" y2="941.6922" gradientTransform="matrix(386.4153 0 0 -253.421 348185.5938 238856.9375)">
			<stop  offset="0" style="stop-color:#FFD917"/>
			<stop  offset="1" style="stop-color:#70CCD1"/>
		</linearGradient>
		<path id="Caminho_8674" class="st10" d="M330.4,3.3c60.5,1.4,115.2,19.9,152,42c37.1,22.6,56.4,48.8,53.7,75
			c-2.7,26.4-26.2,49.9-58.5,72.3c-32.6,22-74,43.1-119,55.2c-87.5,26-174.8-7.6-202.9-89.5C127.3,76.9,206.4-2,330.4,3.3z"/>
		
			<linearGradient id="Caminho_8675_1_" gradientUnits="userSpaceOnUse" x1="-905.6071" y1="945.457" x2="-900.207" y2="942.898" gradientTransform="matrix(48.0813 0 0 -73.2798 43686.3086 69372.9141)">
			<stop  offset="0" style="stop-color:#FFD917"/>
			<stop  offset="1" style="stop-color:#70CCD1"/>
		</linearGradient>
		<path id="Caminho_8675" class="st11" d="M324.3,236.9c0,0,2.4,33.7,48.1,52.9c0,0-23.7-46.8-2.4-69.7
			C382.8,206.3,324.3,236.9,324.3,236.9z"/>
	</g>
	<g id="Grupo_1894" transform="translate(3825.995 2002.314)">
		<path id="Caminho_8676" class="st3" d="M315.4,266.2c3,0,5.4,2.4,5.4,5.4v14.3h21.5l-21.5,32.3v84.1c0,3-2.4,5.4-5.4,5.4H124.2
			c-3,0-5.4-2.4-5.4-5.4V271.6c0-3,2.4-5.4,5.4-5.4H315.4z"/>
		<g id="Grupo_1889" transform="translate(52.686 301.305)">
			<rect id="Retângulo_1282" x="99" y="3" class="st7" width="133.9" height="6"/>
			<rect id="Retângulo_1283" x="99" y="22.2" class="st7" width="133.9" height="6"/>
			<rect id="Retângulo_1284" x="99" y="41.3" class="st7" width="133.9" height="6"/>
			<rect id="Retângulo_1285" x="99" y="60.4" class="st7" width="133.9" height="6"/>
		</g>
		<g id="Grupo_1893">
			<path id="Caminho_8677" class="st6" d="M148.9,55.7c0,13,10.6,23.6,23.6,23.6c0,0,0,0,0,0l5.9-11.2c13,0,23.6-19.6,23.6-32.7
				v-8.8c0-13-10.6-23.6-23.6-23.6h-5.9c-13,0-23.6,10.6-23.6,23.6V55.7z"/>
			<path id="Caminho_8678" class="st6" d="M197.3,25.9c1.6-0.2,3.2-0.3,4.9-0.4c-0.1,2,0.1,4.1,0.3,6.1
				c2.9,19.9,20.5,34.1,40.5,33.6c-0.3,19.1-14.7,35.7-34.6,38.5c-22,3.2-42.3-11.7-45.4-33.3S175.3,29.1,197.3,25.9z"/>
			<path id="Caminho_8679" class="st4" d="M158.4,12c0,2.2,0.2,4.4,0.6,6.6c2.4,15.1,11.6,26.6,21.6,28.1c0.3,6.9,2.7,12.8,3.3,18.3
				c1.3,11.9,14.5,13.2,14.5,13.2c1.7,10.6-39.9,25.2-39,23.5s9.7-14.2,12.6-25.6c1.6-6.6,0.3-13.5-3.6-19.1
				c-3.5-4-8.5-6.3-13.8-6.5c-0.8,0-1.5-0.3-2-0.9c-0.5-1.6-0.7-3.3-0.7-4.9V25.2C151.8,20,154.3,15.2,158.4,12z"/>
			<g id="Grupo_1890" transform="translate(0 48.02)">
				<path id="Caminho_8680" d="M132.8,180.9c0-0.1-0.1-0.2-0.1-0.3c0.1-0.1,0.1-0.2,0.2-0.3c3.2-16.7,8.2-32.9,15.8-47.6
					c5.4-10.4,16.2-20.2,21-25.1c12.3,6.7,24.5,3.6,36,12.3c1.6,5.1,2.8,10.2,3.6,15.5c1.7,10,3.2,19.4,4.5,28.1
					c17.8,1.7,61.8,5.1,78.4,8.3c9.8,2.3,10.4,6.1,11.9,7.3c-0.9,16-13.9,25.1-21.7,37.9c-1.4,2.3-107.3,1.2-124.8,1.2
					C148.1,218.1,124.3,212.7,132.8,180.9z"/>
				<path id="Caminho_8681" class="st12" d="M297.2,201.7c2.9-3.3,4.5-7.5,6.6-11.2c1.7-7.2,1.7-12-0.4-13.7
					c-7.8-6.4-34.3,7-101.1,107.1c-14.5,21.8-46.8,67.9-39.3,60.2C273.6,229.7,282.7,218.6,297.2,201.7z"/>
				<path id="Caminho_8682" class="st1" d="M163,339.1l11.8-19c1-1.7,2.8-2.8,4.8-2.7l-9.1,14.6c-1.8,2.8-1.3,6.6,1,8.5
					c0.7,0.6,1.6,0.9,2.6,1l-2.7,4.4c-1.8,2.8-5.1,3.6-7.4,1.7S161.2,341.9,163,339.1z"/>
				<path id="Caminho_8683" class="st4" d="M205,90.6l21.6-33.5c6.4-9.9,2.6-20-8.4-22.3l-62.6-13.2c-6.9-0.9-18.1,9.1-15.6,20.9
					l13.3,38.7L205,90.6z"/>
				<path id="Caminho_8684" class="st1" d="M214.5,39.7c-1.7,29.8,27.7,78,27.7,78s11.2,0.2,12.3-5c1.4-6.5-8.4-20.2-20.8-59.5
					C226,28.9,214.8,34.7,214.5,39.7z"/>
				<path id="Caminho_8685" class="st1" d="M140.4,22.6C118.2,38.5,103,84.3,103,84.3s5,10.9,9.4,8.7c5.5-2.8,12.3-15.9,31.5-47.2
					C155.8,26.4,144.1,20,140.4,22.6z"/>
				<path id="Caminho_8686" class="st13" d="M158.6,104.9c0.1,4.5,4.7,11.7,8.1,11.6l33,1.1c3.4-0.1,11.6-5.6,11.5-10.1l-0.3-15.1
					c-0.1-4.5-2.9-8.1-6.3-8L162,74.3c-3.4,0.1-6.1,3.8-6,8.2L158.6,104.9z"/>
				<path id="Caminho_8687" class="st14" d="M205,119.2c0,0.5-2.4,0.7-5.3,0.6l-32.7-2c-2.9-0.2-5.2-0.7-5.2-1.2l0.1-1.9
					c0-0.5,2.4-0.7,5.3-0.6l32.7,2c2.9,0.2,5.2,0.7,5.2,1.2L205,119.2z"/>
				<path id="Caminho_8688" class="st13" d="M147.1,38.6c0.5-2.1,1.3-4,2.3-5.9c30.4,21.6,51.9,12.4,67.4,8.7
					c0.1,0.9,0.3,1.9,0.3,2.8c0.6,10.7-0.2,21.4,0.3,32.2c0.4,8.5-11.6,16-17.3,16.2c-21.5,0.9-26.3-0.4-47-5.9
					c-5.5-1.5-15.8-10.5-13.7-18.4C142,58.4,144.6,48.5,147.1,38.6z"/>
				<path id="Caminho_8689" class="st5" d="M200.7,30.3c0,0,22.5-0.7,26.4,10.1s-5.6,26.4-5.6,26.4s-5.7,19.9-7.3,30.8
					s5.3,21.1,3.2,19c-0.4-0.4-5.5,0.1-13.6-3.7s-3.6-18.5-2.8-23.3s4.8-28.1,3.9-32S200.7,30.3,200.7,30.3z"/>
				<path id="Caminho_8690" class="st5" d="M135.5,37.1c0,0-1.7-9,2-12.6c5.5-5.3,18.6-4.5,22.9-3.3c2.4,0.7,4.8,1.6,7.1,2.6
					c0,0-14.9,6-14.3,36.8c0.4,8.1,1.5,16.2,3.2,24.2c1.8,8.2,2.4,24.2,2.4,24.2s-8.9,1.8-9.3,3.1s-1-9.5-7-19.8
					S135.5,37.1,135.5,37.1z"/>
				<path id="Caminho_8691" class="st1" d="M155.1,20.4c-8.3,6.9-13.3,12.8-12,48.6c0.2,5.8-0.1,16.5,1.1,26.4c-0.5-1-1-2.1-1.6-3.1
					c-6.1-10.3-7-55.2-7-55.2s-1-8.1,2.7-11.7C142.1,21.6,149.4,20,155.1,20.4z"/>
				<path id="Caminho_8692" class="st4" d="M278.7,209.1c2.3-3.6,3-8,4.4-12c0.3-7.2-0.9-11.4-2.9-13.2c-9-8.1-28.7,7-60.6,72.7
					c-16.1,33.1-28.2,61.8-50,79.5c-2.7,2.1-4.7,4.9-5.8,8.1c-3.2,9.3-1.8,20.9-1.4,20.6C177.7,350.9,236.1,276.4,278.7,209.1z"/>
				<path id="Caminho_8693" class="st5" d="M156.2,358l10.3-19.9c0.8-1.8,2.6-3,4.5-3.1l-7.9,15.3c-1.5,3-0.8,6.7,1.7,8.4
					c0.8,0.5,1.7,0.8,2.6,0.8L165,364c-1.5,3-4.8,4-7.2,2.3S154.7,360.9,156.2,358z"/>
				<path id="Caminho_8694" class="st1" d="M102.1,90.8c-8-15.5,7.9-34.8,7.9-34.8s5.4,0.5,7.5,3.3c2.6,3.6,1.9,11.2-0.9,28.6
					C114.9,98.7,103.4,93.4,102.1,90.8z"/>
				<path id="Caminho_8695" class="st4" d="M108.6,77.3c0,0,3.6,0.3,6.8-14.7s0.2-32.3,0.2-32.3l-7.7,29.2
					C107.9,59.4,104.4,72.6,108.6,77.3z"/>
				<path id="Caminho_8696" class="st4" d="M115.6,30.3c-0.1-1.4-1.3-3.1-2-5c-1.5-3.7-3.3-7.2-5.4-10.7c-1.3-2.3-2.5-4.7-3.5-7.1
					c-0.7,4,1.5,6,1.9,7.8s0.5,1.1-2.2-0.8c-1.5-1.1-2.1-5.4-2.8-8.2C101.3,5.1,100.8,4,100,3c0,2.5,0.2,5.1,0.6,7.6
					c0.7,3.6,1.9,7,3.4,10.3c1.9,2.9,3.9,5.6,6.1,8.2c2.3,3.4,3.2,7.5,2.4,11.5C112,43.9,116.1,36.6,115.6,30.3z"/>
				<path id="Caminho_8697" class="st4" d="M104.6,21.1c0,0-4.3-5.7-4.7-7.1C99.5,13,99,8.1,99,8.1c1,1.1,1.7,2.5,2.1,3.9
					C101.4,14,104.6,21.1,104.6,21.1z"/>
			</g>
			<g id="Grupo_1891" transform="translate(108.9 168.276)">
				<rect id="Retângulo_1286" x="99.2" y="50.7" class="st15" width="92.5" height="1.9"/>
				<path id="Caminho_8698" class="st15" d="M140,50.6c-0.1,1.4,1,2.6,2.3,2.7h47.4c1.3,0,3-0.9,4.6-4.7l23.4-42.8
					c0.1-1.3-0.8-2.5-2.2-2.7c-0.2,0-0.4,0-0.6,0l-48.7,1.5c-1.3,0.3-2.3,1.3-3.1,3.2L140,50.6z"/>
				<path id="Caminho_8699" class="st16" d="M145.8,52.6H99c2.4,1.1,5,1.6,7.6,1.5h77.9c2.6,0.1,5.2-0.4,7.6-1.5H145.8z"/>
			</g>
			<path id="Caminho_8700" class="st17" d="M256,79.7h-3.5v-2.4h-23.1v20.5c0,2.8,2,5.1,4.4,5.1h14.3c2.4,0,4.4-2.3,4.4-5.1v-1.6
				h3.5c1.8-0.1,3.2-1.7,3.1-3.6v-9.4C259.2,81.4,257.8,79.8,256,79.7z M256.5,92.6c0,0.3-0.2,0.5-0.5,0.6h-3.5V82.7h3.5
				c0.3,0,0.5,0.3,0.5,0.6V92.6z"/>
			<g id="Grupo_1892" transform="translate(153.004 80.195)">
				<path id="Caminho_8701" class="st4" d="M101.7,47.4c2.1-7.8,5.6-15.9,4.9-20.6c-0.9-6.6-4.3-9.7-3.1-14.2c0.1-0.5,0.2-1,0.2-1.5
					c0.2-1.3,0.6-2.8,0.6-3.4c0-0.6-0.2-2.5,0.2-1.8c3.4,6.1,6.5,13.3,6.5,15c0,3.5-1.1,22.6-3,29.7C105.8,58.6,98.9,58,101.7,47.4z
					"/>
				<path id="Caminho_8702" class="st4" d="M107.9,25.5c0,0,1.5,0.7,2.1-0.5c1-1.9,1.2-6.2,1.2-7.7c0-1.7-1.2-9.8-1.2-9.8
					c-1,1.8-1.3,3.8-1.1,5.8C109.6,18.1,107.9,25.5,107.9,25.5z"/>
				<path id="Caminho_8703" class="st4" d="M106.8,63.3c-2.7-1.1-5.3-2.3-7.8-3.7c5.6-20.5,11.2-37.6,11.2-37.6L106.8,63.3z"/>
				<path id="Caminho_8704" class="st4" d="M109.3,15.5l-2-11.4L102.9,3l-1.5,0.8L101.2,5c0,0,0.6,0.7,0.5,0.7c-0.6,0-0.4,2,0.1,2
					c-0.2,0.9-0.3,1.8-0.4,2.7c0.4,0.9,2.1,0.8,2.9,2.8s-0.3,4.3,0.8,4.4S109.3,15.5,109.3,15.5z"/>
			</g>
			<path id="Caminho_8705" class="st1" d="M260.8,138.3c-0.3-1.7-9.8-2.3-10.9,0.7l-1.1,2.2c0,0-8.8,19.4,1.7,23
				C250.4,164.3,261.7,163.5,260.8,138.3z"/>
		</g>
	</g>
	<g id="CARA2" transform="translate(3609.724 1921.076)">
		<g id="Grupo_1895" transform="translate(0 7.427)">
			<path id="Caminho_8706" class="st18" d="M97.7,553.5c1.1-1.3,0.3-4.6,0.3-4.6s-18.4-2-24.3-0.7c-2.3,0.8-4.5,1.8-6.6,3.1
				c-0.4,0.2-1.1,1.6-1.5,1.9c-0.7,0.4-1.1-0.3-1.8,0.1c-1,0.6-1.9,1.2-2.8,1.9c-1.6,8.4,0.5,11.8,0.5,11.8s15.1,4.7,18.6,1.6
				C88.9,560.7,95.4,556.3,97.7,553.5z"/>
			<path id="Caminho_8707" class="st18" d="M155.9,560.5l2.6,13.7h14c0,0,0.8-1.9,2-1.9c1,0,2.3,1.9,3.6,1.9h35.6
				c0,0,0.6-2.9-0.1-3.9c-0.4-0.5-2.7-1.4-4.3-1.8c-7.2-2-27.9-8.4-31.5-15.3C173.4,544.8,155.9,560.5,155.9,560.5z"/>
			<path id="Caminho_8708" class="st4" d="M167,98.3l3.3-16.6c0,0,11.8,0.9,14.1-5.4c4.6-12.7,0.7-33.1-2-38.8
				c-8-16.2-11.3-44.7-48.5-22.1c-14.1,8.6,7.7,50.3,9.3,59.4S140,94.2,140,94.2l8.7,6.5L167,98.3z"/>
			<path id="Caminho_8709" class="st4" d="M100.9,255.6L99.6,308c0,0-19.7-21.8-21.6-46.5S99.6,253.6,100.9,255.6z"/>
			<path id="Caminho_8710" class="st1" d="M123,363.5c0,0,5.5,2.4-10.6,78.5c-11.6,54.8-21.4,95-26.1,113.1
				c-1.8,7.1-3.8,5.8-3.8,5.8l-15.3,1.7l-7.3-6.3l21.9-124.3L123,363.5z"/>
			<path id="Caminho_8711" class="st4" d="M223.1,221.5l-31.3,60c0,0,59.7-43.2,56-67C244,190.7,223.1,221.5,223.1,221.5z"/>
			<path id="Caminho_8712" class="st7" d="M100.5,114.5c0,0-12.7,7.8-21.8,70.8c-9.1,63-3.3,60.6-3.3,60.6l1.7,14.4l23.7,2.5
				l12.8-54.4L100.5,114.5z"/>
			<path id="Caminho_8713" class="st1" d="M158.8,278.2c0,0-35,145-62.5,210c-16.1,38.1-16.2-35-16.2-35l25-210.6l73.1-3.5
				C178.2,239.1,169.9,241.7,158.8,278.2z"/>
			<path id="Caminho_8714" class="st1" d="M133.3,239.5c0,0,26.5,187.7,29.2,196.2c9.4,28.7,23.9-8.9,27.2-18.5s8.9-80.3,7.7-131.9
				l-1.1-51.6L133.3,239.5z"/>
			<path id="Caminho_8715" class="st1" d="M159.9,388.8c0,0-4,22.4-7.3,51c-2.4,21-2.5,81,1.4,122.7c0.2,2.6,26.7-5.2,26.7-5.2
				s9.7-116.6,11.9-142.8C194.8,388.4,176.5,370.1,159.9,388.8z"/>
			<path id="Caminho_8716" class="st3" d="M99.7,114.7l31.3-14.2l8.6-8.2l33.2-0.8l5.8,9.6l25.7,11.2c0,0,6.4,10,0.8,47.1
				c-6.1,41.1-7.4,103.2-7.4,103.2l-97.4,4.7C100.4,267.2,108.9,134.6,99.7,114.7z"/>
			<path id="Caminho_8717" class="st3" d="M196.1,112.4c0,0,5.8-6.5,19.9,11.1c24.1,29.9,35.7,67,38.2,74.2
				c2.5,7.2,5.7,17.3-4.2,29.3c-7.5,9.1-10,12.2-10,12.2l-21.6-13.5l3.4-6.5l2.4-3.2c0,0-11.6-25.5-24.1-48.7
				S196.1,112.4,196.1,112.4z"/>
		</g>
		<path id="Caminho_8718" class="st5" d="M171.9,49.7c0,0-4.2-2.6-4.9,0.6c-0.6,3.2,1.6,10.4,3.6,11s2.6,9.4,2.6,9.4l-5.2,9.7h-26.2
			c0,0-8.1-3.6-8.7-9.4c-0.6-5.8-7.1-46.9-7.1-46.9l18.4-9.7c0,0,9.7-4.9,16.5-6.8c10.4-3,12.6,2.6,12.3,5.5s2.9,3.2,7.1,3.2
			c4.2,0,9.4,3.2,7.1,5.2c-0.9,0.8,3.2,3.4,1.6,6.5c-2.4,4.4-10.3,5.8-11,13C177.8,44.2,176.5,54.8,171.9,49.7z"/>
	</g>
	
		<linearGradient id="Caminho_8719_1_" gradientUnits="userSpaceOnUse" x1="2963.9766" y1="2612.3027" x2="2963.6313" y2="2613.4585" gradientTransform="matrix(236.3813 0 0 -177.1456 -696808.5625 464654.5)">
		<stop  offset="0" style="stop-color:#8E1B79"/>
		<stop  offset="1" style="stop-color:#EA8EB4"/>
	</linearGradient>
	<path id="Caminho_8719" class="st19" d="M3772.7,1732.7c-40,0.8-81.3,5.8-109.4,27.3c-21.9,16.8,14.1,96.1,36.7,106.8
		c22.7,10.4,50.9,19.4,80.4,22.3c7.1,0.9,14.4,1.2,21.6,0.9l-6.5,25.2l28.1-28.1c37.4-8.7,65.9-35.7,74.9-75.3
		C3914.4,1741.8,3812.7,1731.9,3772.7,1732.7z"/>
	<g id="CARA1" transform="translate(4061.152 1892.966)">
		<g id="Grupo_1897" transform="translate(0 13.102)">
			<path id="Caminho_8720" class="st4" d="M212.3,211.3l-4.6,59.9c0,0-16.1-32.1-17.9-54.6S212.7,210.5,212.3,211.3z"/>
			<path id="Caminho_8721" class="st4" d="M244.9,63.8c0.6,6.8,4.2,12.7,8.1,13h11c3.9-0.3,7.5-6.2,8.1-13
				c0.9-11.3,1.8-22.5,2.7-33.8c0.6-6.8-2-20.3-7.9-24.3c-5-3.6-11.8-3.6-16.8,0c-5.8,4-8.5,17.6-7.9,24.3
				C243.1,41.3,244,52.6,244.9,63.8z"/>
			<path id="Caminho_8722" class="st4" d="M319.3,177.2L289.9,225c0,0,43.7-21,41.5-40.5S319.3,177.2,319.3,177.2z"/>
			<path id="Caminho_8723" class="st7" d="M213.1,81c0,0-14.3,9.4-22.6,66.6c-8.3,57.2-3,55-3,55l1.5,13l21.1,2.2l12.1-49.2
				L213.1,81z"/>
			<path id="Caminho_8724" class="st18" d="M291.5,495.3v5.7h-31.7l-0.8-15.3l19.1-0.6C278.2,485.1,288.5,494.5,291.5,495.3z"/>
			<path id="Caminho_8725" class="st20" d="M251.3,231.5c0,0-16.4,93.8-33.5,135c-15.1,36.5-32.8-11-32.8-11l27.6-157.4l45.6-3.5
				C258.2,194.6,261.3,195.8,251.3,231.5z"/>
			<path id="Caminho_8726" class="st20" d="M247.5,195l-5.6,60.5l7.9,4.6c0,0,4.6,89.9,6.1,94.4c8.5,26,30.7,10.4,33.7,1.7
				s8-72.8,7-119.7l-1-46.8L247.5,195z"/>
			<path id="Caminho_8727" class="st20" d="M257.8,330.4c0,0-3.7,16-3.1,46.3c0.3,19.2,2.2,70,5.7,107.8c0.2,2.3,19.1,0.6,19.1,0.6
				S291,362.3,292,338.6C292.3,331.4,272.8,313.5,257.8,330.4z"/>
			<path id="Caminho_8728" class="st3" d="M207.8,81.7l33.2-15l17.2,5.1l21.2-2.4l23.4,10.1c0,0,10.6,10.1,0.8,42.7
				s-8.3,86.4-8.3,86.4l-84.9,5.4C210.3,214,216.1,99.8,207.8,81.7z"/>
			<path id="Caminho_8729" class="st3" d="M287.7,81c0,0,12.8-7.2,25.6,8.7c21.8,27.1,32.4,60.8,34.7,67.3s5.3,26.1-3.8,31.9l-9,5.8
				L316.3,183l3-5.8l1.5-3.6c0,0-10.6-23.2-21.9-44.2S287.7,81,287.7,81z"/>
			<path id="Caminho_8730" class="st7" d="M262.4,71.1l8.4,9.2l8.4-12.1l-5-7.5L262.4,71.1z"/>
			<path id="Caminho_8731" class="st7" d="M244,61.4l16.1,10.4l-7.6,9.2l-12.6-14.3L244,61.4z"/>
			<path id="Caminho_8732" class="st20" d="M192.6,353.4c0,0,5.3,1.7,22.1,2.3c16.8,0.6-21.6,135.5-21.6,135.5l-23.8-8.7l17.2-135.8
				L192.6,353.4z"/>
			<path id="Caminho_8733" class="st18" d="M191.3,489.8l-2.3,11.8h-39.2v-4.3c0,0,18.8-6.5,22.6-13.8S191.3,489.8,191.3,489.8z"/>
		</g>
		<g id="Grupo_1898" transform="translate(79.955)">
			<path id="Caminho_8734" class="st5" d="M177,10.9V3h-16.9c-5.7,0-10.3,4.6-10.3,10.3c0,0,0,0,0,0v7.8h16.9
				C172.4,21.1,177,16.5,177,10.9z"/>
			<path id="Retângulo_1287" class="st4" d="M161.7,7.7h23.8c4.2,0,7.6,3.4,7.6,7.6l0,0v44.6c0,4.2-3.4,7.6-7.6,7.6h-23.8
				c-4.2,0-7.6-3.4-7.6-7.6V15.3C154.1,11.1,157.5,7.7,161.7,7.7C161.7,7.7,161.7,7.7,161.7,7.7z"/>
			<path id="Caminho_8735" class="st5" d="M177.6,3c3.5,0,6.7,1.7,8.6,4.6h3.5c4.4,0,8,3.6,8,8c0,0,0,0,0,0v19.7h-5.6v-8
				c0-3.1-2.5-5.6-5.6-5.6h-16.9c-5.7,0-10.3-4.6-10.3-10.3V3L177.6,3z"/>
			<path id="Caminho_8736" class="st4" d="M190.3,40.4c0-2.7,2.2-4.9,4.9-4.9c0,0,0,0,0,0h0.4c2.7,0,4.9,2.2,4.9,4.9c0,0,0,0,0,0
				v5.9c0,2.7-2.2,4.9-4.9,4.9h-0.4c-1.9,0-3.7-1.1-4.5-2.9"/>
		</g>
	</g>
</g>
</svg>
