<svg xmlns="http://www.w3.org/2000/svg" width="252.487" height="80.657" viewBox="0 0 252.487 80.657">
  <g id="Grupo_1803" data-name="Grupo 1803" transform="translate(0)">
    <g id="Grupo_1766" data-name="Grupo 1766" transform="translate(93.756 18.972)">
      <g id="Grupo_1764" data-name="Grupo 1764">
        <path id="Caminho_8373" data-name="Caminho 8373" d="M77.418,53.545a8,8,0,0,0-2.948-2.033A9.253,9.253,0,0,0,70.3,50.7c-2.337,0-4.065.406-5.081,1.422A4.062,4.062,0,0,0,63.6,55.577,3.415,3.415,0,0,0,64,57.508a3,3,0,0,0,1.423,1.321,8.409,8.409,0,0,0,2.134.915c1.017.305,2.134.509,3.252.915a22.669,22.669,0,0,1,3.76.914,27.9,27.9,0,0,1,2.948,1.321,5.049,5.049,0,0,1,1.728,2.134,6.493,6.493,0,0,1,.609,2.846,6.412,6.412,0,0,1-.712,3.252,6.052,6.052,0,0,1-1.829,2.134,10.92,10.92,0,0,1-2.947,1.321,16.063,16.063,0,0,1-3.862.407,15.052,15.052,0,0,1-10.467-3.76l1.321-2.134a8.553,8.553,0,0,0,3.861,2.54,12.6,12.6,0,0,0,5.285,1.118,8.579,8.579,0,0,0,4.98-1.22,3.724,3.724,0,0,0,1.728-3.354,3.378,3.378,0,0,0-.508-2.033,4.162,4.162,0,0,0-1.525-1.422,6.8,6.8,0,0,0-2.439-1.118l-3.354-.813-3.658-.915a9.337,9.337,0,0,1-2.643-1.422,4.349,4.349,0,0,1-1.524-1.83,6.433,6.433,0,0,1-.508-2.642,6.677,6.677,0,0,1,.711-3.251,5.956,5.956,0,0,1,1.83-2.439,18.473,18.473,0,0,1,2.846-1.321,12.223,12.223,0,0,1,3.861-.508,12.662,12.662,0,0,1,4.573.812,10.881,10.881,0,0,1,3.76,2.236Z" transform="translate(-60.041 -47.956)" fill="#b3b3b3"/>
        <path id="Caminho_8374" data-name="Caminho 8374" d="M76.332,75.287H73.893V64.515a9.11,9.11,0,0,0-1.118-4.878,3.875,3.875,0,0,0-3.354-1.626,4.622,4.622,0,0,0-2.032.508l-2.033,1.017-1.626,1.828a19.293,19.293,0,0,0-.915,2.135V75.287h-2.54V48.459h2.54V60.451A9.414,9.414,0,0,1,65.967,57a8.354,8.354,0,0,1,4.37-1.219,5.759,5.759,0,0,1,2.744.61,5.286,5.286,0,0,1,1.931,1.728,6.31,6.31,0,0,1,1.117,2.643,16.971,16.971,0,0,1,.2,3.251Z" transform="translate(-36.395 -48.459)" fill="#b3b3b3"/>
        <path id="Caminho_8375" data-name="Caminho 8375" d="M69.925,68.449a10.118,10.118,0,0,1-3.862-.813A8.114,8.114,0,0,1,63.116,65.4a9.344,9.344,0,0,1-2.033-3.15,9.152,9.152,0,0,1-.609-3.76,9.154,9.154,0,0,1,.609-3.76,9.921,9.921,0,0,1,2.033-3.15,10.284,10.284,0,0,1,2.947-2.235,8.518,8.518,0,0,1,3.862-.814,7.338,7.338,0,0,1,3.759.814,9.876,9.876,0,0,1,3.15,2.235,11.843,11.843,0,0,1,1.931,3.15,10.291,10.291,0,0,1,0,7.52,13.716,13.716,0,0,1-1.931,3.15,9.886,9.886,0,0,1-3.15,2.236A8.55,8.55,0,0,1,69.925,68.449ZM63.015,58.49a9.088,9.088,0,0,0,.509,3.049,13.941,13.941,0,0,0,1.422,2.439A9.025,9.025,0,0,0,67.181,65.6a6.619,6.619,0,0,0,2.642.61,6.821,6.821,0,0,0,2.846-.61A10.786,10.786,0,0,0,74.8,63.978a7.087,7.087,0,0,0,1.525-2.541,6.957,6.957,0,0,0,.61-2.947,6.64,6.64,0,0,0-.61-2.947A8.574,8.574,0,0,0,74.8,52.9a10.256,10.256,0,0,0-2.134-1.525,6.364,6.364,0,0,0-2.743-.609,5.929,5.929,0,0,0-2.643.609A7.454,7.454,0,0,0,64.946,53a11.868,11.868,0,0,0-1.422,2.541A9.421,9.421,0,0,0,63.015,58.49Z" transform="translate(-16.472 -41.214)" fill="#b3b3b3"/>
        <path id="Caminho_8376" data-name="Caminho 8376" d="M70.559,68.449a7.291,7.291,0,0,1-4.268-1.219,10.346,10.346,0,0,1-3.151-3.151V75.867H60.7V48.836h2.338v3.659a8.783,8.783,0,0,1,2.947-2.846,8.527,8.527,0,0,1,4.166-1.118,7.7,7.7,0,0,1,3.659.814,10.266,10.266,0,0,1,2.845,2.235,10.917,10.917,0,0,1,1.93,3.15,11.732,11.732,0,0,1,.712,3.76,11.224,11.224,0,0,1-.712,3.76,8.847,8.847,0,0,1-1.829,3.15,8.318,8.318,0,0,1-2.743,2.236A7.862,7.862,0,0,1,70.559,68.449Zm-.712-2.235a5.036,5.036,0,0,0,2.744-.712,9.777,9.777,0,0,0,2.236-1.626,8.074,8.074,0,0,0,1.321-2.643,7.768,7.768,0,0,0,.508-2.743,7.3,7.3,0,0,0-.609-2.947A6.885,6.885,0,0,0,74.623,53a7.444,7.444,0,0,0-2.338-1.626,6.046,6.046,0,0,0-2.743-.609,7.2,7.2,0,0,0-2.032.407,16.518,16.518,0,0,0-1.931.915,8.192,8.192,0,0,0-1.626,1.626,4.842,4.842,0,0,0-.813,1.829v5.793a7.729,7.729,0,0,0,1.219,1.93,4.377,4.377,0,0,0,1.524,1.525,8.225,8.225,0,0,0,1.83,1.016A7.907,7.907,0,0,0,69.847,66.214Z" transform="translate(6.369 -41.214)" fill="#b3b3b3"/>
        <path id="Caminho_8377" data-name="Caminho 8377" d="M70.68,68.449a7.754,7.754,0,0,1-4.268-1.219,11.254,11.254,0,0,1-3.049-3.151V75.867H60.924V48.836H63.16v3.659a10.192,10.192,0,0,1,3.049-2.846,8.238,8.238,0,0,1,4.166-1.118,7.969,7.969,0,0,1,3.659.814,14.473,14.473,0,0,1,2.846,2.235,10.944,10.944,0,0,1,1.93,3.15,15.3,15.3,0,0,1,.609,3.76,11.222,11.222,0,0,1-.609,3.76A8.857,8.857,0,0,1,76.98,65.4a8.325,8.325,0,0,1-2.744,2.236A7.974,7.974,0,0,1,70.68,68.449Zm-.61-2.235a5.276,5.276,0,0,0,2.744-.712,7.365,7.365,0,0,0,2.134-1.626,8.292,8.292,0,0,0,1.423-2.643,7.754,7.754,0,0,0,.509-2.743,7.29,7.29,0,0,0-.61-2.947A8.9,8.9,0,0,0,74.745,53a5.336,5.336,0,0,0-2.236-1.626,6.705,6.705,0,0,0-2.743-.609,7.213,7.213,0,0,0-2.033.407,8.511,8.511,0,0,0-1.931.915,8.192,8.192,0,0,0-1.625,1.626,4.825,4.825,0,0,0-.813,1.829v5.793a7.727,7.727,0,0,0,1.219,1.93,4.378,4.378,0,0,0,1.525,1.525,5.325,5.325,0,0,0,1.829,1.016A7.911,7.911,0,0,0,70.07,66.214Z" transform="translate(28.807 -41.214)" fill="#b3b3b3"/>
        <path id="Caminho_8378" data-name="Caminho 8378" d="M61.146,52.016V48.459h2.541v3.557Zm0,23.271V56.081h2.541V75.287Z" transform="translate(51.145 -48.459)" fill="#b3b3b3"/>
        <path id="Caminho_8379" data-name="Caminho 8379" d="M77.382,68.042H74.842V57.271a12.031,12.031,0,0,0-.915-4.979,3.865,3.865,0,0,0-3.252-1.525,5.9,5.9,0,0,0-2.134.508l-2.134,1.017a6.661,6.661,0,0,0-1.525,1.828,7.2,7.2,0,0,0-1.117,2.135V68.042H61.224V48.836H63.46v4.37a6.648,6.648,0,0,1,1.525-1.83,10.223,10.223,0,0,1,1.93-1.626,8.647,8.647,0,0,1,2.236-.915,9.446,9.446,0,0,1,2.439-.305,5.486,5.486,0,0,1,2.744.61,4.43,4.43,0,0,1,1.727,1.626,7.023,7.023,0,0,1,1.017,2.541,19.025,19.025,0,0,1,.305,3.455Z" transform="translate(58.993 -41.214)" fill="#b3b3b3"/>
        <path id="Caminho_8380" data-name="Caminho 8380" d="M70.365,68.348a6.87,6.87,0,0,1-3.557-.915A7.843,7.843,0,0,1,63.861,65.2a7.48,7.48,0,0,1-1.728-3.049,9.026,9.026,0,0,1-.712-3.659,11.646,11.646,0,0,1,.61-3.76,9.52,9.52,0,0,1,1.829-3.15,8.676,8.676,0,0,1,2.845-2.235,6.958,6.958,0,0,1,3.659-.814,7.754,7.754,0,0,1,4.268,1.22A15.006,15.006,0,0,1,77.681,52.9V48.836h2.134V68.144a9.492,9.492,0,0,1-.61,3.455,7.331,7.331,0,0,1-2.134,2.541,8.231,8.231,0,0,1-2.947,1.626,14.333,14.333,0,0,1-3.556.508,10.566,10.566,0,0,1-5.386-1.22A9.671,9.671,0,0,1,61.93,71.9l1.525-1.22A5.966,5.966,0,0,0,66.5,73.327a8.864,8.864,0,0,0,4.065.914,7.378,7.378,0,0,0,2.54-.407,15.773,15.773,0,0,0,2.235-1.016,7.626,7.626,0,0,0,1.525-2.033,7.205,7.205,0,0,0,.507-2.642v-3.76a9.834,9.834,0,0,1-2.947,2.846A8.76,8.76,0,0,1,70.365,68.348Zm.711-2.134a7.9,7.9,0,0,0,2.134-.407,6.739,6.739,0,0,0,2.033-1.22,5.786,5.786,0,0,0,1.423-1.321,6.789,6.789,0,0,0,.711-1.829V55.543a7.339,7.339,0,0,0-1.117-1.93,7.231,7.231,0,0,0-1.524-1.525,11.24,11.24,0,0,0-1.931-.915,5.165,5.165,0,0,0-2.033-.407,5.751,5.751,0,0,0-2.947.712,6.578,6.578,0,0,0-2.032,1.728,6.873,6.873,0,0,0-1.423,2.541,8.568,8.568,0,0,0-.406,2.744,6.933,6.933,0,0,0,.508,2.947A8.886,8.886,0,0,0,66,63.978,9.026,9.026,0,0,0,68.231,65.6,6.818,6.818,0,0,0,71.076,66.214Z" transform="translate(78.916 -41.214)" fill="#b3b3b3"/>
      </g>
      <g id="Grupo_1765" data-name="Grupo 1765" transform="translate(1.626 37.295)">
        <path id="Caminho_8381" data-name="Caminho 8381" d="M65.646,54.518l-.2.711-.508.712-.509.305-.813.1H60.057v-7.52h3.557l.813.1.407.508.3.712.2.609-.305,1.016-.712.712.915.712Zm-4.979-4.98v2.744h2.642l.508-.2.508-.305.1-.3.1-.509-.1-.609-.1-.407-.406-.407H60.667Zm4.167,4.776-.1-.609-.2-.407-.3-.305-.61-.1H60.667v2.846h2.946l.509-.1.3-.305.305-.407Z" transform="translate(-60.057 -48.725)" fill="#b3b3b3"/>
        <path id="Caminho_8382" data-name="Caminho 8382" d="M63.275,55.738l1.22-.2.813-.712.407-1.017.1-1.219v-3.76h.609v3.76l-.2,1.525-.407,1.22-1.016.711a3.364,3.364,0,0,1-1.525.407,2.63,2.63,0,0,1-1.423-.407l-1.016-.711-.508-1.22-.2-1.525v-3.76h.812v3.76l.1,1.219.407,1.017.609.712Z" transform="translate(-53.215 -48.725)" fill="#b3b3b3"/>
        <path id="Caminho_8383" data-name="Caminho 8383" d="M65.28,50.351l-.915-.61-1.219-.2a1.985,1.985,0,0,0-1.423.407l-.407,1.016.1.61.407.2.61.407.915.2,1.118.2.812.407.509.61.2.915-.2.914-.61.609-.813.305-1.118.2A4.9,4.9,0,0,1,60.2,55.432l.407-.61,1.118.814,1.524.3,1.423-.3.508-1.017-.1-.61-.508-.406-.712-.407-1.017-.2-.915-.305-.813-.3-.407-.61-.2-.712.2-.915.61-.711.813-.407,1.016-.2,1.423.2,1.016.711Z" transform="translate(-45.769 -48.826)" fill="#b3b3b3"/>
        <path id="Caminho_8384" data-name="Caminho 8384" d="M60.269,56.347v-7.52h.712v7.52Z" transform="translate(-38.725 -48.725)" fill="#b3b3b3"/>
        <path id="Caminho_8385" data-name="Caminho 8385" d="M61.108,50.25v6.1h-.813v-7.52H60.9l4.98,6.3v-6.3H66.6v7.52h-.712Z" transform="translate(-36.109 -48.725)" fill="#b3b3b3"/>
        <path id="Caminho_8386" data-name="Caminho 8386" d="M65.457,55.738v.609h-5.08v-7.52h4.979v.712H61.189v2.642h3.659v.61H61.189v2.947Z" transform="translate(-27.959 -48.725)" fill="#b3b3b3"/>
        <path id="Caminho_8387" data-name="Caminho 8387" d="M65.312,50.351l-.813-.61-1.219-.2a1.987,1.987,0,0,0-1.423.407,1.25,1.25,0,0,0-.508,1.016l.1.61.407.2.712.407.915.2,1.117.2.712.407.609.61.1.915-.2.914-.508.609-.813.305-1.117.2a4.07,4.07,0,0,1-2.948-1.117l.2-.61,1.117.814,1.627.3,1.321-.3.609-1.017-.2-.61L64.7,53.6l-.61-.407-1.016-.2-1.118-.305-.711-.3-.509-.61-.2-.712.2-.915.61-.711.813-.407,1.22-.2,1.219.2,1.118.711Z" transform="translate(-22.123 -48.826)" fill="#b3b3b3"/>
        <path id="Caminho_8388" data-name="Caminho 8388" d="M65.578,50.351l-.915-.61-1.219-.2a1.839,1.839,0,0,0-1.423.407l-.406,1.016.1.61.407.2.509.407,1.016.2,1.118.2.813.407.507.61.2.915-.2.914-.609.609-.814.305-1.117.2A4.9,4.9,0,0,1,60.5,55.432l.406-.61,1.118.814,1.525.3,1.422-.3.509-1.017-.1-.61-.508-.406-.712-.407-1.016-.2-.914-.305-.813-.3-.407-.61-.2-.712.2-.915.609-.711.813-.407,1.017-.2,1.321.2,1.117.711Z" transform="translate(-15.784 -48.826)" fill="#b3b3b3"/>
        <path id="Caminho_8389" data-name="Caminho 8389" d="M60.594,56.347v-7.52H61.2v7.52Z" transform="translate(-6.023 -48.725)" fill="#b3b3b3"/>
        <path id="Caminho_8390" data-name="Caminho 8390" d="M60.615,52.586l.2-1.321.712-1.22,1.117-.813a3.776,3.776,0,0,1,1.525-.407,3.147,3.147,0,0,1,1.728.509,2.583,2.583,0,0,1,1.118,1.219l-.609.407-.509-.711-.508-.407-.61-.2-.711-.1-1.118.3-.915.712-.508,1.118-.2,1.016.3,1.22.509,1.017.915.712,1.117.3.609-.1.712-.2.61-.509.406-.712.61.407-.508.814-.712.406-.915.305-.915.2-1.321-.406-1.118-.813a2.458,2.458,0,0,1-.813-1.321Z" transform="translate(-3.91 -48.826)" fill="#b3b3b3"/>
        <path id="Caminho_8391" data-name="Caminho 8391" d="M64.243,56.549l-1.423-.406L61.7,55.432l-.813-1.322-.2-1.423.3-1.422.712-1.22,1.118-.813,1.524-.407,1.322.407,1.117.813.813,1.321.2,1.321-.305,1.525-.712,1.22-1.117.711A3.765,3.765,0,0,1,64.243,56.549ZM61.4,52.688l.2,1.22.609,1.017.914.712,1.118.2,1.118-.2.914-.814.61-1.016.2-1.118-.305-1.117-.508-1.017-.914-.712-1.118-.3-1.118.3-.914.712L61.6,51.672Z" transform="translate(3.234 -48.826)" fill="#b3b3b3"/>
        <path id="Caminho_8392" data-name="Caminho 8392" d="M61.482,50.25v6.1H60.77v-7.52h.508l5.081,6.3v-6.3h.712v7.52h-.61Z" transform="translate(11.686 -48.725)" fill="#b3b3b3"/>
      </g>
    </g>
    <g id="Grupo_1802" data-name="Grupo 1802" transform="translate(0 0)">
      <path id="Caminho_8393" data-name="Caminho 8393" d="M92.653,48.338h0A33.713,33.713,0,0,0,60.745,71.1v.2a32.743,32.743,0,0,0-1.728,10.772,33.531,33.531,0,0,0,22.662,31.807l.3.1.914-.508a1.036,1.036,0,0,0-.609-1.219A31.958,31.958,0,0,1,65.927,64.6l.2-.407A31.8,31.8,0,0,1,92.653,50.065h0a32.116,32.116,0,0,1,32.011,31.909v.1a32.036,32.036,0,0,1-19.918,29.47l-.406,1.118.813.61h.305a33.894,33.894,0,0,0,16.564-47.965l-.2-.306A33.9,33.9,0,0,0,92.653,48.338Z" transform="translate(-52.321 -41.661)" fill="#b3b3b3"/>
      <path id="Caminho_8394" data-name="Caminho 8394" d="M97.926,99.822a28.476,28.476,0,0,0,7.011-5.183A26.761,26.761,0,0,0,112.762,73.4v-.1A27.233,27.233,0,0,0,85.629,48.4h0a27.383,27.383,0,0,0-19.308,7.926,32.478,32.478,0,0,0-5.792,8.536.982.982,0,0,0,.507,1.22l1.118-.407a27.327,27.327,0,0,1,5.488-8.13A25.285,25.285,0,0,1,85.629,50.13h0a25.048,25.048,0,0,1,17.885,7.418,25.353,25.353,0,0,1,5.59,27.844l-.1.2a26.741,26.741,0,0,1-5.385,7.926,25.089,25.089,0,0,1-16.056,7.317l-.305.1a25.216,25.216,0,0,1-19.511-7.418,26.173,26.173,0,0,1-7.012-12.7c-.1-.508-.407-.813-.914-.711a.936.936,0,0,0-.712,1.117,27.2,27.2,0,0,0,38.514,18.8Z" transform="translate(-45.296 -35.222)" fill="#b3b3b3"/>
      <path id="Caminho_8395" data-name="Caminho 8395" d="M135.834,52h-1.22l-7.52,7.52a40.067,40.067,0,0,0-45.526-7.114l-.305.1a41.5,41.5,0,0,0-9.857,7.012L63.785,52h-1.22V53.12l7.52,7.723a40.557,40.557,0,0,0-7.114,45.527l.2.3a43.529,43.529,0,0,0,6.91,9.756l-7.52,7.622v1.118l.61.305.609-.305,7.622-7.52a40.035,40.035,0,0,0,27.946,11.28l2.032-.1.407.1h0A40.4,40.4,0,0,0,123.233,121h0l1.524-1.016.1-.1,1.321-1.22.2-.2.813-.711,7.418,7.418.609.305.61-.305v-1.118l-7.419-7.52a39.051,39.051,0,0,0,9.756-17.276l.1-.2a45.4,45.4,0,0,0,1.321-10.467,39.965,39.965,0,0,0-11.178-27.844l7.419-7.622Zm-9.045,63.717-.3.2-.2.2h0l-1.117,1.017-.2.2-1.219,1.118-.1.1a38.754,38.754,0,0,1-51.623-2.642A38.2,38.2,0,0,1,64.6,105.353l-.2-.2a38.6,38.6,0,0,1,53.96-50h.1a36.5,36.5,0,0,1,7.927,5.894l.1.2.2.2A38.643,38.643,0,0,1,126.789,115.718Z" transform="translate(-58.918 -48.272)" fill="#b3b3b3"/>
      <path id="Caminho_8396" data-name="Caminho 8396" d="M59.206,49.543v.2h0L63.169,65.4v.1h.1v.2h0l.1.1.1.1h.1l.1.1h0l.1.1H83.493l.1-.1h.1v-.1h.2v-.1l.1-.1h0l.1-.2h0v-.1l3.964-15.649h0v-.2h0v-.1h0v-.2h0l-.1-.1v-.1h-.1v-.1l-.1-.1h-.1v-.1h-.1l-.1-.1H59.815l-.1.1h0l-.1.1h-.1v.1l-.1.1h0l-.1.1v.1h0l-.1.2h0v.1Zm8.942,14.735H64.693l-1.524-6h4.979ZM79.124,50.458h7.012l-1.524,6H79.124Zm0,7.825H84.1l-1.524,6H79.124Zm-9.248-7.825H77.4v6h-7.52Zm0,7.825H77.4v6h-7.52Zm-1.728-7.825v6H62.763l-1.626-6Z" transform="translate(-33.303 -12.381)" fill="#b3b3b3"/>
      <path id="Caminho_8397" data-name="Caminho 8397" d="M79.366,48.816H60.16a.915.915,0,0,0,0,1.829H79.366a.915.915,0,0,0,0-1.829Z" transform="translate(-29.379 6.435)" fill="#b3b3b3"/>
      <path id="Caminho_8398" data-name="Caminho 8398" d="M71.4,48.722a.95.95,0,0,0-1.321.1l-7.317,8.13H60.121a.9.9,0,0,0-.915.813.852.852,0,0,0,.915.914H87.151a.853.853,0,0,0,.915-.914.9.9,0,0,0-.915-.813H84.51l-7.317-8.13-1.22-.1a.95.95,0,0,0-.1,1.321l6.3,6.91H65.2l6.2-6.91Z" transform="translate(-33.303 -24.872)" fill="#b3b3b3"/>
      <g id="Grupo_1801" data-name="Grupo 1801" transform="translate(0 0.012)">
        <g id="Grupo_1786" data-name="Grupo 1786">
          <g id="Grupo_1779" data-name="Grupo 1779">
            <g id="Grupo_1770" data-name="Grupo 1770" transform="translate(6.696 6.665)">
              <g id="Grupo_1767" data-name="Grupo 1767" transform="translate(1.663)" style="mix-blend-mode: multiply;isolation: isolate">
                <path id="Caminho_8399" data-name="Caminho 8399" d="M123.831,82.889a.83.83,0,0,1-.813-.915A32.116,32.116,0,0,0,91.007,50.065h0A31.891,31.891,0,0,0,60.825,71.507a.878.878,0,0,1-1.219.609c-.406-.2-.712-.609-.509-1.016A33.713,33.713,0,0,1,91.007,48.338h0a33.7,33.7,0,0,1,33.738,33.636.911.911,0,0,1-.915.915Z" transform="translate(-59.033 -48.338)" fill="#b3b3b3"/>
              </g>
              <g id="Grupo_1768" data-name="Grupo 1768" transform="translate(45.323 16.539)" style="mix-blend-mode: multiply;isolation: isolate">
                <path id="Caminho_8400" data-name="Caminho 8400" d="M60.276,96.9l-.813-.61.407-1.118A31.95,31.95,0,0,0,79.787,65.5a32.567,32.567,0,0,0-4.268-15.649l.407-1.22a.87.87,0,0,1,1.219.306A33.894,33.894,0,0,1,60.581,96.9Z" transform="translate(-59.463 -48.501)" fill="#b3b3b3"/>
              </g>
              <g id="Grupo_1769" data-name="Grupo 1769" transform="translate(0 15.04)" style="mix-blend-mode: multiply;isolation: isolate">
                <path id="Caminho_8401" data-name="Caminho 8401" d="M81.983,99.093l-.3-.1A33.531,33.531,0,0,1,59.017,67.184a33.152,33.152,0,0,1,5.488-18.5l1.22-.2.2,1.22a31.958,31.958,0,0,0,16.361,47.66,1.036,1.036,0,0,1,.609,1.219Z" transform="translate(-59.017 -48.486)" fill="#b3b3b3"/>
              </g>
            </g>
            <g id="Grupo_1774" data-name="Grupo 1774" transform="translate(13.79 13.169)">
              <g id="Grupo_1771" data-name="Grupo 1771" transform="translate(1.406)" style="mix-blend-mode: multiply;isolation: isolate">
                <path id="Caminho_8402" data-name="Caminho 8402" d="M108.524,86.51h-.407l-.406-1.118a25.353,25.353,0,0,0-5.59-27.844A25.048,25.048,0,0,0,84.236,50.13h0a25.285,25.285,0,0,0-17.987,7.418,27.327,27.327,0,0,0-5.488,8.13l-1.118.407a.982.982,0,0,1-.507-1.22,32.479,32.479,0,0,1,5.792-8.536A27.383,27.383,0,0,1,84.236,48.4h0a27.157,27.157,0,0,1,25.1,37.6Z" transform="translate(-59.101 -48.402)" fill="#b3b3b3"/>
              </g>
              <g id="Grupo_1772" data-name="Grupo 1772" transform="translate(27.66 24.287)" style="mix-blend-mode: multiply;isolation: isolate">
                <path id="Caminho_8403" data-name="Caminho 8403" d="M60.274,78.619a.9.9,0,0,1-.915-.813.923.923,0,0,1,.813-1.017,25.089,25.089,0,0,0,16.056-7.317,25.637,25.637,0,0,0,7.418-20.019.72.72,0,0,1,.712-.813,1.011,1.011,0,0,1,1.017.711,26.761,26.761,0,0,1-7.825,21.239,27.717,27.717,0,0,1-17.174,8.029Z" transform="translate(-59.359 -48.641)" fill="#b3b3b3"/>
              </g>
              <g id="Grupo_1773" data-name="Grupo 1773" transform="translate(0 31.686)" style="mix-blend-mode: multiply;isolation: isolate">
                <path id="Caminho_8404" data-name="Caminho 8404" d="M85.731,71.395a26.753,26.753,0,0,1-19.206-8.028,26.97,26.97,0,0,1-7.419-13.516.936.936,0,0,1,.712-1.117c.508-.1.813.2.914.711a26.173,26.173,0,0,0,7.012,12.7,25.425,25.425,0,0,0,29.063,4.98.913.913,0,0,1,1.22.3.884.884,0,0,1-.407,1.22A27.157,27.157,0,0,1,85.731,71.395Z" transform="translate(-59.087 -48.714)" fill="#b3b3b3"/>
              </g>
            </g>
            <g id="Grupo_1778" data-name="Grupo 1778">
              <g id="Grupo_1775" data-name="Grupo 1775" transform="translate(22.164)" style="mix-blend-mode: multiply;isolation: isolate">
                <path id="Caminho_8405" data-name="Caminho 8405" d="M79.878,128.918a.83.83,0,0,1-.915-.814.778.778,0,0,1,.814-.914,38.277,38.277,0,0,0,24.9-11.28,38.6,38.6,0,0,0-44.2-61.989l-1.219-.406a.791.791,0,0,1,.407-1.118,40.337,40.337,0,1,1,20.223,76.521Z" transform="translate(-59.169 -48.272)" fill="#b3b3b3"/>
              </g>
              <g id="Grupo_1776" data-name="Grupo 1776" transform="translate(3.974 49.901)" style="mix-blend-mode: multiply;isolation: isolate">
                <path id="Caminho_8406" data-name="Caminho 8406" d="M95.45,79.507A40.315,40.315,0,0,1,66.9,67.719,41.615,41.615,0,0,1,59.07,56.744a.909.909,0,1,1,1.626-.813A38.2,38.2,0,0,0,68.115,66.5a38.64,38.64,0,0,0,54.57,0,39.914,39.914,0,0,0,9.959-17.072c.2-.407.61-.813,1.017-.61a.752.752,0,0,1,.609,1.016,38.875,38.875,0,0,1-10.264,17.784A40.17,40.17,0,0,1,95.45,79.507Z" transform="translate(-58.99 -48.763)" fill="#b3b3b3"/>
              </g>
              <g id="Grupo_1777" data-name="Grupo 1777" transform="translate(0 0.05)" style="mix-blend-mode: multiply;isolation: isolate">
                <path id="Caminho_8407" data-name="Caminho 8407" d="M63.818,106.918,63,106.309a40.45,40.45,0,0,1,56.3-52.843.87.87,0,0,1,.306,1.219l-1.22.407a38.589,38.589,0,0,0-53.757,50.4.858.858,0,0,1-.407,1.22Z" transform="translate(-58.951 -48.273)" fill="#b3b3b3"/>
              </g>
            </g>
          </g>
          <g id="Grupo_1785" data-name="Grupo 1785" transform="translate(3.678 3.678)">
            <g id="Grupo_1780" data-name="Grupo 1780" transform="translate(63.909 63.909)" style="mix-blend-mode: multiply;isolation: isolate">
              <path id="Caminho_8408" data-name="Caminho 8408" d="M68.346,58.562l-.6-.3-8.129-8.139v-1.19H60.8l8.14,8.13v1.2Z" transform="translate(-59.616 -48.938)" fill="#b3b3b3"/>
            </g>
            <g id="Grupo_1784" data-name="Grupo 1784">
              <g id="Grupo_1781" data-name="Grupo 1781" style="mix-blend-mode: multiply;isolation: isolate">
                <path id="Caminho_8409" data-name="Caminho 8409" d="M67.717,57.932l-.6-.295-8.13-8.14V48.309h1.189l8.141,8.13v1.2Z" transform="translate(-58.987 -48.309)" fill="#b3b3b3"/>
              </g>
              <g id="Grupo_1782" data-name="Grupo 1782" transform="translate(63.909)" style="mix-blend-mode: multiply;isolation: isolate">
                <path id="Caminho_8410" data-name="Caminho 8410" d="M60.205,57.932l-.589-.295v-1.2l8.129-8.13h1.2V49.5l-8.14,8.14Z" transform="translate(-59.616 -48.309)" fill="#b3b3b3"/>
              </g>
              <g id="Grupo_1783" data-name="Grupo 1783" transform="translate(0 63.909)" style="mix-blend-mode: multiply;isolation: isolate">
                <path id="Caminho_8411" data-name="Caminho 8411" d="M59.578,58.562l-.59-.3v-1.2l8.13-8.13h1.2v1.19l-8.141,8.139Z" transform="translate(-58.987 -48.938)" fill="#b3b3b3"/>
              </g>
            </g>
          </g>
        </g>
        <g id="Grupo_1800" data-name="Grupo 1800" transform="translate(25.883 23.622)">
          <g id="Grupo_1787" data-name="Grupo 1787" transform="translate(23.189 12.596)" style="mix-blend-mode: multiply;isolation: isolate">
            <path id="Caminho_8412" data-name="Caminho 8412" d="M60.349,66.127h-.2a1.1,1.1,0,0,1-.712-1.117L63.5,49.36a.837.837,0,0,1,1.016-.712,1.024,1.024,0,0,1,.61,1.118L61.162,65.415Z" transform="translate(-59.434 -48.629)" fill="#b3b3b3"/>
          </g>
          <g id="Grupo_1788" data-name="Grupo 1788" transform="translate(0.019 12.615)" style="mix-blend-mode: multiply;isolation: isolate">
            <path id="Caminho_8413" data-name="Caminho 8413" d="M87.151,50.458H60.121a.914.914,0,1,1,0-1.829H87.151a.914.914,0,1,1,0,1.829Z" transform="translate(-59.206 -48.629)" fill="#b3b3b3"/>
          </g>
          <g id="Grupo_1789" data-name="Grupo 1789" transform="translate(0 12.596)" style="mix-blend-mode: multiply;isolation: isolate">
            <path id="Caminho_8414" data-name="Caminho 8414" d="M64.1,66.127l-.915-.712L59.225,49.766a.937.937,0,1,1,1.829-.407l3.862,15.65a1.024,1.024,0,0,1-.609,1.117Z" transform="translate(-59.206 -48.629)" fill="#b3b3b3"/>
          </g>
          <g id="Grupo_1790" data-name="Grupo 1790" transform="translate(3.982 28.265)" style="mix-blend-mode: multiply;isolation: isolate">
            <path id="Caminho_8415" data-name="Caminho 8415" d="M79.366,50.612H60.16a.915.915,0,0,1,0-1.829H79.366a.915.915,0,0,1,0,1.829Z" transform="translate(-59.245 -48.783)" fill="#b3b3b3"/>
          </g>
          <g id="Grupo_1791" data-name="Grupo 1791" transform="translate(3.982 31.618)" style="mix-blend-mode: multiply;isolation: isolate">
            <path id="Caminho_8416" data-name="Caminho 8416" d="M79.366,50.645H60.16a.915.915,0,0,1,0-1.829H79.366a.915.915,0,0,1,0,1.829Z" transform="translate(-59.245 -48.816)" fill="#b3b3b3"/>
          </g>
          <g id="Grupo_1794" data-name="Grupo 1794" transform="translate(8.962 12.615)" style="mix-blend-mode: multiply;isolation: isolate">
            <g id="Grupo_1792" data-name="Grupo 1792">
              <path id="Caminho_8417" data-name="Caminho 8417" d="M60.209,66.108a.911.911,0,0,1-.915-.915V49.543a.911.911,0,0,1,.915-.914.83.83,0,0,1,.813.914v15.65A.83.83,0,0,1,60.209,66.108Z" transform="translate(-59.294 -48.629)" fill="#b3b3b3"/>
            </g>
            <g id="Grupo_1793" data-name="Grupo 1793" transform="translate(9.247)">
              <path id="Caminho_8418" data-name="Caminho 8418" d="M60.2,66.108a.9.9,0,0,1-.814-.915V49.543a.9.9,0,0,1,.814-.914.911.911,0,0,1,.915.914v15.65A.911.911,0,0,1,60.2,66.108Z" transform="translate(-59.385 -48.629)" fill="#b3b3b3"/>
            </g>
          </g>
          <g id="Grupo_1795" data-name="Grupo 1795" transform="translate(1.95 20.44)" style="mix-blend-mode: multiply;isolation: isolate">
            <path id="Caminho_8419" data-name="Caminho 8419" d="M83.411,50.535H60.14a.914.914,0,1,1,0-1.829H83.411a.921.921,0,0,1,0,1.829Z" transform="translate(-59.225 -48.706)" fill="#b3b3b3"/>
          </g>
          <g id="Grupo_1798" data-name="Grupo 1798" transform="translate(3.373)" style="mix-blend-mode: multiply;isolation: isolate">
            <g id="Grupo_1796" data-name="Grupo 1796">
              <path id="Caminho_8420" data-name="Caminho 8420" d="M59.849,58.681l-.61-.2V57.157l7.52-8.333a.95.95,0,0,1,1.321-.1v1.321l-7.52,8.333Z" transform="translate(-59.239 -48.505)" fill="#b3b3b3"/>
            </g>
            <g id="Grupo_1797" data-name="Grupo 1797" transform="translate(13.095 0.217)">
              <path id="Caminho_8421" data-name="Caminho 8421" d="M67.816,58.466l-.609-.3-7.622-8.333a.95.95,0,0,1,.1-1.321l1.22.1,7.622,8.333-.1,1.321Z" transform="translate(-59.368 -48.507)" fill="#b3b3b3"/>
            </g>
          </g>
          <g id="Grupo_1799" data-name="Grupo 1799" transform="translate(0.019 8.449)" style="mix-blend-mode: multiply;isolation: isolate">
            <path id="Caminho_8422" data-name="Caminho 8422" d="M87.151,50.315H60.121a.852.852,0,0,1-.915-.915.9.9,0,0,1,.915-.813H87.151a.9.9,0,0,1,.915.813A.853.853,0,0,1,87.151,50.315Z" transform="translate(-59.206 -48.588)" fill="#b3b3b3"/>
          </g>
        </g>
      </g>
    </g>
  </g>
</svg>
