<?xml version="1.0" encoding="utf-8"?>
<!-- Generator: Adobe Illustrator 24.2.1, SVG Export Plug-In . SVG Version: 6.00 Build 0)  -->
<svg version="1.1" id="Grupo_1683" xmlns="http://www.w3.org/2000/svg" xmlns:xlink="http://www.w3.org/1999/xlink" x="0px" y="0px"
	 viewBox="0 0 122.9 119.4" style="enable-background:new 0 0 122.9 119.4;" xml:space="preserve">
<style type="text/css">
	.st0{fill:#F4901E;}
	.st1{fill:#FFC400;}
</style>
<path id="Caminho_8030" class="st0" d="M122.8,57c1.6,32.8-23.6,60.7-56.4,62.3C33.6,121,5.7,95.7,4.1,62.9
	C2.4,30.1,27.7,2.2,60.5,0.6c0,0,0,0,0,0C93.3-1,121.2,24.2,122.8,57z"/>
<path id="Caminho_8031" class="st1" d="M118.8,56.5c1.6,32.8-23.6,60.7-56.4,62.3C29.6,120.5,1.7,95.2,0.1,62.4
	C-1.6,29.6,23.7,1.7,56.5,0.1c0,0,0,0,0,0C89.3-1.6,117.2,23.7,118.8,56.5z"/>
<path id="Caminho_8032" class="st0" d="M15.8,63.4c-1.2-25,18-46.3,43.1-47.6C69,15.3,78.9,18.2,87.2,24C67.7,8.3,39.1,11.4,23.4,31
	s-12.6,48.1,7,63.8c0.8,0.6,1.5,1.2,2.3,1.7C22.6,88.4,16.4,76.3,15.8,63.4z"/>
</svg>
