<?xml version="1.0" encoding="utf-8"?>
<!-- Generator: Adobe Illustrator 24.2.1, SVG Export Plug-In . SVG Version: 6.00 Build 0)  -->
<svg version="1.1" id="Camada_1" xmlns="http://www.w3.org/2000/svg" xmlns:xlink="http://www.w3.org/1999/xlink" x="0px" y="0px"
	 viewBox="0 0 1217.6 904.9" style="enable-background:new 0 0 1217.6 904.9;" xml:space="preserve">
<style type="text/css">
	.st0{fill:url(#Caminho_7759_1_);}
	.st1{fill:#79C4C8;}
	.st2{fill:url(#Caminho_7881_1_);}
	.st3{clip-path:url(#SVGID_2_);}
	.st4{fill:#FFFFFF;}
	.st5{fill:#6E2733;}
	.st6{fill:#D1DBEA;}
	.st7{fill:#B0BFDE;}
	.st8{fill:#161711;}
	.st9{fill:#3C463B;}
	.st10{fill:#323B31;}
	.st11{fill:#0E2A3B;}
	.st12{fill:#DABF6F;}
	.st13{fill:#282723;}
	.st14{fill:#153D57;}
	.st15{fill:#DEE7EC;}
	.st16{fill:#E1CD96;}
	.st17{fill:#15100C;}
	.st18{fill:#4D2020;}
	.st19{fill:#EDEEF0;}
</style>
<g id="topo-sobre" transform="translate(-833.312 -83.54)">
	
		<linearGradient id="Caminho_7759_1_" gradientUnits="userSpaceOnUse" x1="501.1331" y1="1052.1565" x2="502.1522" y2="1052.1565" gradientTransform="matrix(1033.9303 -460.4044 -391.1344 -878.3705 -104540.6094 1155151.75)">
		<stop  offset="0" style="stop-color:#79C4C8"/>
		<stop  offset="1" style="stop-color:#C56A93"/>
	</linearGradient>
	<path id="Caminho_7759" class="st0" d="M1100.9,781.9c56.2-12.5,87.7-66,153.7-64c69.1,2.1,137.3,179.7,295.5,209.9
		c122.9,23.5,368.7-21.4,444.2-296.1s-69.4-551.1-256.7-531.4c-135.7,14.3-229.2,86.2-339.6,104.1c-102.4,16.6-225.6-57-320.6-40.2
		c-153.2,27-202,185.8-211.8,304.8C856.3,582.3,935.2,818.7,1100.9,781.9z"/>
	<path id="Caminho_7880" class="st1" d="M1158.2,820.2c28.6-15.3,59-21.1,82-20.4c23.3,0.7,39.1,7.9,44.8,20.8
		c5.7,13,0.9,30.2-8.3,49.2c-9.4,18.9-23.2,39.6-41,57.1c-34,35.2-83.6,42.5-118.2,11.7C1082.8,908,1098.9,850.4,1158.2,820.2z"/>
	
		<linearGradient id="Caminho_7881_1_" gradientUnits="userSpaceOnUse" x1="509.2583" y1="1052.296" x2="510.2593" y2="1052.296" gradientTransform="matrix(1133.5574 0 0 -818.2154 -565917.4375 861554.125)">
		<stop  offset="0" style="stop-color:#0F467A"/>
		<stop  offset="1" style="stop-color:#EA8EB4"/>
	</linearGradient>
	<path id="Caminho_7881" class="st2" d="M1068.6,718.8c56.9-1.5,97.3-45.6,161.1-31.8c66.7,14.4,100.4,191.8,248.5,248.5
		c115.1,44,362.1,46.6,486-195.2s33.9-524.9-151.7-540.4c-134.5-11.2-238.5,38.8-349.1,35.5c-102.6-3.1-208.7-93.7-304.1-95.2
		c-153.8-2.5-230.4,136.3-261.8,245.1C867.6,489.1,900.8,723.2,1068.6,718.8z"/>
	<g id="Grupo_1536">
		<g>
			<defs>
				<path id="SVGID_1_" d="M1068.6,718.8c56.9-1.5,97.3-45.6,161.1-31.8c66.7,14.4,100.4,191.8,248.5,248.5
					c115.1,44,362.1,46.6,486-195.2s33.9-524.9-151.7-540.4c-134.5-11.2-238.5,38.8-349.1,35.5c-102.6-3.1-208.7-93.7-304.1-95.2
					c-153.8-2.5-230.4,136.3-261.8,245.1C867.6,489.1,900.8,723.2,1068.6,718.8z"/>
			</defs>
			<clipPath id="SVGID_2_">
				<use xlink:href="#SVGID_1_"  style="overflow:visible;"/>
			</clipPath>
			<g id="Grupo_1535" class="st3">
				<g id="Grupo_1534">
					<g id="Grupo_1524">
						<path id="Caminho_7882" class="st4" d="M1271.8,590.8c0,0,2.1,7.2-36.3,18.9s-91.8,19.7-91.8,19.7l80.3-33.9
							C1224.1,595.4,1257.7,583.7,1271.8,590.8z"/>
						<path id="Caminho_7883" class="st4" d="M1155.8,628.7c-20.4,7.1-27,22.1-34.1,27.8s-12.5,10-12.5,10s8.3-12,10.7-15.7
							s0.1-5.4-5.4-0.1s-19.3,21.7-19.3,21.7c2-5.7,4.6-11.1,7.8-16.2c5.9-9.3,14-18.2,16-19.9c3.8-3.1,17.3-8.2,27.4-10.4
							C1157.9,623.5,1170.5,623.6,1155.8,628.7z"/>
						<path id="Caminho_7884" class="st5" d="M1204.6,617.7c10.5-2.4,21.2-5.1,31-8.1c9.4-2.8,22.4-6.2,27.6-8.5
							c16-7,0.9-13.2,0.9-13.2c-14.2-7-39.9,7.4-39.9,7.4l-24,10.1L1204.6,617.7z"/>
					</g>
					<g id="Grupo_1527">
						<g id="Grupo_1525">
							<path id="Caminho_7885" class="st4" d="M1383.3,475.4l107.4,11.1c0,0-51.6-38.9-90.8-49.2S1381.7,475.9,1383.3,475.4z"/>
							<path id="Caminho_7886" class="st6" d="M1152.4,440.2c0,0,17-21.2,97.5-23.8c7.3-0.2,16.3,0.6,24.7,0.7
								c103.9,1,101.3,11.5,101.3,11.5l22.6,6.9l-3,40.8l-166.9,1.5L1152.4,440.2z"/>
							<path id="Caminho_7887" class="st7" d="M1228.6,477.7l141.3-1.3l0.1-0.6l-22-8.5c0,0,3.4-10.3-100.2-18.7
								c-34-2.7-59.1-2-77.4,0.2L1228.6,477.7z"/>
							<path id="Caminho_7888" class="st7" d="M1378.2,443.9l-3.5,26.9v6.9l19.3,3.5l-2.3-32.4L1378.2,443.9z"/>
						</g>
						<path id="Caminho_7889" class="st4" d="M1180.2,417.5c-1,12.3-7.6,22.9-14.6,23.4h-19.8c-7-0.5-13.6-11.2-14.6-23.4
							c-1.6-20.3-3.2-40.5-4.9-60.8c-1.1-12.2,3.7-36.5,14.2-43.7c9.6-6.4,20.7-6.4,30.3,0c10.5,7.2,15.3,31.6,14.2,43.7
							C1183.5,377,1181.8,397.2,1180.2,417.5z"/>
						<path id="Caminho_7890" class="st4" d="M1046.4,621.5l52.9,85.9c0,0-78.6-37.8-74.6-72.9S1046.4,621.5,1046.4,621.5z"/>
						<path id="Caminho_7891" class="st6" d="M1247,416.5l-59.8,6.1l-37.4,11.6l-31.6-6.7l-42,18.2c0,0-19,18.2-1.4,76.8
							s10.8,126.3,10.8,126.3l152.6,9.7C1238.3,658.5,1232.1,449,1247,416.5z"/>
						<path id="Caminho_7892" class="st6" d="M1103.3,448.3c-7.5-5.6-17.4-6.7-25.9-3c-6.2,2.6-13.4,10.2-20.2,18.6
							c-39.3,48.8-58.3,109.4-62.4,121.1s-9.5,46.9,6.8,57.3l16.3,10.4l35.8-20.3l-7.3-11l-2.7-6.5c0,0,19-41.7,39.3-79.4
							S1103.3,448.3,1103.3,448.3z"/>
						<path id="Caminho_7893" class="st7" d="M1148.1,432.5L1133,449l-15.1-21.7l9.1-13.4L1148.1,432.5z"/>
						<path id="Caminho_7894" class="st7" d="M1182,413.1l-29,18.7l13.7,16.5l22.6-25.7L1182,413.1z"/>
						<rect id="Retângulo_1182" x="1144.9" y="431.7" class="st7" width="12.9" height="220.8"/>
						<path id="Caminho_7895" class="st8" d="M1090.9,1195.4c-1.6,2-0.4,7.2-0.4,7.2s28.5,3.2,37.7,1c2.4-0.6,6.4-2.6,10.2-4.8
							c0.6-0.4,1.8-2.6,2.4-2.9c1.2-0.7,1.7,0.5,2.7-0.2c1.5-0.9,3-1.9,4.4-3c2.5-13.1-0.8-18.4-0.8-18.4s-24.3-8.1-28.9-2.4
							C1107.5,1185.2,1094.5,1191.1,1090.9,1195.4z"/>
						<path id="Caminho_7896" class="st9" d="M1161.2,716c0,0,18.9,169.5,56.8,229.6s58-11,58-11l-37.7-281.2l-119.3-0.7
							C1119,652.7,1143.1,651.8,1161.2,716z"/>
						<path id="Caminho_7897" class="st9" d="M1183.2,653.4c0,0-18.1,273.2-22.6,287c-15.4,46.8-55.1,18.7-60.6,3.1
							s-14.5-131-12.7-215.3s1.8-78.7,1.8-78.7L1183.2,653.4z"/>
						<path id="Caminho_7898" class="st9" d="M1154.3,891.8c0,0,12.4,42.7,11.8,89.8c-0.6,41.7-9.7,125.6-18.5,193.4
							c-0.5,4.1-34.4-0.2-34.4-0.2s-8-160.2-10.1-202.9c-0.7-15.2-6.9-59.1-1.3-73.4C1112,872.4,1137.5,871.6,1154.3,891.8z"/>
						<path id="Caminho_7899" class="st10" d="M1264.7,940.7c0,0-13.2,7.3-43.4,9.8c-6,0.5,43.8,235.8,43.8,235.8l42.8-18.4
							l-33.1-238.2L1264.7,940.7z"/>
						<path id="Caminho_7900" class="st8" d="M1268.5,1183.6l4.1,21.3h21.7c0,0,1.2-3,3-3c1.5,0,3.5,3,5.6,3h55.2c0,0,1-4.5-0.2-6
							c-0.6-0.8-4.2-2.2-6.7-2.8c-11.2-3.2-43.3-13-48.9-23.7C1295.6,1159.3,1268.5,1183.6,1268.5,1183.6z"/>
						<path id="Caminho_7901" class="st7" d="M1046.4,621.5c0,0,2.4,0,5,4.9c2.3,4.3,8,8.5,4.5,10s-21.2,18.4-23.7,20.5
							s-11.9-1.4-11.9-1.4s-6.3-3.1-5.8-4.6S1042.4,622.6,1046.4,621.5z"/>
						<g id="Grupo_1526">
							<path id="Caminho_7902" class="st11" d="M1158.2,309.3v-13.8h29.7c10,0,18.1,8.1,18.1,18.1c0,0,0,0,0,0v13.7h-29.7
								C1166.3,327.4,1158.2,319.3,1158.2,309.3C1158.2,309.3,1158.2,309.3,1158.2,309.3z"/>
							<path id="Caminho_7903" class="st4" d="M1129.8,392.8c0,8.9,7.2,16.1,16.1,16.1h36.5c8.9,0,16.1-7.2,16.1-16.1c0,0,0,0,0,0
								v-73c0-8.9-7.2-16.1-16.1-16.1h-36.5c-8.9,0-16.1,7.2-16.1,16.1V392.8z"/>
							<path id="Caminho_7904" class="st11" d="M1157.1,295.5c-6.1,0-11.8,3.1-15.1,8.2h-6.2c-7.7,0-14,6.3-14,14c0,0,0,0,0,0v34.6
								h9.9v-14.1c0-5.4,4.4-9.9,9.9-9.9h29.8c10,0,18.1-8.1,18.1-18.1c0,0,0,0,0,0v-14.8H1157.1z"/>
							<path id="Caminho_7905" class="st4" d="M1134.7,361.4c0-4.7-3.8-8.6-8.6-8.6c0,0,0,0,0,0h-0.7c-4.7,0-8.6,3.8-8.6,8.6v10.4
								c0,4.7,3.8,8.6,8.6,8.6h0.7c3.4,0,6.5-2,7.9-5.1"/>
						</g>
					</g>
					<g id="Grupo_1528">
						<path id="Caminho_7906" class="st4" d="M1684.1,528.9c-26.2,13.2-73.8,99.4-73.8,99.4s-9.5,37.6,71.5-62.6
							C1706.1,535.6,1690.6,525.6,1684.1,528.9z"/>
						<path id="Caminho_7907" class="st4" d="M1580.3,711.1l-3.7-12.1l-0.2-10.4l6.1-15.7c0,0,8.5-15.8,13.8-20.6s16.3-29,18.6-31.6
							s19.1,1.1,19.1,1.1s-18.5,21.7-25.1,30.9s-11.5,25.6-14,29.3c-2.6,3.9-5.7,7.4-9.3,10.4c0,0,4.7-10.9,6.3-13.7s-2.3-3-2.3-3
							s-8.1,14.3-8.6,18.9c-0.3,3-0.1,6,0.6,8.9L1580.3,711.1z"/>
						<path id="Caminho_7908" class="st12" d="M1728.6,479l-60.3,124.6l-2.8,7.5l-36.2-15.9c44.8-69.4,54.1-83,59.8-96.7
							c2.1-5,18.4-46.2,20.7-53.9s9.3-28.2,36.8-33.3C1772.7,406.4,1728.6,479,1728.6,479z"/>
					</g>
					<path id="Caminho_7909" class="st11" d="M1623.8,414.3l70.4,124.2l129.7,46.9l5.5,52.4l-146.3-42.8l-64.9-60.7L1623.8,414.3z"
						/>
					<g id="Grupo_1530">
						<path id="Caminho_7910" class="st13" d="M1816.7,398c0,29.7-24.6,53.7-54.9,53.7s-54.9-24.1-54.9-53.7s24.6-53.7,54.9-53.7
							S1816.7,368.3,1816.7,398z"/>
						<g id="Grupo_1529">
							<path id="Caminho_7911" class="st4" d="M1772.9,1121.5l0.6,65.7c0,0-23.4,28.6-32,33.2s-7.4,0.6-6.9-1.7s14.9-18.9,17.2-28
								s-2.9-65.2-2.3-68S1772.9,1121.5,1772.9,1121.5z"/>
							<path id="Caminho_7912" class="st4" d="M1834.6,1128.4c0,0,8.6,37.2,9.1,49.7s-1.7,16.6,1.7,20.6s27.4,35.4,33.2,35.4
								s5.7-5.7,5.7-5.7s-18.9-24-21.7-33.2s-3.4-60-3.4-65.2S1834.6,1128.4,1834.6,1128.4z"/>
							<path id="Caminho_7913" class="st4" d="M1843,549.3c0,0-9.2,1.2-4.4,50.6s23.1,120.8,23.1,120.8l-1.5-114.8
								C1860.2,605.7,1857.7,561.8,1843,549.3z"/>
							<path id="Caminho_7914" class="st14" d="M1765.6,666.5l3.8,236.3l7.6,226.4l-33.5,1.5c0,0-23.6-228.7-26.7-248.5
								s-37.3-179.1-17.5-218.8S1765.6,666.5,1765.6,666.5z"/>
							<path id="Caminho_7915" class="st11" d="M1699.3,663.4c-0.6,1.3-1.2,2.6-1.7,4c21.5,33.4,41.7,61.6,46.4,68.8
								c2.7,4.1,11.5,19.2,23.4,39.5l-1.8-109.3C1765.6,666.5,1719.1,623.8,1699.3,663.4z"/>
							<path id="Caminho_7916" class="st14" d="M1843.4,661.1c0,0,9.9,100.6,9.9,169.2s6.9,269.1,6.9,269.1v35.1l-25.9-0.8
								l-40.4-256.1l-33.5-216.5H1843.4z"/>
							<path id="Caminho_7917" class="st13" d="M1855.6,395.5c0,29.7-24.6,53.7-54.9,53.7s-54.9-24.1-54.9-53.7s24.6-53.7,54.9-53.7
								S1855.6,365.8,1855.6,395.5z"/>
							<path id="Caminho_7918" class="st13" d="M1817.5,339.7c0,28.3-21.5,51.3-48,51.3s-48-23-48-51.3s21.5-51.3,48-51.3
								S1817.5,311.3,1817.5,339.7z"/>
							<path id="Caminho_7919" class="st4" d="M1761.1,354.7c0,0,4.6,27.4,0.8,35.1s-29.7,25.2-33.5,30.5s7.6,46.5,45,40.4
								s70.9-29.7,70.9-35.8s-0.8-12.2-13-16.8s-32-7.6-37.4-13.7s-12.2-21.3-8.4-37.4S1761.1,354.7,1761.1,354.7z"/>
							<path id="Caminho_7920" class="st12" d="M1825.5,482.4l13.2,137.8v8l39.4-2.3c0,0-11.4-106.3-13.2-111.5s-5.7-49.7-5.1-57.7
								s-1.1-48-27.4-44S1825.5,482.4,1825.5,482.4z"/>
							<path id="Caminho_7921" class="st4" d="M1781.4,300c-0.8-0.2-1.6-0.4-2.4-0.5c-1.7,9.4-9.2,20.6-20.8,29.3
								c-2.7,2.1-5.6,3.9-8.6,5.5v8.8c0,13.1,11.1,23.7,24.8,23.7s24.8-10.6,24.8-23.7v-19.9C1792.4,318.7,1785.8,310.5,1781.4,300z
								"/>
							<path id="Caminho_7922" class="st5" d="M1832.9,669.3H1710l17.7-104.2l-4-122.2c0,0,22.9,8.8,42.9,10.1
								c13.1,0.8,41.2-10.1,41.2-10.1L1832.9,669.3z"/>
							<path id="Caminho_7923" class="st15" d="M1862.7,722.1c0,0-2.9,18.3-4.8,21.6c-1.3,2.3-9.5,12-9.5,12s0.5-6.8,3.6-10.9
								S1862.7,722.1,1862.7,722.1z"/>
							<path id="Caminho_7924" class="st16" d="M1717.2,428.6c0,0,3.8,75.5,1.5,102.9s-25.2,114.3-27.4,130.3l-2.3,16
								c0,0,9.9,6.1,15.2,6.9s15.5-4.4,19.1-22.9c4.4-22.9,17.9-101.6,20.6-115.9c3.8-20.2,0.8-79.3,3.8-86.9s14.1-32.4,12.6-38.5
								s-12.6-17.2-12.6-17.2S1723.3,414.2,1717.2,428.6z"/>
							<path id="Caminho_7925" class="st16" d="M1813.5,401.2c0,0-14.9,6.3-19.4,8.6s-2.3,27.4,0,30.9s6.3,80.6,6.9,98.9
								s2.9,90.3,5.7,103.5s1.1,28.6,14.9,33.7s30.9,5.1,30.9,5.1s-6.9-45.2-10.3-60.6s-14.3-52.6-15.4-76s2.3-58.9,3.4-77.8
								s11.4-49.2,12.6-52.6S1818,402.9,1813.5,401.2z"/>
							<path id="Caminho_7926" class="st8" d="M1774,1183.8c1.4,2.5,1.9,5.4,1.6,8.2c-0.5,3.4-3.4,13.5-3.4,13.5l-6.3,2.9v-4.6
								c0,0-11.4,13.7-17.2,17.7s-17.7,14-24.6,11.4c-1.2-0.5-2-1.6-2.3-2.9c0,0,10.9-12,12.6-13.7s5.7,1.7,10.3-1.1
								s17.6-15.3,21.2-19.4C1769.1,1192.1,1771.8,1188.1,1774,1183.8z"/>
							<path id="Caminho_7927" class="st8" d="M1843.6,1190c-0.8,2.8-1,5.7-0.7,8.5c0.5,3.4,3.1,8.9,3.1,8.9l5.7,3.2
								c0,0,10.7,13.3,16,17.3s16.4,14,22.8,11.4c1.1-0.6,1.9-1.6,2.1-2.9c0,0-10.1-12-11.7-13.7s-5.3,1.7-9.6-1.1
								s-16.4-15.3-19.7-19.4C1848.9,1198.4,1846.1,1194.3,1843.6,1190z"/>
							<path id="Caminho_7928" class="st12" d="M1810.6,398.9l-16.6,10.9c3.1,1.4,5.5,3.8,6.9,6.9c1.6,3.9,3,7.9,4,12l14.9-25.2
								C1819.7,403.5,1810.6,397.2,1810.6,398.9z"/>
							<path id="Caminho_7929" class="st12" d="M1749.4,400.6l2.7,4.4l8.6,15.2c0,0-1.8-4.8-8.4,0.4c-4.4,3.5-6.9,12-6.9,12
								l-4.6-27.4L1749.4,400.6z"/>
							<path id="Caminho_7930" class="st4" d="M1852.9,682c2.7,23.4-6.9,34.6-9.1,44.3c-1.7,6.6-3.7,13.1-6.2,19.5
								c8.5-6.2,7.9-13.8,10.4-17.9s1.1-3,2.7,5.3c0.9,4.7-5.8,13.9-9.3,20.3c-3,5.6-3,8.9-3,8.9c4.6-4.7,8.7-9.8,12.3-15.3
								c6.4-10.2,11.4-22.4,12-25.2c1.2-5.2-0.1-20.9-2.7-31.9C1857.1,677.5,1851,665.1,1852.9,682z"/>
						</g>
					</g>
					<path id="Caminho_7931" class="st14" d="M1455.8,418.2l21.7,55.4l-73.2,121.5l-45.5-2.8l5.5-46.9L1455.8,418.2z"/>
					<g id="Grupo_1531">
						<path id="Caminho_7932" class="st13" d="M1319.1,380.8c-3.4,0-6.9,0.3-10.2,0.9c0.6,3.4,1,6.8,1,10.2
							c0,28-20.6,51.1-47.8,55.9c4.9,26.5,28.6,46.6,57,46.6c32,0,58-25.4,58-56.8S1351.1,380.8,1319.1,380.8z"/>
						<path id="Caminho_7933" class="st13" d="M1392.3,383.4c-7.1-3.9-15.1-5.9-23.1-5.9c-26.4,0-47.7,20.9-47.7,46.8
							s21.4,46.8,47.7,46.8c25.8,0,46.8-20.1,47.7-45.1C1402.6,416.2,1393.6,400.6,1392.3,383.4z"/>
						<path id="Caminho_7934" class="st13" d="M1392.4,377c0,24.6-18.7,44.6-41.8,44.6s-41.8-20-41.8-44.6s18.7-44.6,41.8-44.6
							S1392.4,352.4,1392.4,377z"/>
						<path id="Caminho_7935" class="st4" d="M1296.9,449.1c0,0,19.7,38.5,42.9,43.8s55.4,0.3,58.7-9s-4.8-27.5-10.1-32.2
							s-22.5-9.3-27.2-17.9c-3.8-7-2.7-19.9,0-29.8s10.6-10.6,2.7-15.3s-4.6-9.3-12.6-8s-12.6-1.7-12.6,6c0,13.9,1.1,33.5-6.6,42.4
							C1323.4,439.2,1315,442.2,1296.9,449.1z"/>
						<path id="Caminho_7936" class="st4" d="M1366.3,350.5c-0.7-0.2-1.4-0.3-2.1-0.5c-1.4,8.2-8,17.9-18.1,25.5
							c-2.4,1.8-4.9,3.4-7.5,4.8v7.7c0,11.4,9.7,20.6,21.6,20.6s21.6-9.2,21.6-20.6v-17.3C1375.8,366.8,1370.2,359.6,1366.3,350.5z"
							/>
						<path id="Caminho_7937" class="st15" d="M1338.9,1205.2c0,0-4.3-1.9-16.4-4.1c-7-1.3-12.4-1.3-14.9-3.9
							c-4.2-4.4-1.9-14.9-3.9-14.4c-9.9,2.3-13.4,25.5-7.6,28.4s38.6-1,41.3-1.2S1339.8,1204.6,1338.9,1205.2z"/>
						<path id="Caminho_7938" class="st15" d="M1361.1,945.2c-4.6-2.4-19.2,10.4-25.1,22.1c-11.5,22.8-14.1,35.6-17.6,61.2
							c-5.6,40.6-15.2,105-18.1,132.5c-2.6,24.8-13.6,53.7,5.2,50.4c-2.2-34.3,14.9-85,24.9-111.6
							C1364.8,1009,1375.4,952.5,1361.1,945.2z"/>
						<path id="Caminho_7939" class="st5" d="M1332.1,1203.1c1.9,7.8-22.2,4.7-28.4,2.6c-3.2-1.1-6.4-1.9-9.7-2.6
							c-0.3,0-0.5,0-0.7,0c0,0.2-0.1,0.4-0.1,0.6c0,4.3-1.9,10,5,10h43.1C1376.4,1213.7,1332,1202.9,1332.1,1203.1z"/>
						<path id="Caminho_7940" class="st15" d="M1376.1,678c-8-2.9-8.8,4.3-16.3,21.7c-14.6,34.1-25.7,85.5-26.4,141.3
							c-0.9,65.3,5.3,122.9,15.5,159.6c13.2-24.7,22.3-38.8,33.3-95C1406.7,781,1400.8,686.8,1376.1,678z"/>
						<path id="Caminho_7941" class="st15" d="M1365.6,918.7c-3.5-2.4-11.2,8.5-17,19.1c-11.4,20.8-17,46.6-24.4,82.2
							c-8.7,41.7-13,79-12.6,103.2c9.1-18.2,17.2-41.6,27.8-66C1375.7,974.1,1376.5,926.1,1365.6,918.7z"/>
						<path id="Caminho_7942" class="st4" d="M1366.6,614.2c-4.3,19.5-0.2,22.2-11.4,5.8L1273,490.5c-11.2-16.4-4.6-35.9,14.6-39.8
							l102.6-18.7c19.2-3.8,25.4,15,21.1,34.4L1366.6,614.2z"/>
						<path id="Caminho_7943" class="st4" d="M1319.1,677.2c-11.8-2.8-12.4,4.7-21.7,23c-18.3,36-24,89.8-20.4,148.1
							c3.4,55.8,8.4,125.7,14.3,143.7c2.8,8.4,12.1,15.9,15.4,22.9c13.4-31.2,21-69.2,27.8-111.3
							C1355.5,772.5,1355.4,685.9,1319.1,677.2z"/>
						<path id="Caminho_7944" class="st4" d="M1378.5,670.2c-8-2.4-8.6,4.1-15.3,20.2c-13.3,31.5-22.4,78.6-21.3,129.5
							c1.4,59.6,9.4,112,20.8,145.4c9.8-27.3,15.9-60.5,21.4-97.3C1401.3,753.3,1403.2,677.7,1378.5,670.2z"/>
						<path id="Caminho_7945" class="st5" d="M1396,905.9c1.1-4.8,1.9-9.6,2.3-14.5c2.1-50,14.8-98.9-15.2-271
							c-1.4-9.2-5.5-23.6-7.9-31.3c-18.9-14.3-36.9-3.3-57.1-14.4c-7.9,8.2-25.7,24.3-34.5,41.4c-52.2,100.9-29.2,246.7-35.4,300.8
							C1294.9,928.3,1345.8,927.1,1396,905.9z"/>
						<path id="Caminho_7946" class="st5" d="M1285.7,456.3c13.8,47.2-14.8,138.3-14.8,138.3s-9.5,5-13.1-2.9
							c-4.6-10-3.1-39,2.2-106.6C1263.3,443.3,1283.4,448.5,1285.7,456.3z"/>
						<path id="Caminho_7947" class="st17" d="M1376.1,589.8c-0.1,0.8-3.9,1.2-8.7,0.9l-53.8-3.3c-4.8-0.3-8.6-1.2-8.5-2l0.2-3.1
							c0-0.8,3.9-1.2,8.7-0.9l53.8,3.4c4.8,0.3,8.6,1.2,8.5,2L1376.1,589.8z"/>
						<path id="Caminho_7948" class="st16" d="M1412.2,506.1c-4.3-16.3-8.6-32.6-12.7-49c-0.9-3.4-2.2-6.7-3.8-9.7
							c-36.4,8.6-73.6,13.4-110.9,14.4c-0.2,1.5-0.4,3.1-0.5,4.7c-0.9,17.6,0.3,35.3-0.4,52.9c-0.4,7.5,5.1,14.5,11.8,19.5
							c-0.6,1.4-0.9,2.8-1,4.3l-1.3,8.6c-0.3,7.1,4.7,31.1,11.3,31.5l71.4,3.8c6.6,0.3,15.2-14.2,15.6-21.2l9.9-34.6
							c0-0.6,0-1.2-0.1-1.8C1408.4,523.3,1414.5,514.3,1412.2,506.1z"/>
						<path id="Caminho_7949" class="st5" d="M1311.3,443.5c0,0-37-1.1-43.5,16.6s9.3,43.5,9.3,43.5s9.4,32.8,12,50.6
							s-8.7,34.7-5.2,31.2c0.7-0.7,9.1,0.1,22.4-6.1s5.9-30.5,4.6-38.4s-7.8-46.3-6.4-52.7S1311.3,443.5,1311.3,443.5z"/>
						<path id="Caminho_7950" class="st5" d="M1417.1,458.2c0,0,2.9-14.8-3.3-20.7c-9-8.6-30.6-7.5-37.6-5.4
							c-4,1.2-7.9,2.6-11.7,4.3c0,0,24.5,9.9,23.5,60.6c-0.2,8.7-2.4,26.3-5.3,39.8s-3.9,39.8-3.9,39.8s14.6,3,15.3,5.2
							s1.6-15.6,11.5-32.6S1417.1,458.2,1417.1,458.2z"/>
						<path id="Caminho_7951" class="st18" d="M1384.8,430.8c13.6,11.3,21.9,21,19.8,79.9c-0.3,9.5,0.1,27.1-1.7,43.4
							c0.8-1.7,5-9.3,5.7-11.1c13.3-34,8.5-84.9,8.5-84.9s2.9-14.8-3.3-20.7C1407.3,431.3,1394.2,430.2,1384.8,430.8z"/>
						<path id="Caminho_7952" class="st4" d="M1291,980.4c0.7-6.3,1.5-12.6,2.3-18.7c4-9.4,7.8-14.6,11.2-14.4
							c12.8,0.7,29.6,48.3,3.5,171.2c-1.3,6.2-15.6,112-16.3,109.6C1283.1,1198.1,1280.1,1074.2,1291,980.4z"/>
						<path id="Caminho_7953" class="st5" d="M1291.5,1238.5c-5.9,17.4-14.4,30.2-19,28.6s-3.5-16.9,2.4-34.3s14.4-30.2,19-28.6
							S1297.4,1221.2,1291.5,1238.5z"/>
						<path id="Caminho_7954" class="st4" d="M1292.6,1228.5c-2.4,13.3-10,23.7-14.6,22.1s-4.5-12.7,0.5-25.3
							c6.2-15.9,8.8-20.6,8.1-31.3C1286,1183.9,1301.9,1178.5,1292.6,1228.5z"/>
					</g>
					<g id="Grupo_1533">
						<g id="Grupo_1532">
							<path id="Caminho_7955" class="st4" d="M1558.3,339.9c-1.9,6.2,0.1,12.3,4.3,13.6l0,0c4.2,1.3,9.2-2.8,11-9l2.3-7.8
								c1.8-6.2-0.1-12.3-4.3-13.6l0,0c-4.2-1.2-9.2,2.8-11,9L1558.3,339.9z"/>
							<path id="Caminho_7956" class="st19" d="M1516.2,397.2c0.5,11.4,6.1,21.5,12.5,22.3l18.3,0.8c6.4-0.2,13-9.8,14.4-21.1
								c2.3-18.6,4.6-37.3,7-55.9c1.5-11.2-1.9-33.9-11.3-41c-8.6-6.3-18.8-6.8-28-1.2c-10,6.2-15.4,28.6-14.9,39.8
								C1514.9,359.6,1515.6,378.4,1516.2,397.2z"/>
							<path id="Caminho_7957" class="st4" d="M1508,367.9c2.5,10.7,6.7,13.4,14.4,14.9c7.3,1.1,9.1,1.9,16.4,2.9
								c7.8,0.7,16.2-9.3,18.4-18.6c3.6-15.4,12.6-27.8,16.2-43.3c2.3-9.3-1.3-17.8-12.4-25c-10.1-6.5-21.9-19.4-33.2-16
								c-12.3,3.9-19.8,22-19.6,31.6C1508.2,330.4,1508,351.9,1508,367.9z"/>
							<path id="Caminho_7958" class="st11" d="M1579.6,311.9l-6.2,11.9c0,0-11.4-14.1-19.4-25.6c-2.5-3.6-30-5.1-36.9-4.2
								c-5,0.7-5.9,7-7.2,10.6c-4.7,13,2.7-22.2,2.7-22.2s10-16.3,27.6-16.9c9.7-0.3,13.9,5.5,17.3,12.9c0.8,1.7-10.5-3.2-8.5-3.4
								c0.5,0,11.4,10.4,11.7,11.2c1.5,3.9,3.3,7.6,5.6,11.2C1575,310.3,1579.6,311.9,1579.6,311.9z"/>
							<path id="Caminho_7959" class="st19" d="M1538.2,317.4l-7.6,0.7l1.8,4.7l-6.1,2l-6.9,23l9.9,1.2l2.2-14.2l6.3-6.9l15.3-0.7
								L1538.2,317.4z"/>
						</g>
						<path id="Caminho_7960" class="st8" d="M1406.2,1172.5l0,24.6l-2.7,20.7l-7.8,6.2l-6,2.4l-1.5,3.6l-20.1,16
							c-5.5,3-13.6,5-23.6,3.5c-3.4-0.5,0.5-10.1,1.5-11.5c6-8.5,15.6-18.1,15.6-18.1l14.8-21.9l16.6-27.3L1406.2,1172.5z"/>
						<path id="Caminho_7961" class="st8" d="M1600,1197.8l-4.5,10.3l-1.9,11.3l1.9,17.5l9.6,0.6l7-2.1l5,2.9c0,0,27.3,3,37.5,2.5
							c16.8-0.9,25.8-3.4,28.8-6.9c1.7-2-6.4-4.8-9-5c-15.1-1-31.5-9.2-31.5-9.2l-13.4-12.8l-3.2-9.6L1600,1197.8z"/>
						<path id="Caminho_7962" class="st6" d="M1460.9,423.9l58-24.8l19.7,11.9l35.5-9.1c0,0,41.4,24.8,45.5,24.8
							s-1.4,231.9-1.4,231.9l-104.9,33.1l-40-26.2L1460.9,423.9z"/>
						<path id="Caminho_7963" class="st11" d="M1478.4,654.9L1371.3,1199l38.6-1.2l59.4-175.4l13.5-52.5l62.5-207.6l15.8-111.3
							L1478.4,654.9z"/>
						<path id="Caminho_7964" class="st11" d="M1590.9,1201.4l-8.3-220l-18.3-99.6l-23.6-136.8l9.5-93.8l84.1-5.3l-3.3,157.6
							l8.6,141.2l1.7,53.4l-4.4,211.1L1590.9,1201.4z"/>
						<path id="Caminho_7965" class="st14" d="M1502.3,673.1l6.9-220.4l8.3-52.2l-62.1,17.4l-4.1,268.2L1502.3,673.1z"/>
						<path id="Caminho_7966" class="st14" d="M1563.1,399.1l16.1,30.8l10.1,228.7l1.4,17.4l69-7.2l-23.5-213.1l-12.4-43.4
							L1563.1,399.1z"/>
						<path id="Caminho_7967" class="st11" d="M1496.8,568.8l-17.9-89.7l11-16.6l-9.7-42.8l9.7-13.8l29-9.7l-9.7,100.8l-5.5,132.5
							L1496.8,568.8z"/>
						<path id="Caminho_7968" class="st11" d="M1563.2,398.3c-1.4,4.1,14.6,33.5,14.6,33.5l8.7,166.1l20.7-122.8l-5.5-22.1l5.5-13.8
							l-17.2-34.9L1563.2,398.3z"/>
						<path id="Caminho_7969" class="st5" d="M1536.8,409.8l-3.2,9.9l2.8,2.3l6-0.5l2.8-2.3l-2.9-9.6l-4.9,0"/>
						<path id="Caminho_7970" class="st7" d="M1536.8,409.7l-14.1,15.8l-11-26.7l3.5-7L1536.8,409.7z"/>
						<path id="Caminho_7971" class="st7" d="M1562.9,391.3l-20.8,18.5l13.7,16.5l11.6-26.7L1562.9,391.3z"/>
						<path id="Caminho_7972" class="st5" d="M1538.8,412.9c2.7,3,4.7,6.7,5.6,10.6c6.8,28.4,19.2,109.2-5.8,189.8
							c-2.4,7.9-11.8,12.2-11.8,12.2l-9.5-13.5c0,0,16.5-106.5,18.6-189C1536,419.6,1538.8,416.2,1538.8,412.9z"/>
					</g>
				</g>
			</g>
		</g>
	</g>
</g>
</svg>
