<svg id="Layer_1" data-name="Layer 1" xmlns="http://www.w3.org/2000/svg" xmlns:xlink="http://www.w3.org/1999/xlink" viewBox="0 0 116.02 116.02"><defs><style>.cls-1,.cls-7{fill:none;}.cls-2{clip-path:url(#clip-path);}.cls-3{fill:url(#linear-gradient);}.cls-4{clip-path:url(#clip-path-2);}.cls-5{fill:#f17b48;}.cls-6{fill:url(#linear-gradient-2);}.cls-7{stroke:#fff;stroke-linecap:round;stroke-linejoin:round;stroke-width:2.66px;}.cls-8{fill:#fff;}</style><clipPath id="clip-path"><circle class="cls-1" cx="-88.06" cy="59" r="58.01"/></clipPath><linearGradient id="linear-gradient" x1="-128.67" y1="110.54" x2="41.71" y2="110.54" gradientUnits="userSpaceOnUse"><stop offset="0" stop-color="#36939a"/><stop offset="0.32" stop-color="#39a5ad"/><stop offset="0.66" stop-color="#3bb1b9"/><stop offset="1" stop-color="#3cb5bd"/></linearGradient><clipPath id="clip-path-2"><path class="cls-1" d="M116,58A58,58,0,1,1,58,0,58,58,0,0,1,116,58Z"/></clipPath><linearGradient id="linear-gradient-2" x1="18.48" y1="90.12" x2="164.69" y2="90.12" gradientUnits="userSpaceOnUse"><stop offset="0" stop-color="#c5653a"/><stop offset="0.09" stop-color="#cd693d"/><stop offset="0.4" stop-color="#e17343"/><stop offset="0.7" stop-color="#ed7947"/><stop offset="1" stop-color="#f17b48"/></linearGradient></defs><g class="cls-2"><path class="cls-3" d="M-59.66,40.37a1.28,1.28,0,0,0-.39-.89l-4.89-4.66a1.21,1.21,0,0,0-.56-.29,1,1,0,0,0-.36-.07h-20V32.05a1.33,1.33,0,0,0-1.33-1.33h-4.33a1.33,1.33,0,0,0-1.33,1.33v2.41h-20a1.35,1.35,0,0,0-.92.36l-4.89,4.66a1.34,1.34,0,0,0-.32,1.46,1,1,0,0,0,.11.17v1.55a4.63,4.63,0,0,0-3.32,4.43,4.69,4.69,0,0,0,.82,2.64l-7.09,20-.29.81.74.6a12.07,12.07,0,0,0,2.42,1.46L-7.74,190.37l49.45-48.64Z"/></g><g class="cls-4"><path class="cls-5" d="M116,58A58,58,0,1,1,58,0,58,58,0,0,1,116,58Z"/><path class="cls-6" d="M93.87,51.31a20.45,20.45,0,0,0-5.53-7.79,28.32,28.32,0,0,0-6.24-4l-8.38-8.38-.59-1-.06,0a28.51,28.51,0,0,0-2.3-3.12,29.88,29.88,0,0,0-3.65-3.64,31.23,31.23,0,0,0-2.71-2A29.61,29.61,0,1,0,38.07,74L50,85.93a5.47,5.47,0,0,0,1,2.26,5.26,5.26,0,0,0,3.15,1.9l73.63,73.64,36.9-41.6Z"/><path class="cls-7" d="M60.72,88c3.52-1.29,8.78-3.81,12-8.17"/></g><path class="cls-8" d="M47,78a12.32,12.32,0,0,1-.55,2.31c-.11.37-.6,1-.36,1.37a5,5,0,0,0,1.81,1,7.65,7.65,0,0,0,0,2c.22,1,.93.44,1.49,1s.18,1.84,0,2.43c-.9,3.56,1.11,6.24,5.12,5.57a29.8,29.8,0,0,1,4.14-.56c3.92-1.31,10.88-4.27,14.93-9.7a1.21,1.21,0,1,1,1.94,1.45c-3.63,4.87-9.2,7.87-13.42,9.57a6.31,6.31,0,0,1,1.17,3l31.11-1.11c-4-4.23-4.46-17.82-.89-21.6s4.9-12.25,4.9-12.25A25,25,0,0,0,86,39.49S72.17,32.14,60.37,37,47.23,51.52,47,55.31s1.79,9.13-.22,11.8-5.12,6.91-4,8.69S47.23,76,47,78Z"/><path class="cls-8" d="M22.85,45.2A24.26,24.26,0,0,1,65.8,29.73a34.13,34.13,0,0,1,7.71.1A30.87,30.87,0,0,0,16.12,45.65c0,13.08,8.13,24.25,21.4,29.58a22.17,22.17,0,0,1,3.25-5.84C29.35,65.38,22.85,55.21,22.85,45.2Z"/><path class="cls-8" d="M29.83,45.65c0,7.87,4.14,13.85,11.36,15.89a10,10,0,0,0,2.19.67c-.13-2.59-.75-5.49-.79-8a9,9,0,0,1-6.45-8.86,9.47,9.47,0,0,1,9.47-9.47,8.14,8.14,0,0,1,4.44.94,27.46,27.46,0,0,1,7.64-4.93A16.8,16.8,0,0,0,47,28.47,17.18,17.18,0,0,0,29.83,45.65Z"/></svg>