<?xml version="1.0" encoding="utf-8"?>
<!-- Generator: Adobe Illustrator 24.2.1, SVG Export Plug-In . SVG Version: 6.00 Build 0)  -->
<svg version="1.1" id="Camada_1" xmlns="http://www.w3.org/2000/svg" xmlns:xlink="http://www.w3.org/1999/xlink" x="0px" y="0px"
	 viewBox="0 0 1119.3 960.2" style="enable-background:new 0 0 1119.3 960.2;" xml:space="preserve">
<style type="text/css">
	.st0{clip-path:url(#SVGID_2_);}
	.st1{fill:#858585;}
	.st2{fill:#8E8E8E;}
	.st3{fill:#808080;}
	.st4{fill:#EAEBEF;}
	.st5{fill:#BCD0E2;}
	.st6{fill:#163F59;}
	.st7{fill:#194866;}
	.st8{clip-path:url(#SVGID_4_);}
	.st9{fill:#5D3227;}
	.st10{fill:#59D4CE;}
	.st11{fill:#22B5BF;}
	.st12{clip-path:url(#SVGID_6_);}
	.st13{fill:#B0BFDE;}
	.st14{fill:#DBDAC6;}
	.st15{fill:#C4D1E1;}
	.st16{fill:#E4EEF3;}
	.st17{fill:#E9D6B8;}
	.st18{fill:#E2C59C;}
	.st19{fill:#081832;}
	.st20{fill:#B6C2C9;}
	.st21{fill:#D8E5ED;}
	.st22{fill:#879BA6;}
	.st23{fill:#D9E1E4;}
	.st24{fill:#CDD5D7;}
	.st25{fill:#282723;}
	.st26{fill:#161711;}
	.st27{fill:#1F6CD1;}
	.st28{fill:#D1DBEA;}
	.st29{fill:#2C7EEA;}
	.st30{fill:#B7BEC0;}
	.st31{fill:#FF5931;}
	.st32{fill:#E5E8EC;}
	.st33{fill:#0A243C;}
	.st34{fill:#F3AA06;}
	.st35{fill:#FFFFFF;}
	.st36{fill:#C9C8B6;}
	.st37{fill:#2B99F1;}
	.st38{fill:#596273;}
	.st39{fill:#4E99FF;}
</style>
<g id="Grupo_2352" transform="translate(-2309.872 -1392.468)">
	<g id="Grupo_2328" transform="translate(2867.839 1392.468)">
		<g id="Grupo_2306" transform="translate(69.905 196.567)">
			<g id="Grupo_2291" transform="translate(253.514 254.196)">
				<g id="Grupo_2290">
					<g id="Grupo_2285" transform="translate(169.115 7.502)">
						<g>
							<defs>
								<path id="SVGID_1_" d="M22.6,358.3l-32.2,5.2c31.2-45.4,46-93.9,46.3-151.4l32.2-5.2C68.6,264.4,53.8,312.9,22.6,358.3z"/>
							</defs>
							<clipPath id="SVGID_2_">
								<use xlink:href="#SVGID_1_"  style="overflow:visible;"/>
							</clipPath>
							<g id="Grupo_2284" class="st0">
								<g id="Grupo_2283">
									<path id="Caminho_9625" class="st1" d="M22.6,358.3l-32.2,5.2c31.2-45.4,46-93.9,46.3-151.4l32.2-5.2
										C68.6,264.4,53.8,312.9,22.6,358.3"/>
								</g>
							</g>
						</g>
					</g>
					<g id="Grupo_2286" transform="translate(28.244 0.003)">
						<path id="Caminho_9627" class="st2" d="M-29.4,205.9l192.8,160c31.2-45.4,46-93.9,46.3-151.4c-0.2,57.5-15,106-46.3,151.4
							L-29.4,205.9z"/>
					</g>
					<g id="Grupo_2287">
						<path id="Caminho_9628" class="st3" d="M191.7,365.8l-32.2,5.2l-192.8-160l32.2-5.2L191.7,365.8z"/>
					</g>
					<g id="Grupo_2288" transform="translate(28.244 0.003)">
						<path id="Caminho_9629" class="st4" d="M-29.4,205.9l239.1,8.6c-0.2,57.5-15,106-46.3,151.4L-29.4,205.9z"/>
					</g>
					<g id="Grupo_2289">
						<path id="Caminho_9630" class="st5" d="M191.7,365.8l-32.2,5.2l-192.8-160l32.2-5.2L191.7,365.8z"/>
					</g>
				</g>
			</g>
			<g id="Grupo_2299" transform="translate(184.629)">
				<g id="Grupo_2298">
					<g id="Grupo_2292" transform="translate(63.949 228.583)">
						<path id="Caminho_9631" class="st6" d="M237.3,210.8l-32.2,5.2L-34,207.5l32.2-5.2L237.3,210.8z"/>
					</g>
					<g id="Grupo_2293" transform="translate(28.26)">
						<path id="Caminho_9632" class="st7" d="M17.3,170.4c107.4-4.8,210,70.4,244.3,188c5.8,19.5,9.4,39.7,10.7,60
							c0.4,6.8,0.6,13.7,0.6,20.9l-239.1-8.6L-39,180.5C-20.8,174.7-1.8,171.3,17.3,170.4z"/>
					</g>
					<g id="Grupo_2294" transform="translate(0 9.049)">
						<path id="Caminho_9633" class="st6" d="M62.1,421.8L29.9,427L-43,176.7l32.2-5.2L62.1,421.8z"/>
					</g>
					<g id="Grupo_2297" transform="translate(0.005 2.445)">
						<g>
							<defs>
								<path id="SVGID_3_" d="M-11.4,175.8c10.7-1.7,21.5-3.4,32.2-5.2c-10.7,1.7-21.3,4.2-31.6,7.5l-32.2,5.2
									C-32.7,180-22.1,177.5-11.4,175.8z"/>
							</defs>
							<clipPath id="SVGID_4_">
								<use xlink:href="#SVGID_3_"  style="overflow:visible;"/>
							</clipPath>
							<g id="Grupo_2296" class="st8">
								<g id="Grupo_2295">
									<path id="Caminho_9634" class="st9" d="M-10.8,178.1l-32.2,5.2c10.3-3.3,20.9-5.8,31.6-7.6l32.2-5.2
										C10.1,172.3-0.5,174.8-10.8,178.1"/>
								</g>
							</g>
						</g>
					</g>
				</g>
			</g>
			<g id="Grupo_2305" transform="translate(0 38.479)">
				<g id="Grupo_2304">
					<g id="Grupo_2300" transform="translate(28.255)">
						<path id="Caminho_9636" class="st10" d="M100.5,175.6l73.7,250.1l192.9,159.9c-42.9,62.4-103.5,97.1-174.3,100.4
							c-6.5,0.3-13,0.3-19.7,0.1C47.3,681.6-55.5,572-64.3,437.2c-0.5-6.6-0.6-13.3-0.6-20.1c0.5-113.9,68-208.3,161.7-240.3
							C98.2,176.4,99.3,176,100.5,175.6z"/>
					</g>
					<g id="Grupo_2303">
						<path id="Caminho_9637" class="st11" d="M247.1,683.4c-10.7,1.7-21.5,3.5-32.2,5.2c-8.6,1.4-17.2,2.3-25.9,2.7
							c-6.5,0.3-13,0.3-19.7,0.1C43.3,686.8-59.4,577.2-68.3,442.4c-0.4-6.6-0.6-13.3-0.6-20.1c0.5-113.9,68-208.3,161.7-240.3
							c1.4-0.5,2.5-0.9,3.8-1.2l32.2-5.2c-1.3,0.3-2.4,0.7-3.8,1.2c-93.7,32-161.2,126.4-161.7,240.3c0,6.8,0.2,13.4,0.6,20.1
							C-27.2,572,75.6,681.6,201.5,686.1c6.6,0.2,13.2,0.2,19.7-0.1C229.8,685.7,238.5,684.8,247.1,683.4z"/>
						<g>
							<defs>
								<path id="SVGID_5_" d="M247.1,683.4c-10.7,1.7-21.5,3.5-32.2,5.2c-8.6,1.4-17.2,2.3-25.9,2.7c-6.5,0.3-13,0.3-19.7,0.1
									C43.3,686.8-59.4,577.2-68.3,442.4c-0.4-6.6-0.6-13.3-0.6-20.1c0.5-113.9,68-208.3,161.7-240.3c1.4-0.5,2.5-0.9,3.8-1.2
									l32.2-5.2c-1.3,0.3-2.4,0.7-3.8,1.2c-93.7,32-161.2,126.4-161.7,240.3c0,6.8,0.2,13.4,0.6,20.1
									C-27.2,572,75.6,681.6,201.5,686.1c6.6,0.2,13.2,0.2,19.7-0.1C229.8,685.7,238.5,684.8,247.1,683.4z"/>
							</defs>
							<clipPath id="SVGID_6_">
								<use xlink:href="#SVGID_5_"  style="overflow:visible;"/>
							</clipPath>
							<g id="Grupo_2302" class="st12">
								<g id="Grupo_2301">
									<path id="Caminho_9638" class="st11" d="M247.1,683.4l-32.2,5.2c-8.6,1.4-17.2,2.3-25.9,2.7c-6.5,0.3-13,0.3-19.7,0.1
										C43.3,686.8-59.4,577.2-68.3,442.4c-0.4-6.6-0.6-13.3-0.6-20.1c0.3-78.3,32.3-147.3,82.7-193.2l32.2-5.2
										c-50.4,45.9-82.4,115-82.7,193.2c0,6.8,0.2,13.4,0.6,20.1C-27.2,572,75.6,681.6,201.5,686.1c6.6,0.2,13.2,0.2,19.7-0.1
										C229.8,685.7,238.5,684.8,247.1,683.4"/>
									<path id="Caminho_9639" class="st11" d="M46,223.9l-32.2,5.2c22.8-20.9,49.7-37,79-47.1c1.4-0.5,2.5-0.9,3.8-1.2l32.2-5.2
										c-1.3,0.3-2.4,0.7-3.8,1.2C95.7,187,68.8,203,46,223.9"/>
								</g>
							</g>
						</g>
					</g>
				</g>
			</g>
		</g>
		<g id="Grupo_2320" transform="translate(0 440.43)">
			<g id="Grupo_2311" transform="translate(68.572)">
				<path id="Caminho_9641" class="st5" d="M40.2,253c12.9,3.2,36.6,14.8,41.6,34.5c7.5,29.7-7.5,73.2,16.2,115.7
					c7.5,13.6-130.6,31.8-130.6,31.8l-26.6-149.8c0,0,33.3-32.5,40.1-34.7C-5.1,246,14.4,246.5,40.2,253z"/>
				<g id="Grupo_2307" transform="translate(0 70.717)">
					<path id="Caminho_9642" class="st13" d="M-59.5,214.6c-4.8,12-16.9,83.2-3.4,100c1.6,1.9-7,5-5.5,13.8c0.3,1.5,2.9,8.6,2.9,8.6
						l11,2.9l33.4-19l-6.4-7.8l-3,0.1c0,0-2.9-2.7-2.1-5.9c0.8-3.3-7.6-8.6-20.4-63.8C-56.7,227.1-58.4,212-59.5,214.6z"/>
					<path id="Caminho_9643" class="st14" d="M-46.6,311.2l9.9-2.2l4-0.6c0.1,1.8,0.9,3.5,2.2,4.7l-7.7,0.2l-9,1.9l-10.8,6.2
						L-46.6,311.2z"/>
				</g>
				<path id="Caminho_9644" class="st15" d="M-32.5,391.2c-5,0.1-9.8,1.4-14.1,3.9c-5,3-9.5,9.7-5,13.2c3.6,2.7,7.5,5,11.6,6.9
					C-40,415.2-22.6,415.7-32.5,391.2z"/>
				<path id="Caminho_9645" class="st16" d="M-51.5,408.6l4.6-1c0,0,16-1.4,18.3-0.2c2.3,1.3,9.6,6.2,9.6,6.2l1.5,1.4
					c0,0-3.6,2.2-8.4-1.1s-5.2-0.8-5.2-0.8l0.8,4.3l-0.1,5.4l0.7,2.3c0,0,0.7,1.2,0.2,1.7c-0.8,0.8-2,1-3,0.7l-4.9-8.5l-1.3,9.2
					c-0.5,0.8-1.3,1.4-2.2,1.6c-1.4,0.3-1.4-0.1-1.4-0.1l-1.1-2.3c-0.1,0.6-0.5,1.2-1,1.6c-0.8,0.6-1.9,0.9-2.9,0.8l0.5-9.7l-2,4.9
					c-0.5,0.8-1.3,1.4-2.2,1.6c-1.6,0.4-2.1,0.5-2.1,0.5L-51.5,408.6z"/>
				<g id="Grupo_2309" transform="translate(36.981 55.398)">
					<g id="Grupo_2308" transform="translate(10.923)">
						<path id="Caminho_9646" class="st17" d="M-16.6,315.1c0,0-11.6,29.4-39.5,37.3c-4.8,1.4-7.8,6.6-5.5,8.3
							c3,2.1,7.1,2.6,14.1,2.6c14.6,0,34.5-4.6,48.2-17.9c20.3-19.7,26.7-28.6,24.7-38.5C23.3,296.9-16.6,315.1-16.6,315.1z"/>
						<path id="Caminho_9647" class="st13" d="M29.9,222.2c5.9,9.7,9.3,25.3,9.3,47.6c0,17.3-15,45.6-17.2,54.3
							c-0.4,1.4-1.3,7.7-1.3,7.7L4.2,348L-29,325.5l10.1-15.5l3,0.3c0,0,1.9-8.5,1.4-11.9c-0.5-3.3,9.2-47.9,14-76.4
							C2.2,205.6,24.1,212.6,29.9,222.2z"/>
						<path id="Caminho_9648" class="st5" d="M0.3,309.8l-9.6-3l-3.9-1c-0.3,1.8-1.2,3.4-2.6,4.5l7.6,0.9l8.8,2.7l10.3,7.1
							L0.3,309.8z"/>
					</g>
					<path id="Caminho_9649" class="st17" d="M-43,352.3l-16.9-4.6c0,0-4.8,6.4-3.9,8s0,11.1,0,11.1l8.2,6.9l6.6-2.2
						c0,0,0.5-2.9-1.8-3.2c-2.3-0.3,1.5-1.9,2.7-2.6C-46.9,365-37.1,360-43,352.3z"/>
				</g>
				<path id="Retângulo_1363" class="st18" d="M-20.7,227.5l28.1-9.9c0.2-0.1,0.5,0,0.6,0.3l15,42.9c0.1,0.2,0,0.5-0.3,0.6
					l-28.1,9.9c-0.2,0.1-0.5,0-0.6-0.3l-15-42.9C-21.1,227.8-21,227.6-20.7,227.5z"/>
				<g id="Grupo_2310" transform="translate(27.045)">
					<path id="Retângulo_1364" class="st17" d="M-62,223.5l40.5-11.2c0.3-0.1,0.7,0.1,0.8,0.4l15,54.4c0.1,0.3-0.1,0.7-0.4,0.8l0,0
						l-40.5,11.2c-0.3,0.1-0.7-0.1-0.8-0.4l-15-54.4C-62.5,224-62.3,223.6-62,223.5C-62,223.5-62,223.5-62,223.5z"/>
					<path id="Caminho_9650" class="st6" d="M-58.4,239c0,0-5-3.1-6.4-5.4c-0.7-1.2-0.8-6.4,1.9-9.1c2.7-2.8,6.3,0,6.3,0
						s-4.3,4.3-4.3,5.4C-60.9,230.9-58.4,239-58.4,239z"/>
					<path id="Caminho_9651" class="st7" d="M-10.8,237.1c0,0-0.2-17.6-2.3-22.2c-2.1-4.6-3.6-7.8-9.6-6.7c-9,1.6-8.6,3.5-13.6,2
						c-5-1.5-14.5-5.8-17.3-5.7c-4.7,0.1-11.2,3.5-9.2,11.9c1.5,6.2-2,8.7-1.8,8.9c0.6,0.7,2.4,0.9,5.5,1.5c9.1,1.8,14.2,1.3,19.9-2
						c5.7-3.3,16.2-9.9,18.8-5.8c2.6,4.2,5.9,18.3,6.7,19.2S-11.7,238.2-10.8,237.1z"/>
					<path id="Retângulo_1365" class="st17" d="M-20,238.8l10.1-2.8c0.1,0,0.2,0,0.3,0.1c0,0,0,0,0,0l4.2,15.3c0,0.1,0,0.2-0.1,0.3
						c0,0,0,0,0,0l-10.1,2.8c-0.1,0-0.2,0-0.3-0.1c0,0,0,0,0,0l-4.2-15.3C-20.1,239-20.1,238.9-20,238.8
						C-20,238.8-20,238.8-20,238.8z"/>
					<path id="Retângulo_1366" class="st17" d="M-57.2,249.1l10.1-2.8c0.1,0,0.2,0,0.3,0.1l4.2,15.3c0,0.1,0,0.2-0.1,0.3
						c0,0,0,0,0,0l-10.1,2.8c-0.1,0-0.2,0-0.3-0.1l-4.2-15.3C-57.3,249.2-57.3,249.1-57.2,249.1C-57.2,249.1-57.2,249.1-57.2,249.1z
						"/>
					<path id="Caminho_9652" class="st7" d="M-12.6,241.6c0,0,4.6,16.9,6.2,22.5c1.4,5.1,2.5,16.8-26.2,24.7
						c-17,4.7-19.8-8-20.9-12.1c-0.9-3.1,0.1-13.5,1.4-15.7c0-0.1,1.9,7,1.9,7c1.3-4.8,5-8.6,9.7-10c13-3.6,18.1,3.2,23.8,1.5
						C-12.3,258.1-11,250-12.6,241.6z"/>
					<path id="Caminho_9653" class="st17" d="M-32.1,267.5l-8.9,2.4c-1.2,0.3-2.4-0.3-2.7-1.5c0,0,0,0,0,0l-0.3-1.3l13.2-3.6
						l0.4,1.3C-30.2,265.9-30.9,267.2-32.1,267.5z"/>
				</g>
			</g>
			<path id="Caminho_9654" class="st19" d="M-77.4,438.4c4.1,11.4,76.2,53.2,100.3,50.7l72.8,3.5c61.9-7.6,91.2-103.8,91.2-103.8
				c-2.5-24.1-63.5,10.9-85.2,21.7c-34.4,17.2-56.2,18-56.2,18c-23,2.4-49.7-15.4-78.8-16C-65.2,411.9-83.9,420.5-77.4,438.4z"/>
			<g id="Grupo_2314" transform="translate(17.376 133.469)">
				<path id="Caminho_9655" class="st20" d="M63.6,293.4L63.6,293.4l0-3.1L-61.7,288l-0.1,3v0.1l0.3,0.6c1.6,2.6,4.4,3.2,7.8,3.2
					l109,2c3.3,0.1,6.2-0.3,7.9-2.9L63.6,293.4z"/>
				<path id="Caminho_9656" class="st21" d="M33.4,293.3L33.4,293.3l0.3,0.6c0.5,0.7,1.1,1.2,1.8,1.6l19.1,0.3c3.2,0,6-0.3,7.6-2.4
					l0.3-0.4l0.1-0.1l0-1.5l-29-0.5L33.4,293.3z"/>
				<g id="Grupo_2312" transform="translate(26.416 57.754)">
					
						<rect id="Retângulo_1367" x="-42.3" y="201.5" transform="matrix(1.801078e-02 -0.9998 0.9998 1.801078e-02 -273.2928 187.4333)" class="st22" width="2.1" height="62.6"/>
				</g>
				<g id="Grupo_2313">
					<path id="Caminho_9657" class="st23" d="M32.7,289.6l-15.1-61.9c-0.5-1.7-1.9-2.9-3.7-3l-87.9-1.6c-1.2-0.1-2.2,0.8-2.3,2
						c0,0.3,0,0.6,0.1,0.9l15.1,61.9L32.7,289.6z"/>
					<path id="Caminho_9658" class="st20" d="M-16.4,256.4c0.8,3.2-1.1,5.7-4.3,5.6c-3.4-0.2-6.2-2.6-7.1-5.8
						c-0.8-3.2,1.1-5.7,4.3-5.6C-20.1,250.8-17.3,253.2-16.4,256.4z"/>
				</g>
			</g>
			<g id="Grupo_2316" transform="translate(129.682 233.36)">
				<path id="Caminho_9659" class="st17" d="M-22.8,275.3c-8.7,1.5-15.3-8.6-15.3-8.6l-22.4-17.6l4.7-11.9l43.6,19.6
					C-12.2,256.7-14.2,273.8-22.8,275.3z"/>
				<path id="Caminho_9660" class="st10" d="M-38.2,266c0,0,0,1.1,1.7,5.6c1.7,4.6,3.7,6.2,5.9,6.8c8.4,2.5,14.4,1.2,34.5,5.1
					c20.1,3.9,26.1,1,32-8.3c5.9-9.3-0.2-16.6-10-17.3c-14.2-1.1-22.1,0.6-29.5-0.6c-7.7-1.2-8.2-2.9-12.8-5.7
					c-4.3-2.6-8.2,12.9-4.1,16.6C-17,271.4-35.1,271.9-38.2,266z"/>
				<path id="Caminho_9661" class="st24" d="M-33.9,275c8.4,2.5,14.4,1.2,34.5,5.1c20.1,3.9,26.1,0.9,32-8.3
					c2.7-4.3,2.9-8.1,1.3-11.1c4.4,3,5.9,8.4,2,14.6c-5.9,9.3-11.9,12.2-32,8.3c-20.1-3.9-26.1-2.6-34.5-5.1
					c-2.1-0.7-3.8-2.2-4.7-4.2C-34.9,274.6-34.4,274.8-33.9,275z"/>
				<path id="Caminho_9662" class="st17" d="M-38.1,266.3l0-0.3c0,0.1,0.1,0.2,0.2,0.3L-38.1,266.3z"/>
				<g id="Grupo_2315" transform="translate(45.634 16.423)">
					<path id="Caminho_9663" class="st24" d="M-40.3,256.8c0.7,0.2,1.2-1,1.4-2.7c0.4-3.5,1.2-7,2.3-10.4c0.6-1.7,0.6-3.2-0.1-3.4
						c-0.7-0.2-1.9,1-2.4,2.7c-1.1,3.3-1.9,6.8-2.2,10.3C-41.5,255-41,256.6-40.3,256.8z"/>
					<path id="Caminho_9664" class="st24" d="M-46.5,255.7c0.7,0.2,1.3-1,1.5-2.7c0.4-3.3,1.2-6.6,2.3-9.8c0.6-1.6,0.5-3-0.2-3.1
						c-0.7-0.1-1.9,1.1-2.5,2.7c-1.1,3.1-1.8,6.4-2.2,9.6C-47.8,254.1-47.2,255.5-46.5,255.7z"/>
					<path id="Caminho_9665" class="st24" d="M-53.1,255.4c0.7,0.1,1.4-1.2,1.7-2.8c0.5-3.4,1.5-6.8,2.7-10.1c0.6-1.6,0.6-3-0.1-3.1
						c-0.8,0-2,1.3-2.6,2.9c-1.2,3.2-2.1,6.6-2.6,10C-54.3,253.9-53.8,255.3-53.1,255.4z"/>
				</g>
			</g>
			<path id="Caminho_9666" class="st6" d="M105.3,479.8c0,0-154-63.3-162.8-63.4c-29.7-0.3-22.9,29.8-7.9,44
				c17.8,16.7,153,47.3,153,47.3L105.3,479.8z"/>
			<g id="Grupo_2319" transform="translate(42.022 133.281)">
				<path id="Caminho_9667" class="st17" d="M2.2,357.6l42-39.9L26.3,300l-45.9,48.2L2.2,357.6z"/>
				<path id="Caminho_9668" class="st7" d="M-6.5,326.2c0,0,106.9-98,114.2-101c24.4-9.9,39.5,17.1,38.7,26.4
					c-1.1,12.1-109.8,110.3-109.8,110.3L-6.5,326.2z"/>
				<g id="Grupo_2318" transform="translate(0 102.756)">
					<path id="Caminho_9669" class="st10" d="M-69.9,257.9c-2.5,2.3-2.9,9.1-2.9,9.1s35.7,13.5,48.2,13.7c3.2,0.1,9.1-1.2,14.7-2.8
						c1-0.3,3.1-2.7,4-3c1.7-0.5,2.1,1.2,3.6,0.7c2.3-0.6,4.5-1.4,6.6-2.4c7.5-16,5-23.9,5-23.9s-16.4,4.7-13.6,1
						c6-7.9-11.2-15.9-15-11.7C-34.5,255.4-62.6,251.2-69.9,257.9z"/>
					<path id="Caminho_9670" class="st24" d="M-71.9,261.2c11,4.4,34,13.4,38.6,13.7c18.8,1.3,31.9-5.3,40.7-9.3
						c-0.9,2.6-1.9,5.1-3.1,7.6c-2.1,1-4.3,1.8-6.6,2.4c-1.5,0.5-1.9-1.2-3.6-0.7c-0.9,0.3-3.1,2.7-4,3c-5.6,1.6-11.5,2.9-14.7,2.8
						c-12.5-0.2-48.2-13.7-48.2-13.7C-72.7,265.1-72.4,263.1-71.9,261.2z"/>
					<g id="Grupo_2317" transform="translate(22.909 6.574)">
						<path id="Caminho_9671" class="st24" d="M-69.5,244.3c-0.3,0.6,1.1,1.3,3.1,1.8c4.1,0.8,8.1,2.1,12,3.6c2,0.8,3.7,1,4,0.3
							s-1.1-2-3-2.8c-3.9-1.5-7.8-2.7-11.9-3.5C-67.3,243.4-69.2,243.7-69.5,244.3z"/>
						<path id="Caminho_9672" class="st24" d="M-61.5,241.4c-0.3,0.6,1.1,1.5,3,2.1c4,1.2,7.9,2.7,11.6,4.6c1.9,1,3.6,1.2,3.8,0.5
							c0.2-0.7-1-2.2-2.9-3.1c-3.7-1.8-7.6-3.3-11.5-4.4C-59.4,240.6-61.2,240.8-61.5,241.4z"/>
						<path id="Caminho_9673" class="st24" d="M-53.8,239c-0.3,0.7,1,1.7,2.9,2.4c3.9,1.5,7.7,3.3,11.2,5.5c1.8,1.1,3.5,1.5,3.7,0.7
							c0.2-0.7-1-2.3-2.8-3.4c-3.6-2.1-7.3-3.9-11.2-5.3C-51.8,238.2-53.6,238.3-53.8,239z"/>
					</g>
				</g>
			</g>
		</g>
		<g id="Grupo_2327" transform="translate(262.235)">
			<g id="Grupo_2325">
				<path id="Caminho_9674" class="st25" d="M55.6,234.6c-6.8,13.5-23.2,19-36.7,12.2c0,0,0,0,0,0c-13.7-6.7-19.6-23-13-36.4
					c6.8-13.5,23.2-19,36.7-12.3C56.3,204.9,62.1,221.2,55.6,234.6z"/>
				<path id="Caminho_9675" class="st25" d="M69.5,269.2c-8.3,17-29,23.9-46.4,15.4c-17.3-8.4-24.7-29.1-16.4-46s29-23.9,46.4-15.4
					C70.4,231.6,77.7,252.2,69.5,269.2z"/>
				<g id="Grupo_2323" transform="translate(63.105 68.084)">
					<g id="Grupo_2322" transform="translate(0 69.224)">
						<g id="Grupo_2321" transform="translate(9.066 4.808)">
							<path id="Caminho_9676" class="st18" d="M-31.8,164.6c0,0-1,4.5,20.8,10.1c21.8,5.6,55.3,8.3,55.3,8.3l-49.2-17.5
								C-4.9,165.4-24,159.6-31.8,164.6z"/>
							<path id="Caminho_9677" class="st18" d="M26.7,180.2c10.3,2.9,13.2,9.4,16.9,12.2c2.5,2,4.8,4.1,7,6.4c-1-5.1-4.3-6.1-5.6-8
								c-1.3-1.9-1-1.1,2.7-0.3c2.1,0.4,4.7,5.2,6.8,8c0.8,1.2,1.9,2.3,3.2,3c-1.1-3-2.5-5.8-4.1-8.5c-2.4-3.7-5.2-7.1-8.4-10.1
								c-2-1.5-8.8-3.7-13.9-4.5C25.6,177.4,19.3,178.1,26.7,180.2z"/>
							<path id="Caminho_9678" class="st18" d="M44.6,182.8c0,0,7.3,4.3,8.4,5.7c0.8,1,3.6,6.4,3.6,6.4c-1.6-0.8-3-1.9-4.1-3.4
								C51.2,189.4,44.6,182.8,44.6,182.8z"/>
						</g>
						<path id="Caminho_9679" class="st13" d="M-10.5,162.7c0,0-20.3-4.5-22.3,7.7c-1.2,7,2.7,10.6,8.9,11.8
							c11.4,2.4,24.6,4.4,24.6,4.4l11-16.7L-10.5,162.7z"/>
					</g>
					<path id="Caminho_9680" class="st13" d="M-9.4,221.9l-5.6-55.5c0,0,0.4-14.5-4.8-14.2c-7.5,0.4-9,13-9.6,17.5
						c-1.3,9.2-3.3,12.8-3.1,35.8c0.1,14.2-0.9,30.3,0,39.9c0.6,6.6,7.1-0.7,13.8-1.4C-6.4,242.9-9.4,221.9-9.4,221.9z"/>
				</g>
				<path id="Caminho_9681" class="st17" d="M175.4,445.3l18.5,40.2l25.7,0.6l13-2.6l-27.9-6.6l-15-37.3L175.4,445.3z"/>
				<path id="Caminho_9682" class="st26" d="M196.8,491.8l3.4-0.8l1.9-4.2l20.7,0.9l16.7-3.1c-0.2-0.7-0.6-1.3-1.1-1.7
					c-2.9-1.6-15.9-2.3-15.9-2.3s1.4,3.6-0.1,4.3c-1.5,0.8-17.5-0.2-21.3-0.8c-6.6-0.9-10-2.6-9.7-1.7
					C191.8,483.8,196.8,491.8,196.8,491.8z"/>
				<path id="Caminho_9683" class="st27" d="M72.8,363.6l60.6-1.6l45.1,98.8l18.7-7.4l-44-118.8c0,0-3.5-7.5-21.8-7.5
					c-17.8,0-89.6-2-97.8,0.3C14.3,332.8,76.2,347.2,72.8,363.6z"/>
				<path id="Caminho_9684" class="st25" d="M29.8,199.5c-6.5,13.5-23,18.9-36.7,12.2c-13.7-6.7-19.6-23-13-36.5
					c7-13.6,23.7-19,37.2-12C30.5,170,36,186,29.8,199.5z"/>
				<path id="Caminho_9685" class="st25" d="M58,190.8c-5,10.3-17.5,14.6-27.8,9.6l-0.3-11.2c-10.3-5-14.6-17.5-9.6-27.8
					c0,0,0,0,0,0l3.4-7c5-10.3,17.5-14.6,27.8-9.6c0,0,0,0,0,0l4.7,2.3c10.3,5,14.6,17.5,9.6,27.8c0,0,0,0,0,0L58,190.8z"/>
				<path id="Caminho_9686" class="st17" d="M63.9,159.6c-0.9,1.8-1.9,3.4-3,5c-7.7,11.1-19.5,16.6-28,13.9
					c-2.7,4.8-5.9,9.2-9.7,13.2c-3.8,4-11.8,6.3-11.8,6.3c-5.4,7.7-2.4,30,17.1,32.3c11.7,1.4,9.3-10.9,5.2-18.6
					c-1.9-3.6-3.7-7.8-3.3-9.8c1.5-7.1,4.1-8,8.2-10.5c4.3-1.8,9.2-1.7,13.4,0.1c0.6,0.3,1.3,0.3,1.9,0.1c1-1.1,1.8-2.3,2.5-3.6
					l7.5-15.4C66,168.5,66,163.7,63.9,159.6z"/>
				<path id="Caminho_9687" class="st6" d="M2.9,344.1c0,0,8.9,1.8,11.3,2.8c3.3,1.3,12.9-0.3,12.9-0.3s1.2-47.6,3.5-64.2
					c2.3-16.6,6.6-21.1,6.6-26.3c0-8.3-0.7-10.2-2.2-16.7s2.8-15,1.4-13.4c-2.3,2.6-11.2,6.7-19.4-2.3
					C15.8,222.1,2.9,344.1,2.9,344.1z"/>
				<path id="Caminho_9688" class="st28" d="M34.4,206.7c0,0,12.1,12.2,11.6,16.2c-0.5,4,0.7,20.8-2,38.7s-5,22.3-5.5,35.4
					c-0.5,13,2.6,16,1.5,32c-0.8,12.5-2.8,23.6-2.8,23.6c-3.6,0.8-7.5-0.3-10-3.1c-4.3-4.7-2.8-48.3-1.2-59.1
					c1.6-10.7,7.9-38.9,7.5-46.4s-2.8-25.4-4.1-27.7C26.1,210.4,33.5,207.3,34.4,206.7z"/>
				<path id="Caminho_9689" class="st13" d="M34.5,205.6c-0.4,0.6-0.9,1.2-1.5,1.6c-1.3,1-2.5,2-3.5,3.2c0,0,2.4-1.2,3.3,0.9
					c1.1,2.6,1.8,8.3,1.8,8.3s4.5-7.4,3.4-9.7C36.1,205.7,34.5,205.6,34.5,205.6z"/>
				<path id="Caminho_9690" class="st25" d="M17.9,234.5c-4.8,15-20.9,23.3-36,18.5c0,0,0,0,0,0c-15.2-4.7-23.8-20.7-19.2-35.6
					c4.6-14.9,20.7-23.2,36-18.5C14,203.7,22.6,219.6,17.9,234.5z"/>
				<path id="Caminho_9691" class="st17" d="M115.7,454.1l0.9,28.1l5.7,6.7l15.3,8.8l11.3-2.1l-20-14.9l-1.5-29.5L115.7,454.1z"/>
				<path id="Caminho_9692" class="st26" d="M117.4,488.4l5.1,3.7l1.6-1.3l17,9.3c0,0,9,4.5,11.4,1.6c0.8-0.9-0.2-4-3.1-6.1
					c-1.1-0.9-2.4-1.7-3.6-2.3c0,0-0.6,2.2-5.7,3c-1.6,0.3-11.7-6.4-15.2-8.1c-6.2-3.1-8.7-7.5-9-7.1
					C115.2,482.1,117.4,488.4,117.4,488.4z"/>
				<path id="Caminho_9693" class="st29" d="M-4.2,305.7L3.1,323l12.6,1.5L117,331c0,0,9.1-2.8,14.8,11.5
					c8.2,20.4-2.5,122.5-2.5,122.5l-15-0.2l-8.1-96.3c0,0-97.4,17-125.5,8.4c-10.8-3.3-19-22.3-17.4-41.5
					c1.2-15,11.2-28.9,11.2-28.9L-4.2,305.7z"/>
				<path id="Caminho_9694" class="st28" d="M9.6,342c0,0,4.7-42.5,7.4-62.6s2.1-53.9,2.7-58.7c0.7-4,1.8-8,3.2-11.8
					c0,0-4.9-11-11.3-10.6c-5.6,0.3-23.4,6.3-32,9.8c-5.9,2.4-2.8,70.1-3.4,73.7c-1.9,12.9-8.2,27.6-12.3,37.8
					c-2.4,6.6-4.3,13.3-5.8,20.2C-41.9,339.7-9.5,335.9,9.6,342z"/>
				<path id="Caminho_9695" class="st13" d="M12.7,195l4.8,5.4c0,0,6.7,9.2,4.5,7.9c-2.7-1.6-5.9,8-5.9,8l-8.9-18.2L12.7,195z"/>
				<g id="Grupo_2324" transform="translate(13.075 132.788)">
					<path id="Caminho_9696" class="st17" d="M-39.2,165.4c0,0-7.4,5.3,20.6,8.1s69.8,0.8,69.8,0.8l-64.1-12.1
						C-12.9,162.2-30.5,158.7-39.2,165.4z"/>
					<path id="Caminho_9697" class="st17" d="M28.9,174c13.3,1.7,18.2,8.6,23.2,11.1c3.4,1.8,6.7,3.8,9.9,6.1
						c-2.3-5.6-6.5-6.3-8.4-8.2c-1.9-2-1.5-1,3.3-0.8c2.7,0.2,6.8,5.1,9.9,7.9c1.2,1.3,2.8,2.3,4.5,2.9c-1.9-3.2-4.2-6.2-6.7-8.9
						c-3.7-3.8-7.8-7.2-12.2-10.1c-2.7-1.4-11.5-2.8-18-2.9C27,171.1,19.4,172.7,28.9,174z"/>
					<path id="Caminho_9698" class="st17" d="M51.5,174.2c0,0,9.8,3.7,11.5,5.1c1.1,1,5.6,6.6,5.6,6.6c-2.1-0.6-4-1.7-5.7-3.2
						C61,180.6,51.5,174.2,51.5,174.2z"/>
				</g>
				<path id="Caminho_9699" class="st13" d="M-9.6,290.3l9.1-61.7c0,0-2.2-12.7-6.2-17.1c-4.7-5.2-13.6-3.6-13.6-3.6
					s-10.4,8.6-11.2,57.4c-0.5,33.4-3.6,47.2,10.8,48.6c13.4,1.4,28.8,2.2,28.8,2.2l10.2-20.2L-9.6,290.3z"/>
			</g>
			<g id="Grupo_2326" transform="translate(94.89 118.759)">
				<rect id="Retângulo_1368" x="-28.4" y="204.9" class="st24" width="88.4" height="1.8"/>
				<path id="Caminho_9700" class="st24" d="M10.6,204.8c-0.1,1.3,0.9,2.4,2.2,2.5h45.3c1.2,0,2.9-0.9,4.4-4.5L85,161.9
					c0.1-1.3-0.8-2.4-2.1-2.6c-0.2,0-0.4,0-0.5,0l-46.5,1.4c-1.3,0.3-2.2,1.2-2.9,3.1L10.6,204.8z"/>
				<path id="Caminho_9701" class="st30" d="M16.1,206.7h-44.7c2.3,1,4.8,1.5,7.2,1.4h74.5c2.5,0.1,5-0.4,7.2-1.4H16.1z"/>
			</g>
		</g>
	</g>
	<g id="Grupo_2336" transform="translate(2669.423 1577.705)">
		<g id="Grupo_2333" transform="translate(0 58.657)">
			<g id="Grupo_2330" transform="translate(13.025 431.69)">
				<path id="Caminho_9702" class="st31" d="M54,251.7l-0.7,16.5H39.8c0,0-0.8-2-1.9-2c-1,0-2.2,2-3.5,2H0.2c0,0-0.6-3,0.1-4.1
					c0.4-0.5,2.6-1.5,4.1-1.9c7-2.2,26.8-8.9,30.3-16.2C39,237,54,251.7,54,251.7z"/>
				<path id="Caminho_9703" class="st32" d="M0.1,264.7C0,265.9,0,267,0.2,268.2h34.2c1.3,0,2.5-2,3.5-2c1.1,0,1.9,2,1.9,2h13.4
					l0.6-3.5H0.1z"/>
				<g id="Grupo_2329" transform="translate(20.915 8.149)">
					<path id="Caminho_9704" class="st32" d="M4.1,250.1C3.8,250.5,3,250,2,249.2c-2.5-2.1-2.2-1.8-1.6-2.2c0.5-0.2,1-0.5,2.4,0.8
						C3.8,248.6,4.4,249.7,4.1,250.1z"/>
					<path id="Caminho_9705" class="st32" d="M7.7,248.3c-0.3,0.4-1.1-0.1-2.1-0.9c-2.5-2.1-2.2-1.8-1.6-2.2c0.4-0.2,1-0.5,2.4,0.8
						C7.4,246.9,8,247.9,7.7,248.3z"/>
					<path id="Caminho_9706" class="st32" d="M11.1,246.3c-0.3,0.4-1.1-0.1-2.1-0.9c-2.5-2.1-2.2-1.8-1.6-2.2c0.4-0.2,1-0.5,2.4,0.8
						C10.8,244.9,11.4,245.9,11.1,246.3z"/>
				</g>
			</g>
			<g id="Grupo_2332" transform="translate(126.949 436.565)">
				<path id="Caminho_9707" class="st31" d="M42,263.4c1,1.7,0.3,5.8,0.3,5.8S21.6,271.7,15,270c-2.6-1-5.1-2.2-7.4-3.8
					c-0.5-0.3-1.3-2.1-1.7-2.3c-0.8-0.5-1.3,0.4-2-0.1c-1.1-0.7-2.2-1.5-3.2-2.4c-1.8-10.5,0.6-14.7,0.6-14.7s13.3-6.5,16.6-1.9
					C25.6,255.2,39.1,258.5,42,263.4z"/>
				<path id="Caminho_9708" class="st32" d="M42.6,265.7c-6.4,0.9-19.8,2.7-22.3,2.2c-10.1-2-16.1-7.9-20.2-11.5
					c0.1,1.5,0.3,3.1,0.6,4.9c1,0.9,2,1.7,3.2,2.4c0.7,0.5,1.1-0.4,2,0.1c0.4,0.3,1.3,2,1.7,2.3c2.3,1.6,4.8,2.9,7.4,3.8
					c6.7,1.7,27.3-0.8,27.3-0.8C42.5,268,42.6,266.9,42.6,265.7z"/>
				<g id="Grupo_2331" transform="translate(12.499 6.026)">
					<path id="Caminho_9709" class="st32" d="M18.8,249.7c0.1,0.4-0.8,0.7-1.9,0.6c-2.4-0.1-4.8,0-7.1,0.4c-1.2,0.2-2.2,0-2.2-0.5
						s0.9-1.1,2-1.3c2.3-0.4,4.7-0.5,7-0.3C17.8,248.8,18.7,249.3,18.8,249.7z"/>
					<path id="Caminho_9710" class="st32" d="M14.9,246.6c0.1,0.5-0.8,0.8-2,0.9c-2.4,0.1-4.7,0.5-7,1.1c-1.2,0.3-2.2,0.2-2.2-0.3
						s0.9-1.2,2-1.5c2.3-0.6,4.6-0.9,6.9-0.9C13.8,245.7,14.8,246.1,14.9,246.6z"/>
					<path id="Caminho_9711" class="st32" d="M11,243.8c0.1,0.5-0.8,0.9-2,1.1c-2.4,0.3-4.7,0.9-6.9,1.7C1,246.9,0,246.9,0,246.4
						s0.9-1.3,2-1.7c2.2-0.8,4.5-1.3,6.9-1.6C10,242.9,10.9,243.3,11,243.8z"/>
				</g>
			</g>
			<path id="Caminho_9712" class="st17" d="M30.4,285.7l2.2-12.7l0.7-7.3l-0.4-9.8c0,0-3-3.9-4.3,5.4c-0.2,1.4-2.2-9.5-2.2-9.5
				l-2.3-7.5l-2.8-1.1l-6.2,3.9c0,0,0.6,3.5,5.6,1.7c0.5-0.2,0.8,6.3,0.8,6.3l-6.6,9.6c0,0-1.3,5,0.7,7.2l2,2.2l0.8-0.9l0.5,9.7
				c0.5,2.3,2,4.2,4.1,5.4c3.2,1.6,1.4,5.2,1.4,5.2L30.4,285.7z"/>
			<path id="Caminho_9713" class="st13" d="M43.6,359.4c0,0,13-26,9.8-35.6c-3.2-9.6-16.7-44.6-16.7-44.6l-16.7,9.1
				c0,0,11.8,69,15.5,73.6S42.6,360.8,43.6,359.4z"/>
			<path id="Caminho_9714" class="st6" d="M40.4,682.5l27.4,0.9l-6.6-287.3L3,378.7C3,378.7,12.1,565.9,40.4,682.5z"/>
			<path id="Caminho_9715" class="st7" d="M83.6,401.6L155.3,688l-32.4,0.9L17.1,384.2L83.6,401.6z"/>
			<path id="Caminho_9716" class="st7" d="M61.2,398l-4.7-3.3L3,378.7c0,0,0.9,19,3.1,48.7L62.6,460L61.2,398z"/>
			<path id="Caminho_9717" class="st6" d="M83.9,402.6l-0.3-1L51,393L3,378.6c0,0,0.2,3.4,0.5,9.5L83.9,402.6z"/>
			<path id="Caminho_9718" class="st28" d="M117.4,250.1c0,0-31.3-22-59.6,14.7S0,378.1,0,378.1l86.1,28.1l28-111.4
				C114.1,294.8,129.6,257.5,117.4,250.1z"/>
			<path id="Caminho_9719" class="st13" d="M117.7,251.7c0,0,9.7-0.9,5.6,28.4c-4.2,29.4-14.4,86.6-19.1,101
				c-1.2,3.6-5.8,20.2-13.3,10.1s-12.5-49,0.3-99.1C99.2,259.9,112.7,251.7,117.7,251.7z"/>
			<path id="Caminho_9720" class="st26" d="M6.3,300.6l-1.6,1.9l6.2,19.6l12.5,3.7l2.9-2.7l-4.8-17.6L6.3,300.6z"/>
			<path id="Caminho_9721" class="st17" d="M49.3,326.6L31.1,316l-7.2-1.1l1.9,6.4l-7.2,2.7l-7.2-2.7L8,316.5l-1.4,5.3
				c0.4,1.8,1.2,3.4,2.4,4.8c1.9,2.1,8.6,13.8,8.6,13.8l5.3-1.1l12-3.2l7.7,5.8L49.3,326.6z"/>
			<path id="Caminho_9722" class="st13" d="M99.1,386.3c0,0-3.9-29.4-11.7-34.9c-7.7-5.5-37.7-24.5-37.7-24.5l-8.3,18.4
				c0,0,47.1,47.1,52.7,48.3C99.7,394.9,99.1,388.1,99.1,386.3z"/>
		</g>
		<g id="Grupo_2335" transform="translate(47.746)">
			<g id="Grupo_2334">
				<path id="Caminho_9723" class="st17" d="M19.3,295.7c5.3,15.4,8.6,22.9,9.5,23.6c5.9,5.3,23.5-8.4,21.3-12.2s-5.6-23.1-5.4-26.1
					C44.8,278,16.2,286.6,19.3,295.7z"/>
				<path id="Caminho_9724" class="st18" d="M29.1,284.7c4.2-1.9,8.7-3.3,13.2-4.1c0.2,5.1,0.3,10.2,0.1,13.7
					c-0.6,9.5-7.8,14.6-12.3,18.5c-1.1,0.9-2.4,1.6-3.7,2.2c-1.2-2.6-3.3-8.2-7.1-19.3C17.9,291.6,23.1,287.5,29.1,284.7z"/>
				<path id="Caminho_9725" class="st17" d="M4.9,254.4l1.8,44.1c0,0,0.4,10.4,4.6,11.6c4.1,1.1,15.1-0.5,19.6-4.4
					c4.5-3.9,11.7-9,12.3-18.5s-1.3-32.1-1.3-32.1s-3.6-7.2-17.8-1.5C9.9,259.2,4.9,254.4,4.9,254.4z"/>
				<path id="Caminho_9726" class="st33" d="M6,243.6c-1.9,0.7-5.2,2.5-5.9,5.8c-0.7,3.5,2.8,8.2,5.8,8.7c3,0.5,22.5-1.1,24.8-2.1
					c2.3-1,6.8-2.4,8.7-6.1c1.2-2.5-6.3-6.9-10.6-5.3C17.9,248.8,13.2,241,6,243.6z"/>
				<path id="Caminho_9727" class="st33" d="M34.5,250.5l0.8,19.1l2,10l2.3-0.2l4.2-0.4c0,0,5.8-26.7-0.8-29.2S34.8,249,34.5,250.5z
					"/>
				<path id="Caminho_9728" class="st17" d="M39.8,281.2c0.1,1.6,1.4,2.8,3,2.7c0.1,0,0.1,0,0.2,0l1.8-0.2c1.7-0.1,3-1.5,3-3.2
					l-0.3-7c-0.1-1.6-1.4-2.8-3-2.7c-0.1,0-0.1,0-0.2,0l-1.8,0.2c-1.7,0.1-3,1.6-2.9,3.3L39.8,281.2z"/>
			</g>
			<path id="Caminho_9729" class="st33" d="M29.7,250l7.2-1.4l3.4,20.8l-7.2,1.4L29.7,250z"/>
			<path id="Caminho_9730" class="st17" d="M32.3,265.9c-1.1-6.5-6.7-10.8-12.6-9.7l-5.5,1.1c-5.9,1.2-8.2,7.1-7.1,13.6l0,0
				c1.1,6.5,6.7,10.8,12.6,9.7l3.9-0.8C29.5,278.6,33.4,272.4,32.3,265.9L32.3,265.9z"/>
		</g>
	</g>
	<g id="Grupo_2338" transform="translate(2328.717 1517.794)">
		<g id="Grupo_2337">
			<path id="Caminho_9731" class="st34" d="M87.1,360v-30.2H56.9L87.1,360z"/>
			<path id="Retângulo_1369" class="st34" d="M1.1,243h106.4c0.6,0,1.1,0.5,1.1,1.1v91.4c0,0.6-0.5,1.1-1.1,1.1H1.1
				c-0.6,0-1.1-0.5-1.1-1.1v-91.4C0,243.5,0.5,243,1.1,243z"/>
		</g>
	</g>
	<path id="Caminho_9732" class="st35" d="M2961.3,2002.5l-0.2-9l-8-0.5c-0.6-2.9-1.7-5.6-3.3-8.1l5.2-6.4l-6.5-6.2l-6,5.3
		c-2.5-1.6-5.2-2.7-8-3.4l-0.9-8.2l-9,0.2l-0.5,8c-2.9,0.6-5.6,1.7-8.1,3.3l-6.4-5.2l-6.2,6.5l5.3,6c-1.6,2.5-2.7,5.2-3.4,8
		l-8.2,0.9l0.2,9l8,0.5c0.6,2.9,1.7,5.6,3.3,8.1l-5.2,6.4l6.5,6.2l6-5.3c2.5,1.6,5.2,2.7,8,3.4l0.9,8.2l9-0.2l0.5-8
		c2.9-0.6,5.6-1.7,8.1-3.3l6.4,5.2l6.2-6.5l-5.3-6c1.6-2.5,2.7-5.2,3.4-8L2961.3,2002.5z M2929.5,2009.9c-6.5,0.1-11.9-5-12.1-11.6
		c-0.1-6.5,5-11.9,11.6-12.1c6.5-0.1,11.9,5,12.1,11.6c0,0,0,0,0,0C2941.2,2004.4,2936.1,2009.8,2929.5,2009.9L2929.5,2009.9z"/>
	<g id="Grupo_2346" transform="translate(2309.872 1596.244)">
		<g id="Grupo_2345">
			<g id="Grupo_2341" transform="translate(72.507)">
				<g id="Grupo_2340" transform="translate(11.633)">
					<path id="Caminho_9733" class="st31" d="M120.6,294.9c0,12.8-10.4,23.2-23.2,23.2c0,0,0,0,0,0l-5.8-11
						c-12.8,0-23.2-19.3-23.2-32.1v-8.7c0-12.8,10.4-23.2,23.2-23.2h5.8c12.8,0,23.2,10.4,23.2,23.2V294.9z"/>
					<path id="Caminho_9734" class="st31" d="M72.1,265.9c-1.2,0-2.5,0.1-3.7,0.2c0.3,1.6,0.4,3.1,0.4,4.7c0,15.4-11.8,28.1-27.1,30
						c2.5,14.8,15.4,25.6,30.4,25.5c17,0,30.9-13.5,30.9-30.2S89.2,265.9,72.1,265.9z"/>
					<path id="Caminho_9735" class="st17" d="M111.3,251.9c0,2.2-0.2,4.4-0.6,6.5c-2.3,14.9-11.4,26.2-21.3,27.6
						c-0.3,6.1-1.4,12.2-3.3,18c-1.9,5.9-8.7,12.1-8.7,12.1c-1.7,10.4,33.7,25.7,32.9,24s-9.6-13.9-12.4-25.2
						c-1.6-6.5-0.3-13.3,3.6-18.7c3.4-3.9,8.4-6.2,13.6-6.4c0.7,0,1.4-0.3,2-0.8c0.5-1.6,0.7-3.2,0.7-4.8v-19.2
						C117.7,259.8,115.4,255,111.3,251.9z"/>
					<path id="Caminho_9736" class="st14" d="M95.8,404.7c-3.9,9.6-25,9.6-28.9,0l-22.4-69.3c-3.9-9.6,0.3-17.5,9.5-17.5h24.6
						l11.2,5.4l9.9-5.4h5.9c9.1,0,13.4,7.9,9.5,17.5L95.8,404.7z"/>
					<path id="Caminho_9737" class="st14" d="M115.9,324.3l22.2,67c0,0,1.5,4.6-3.1,1.6c-6.5-4.3-21.2-19.9-34.3-51
						C91.1,319.1,110,323,115.9,324.3z"/>
					<path id="Caminho_9738" class="st17" d="M121,578.7c-1-3.7-1.8-7.5-2.7-11.1c-3.6-5.7-6.9-8.9-9.6-8.9
						c-10.2-0.1-15.6,34.8,5.2,101.2c1.2,3.7,19.4,70.5,19.4,67.8C133.7,673.6,124.7,592.2,121,578.7z"/>
					<path id="Caminho_9739" class="st17" d="M58.6,579.5c0.8-3.8,1.9-7.5,2.8-11.1c-0.6-6.7-2-11.1-4.4-12.4
						c-9-4.8-30,23.5-42.5,91.9c-0.7,3.8-15.7,71.4-14.4,69C25.6,669.3,55.6,593.2,58.6,579.5z"/>
					<path id="Caminho_9740" class="st36" d="M86.8,321l-6.6,7.2l-6.6-9.5l4-5.9L86.8,321z"/>
					<path id="Caminho_9741" class="st36" d="M100.7,313.1l-12.1,9.1l6.5,6.8l9.1-12L100.7,313.1z"/>
					<path id="Caminho_9742" class="st36" d="M87.7,406.7c1.3-0.4,2.6-0.7,3.9-1.1c6.5-27.7,6-56.6-1.7-84c-1.3-0.3-2.5-0.6-3.8-0.9
						C93.9,348.8,94.4,378.4,87.7,406.7z"/>
					<path id="Caminho_9743" class="st6" d="M125.8,598.2c0.5-2.5,0.7-5.1,0.7-7.7c-0.5-15.5,0.1-31.3-2.4-60.8
						c-3.6-40.5-10.4-80.6-20.2-120c-1-4.4-2.4-8.7-4.2-12.8c-11-1.5-22.2,6-33.6,9.2c-4.7,8.9-8.2,18.5-10.4,28.4
						c-12.4,50.7-18.6,80.1-21.9,104.7c-3.3,23.9-3.7,43-5.4,55.7C59.8,647.3,92.2,549.7,125.8,598.2z"/>
					<g id="Grupo_2339" transform="translate(133.736 36.572)">
						<path id="Caminho_9744" class="st17" d="M1.6,353c0,0-4.6-1.4,2.1-26.4s22.2-60.2,22.2-60.2l-10.5,59
							C15.2,325.4,10.2,347.8,1.6,353z"/>
						<path id="Caminho_9745" class="st17" d="M18.8,285.6c2.9-12-1.4-18.4-2-23.5c-0.4-3.5-1.1-7-2-10.5c4,3.8,3.2,7.7,4.3,9.9
							c1,2.3,0.4,1.6,1.7-2.6c0.8-2.4-2.1-7.6-3.6-11.1c-0.7-1.5-1-3.1-1-4.8c2.1,2.7,3.9,5.6,5.4,8.7c2.1,4.4,3.6,9,4.6,13.8
							c0.3,2.8-1.3,10.8-3.4,16.4C20.7,288.2,16.8,294.2,18.8,285.6z"/>
						<path id="Caminho_9746" class="st17" d="M26.1,266.1c0,0,0.1-9.7-0.7-11.5c-0.5-1.3-3.9-7-3.9-7c-0.2,2,0.1,4,0.9,5.9
							C23.7,255.9,26.1,266.1,26.1,266.1z"/>
					</g>
					<path id="Caminho_9747" class="st14" d="M153.5,334.2c0.1,12.5-4,31.4-11.6,51.6c-0.9,2.4-1.8,4.7-2.8,7
						c-1.5,3.5-7.5-1.3-7.2-7.7c0.6-12.4,5.5-26.6,12.5-44.9c1.2-3.1,2.4-6.2,3.7-9.1C149.9,332,151.7,333.1,153.5,334.2z"/>
				</g>
				<path id="Caminho_9748" class="st17" d="M177,727.3c0,0-3.7,0-13,2c-5.5,1.2-9.3,2.8-11.9,1.7c-4.3-1.9-7.6-20.8-8.2-34.6
					c-0.1-1.5-9.4-5.2-9-3.4c5.6,22.2,5.9,36.3,6.5,39.4c0.9,5.3,3.3,10,5.9,10.2c5.1,0.3,28.3-10.3,30.2-11.3
					C179.3,730.2,177.4,726.6,177,727.3z"/>
				<path id="Caminho_9749" class="st6" d="M1.1,731.2c-2.2,13.4-1.1,24.7,2.4,25.2s8.2-9.8,10.4-23.1c2.2-13.3,1.1-24.6-2.4-25.2
					S3.4,717.9,1.1,731.2z"/>
				<path id="Caminho_9750" class="st17" d="M3.8,724.3c-3,9.5-1.7,18.9,1.8,19.5c3.5,0.6,7.3-6.7,8.5-16.6
					c1.5-12.5,0.7-17.8,4.8-24.7c4.2-7,4.8-14,3.9-15.1c-0.9-1-5.7,1.6-6.3,5.2c-0.7,4-2.1,7.8-4.1,11.3C10,707.9,7,714.4,3.8,724.3
					z"/>
				<path id="Caminho_9751" class="st6" d="M171.5,727.8c3.7,5.1-14.5,10.1-19.7,10.5c-2.6,0.2-5.2,0.5-7.8,1.1
					c-0.2,0.1-0.4,0.1-0.6,0.2c0,0.1,0.1,0.3,0.1,0.4c1.3,3.1,1.7,7.8,6.6,5.7l31-13.1C206.6,722,171.4,727.7,171.5,727.8z"/>
			</g>
			<g id="Grupo_2344" transform="translate(0 83.009)">
				<g id="Grupo_2343">
					<path id="Caminho_9752" class="st24" d="M233.4,443.3L233.4,443.3l-1.1,3.8l0,0l12.6,3.6l0,0l1.1-3.8l0,0L233.4,443.3z"/>
					<path id="Caminho_9753" class="st24" d="M200.3,433.7L200.3,433.7l-1.1,3.8l0,0l21.2,6.1l0,0l1.1-3.8l0,0L200.3,433.7z"/>
					<path id="Caminho_9754" class="st24" d="M175.2,426.5L175.2,426.5l-1.1,3.8l0,0l20.3,5.8l0,0l1.1-3.8l0,0L175.2,426.5z"/>
					<path id="Caminho_9755" class="st24" d="M55.5,243.9c-11.3-3.2-23.1,3.3-26.3,14.6L0.8,356.8c-3.2,11.3,3.3,23,14.6,26.3
						l246.7,71c11.3,3.2,23.1-3.3,26.3-14.6l28.3-98.3c3.2-11.3-3.3-23-14.6-26.3L55.5,243.9z"/>
					<path id="Caminho_9756" class="st32" d="M3.7,357.6c-2.8,9.7,2.8,19.8,12.5,22.6l246.7,71c9.7,2.8,19.8-2.8,22.6-12.5
						l28.3-98.3c2.8-9.7-2.8-19.8-12.5-22.6l-246.7-71c-9.7-2.8-19.8,2.8-22.6,12.5L3.7,357.6z"/>
					
						<rect id="Retângulo_1370" x="95.3" y="236.5" transform="matrix(0.277 -0.9609 0.9609 0.277 -220.7563 404.4236)" class="st37" width="126.1" height="224.7"/>
					<g id="Grupo_2342" transform="translate(274.491 131.241)">
						<path id="Caminho_9757" class="st38" d="M3.7,273c-1.5-0.4-3.1,0.4-3.6,1.9c-0.4,1.5,0.4,3.1,1.9,3.6c1.5,0.4,3.1-0.4,3.6-1.9
							c0,0,0,0,0,0C6.1,275.1,5.2,273.5,3.7,273z"/>
						<path id="Caminho_9758" class="st38" d="M19.3,254.9c-1-0.3-2,0.3-2.3,1.3c-0.3,1,0.3,2,1.2,2.3c1,0.3,2-0.3,2.3-1.3
							C20.8,256.2,20.2,255.2,19.3,254.9z"/>
						<path id="Caminho_9759" class="st38" d="M12.6,243.1c-0.7-0.2-1.5,0.2-1.7,0.9c0,0,0,0,0,0l-5.4,18.9
							c-0.2,0.7,0.2,1.5,0.9,1.7c0,0,0,0,0,0l0,0c0.7,0.2,1.5-0.2,1.7-0.9l5.4-18.9C13.7,244.1,13.3,243.3,12.6,243.1L12.6,243.1z"
							/>
					</g>
					<path id="Retângulo_1371" class="st24" d="M27.1,322.8l6.2-21.6c0-0.1,0.2-0.2,0.3-0.2c0,0,0,0,0,0l9,2.6
						c0.1,0,0.2,0.2,0.2,0.3l0,0l-6.2,21.6c0,0.1-0.2,0.2-0.3,0.2l-9-2.6C27.1,323,27,322.9,27.1,322.8
						C27.1,322.8,27.1,322.8,27.1,322.8z"/>
				</g>
				<path id="Caminho_9760" class="st35" d="M192.8,356.4c-3.7,13-17.3,20.5-30.3,16.8c-13-3.7-20.5-17.3-16.8-30.3
					c3.7-13,17.3-20.5,30.3-16.8C189.1,329.8,196.6,343.3,192.8,356.4z M165.6,345.7l-6.7,6.4l8.9,2.6l8.9,2.6l-2.2-9l-2.2-9
					L165.6,345.7z"/>
			</g>
			<path id="Caminho_9761" class="st14" d="M105.5,400.7c0,0-5.1,0.9-3.3,22.8c0.9,9.7,2.4,19.3,4.4,28.9c2.5,12.1,6.1-2.1,6.1-2.1
				l1.3-24.9C113.9,425.3,113.4,405.8,105.5,400.7z"/>
			<path id="Caminho_9762" class="st14" d="M129.4,320.6c-13.9,16.8-28.2,88-28.2,88s0.7,27.5,33.3-63.1
				C144.2,318.2,132.8,316.4,129.4,320.6z"/>
			<path id="Caminho_9763" class="st17" d="M117.3,497.9l-4.9-3.9l-3-4.2l-2-8.1c0,0-1-8.8-0.2-12.3c0.8-3.5-0.5-16.7-0.3-18.4
				s5.1-2.8,5.1-2.8s0.6,12.2,0.5,17.8s2.6,13.7,2.6,15.9c0,2.3-0.2,4.7-0.8,6.9c0,0-1.2-5.8-1.3-7.3c-0.1-1.6-1.8-0.6-1.8-0.6
				s0.8,8.1,1.9,10.2c0.7,1.3,1.7,2.5,2.8,3.4L117.3,497.9z"/>
		</g>
	</g>
	<g id="Grupo_2351" transform="translate(2551.366 1403.862)">
		<g id="Grupo_2347" transform="translate(0 13.434)">
			<path id="Retângulo_1372" class="st39" d="M1.3,207.8h416.5c0.7,0,1.3,0.6,1.3,1.3c0,0,0,0,0,0v135c0,0.7-0.6,1.3-1.3,1.3l0,0
				H1.3c-0.7,0-1.3-0.6-1.3-1.3c0,0,0,0,0,0v-135C0,208.4,0.6,207.8,1.3,207.8C1.3,207.8,1.3,207.8,1.3,207.8z"/>
			
				<rect id="Retângulo_1373" x="87" y="314.1" transform="matrix(0.707 -0.7072 0.7072 0.707 -207.6572 180.1178)" class="st39" width="53.2" height="53.2"/>
		</g>
		<g id="Grupo_2348" transform="translate(31.506 45.272)">
			<path id="Caminho_9764" class="st35" d="M65.2,273v-3.6c0-12-9.7-21.7-21.7-21.7H21.8c-12,0-21.8,9.7-21.8,21.7v3.6H65.2z"/>
			<path id="Caminho_9765" class="st35" d="M47.1,222.3c0,8-6.5,14.5-14.5,14.5c-8,0-14.5-6.5-14.5-14.5s6.5-14.5,14.5-14.5
				C40.6,207.8,47.1,214.3,47.1,222.3C47.1,222.3,47.1,222.3,47.1,222.3z"/>
		</g>
		<path id="Caminho_9766" class="st31" d="M113.6,316.7c0,10.7-8.6,19.3-19.3,19.3c-10.7,0-19.3-8.6-19.3-19.3
			c0-10.7,8.6-19.3,19.3-19.3c0,0,0,0,0,0C104.9,297.3,113.5,306,113.6,316.7z"/>
		<path id="Caminho_9767" class="st31" d="M379.9,210.9c-4.1-4.1-10.8-4.1-15,0l-2.5,2.5l-2.5-2.5c-4.1-4.1-10.8-4.2-15,0
			c-4.1,4.1-4.2,10.8,0,15c0,0,0,0,0,0l2.5,2.5l0,0l15,15l15-15l0,0l2.5-2.5C384,221.7,384,215,379.9,210.9z"/>
		<g id="Grupo_2350" transform="translate(281.347 38.548)">
			<g id="Grupo_2349">
				<path id="Caminho_9768" class="st35" d="M73.1,230.3H44.9c1.4-2.9,2.5-6,3.4-9.1c0.2-2.3,0.2-4.6,0-6.9c0-3.6-3-6.6-6.6-6.6
					h-3.3V218c0,0-11.5,13.4-11.5,19v32.2c0,3.6,3,6.6,6.6,6.6h23.1c3.6,0,7.7-3,9-6.6l11.7-32.2C78.6,233.3,76.7,230.3,73.1,230.3z
					"/>
				<rect id="Retângulo_1374" x="22.2" y="235.6" class="st35" width="8.8" height="36"/>
				<rect id="Retângulo_1375" x="0" y="230.3" class="st35" width="15.7" height="45.4"/>
			</g>
		</g>
		<path id="Caminho_9769" class="st35" d="M225.7,248.3h-66.2c-3.4,0-6.2,2.8-6.2,6.2v51.7c0,3.4,2.8,6.2,6.2,6.2h4.1v14.5
			l14.5-14.5h47.6c3.4,0,6.2-2.8,6.2-6.2v-51.7C231.9,251.1,229.2,248.3,225.7,248.3C225.7,248.3,225.7,248.3,225.7,248.3z
			 M219.5,291.7h-53.8v-4.1h53.8L219.5,291.7z M219.5,281.4h-53.8v-4.1h53.8L219.5,281.4z M219.5,271.1h-53.8v-4.1h53.8L219.5,271.1
			z"/>
	</g>
</g>
</svg>
