<?xml version="1.0" encoding="utf-8"?>
<!-- Generator: Adobe Illustrator 25.2.0, SVG Export Plug-In . SVG Version: 6.00 Build 0)  -->
<svg version="1.1" id="Camada_1" xmlns="http://www.w3.org/2000/svg" xmlns:xlink="http://www.w3.org/1999/xlink" x="0px" y="0px"
	 viewBox="0 0 1217.6 904.9" style="enable-background:new 0 0 1217.6 904.9;" xml:space="preserve">
<style type="text/css">
	.st0{fill:url(#Caminho_7759_1_);}
	.st1{fill:#79C4C8;}
	.st2{fill:url(#Caminho_7881_1_);}
	.st3{fill:#EFF1FE;}
	.st4{fill:#44465F;}
	.st5{fill:#DCDFFE;}
	.st6{fill:#CDD0FD;}
	.st7{fill:#7C87ED;}
	.st8{fill:#FFFFFF;}
	.st9{fill:url(#SVGID_1_);}
	.st10{fill:url(#SVGID_2_);}
	.st11{fill:#4A63FE;}
	.st12{fill:#3453EA;}
	.st13{fill:#FE4E1C;}
	.st14{fill:#35384C;}
	.st15{fill:#CE3815;}
	.st16{fill:#B5B5B5;}
	.st17{fill:#F9ED69;}
	.st18{fill:#C6C6C6;}
	.st19{fill:#F9ED68;}
	.st20{fill:#C1BFC0;}
	.st21{fill:#FFF761;}
</style>
<g id="topo-sobre" transform="translate(-833.312 -83.54)">
	
		<linearGradient id="Caminho_7759_1_" gradientUnits="userSpaceOnUse" x1="1645.2052" y1="-95.8876" x2="1646.2244" y2="-95.8876" gradientTransform="matrix(1033.9303 -460.4044 391.1344 878.3705 -1661461.125 841929.3125)">
		<stop  offset="0" style="stop-color:#79C4C8"/>
		<stop  offset="1" style="stop-color:#C56A93"/>
	</linearGradient>
	<path id="Caminho_7759" class="st0" d="M1100.9,781.9c56.2-12.5,87.7-66,153.7-64c69.1,2.1,137.3,179.7,295.5,209.9
		c122.9,23.5,368.7-21.4,444.2-296.1s-69.4-551.1-256.7-531.4c-135.7,14.3-229.2,86.2-339.6,104.1c-102.4,16.6-225.6-57-320.6-40.2
		c-153.2,27-202,185.8-211.8,304.8C856.3,582.3,935.2,818.7,1100.9,781.9z"/>
	<path id="Caminho_7880" class="st1" d="M1158.2,820.2c28.6-15.3,59-21.1,82-20.4c23.3,0.7,39.1,7.9,44.8,20.8
		c5.7,13,0.9,30.2-8.3,49.2c-9.4,18.9-23.2,39.6-41,57.1c-34,35.2-83.6,42.5-118.2,11.7C1082.8,908,1098.9,850.4,1158.2,820.2z"/>
	
		<linearGradient id="Caminho_7881_1_" gradientUnits="userSpaceOnUse" x1="1653.2959" y1="-95.9041" x2="1654.296" y2="-95.9041" gradientTransform="matrix(1133.5574 0 0 818.2154 -1862749.75 79019.5156)">
		<stop  offset="0" style="stop-color:#0F467A"/>
		<stop  offset="1" style="stop-color:#EA8EB4"/>
	</linearGradient>
	<path id="Caminho_7881" class="st2" d="M1068.6,718.8c56.9-1.5,97.3-45.6,161.1-31.8c66.7,14.4,100.4,191.8,248.5,248.5
		c115.1,44,362.1,46.6,486-195.2s33.9-524.9-151.7-540.4c-134.5-11.2-238.5,38.8-349.1,35.5c-102.6-3.1-208.7-93.7-304.1-95.2
		c-153.8-2.5-230.4,136.3-261.8,245.1C867.6,489.1,900.8,723.2,1068.6,718.8z"/>
</g>
<g>
	<g>
		<g>
			<path class="st3" d="M282.9,867.4c0,0-59.8-1.8-84-48.7c-19-36.9-8.4-91.1,71.4-105.5c49.6-8.9-37.7-107.4,69.4-131.1
				c107.1-23.8,106.1-129.8,211.6-150.7C656.9,410.4,657.1,559,751.6,574.7S912.8,631.8,889.6,709s30,80.2,38,114.7
				c7.9,34.5-14.5,43.6-14.5,43.6H282.9z"/>
		</g>
	</g>
	<g>
		<g>
			<g>
				<path class="st4" d="M1038.8,868.3H133.5c-0.4,0-0.8-0.4-0.8-0.8l0,0c0-0.4,0.4-0.8,0.8-0.8h905.2c0.4,0,0.8,0.4,0.8,0.8l0,0
					C1039.6,868,1039.2,868.3,1038.8,868.3z"/>
			</g>
		</g>
	</g>
	<g>
		<g>
			<path class="st3" d="M120.8,544.2H259l0,0c0-10-6.7-18.5-15.8-21.2c-2.5-11-12.2-19.3-24-19.4c-6.3-12.2-19-20.6-33.8-20.6
				c-18.8,0-34.4,13.6-37.4,31.6c-0.2,0-0.4,0-0.5,0c-14.9,0-27,12.1-27,27C120.6,542.4,120.7,543.3,120.8,544.2
				C120.8,544.2,120.8,544.2,120.8,544.2z"/>
		</g>
	</g>
	<g>
		<g>
			<path class="st5" d="M439.1,669.9c-2.7-6.1-6.2-11.5-10.1-16.3c-7.3,24.3-22.4,68-32.6,51.4c-6.9-11.3,1.6-30.4,11.9-46.7
				c5.8-9.2,2.4-21.4-7.4-26.1c-0.1,0-0.2-0.1-0.3-0.1c-3.2-1.5-7,0.3-7.8,3.7c-5.8,25.2-17.8,69.3-28.2,55.2
				c-8-10.9,0.8-34.8,10.1-53.8c3.2-6.6-0.8-14.4-8-15.7c-0.1,0-0.1,0-0.2,0c-2.3-0.4-4.6,1.1-5.1,3.4c-4.4,20.6-13.1,51.5-25,43.2
				c-7.9-5.5-4.4-20.3,1.9-34.9c3-7.1-2.2-14.9-9.9-15c-0.1,0-0.1,0-0.2,0c-2.4,0-4.4,1.8-4.6,4.2c-1.3,13.9-4.4,33-12,30.4
				c-3.7-1.3-4.4-6.7-3.6-13.5c1.3-10.8-7.9-20-18.7-18.7c-14.5,1.7-24,3.8-24,3.8s-0.5,11,0.6,27.3c0.5,7.2,7.4,12.1,14.4,10.3
				c6.9-1.8,13.9-1.6,18.4,4c8.1,10-11.9,12.1-25.2,12.4c-2.6,0.1-4.5,2.4-4,4.9c0,0.1,0,0.2,0,0.2c1.6,9.4,11,15.3,20.1,12.7
				c6.9-1.9,13.8-1.5,17.7,4.7c6.9,10.8-13.9,13.3-27.7,13.8c-1.4,0.1-2.4,1.5-1.9,2.8c0,0.1,0.1,0.2,0.1,0.3
				c4,12,18.2,16.9,28.8,10c10.8-7,22.9-11.6,31.9-6c14,8.8-16.3,22-36.7,29.5c-3.4,1.2-4.6,5.5-2.4,8.3c0.3,0.3,0.5,0.7,0.8,1
				c5.8,7,16,8.4,23.4,3.1c8.8-6.3,19.3-10.7,28.8-6.8c12.3,5.1-0.9,14-14.4,20.7c-3.5,1.7-2.9,6.9,0.9,7.6
				C395.1,796.8,468.9,736.2,439.1,669.9z"/>
		</g>
		<g>
			<path class="st6" d="M431,698c0.1-0.3,0-0.6-0.2-0.8c-0.3-0.2-0.6,0-0.8,0.2c-0.2,0.4-19.6,36.5-41.3,49.2
				c-4.4-5.3-9-10.7-13.8-16.2c0,0,0-0.1,0-0.1c0-0.1-0.1-0.1-0.2-0.2c-2.9-3.3-5.9-6.7-8.9-10c14.8-8.2,23.3-24.7,27.8-37.2
				c4.9-13.7,6.3-25.7,6.3-25.9c0-0.3-0.2-0.6-0.5-0.6c-0.3,0-0.6,0.2-0.6,0.5c-0.1,0.5-5.5,47.1-33.8,62.4
				c-5.8-6.4-11.7-12.7-17.4-18.7c0,0,0-0.1,0-0.1c-0.1-0.1-0.1-0.1-0.2-0.2c-3.3-3.5-6.6-6.9-9.8-10.2c17.6-8.9,26.2-40.6,26.6-42
				c0.1-0.3-0.1-0.6-0.4-0.7c-0.3-0.1-0.6,0.1-0.7,0.4c-0.1,0.3-9,33.1-26.3,41.4c-4.3-4.4-8.4-8.6-12.2-12.5c0-0.1-0.1-0.1-0.2-0.2
				c-2.3-2.4-4.6-4.6-6.7-6.7c10.4-8.8,13.3-37.8,13.3-38c0-0.3-0.2-0.6-0.6-0.6c-0.3,0-0.6,0.2-0.6,0.6c0,0.3-3,28.9-13,37.3
				c-10.9-10.8-18.2-17.8-18.5-18c-0.2-0.2-0.6-0.2-0.8,0c-0.2,0.2-0.2,0.6,0,0.8c0.3,0.3,10.8,10.2,25.5,25
				c-17.4,9-42.3,7.6-42.5,7.6c-0.3,0-0.6,0.2-0.6,0.5c0,0.3,0.2,0.6,0.5,0.6c0.1,0,1.6,0.1,4.2,0.1c8,0,25.9-0.9,39.3-8
				c6.8,6.8,14.4,14.6,22.4,23c-20,14.5-50.6,19.2-50.9,19.3c-0.3,0-0.5,0.3-0.5,0.7c0,0.3,0.3,0.5,0.6,0.5c0,0,0.1,0,0.1,0
				c0.3,0,31.3-4.8,51.5-19.6c8.7,9.2,17.8,19,26.5,28.9c-31.9,22.5-59.3,25.5-59.6,25.5c-0.3,0-0.5,0.3-0.5,0.6
				c0,0.3,0.3,0.5,0.6,0.5c0,0,0,0,0.1,0c0.3,0,28.1-3,60.3-25.8c7.5,8.5,14.6,17,21,25.1c-22.5,17.8-33.4,16.5-33.5,16.5
				c-0.3,0-0.6,0.2-0.7,0.5c0,0.3,0.2,0.6,0.5,0.7c0.1,0,0.4,0.1,0.9,0.1c3.1,0,13.9-1.3,33.4-16.8c7.6,9.8,14,18.9,18.4,26.9
				c0.1,0.2,0.3,0.3,0.5,0.3c0.1,0,0.2,0,0.3-0.1c0.3-0.2,0.4-0.5,0.2-0.8c-4.5-8.1-11-17.4-18.8-27.4c0,0,0-0.1-0.1-0.1
				c0,0-0.1,0-0.1-0.1c-2.2-2.9-4.6-5.8-7-8.8C411.3,734.6,430.8,698.4,431,698z"/>
		</g>
	</g>
	<g>
		<g>
			<path class="st5" d="M987.4,692.1c5.7-3.5,10.6-7.7,14.8-12.2c-25-3.9-70.4-12.9-55.3-25.3c10.2-8.4,30.3-2.5,47.9,5.5
				c9.9,4.5,21.5-0.5,24.9-10.9c0-0.1,0.1-0.2,0.1-0.3c1.1-3.4-1.2-6.9-4.7-7.2c-25.7-2.3-71.1-8.3-58.5-20.4
				c9.7-9.4,34.6-3.9,54.6,2.7c7,2.3,14.2-2.7,14.5-10c0-0.1,0-0.1,0-0.2c0.1-2.4-1.7-4.4-4.1-4.5c-21-1.5-52.8-6-46.2-18.9
				c4.4-8.6,19.6-7.1,34.8-2.9c7.4,2,14.5-4.2,13.5-11.8c0-0.1,0-0.1,0-0.2c-0.3-2.4-2.4-4.1-4.8-4c-13.9,0.6-33.3,0.1-31.7-7.7
				c0.8-3.9,6.1-5.3,12.9-5.4c10.9-0.2,18.8-10.5,16-21c-3.7-14.2-7-23.2-7-23.2s-10.9,1-26.9,4.3c-7.1,1.4-11,9-8.2,15.7
				c2.7,6.6,3.4,13.5-1.5,18.8c-8.8,9.4-13.6-10.2-15.7-23.2c-0.4-2.5-3-4.1-5.4-3.3c-0.1,0-0.2,0.1-0.2,0.1
				c-9.1,2.8-13.6,12.9-9.9,21.7c2.8,6.6,3.4,13.4-2.2,18.2c-9.8,8.3-15.1-12-17.4-25.6c-0.2-1.4-1.8-2.2-3-1.5
				c-0.1,0-0.2,0.1-0.3,0.1c-11.3,5.5-14.2,20.3-6,29.9c8.4,9.8,14.6,21.1,10.2,30.8c-6.8,15.1-24-13.1-34.2-32.4
				c-1.7-3.2-6-3.8-8.5-1.2c-0.3,0.3-0.6,0.6-0.9,0.9c-6.2,6.7-6.2,17,0.1,23.6c7.4,7.9,13.2,17.7,10.6,27.6
				c-3.4,12.9-14,1-22.4-11.5c-2.2-3.2-7.2-1.9-7.4,2C855.7,665.7,925.7,730.7,987.4,692.1z"/>
		</g>
		<g>
			<path class="st6" d="M958.4,687.9c0.3,0.1,0.6,0,0.7-0.3c0.1-0.3,0-0.6-0.3-0.7c-0.4-0.1-38.8-14.5-54.4-34.3
				c4.7-5.1,9.4-10.4,14.1-15.8c0,0,0.1,0,0.1-0.1c0.1-0.1,0.1-0.1,0.1-0.2c2.9-3.4,5.8-6.8,8.7-10.2c10.1,13.6,27.6,19.7,40.7,22.5
				c14.3,3,26.4,2.7,26.5,2.7c0.3,0,0.6-0.3,0.6-0.6c0-0.3-0.3-0.6-0.6-0.6c-0.5,0-47.4,0.9-66.4-25c5.5-6.6,11-13.3,16.1-19.7
				c0,0,0.1,0,0.1,0c0.1-0.1,0.1-0.1,0.1-0.2c3-3.8,6-7.5,8.8-11.1c11.2,16.2,43.8,20.5,45.2,20.6c0.3,0,0.6-0.2,0.6-0.5
				c0-0.3-0.2-0.6-0.5-0.6c-0.3,0-34-4.4-44.6-20.5c3.8-4.9,7.4-9.5,10.7-13.8c0.1-0.1,0.1-0.1,0.2-0.2c2-2.6,3.9-5.2,5.7-7.5
				c10.2,9.1,39.2,8.1,39.5,8c0.3,0,0.5-0.3,0.5-0.6c0-0.3-0.3-0.5-0.6-0.5c-0.3,0-29.1,0.9-38.7-7.8c9.3-12.3,15.1-20.5,15.3-20.8
				c0.2-0.3,0.1-0.6-0.1-0.8c-0.3-0.2-0.6-0.1-0.8,0.1c-0.2,0.3-8.7,12.1-21.3,28.7c-11.3-16-13.3-40.9-13.3-41.1
				c0-0.3-0.3-0.6-0.6-0.5c-0.3,0-0.6,0.3-0.5,0.6c0,0.1,0.1,1.6,0.5,4.1c1.1,7.9,4.4,25.5,13.2,37.8c-5.8,7.6-12.5,16.3-19.7,25.3
				c-17.1-17.8-25.9-47.5-26-47.8c-0.1-0.3-0.4-0.5-0.7-0.4c-0.3,0.1-0.4,0.4-0.4,0.6c0,0,0,0.1,0,0.1c0.1,0.3,9,30.3,26.4,48.4
				c-7.9,9.9-16.4,20.3-25,30.2c-26.7-28.5-33.3-55.3-33.4-55.6c-0.1-0.3-0.4-0.5-0.7-0.4c-0.3,0.1-0.5,0.3-0.4,0.6c0,0,0,0,0,0.1
				c0.1,0.3,6.8,27.4,33.7,56.2c-7.4,8.6-14.9,16.8-22.1,24.2c-20.7-19.9-20.9-30.8-20.9-30.9c0-0.3-0.2-0.6-0.6-0.6
				c-0.3,0-0.6,0.2-0.6,0.6c0,0.1,0,0.4,0.1,0.9c0.4,3.1,3.2,13.6,21.2,30.8c-8.6,8.8-16.9,16.4-24.1,21.9c-0.2,0.1-0.3,0.3-0.2,0.5
				c0,0.1,0,0.2,0.1,0.3c0.2,0.3,0.5,0.3,0.8,0.1c7.4-5.5,15.8-13.3,24.6-22.3c0,0,0.1,0,0.1-0.1c0,0,0-0.1,0.1-0.1
				c2.5-2.6,5.1-5.3,7.7-8.2C919.5,673.4,958,687.8,958.4,687.9z"/>
		</g>
	</g>
	<g>
		<g>
			<g>
				<path class="st4" d="M1038.8,868.3H133.5c-0.4,0-0.8-0.4-0.8-0.8l0,0c0-0.4,0.4-0.8,0.8-0.8h905.2c0.4,0,0.8,0.4,0.8,0.8l0,0
					C1039.6,868,1039.2,868.3,1038.8,868.3z"/>
			</g>
		</g>
	</g>
	<g>
		<g>
			<g>
				<path class="st7" d="M809.1,433.4c-78-36.6-332.7-36.6-410.7,0c0,0-77.6,27.8-63.1,122c1,6.2,6.4,10.7,12.6,10.4l112-5.3
					c0,0,17.4-2.9,15.4-40.1c-0.3-5.9,2.2-11.7,6.7-15.5c6.6-5.4,18-12.9,36.4-19.2c29.4-10,137.5-11.4,170.8,0
					c18.4,6.3,29.9,13.8,36.4,19.2c4.6,3.8,7,9.5,6.7,15.5c-2,37.2,15.4,40.1,15.4,40.1l112,5.3c6.2,0.3,11.7-4.2,12.6-10.4
					C886.7,461.2,809.1,433.4,809.1,433.4z"/>
			</g>
			<g>
				<path class="st4" d="M472.4,569.9H334.2c-4.5,0-8.2-3.7-8.2-8.2v-16.4c0-4.5,3.7-8.2,8.2-8.2h138.2c4.5,0,8.2,3.7,8.2,8.2v16.4
					C480.6,566.2,476.9,569.9,472.4,569.9z"/>
			</g>
			<g>
				<path class="st4" d="M873.5,569.9H735.3c-4.5,0-8.2-3.7-8.2-8.2v-16.4c0-4.5,3.7-8.2,8.2-8.2h138.2c4.5,0,8.2,3.7,8.2,8.2v16.4
					C881.8,566.2,878.1,569.9,873.5,569.9z"/>
			</g>
		</g>
		<path class="st4" d="M567.9,581.2h-42V524c0-7.2,5.8-13,13-13h15.9c7.2,0,13,5.8,13,13V581.2z"/>
		<path class="st4" d="M681.8,581.2h-42V524c0-7.2,5.8-13,13-13h15.9c7.2,0,13,5.8,13,13V581.2z"/>
		<path class="st7" d="M786,728.4l-64.8-163.6c-2.7-6.8-9.3-11.3-16.7-11.3H603.7H502.9c-7.4,0-14,4.5-16.7,11.3l-64.8,163.6
			c-9,22.8-11.8,47.6-7.9,71.9l7.1,44.8c2,12.5,12.7,21.6,25.3,21.6h157.8h157.8c12.6,0,23.4-9.2,25.3-21.6l7.1-44.8
			C797.8,776,795.1,751.2,786,728.4z"/>
		
			<ellipse transform="matrix(0.7071 -0.7071 0.7071 0.7071 -307.6552 627.5886)" class="st4" cx="603.7" cy="685.2" rx="96" ry="96"/>
		
			<ellipse transform="matrix(0.2298 -0.9732 0.9732 0.2298 -201.81 1115.3362)" class="st8" cx="603.7" cy="685.2" rx="57" ry="57"/>
		<path class="st8" d="M663.9,733.2c-7-3.3-8.4-0.9-8.4-0.9s-2.1,1.8,2.1,8.2c4.3,6.4,13.8,15.9,15.5,17.4c8.6,7.4,13,0.9,13,0.9
			s5.8-5.4-2.8-12.8C681.7,744.5,670.9,736.5,663.9,733.2z"/>
		<circle class="st8" cx="603.7" cy="609.1" r="11.2"/>
		<circle class="st8" cx="527.7" cy="684.4" r="11.2"/>
		<circle class="st8" cx="680" cy="684.4" r="11.2"/>
		
			<ellipse transform="matrix(0.9871 -0.1602 0.1602 0.9871 -114.169 106.5471)" class="st8" cx="603.8" cy="761.4" rx="11.2" ry="11.2"/>
		<circle class="st8" cx="657.4" cy="631.2" r="11.2"/>
		
			<ellipse transform="matrix(0.867 -0.4984 0.4984 0.867 -241.251 358.2835)" class="st8" cx="550.4" cy="631" rx="11.2" ry="11.2"/>
		
			<ellipse transform="matrix(0.6289 -0.7775 0.7775 0.6289 -370.6034 702.0399)" class="st8" cx="550.2" cy="739.3" rx="11.2" ry="11.2"/>
	</g>
	<g>
		<linearGradient id="SVGID_1_" gradientUnits="userSpaceOnUse" x1="786.9149" y1="913.0199" x2="790.6727" y2="731.3964">
			<stop  offset="0" style="stop-color:#FFC06C"/>
			<stop  offset="1" style="stop-color:#F2A040"/>
		</linearGradient>
		<rect x="622.2" y="647.7" class="st9" width="335.8" height="218.9"/>
		<polygon class="st8" points="622.2,647.7 790.1,757.2 958.1,647.7 		"/>
		<linearGradient id="SVGID_2_" gradientUnits="userSpaceOnUse" x1="791.0148" y1="764.1445" x2="789.4795" y2="559.9623">
			<stop  offset="0" style="stop-color:#FFC06C"/>
			<stop  offset="1" style="stop-color:#F2A040"/>
		</linearGradient>
		<polygon class="st10" points="622.2,647.7 790.1,757.2 958.1,647.7 		"/>
	</g>
	<g>
		<g>
			<g>
				<path class="st11" d="M231.7,813.8c0,0-23.1,8.7-23-6.6c0.1-15.3,7.3-19.1-3.1-24.9c-10.4-5.8-16.8-7.8-15-19
					c1.8-11.2-22.3-20.6-19.9-33c2.4-12.4,21.2-10,28.7-1.6c7.5,8.4,25.4,1.8,28.8,21c3.3,19.1,4.4,16.6,16.3,25.9
					C256.4,784.9,252.2,808.6,231.7,813.8z"/>
			</g>
		</g>
		<g>
			<g>
				<path class="st4" d="M234.8,831.2C234.7,831.2,234.7,831.2,234.8,831.2c-1.1,0-1.9-0.9-1.8-1.9c0-0.2,0.5-12.8-4.4-29.8
					c-4.5-15.7-14.6-38.4-37.2-57.7c-0.8-0.7-0.9-1.8-0.2-2.6c0.7-0.8,1.8-0.9,2.6-0.2c23.4,19.9,33.8,43.4,38.4,59.6
					c5,17.6,4.5,30.3,4.5,30.8C236.5,830.4,235.7,831.2,234.8,831.2z"/>
			</g>
		</g>
		<g>
			<g>
				<path class="st7" d="M242.5,815.8c0,0,20.3,7.6,20.2-5.8s-6.3-16.7,2.7-21.8c9.1-5,14.7-6.8,13.1-16.6
					c-1.6-9.8,19.5-18,17.4-28.9c-2.1-10.9-18.5-8.8-25.1-1.4c-6.5,7.4-22.3,1.6-25.2,18.3c-2.9,16.7-3.8,14.5-14.3,22.7
					C220.8,790.5,224.5,811.2,242.5,815.8z"/>
			</g>
		</g>
		<g>
			<g>
				<path class="st4" d="M239.8,831.2c-1,0-1.8-0.8-1.8-1.8c0-0.5-0.5-11.6,4-27.1c4.1-14.2,13.2-34.8,33.7-52.3
					c0.8-0.7,1.9-0.6,2.6,0.2c0.7,0.8,0.6,1.9-0.2,2.6c-19.7,16.8-28.6,36.7-32.5,50.4c-4.3,14.9-3.9,25.9-3.9,26
					C241.6,830.3,240.8,831.2,239.8,831.2C239.8,831.2,239.8,831.2,239.8,831.2z"/>
			</g>
		</g>
		<g>
			<g>
				<path class="st4" d="M256.5,867.5h-35.9c-1.7,0-3.1-1.2-3.4-2.8l-5.7-31.3c-0.4-2.1,1.2-4,3.4-4h47.3c2.1,0,3.8,1.9,3.4,4
					l-5.7,31.3C259.6,866.3,258.1,867.5,256.5,867.5z"/>
			</g>
		</g>
	</g>
	<g>
		<g>
			<g>
				<path class="st11" d="M986.3,813.8c0,0,23.1,8.7,23-6.6c-0.1-15.3-7.3-19.1,3.1-24.9c10.4-5.8,16.8-7.8,15-19
					c-1.8-11.2,22.3-20.6,19.9-33c-2.4-12.4-21.2-10-28.7-1.6c-7.5,8.4-25.4,1.8-28.8,21c-3.3,19.1-4.4,16.6-16.3,25.9
					S965.8,808.6,986.3,813.8z"/>
			</g>
		</g>
		<g>
			<g>
				<path class="st4" d="M983.2,831.2C983.3,831.2,983.3,831.2,983.2,831.2c1.1,0,1.9-0.9,1.8-1.9c0-0.2-0.5-12.8,4.4-29.8
					c4.5-15.7,14.6-38.4,37.2-57.7c0.8-0.7,0.9-1.8,0.2-2.6c-0.7-0.8-1.8-0.9-2.6-0.2c-23.4,19.9-33.8,43.4-38.4,59.6
					c-5,17.6-4.5,30.3-4.5,30.8C981.4,830.4,982.3,831.2,983.2,831.2z"/>
			</g>
		</g>
		<g>
			<g>
				<path class="st7" d="M975.5,815.8c0,0-20.3,7.6-20.2-5.8c0.1-13.4,6.3-16.7-2.7-21.8c-9.1-5-14.7-6.8-13.1-16.6
					c1.6-9.8-19.5-18-17.4-28.9c2.1-10.9,18.5-8.8,25.1-1.4c6.5,7.4,22.3,1.6,25.2,18.3c2.9,16.7,3.8,14.5,14.3,22.7
					C997.2,790.5,993.5,811.2,975.5,815.8z"/>
			</g>
		</g>
		<g>
			<g>
				<path class="st4" d="M978.2,831.2c1,0,1.8-0.8,1.8-1.8c0-0.5,0.5-11.6-4-27.1c-4.1-14.2-13.2-34.8-33.7-52.3
					c-0.8-0.7-1.9-0.6-2.6,0.2c-0.7,0.8-0.6,1.9,0.2,2.6c19.7,16.8,28.6,36.7,32.5,50.4c4.3,14.9,3.9,25.9,3.9,26
					C976.4,830.3,977.1,831.2,978.2,831.2C978.2,831.2,978.2,831.2,978.2,831.2z"/>
			</g>
		</g>
		<g>
			<g>
				<path class="st4" d="M961.5,867.5h35.9c1.7,0,3.1-1.2,3.4-2.8l5.7-31.3c0.4-2.1-1.2-4-3.4-4h-47.3c-2.1,0-3.8,1.9-3.4,4
					l5.7,31.3C958.4,866.3,959.9,867.5,961.5,867.5z"/>
			</g>
		</g>
	</g>
	<g>
		<g>
			<g>
				<path class="st3" d="M791.3,364.8H952l0,0c0-11.6-7.7-21.5-18.3-24.7c-2.9-12.8-14.2-22.4-27.9-22.6
					c-7.3-14.2-22.1-23.9-39.2-23.9c-21.8,0-39.9,15.9-43.5,36.7c-0.2,0-0.4,0-0.6,0c-17.3,0-31.4,14-31.4,31.4
					C791.1,362.7,791.2,363.7,791.3,364.8C791.3,364.8,791.3,364.8,791.3,364.8z"/>
			</g>
		</g>
	</g>
	<g>
		<path class="st12" d="M394,519.9l31.9,22l44.5-23.9l12.5,18.1l-45.9,31c-4.3,3.4-10.2,4.1-15.2,1.9l-34.3-20.3"/>
	</g>
	<g>
		<g>
			<g>
				<g>
					<defs>
						<path id="SVGID_3_" d="M865.4,457.1c0.4,0,0.7-0.3,0.8-0.6c5.2-20.6,17.2-34.5,17.3-34.6c0.3-0.4,0.3-0.9-0.1-1.2
							c-0.4-0.3-0.9-0.3-1.2,0.1c-0.1,0.1-12.3,14.3-17.7,35.3c-0.1,0.5,0.2,0.9,0.6,1C865.3,457.1,865.4,457.1,865.4,457.1z"/>
					</defs>
					<use xlink:href="#SVGID_3_"  style="overflow:visible;fill:#F9ED69;"/>
					<clipPath id="SVGID_4_">
						<use xlink:href="#SVGID_3_"  style="overflow:visible;"/>
					</clipPath>
					<g style="clip-path:url(#SVGID_4_);">
						
							<image style="overflow:visible;" width="20" height="38" xlink:href="DBEC22187FB1B3B1.png"  transform="matrix(1 0 0 1 864 419.9)">
						</image>
					</g>
				</g>
			</g>
		</g>
		<g>
			<g>
				<g>
					<g>
						<path class="st4" d="M877.4,428.1c0,0-9.2-3.2-12.6,2.9c-3.6,6.7,4.1,26.1,4.1,26.1s-17.3,31.7,8.4,48.5
							c12.1,7.9,32.3,22.5,42.3-0.3c0,0,24.2-44.1-1.2-60.9C900.2,432.3,877.4,428.1,877.4,428.1z"/>
					</g>
				</g>
			</g>
			<g>
				<g>
					<g>
						<g>
							<path class="st13" d="M856,733.6l5.5,17.5c0.2,0.8-0.2,1.6-1,1.8l-31,7.6c-0.9,0.2-1.7-0.8-1.2-1.6c1.1-1.9,4-5,11.8-7.9
								l-2.3-9.7L856,733.6z"/>
						</g>
					</g>
				</g>
				<g>
					<g>
						<g>
							<path class="st14" d="M883.8,605.7l-66.1,0c-14.5-0.1-24.7,15.3-19.8,29.9L832.4,747l30.3-8.7l-22.3-106.9L883.8,605.7z"/>
						</g>
					</g>
				</g>
				<g>
					<g>
						<g>
							<path class="st13" d="M818.4,741l-6.7,18c0.1,0.8-0.6,1.5-1.4,1.5l-31.9-0.1c-1,0-1.4-1.1-0.8-1.8c1.5-1.6,5.1-3.9,13.4-4.8
								l5.2-12.4L818.4,741z"/>
						</g>
					</g>
				</g>
				<g>
					<g>
						<g>
							<path class="st4" d="M848.8,609l73.5-3.2c0,0,4.3,15.6-2.6,29.9c-7.8,16.2-26.1,14.4-26.1,14.4l-31.1,0.2l-42.6,103
								l-30.7-6.2l38.7-121.4C830.9,616.1,839.3,609.5,848.8,609z"/>
						</g>
					</g>
				</g>
			</g>
			<g>
				<g>
					<path class="st8" d="M853.5,454.3c2.3,2.6,0.9,4.7-0.5,7.2l0.4-0.7l3.3-0.7c4,3.5-9.1,12.7-9.1,12.7l-8.8-5.6
						c0,0-0.1-3.4,2.5-8.5C843.9,453.6,850,450.5,853.5,454.3z"/>
				</g>
				<g>
					<path class="st15" d="M883.1,496.1l-42.8,2.3l11.6-25l-15.3-7.8l-22.9,44.1c-3.4,6.5,1.2,14.3,8.5,14.4l44.7,1"/>
				</g>
				<g>
					<g>
						<defs>
							<path id="SVGID_5_" d="M855.5,459.9c0.6-2.4-0.8-4.9-3.1-5.6l-2.2-0.7c-2.3-0.7-3.9-0.6-4.2,0.2
								c-21.3-7.6-34.9-22.5-38.7-25.9c-0.3-0.5-0.6-0.8-1-0.9c-2.6-0.7-7.2,8.5-10.2,20.5c0,0.1-0.1,0.3-0.1,0.4
								c0,0.1-0.1,0.3-0.1,0.4c-3,12-3.3,22.3-0.7,22.9c0.4,0.1,0.8,0,1.3-0.4c4.9-1.3,24-8,46.3-4.5c0,0.9,1.2,1.7,3.6,2.2l2.2,0.4
								c2.4,0.5,4.8-1,5.4-3.4l0.7-2.9L855.5,459.9z"/>
						</defs>
						<use xlink:href="#SVGID_5_"  style="overflow:visible;fill:#DDC02F;"/>
						<clipPath id="SVGID_6_">
							<use xlink:href="#SVGID_5_"  style="overflow:visible;"/>
						</clipPath>
						<g style="clip-path:url(#SVGID_6_);">
							
								<image style="overflow:visible;" width="63" height="45" xlink:href="DBEC22187FB1B3B2.png"  transform="matrix(1 0 0 1 793 426.9)">
							</image>
						</g>
					</g>
				</g>
				<g>
					<path class="st8" d="M852.2,452.4c-5-2.4-9.4-0.7-10.1,3.1c-0.4,2,7.7,6.6,11.8,5.6C857.9,460.2,857.2,454.8,852.2,452.4z"/>
				</g>
			</g>
			<g>
				<path class="st13" d="M876.9,492.4c0,0-5.5-2-13.3,7c-5.4,6.2-12.8,22-11.1,27.7c2.8,9.1,9.6,25.1,9.6,25.1s-8.5,42.4-8,57.3
					c0,0,18.4,2.8,34,2.5c15.7-0.3,35-2.5,35-2.5s-7.6-46.9-7.2-53.1c0.5-6.2,6.6-27.2,7.1-39.6c0.5-12.4-12.1-23.4-16.8-23.8
					C901.6,492.8,876.9,492.4,876.9,492.4z"/>
			</g>
			<g>
				<g>
					<g>
						<path class="st8" d="M901.9,472.9l-1.6,23.7c-0.2,2.6-2.4,4.5-5,4.3l-14-1.2c-2.6-0.2-4.4-2.5-4.2-5l1.3-14.6L901.9,472.9z"/>
					</g>
				</g>
			</g>
			<g>
				<g>
					<g>
						<path class="st8" d="M900.9,487.1l-21.1-1c-6.5-0.7-11.2-6.4-10.8-12.9l2.4-35.5l37.9,6.1l0.3,25.7c0,0-2.6,5.6-7.6,3.3
							L900.9,487.1z"/>
					</g>
				</g>
			</g>
			<g>
				<g>
					<g>
						<polygon class="st16" points="877.4,491.3 896.7,486.9 877.8,485.7 						"/>
					</g>
				</g>
			</g>
			<g>
				<g>
					<g>
						<path class="st4" d="M909.5,467.6c0,0-15.9-5-20-14.4c-4.2-9.5-12.8-14.4-18.1-15.4c-5.3-1,5.5-16.2,25.3-14.8
							c19.8,1.4,21.7,18.4,21.7,18.4S920,464.2,909.5,467.6z"/>
					</g>
				</g>
			</g>
			<g>
				<path class="st8" d="M925.4,573.2l-7.6,2.4l0.5,3.9c0,0-7.6,6.4-8.7,9.7c-1.4,3.9,4.2,7.5,7,6.9c2.7-0.6,15.8-13.1,15.8-13.1
					L925.4,573.2z"/>
			</g>
			<g>
				<path class="st13" d="M918,534.4l16.7,12.8L918,573.4l13.8,12.2l28.3-36.7c3.1-4,2.5-9.7-1.4-13l-44.5-38"/>
			</g>
			<g>
				<path class="st14" d="M859.8,504.4c-0.8,2-1.6,3.9-2.4,5.9l-2.5,5.9l-1.3,2.9c-0.4,1-0.7,1.9-0.9,2.9c-0.3,2,0,4.1,0.7,6
					c1.6,4,3.1,7.9,4.7,11.9l4.6,12l0.1,0.2l0,0.2c-0.9,4.8-1.8,9.5-2.7,14.3c-0.5,2.4-0.9,4.8-1.4,7.1c-0.5,2.4-1,4.8-1.5,7.1
					c0.3-2.4,0.7-4.8,1-7.2c0.3-2.4,0.7-4.8,1.1-7.2c0.8-4.8,1.6-9.6,2.4-14.4l0,0.3l-4.6-11.9c-1.5-4-3-8-4.5-12
					c-0.8-2.1-1.1-4.4-0.6-6.6c0.2-1.1,0.5-2.2,1-3.1l1.4-2.9l2.8-5.8C857.9,508.2,858.8,506.3,859.8,504.4z"/>
			</g>
		</g>
		<g>
			<g>
				<g>
					<g>
						<defs>
							
								<ellipse id="SVGID_7_" transform="matrix(0.9732 -0.2298 0.2298 0.9732 -82.986 220.5135)" cx="905.5" cy="466.6" rx="9.6" ry="9.6"/>
						</defs>
						<use xlink:href="#SVGID_7_"  style="overflow:visible;fill:#F9ED69;"/>
						<clipPath id="SVGID_8_">
							<use xlink:href="#SVGID_7_"  style="overflow:visible;"/>
						</clipPath>
						<g style="clip-path:url(#SVGID_8_);">
							
								<image style="overflow:visible;" width="21" height="20" xlink:href="DBEC22187FB1B3B3.png"  transform="matrix(1 0 0 1 895 456.9)">
							</image>
						</g>
					</g>
				</g>
			</g>
			<g>
				<g>
					<g>
						<defs>
							<path id="SVGID_9_" d="M905.5,467.5c0.3,0,0.6-0.2,0.8-0.5c0-0.1,4-9.2,6-19.4c1.2-6,1.5-11.2,0.9-15.4
								c-0.7-5.4-3-9.3-6.6-11.6c-7.6-4.6-13.7-4.4-17.6-3.3c-4.2,1.1-6.6,3.4-6.7,3.5c-0.3,0.3-0.4,0.9,0,1.2
								c0.3,0.3,0.9,0.4,1.2,0c0,0,2.2-2.1,6-3.1c5.1-1.3,10.5-0.3,16.2,3.2c14.2,8.7-0.8,44-1,44.3c-0.2,0.4,0,0.9,0.4,1.1
								C905.2,467.4,905.3,467.5,905.5,467.5z"/>
						</defs>
						<use xlink:href="#SVGID_9_"  style="overflow:visible;fill:#F9ED69;"/>
						<clipPath id="SVGID_10_">
							<use xlink:href="#SVGID_9_"  style="overflow:visible;"/>
						</clipPath>
						<g style="clip-path:url(#SVGID_10_);">
							
								<image style="overflow:visible;" width="32" height="52" xlink:href="DBEC22187FB1B3D8.png"  transform="matrix(1 0 0 1 882 415.9)">
							</image>
						</g>
					</g>
				</g>
			</g>
			<g>
				<g>
					<g>
						<defs>
							
								<ellipse id="SVGID_11_" transform="matrix(0.9732 -0.2298 0.2298 0.9732 -82.9861 220.5138)" cx="905.5" cy="466.6" rx="6.8" ry="6.8"/>
						</defs>
						<use xlink:href="#SVGID_11_"  style="overflow:visible;fill:#F9ED69;"/>
						<clipPath id="SVGID_12_">
							<use xlink:href="#SVGID_11_"  style="overflow:visible;"/>
						</clipPath>
						<g style="clip-path:url(#SVGID_12_);">
							
								<image style="overflow:visible;" width="19" height="19" xlink:href="DBEC22187FB1B3D9.png"  transform="matrix(1 0 0 1 896 456.9)">
							</image>
						</g>
					</g>
				</g>
			</g>
		</g>
		<g>
			<g>
				<g>
					<g>
						<defs>
							<path id="SVGID_13_" d="M874.8,479.5c0.4,0,0.8-0.3,0.8-0.8c0-0.5-0.3-0.9-0.8-0.9c0,0-4.5-0.5-7.4-4.5
								c-2.7-3.8-3.1-9.5-1.2-16.9c0.1-0.5-0.2-0.9-0.6-1c-0.5-0.1-0.9,0.2-1,0.6c-2,7.9-1.5,14.1,1.5,18.3
								C869.4,478.9,874.5,479.5,874.8,479.5C874.7,479.5,874.7,479.5,874.8,479.5z"/>
						</defs>
						<use xlink:href="#SVGID_13_"  style="overflow:visible;fill:#F9ED69;"/>
						<clipPath id="SVGID_14_">
							<use xlink:href="#SVGID_13_"  style="overflow:visible;"/>
						</clipPath>
						<g style="clip-path:url(#SVGID_14_);">
							
								<image style="overflow:visible;" width="13" height="25" xlink:href="DBEC22187FB1B3DE.png"  transform="matrix(1 0 0 1 863 454.9)">
							</image>
						</g>
					</g>
				</g>
			</g>
			<g>
				<g>
					<path class="st17" d="M874.4,481.3l4,1c1.3,0.3,2.7-0.5,3-1.9l0,0c0.3-1.3-0.5-2.7-1.9-3l-4-1c-1.3-0.3-2.7,0.5-3,1.9l0,0
						C872.3,479.6,873.1,481,874.4,481.3z"/>
				</g>
			</g>
		</g>
	</g>
	<g>
		<g>
			<g>
				<g>
					<defs>
						<path id="SVGID_15_" d="M551.6,200.4c-0.4,0-0.7-0.3-0.8-0.6c-5.2-20.6-17.2-34.5-17.3-34.6c-0.3-0.4-0.3-0.9,0.1-1.2
							c0.4-0.3,0.9-0.3,1.2,0.1c0.1,0.1,12.3,14.3,17.7,35.3c0.1,0.5-0.2,0.9-0.6,1C551.7,200.4,551.7,200.4,551.6,200.4z"/>
					</defs>
					<use xlink:href="#SVGID_15_"  style="overflow:visible;fill:#F9ED68;"/>
					<clipPath id="SVGID_16_">
						<use xlink:href="#SVGID_15_"  style="overflow:visible;"/>
					</clipPath>
					<g style="clip-path:url(#SVGID_16_);">
						
							<image style="overflow:visible;" width="20" height="38" xlink:href="DBEC22187FB1B3DF.png"  transform="matrix(1 0 0 1 533 162.9)">
						</image>
					</g>
				</g>
			</g>
		</g>
		<g>
			<g>
				<g>
					<g>
						<g>
							<path class="st13" d="M563,503.4l-6.2,19.6c-0.3,0.9,0.2,1.8,1.1,2l34.7,8.5c1,0.3,1.9-0.8,1.4-1.8
								c-1.2-2.2-4.5-5.5-13.3-8.8l2.5-10.8L563,503.4z"/>
						</g>
					</g>
				</g>
				<g>
					<g>
						<g>
							<path class="st14" d="M531.9,360.3l73.9,0c16.2-0.1,27.6,17.1,22.1,33.4l-38.5,124.7l-33.9-9.8l24.9-119.6L531.9,360.3z"/>
						</g>
					</g>
				</g>
				<g>
					<g>
						<g>
							<path class="st13" d="M605.1,511.7l7.5,20.1c-0.1,0.9,0.7,1.7,1.6,1.7l35.7-0.1c1.1,0,1.6-1.3,0.9-2c-1.7-1.8-5.7-4.3-15-5.4
								l-5.9-13.9L605.1,511.7z"/>
						</g>
					</g>
				</g>
				<g>
					<g>
						<g>
							<path class="st4" d="M571,364l-82.2-3.6c0,0-4.8,17.4,2.9,33.4c8.7,18.2,29.2,16.1,29.2,16.1l34.8,0.3l47.7,115.2l34.4-6.9
								l-43.3-135.9C591,371.9,581.7,364.5,571,364z"/>
						</g>
					</g>
				</g>
			</g>
			<g>
				<g>
					<g>
						<path class="st4" d="M540.5,175.4c0,0,4.4-3.6,10.1-0.4c5.6,3.1-4.1,27.3-4.1,27.3s24.6,27.2,5,50.8s-69,25-69,25l-0.2,4.4
							c0,0-20.8-33-2.2-50.4c0,0-2.6-32.9,17-42.7C516.6,179.7,540.5,175.4,540.5,175.4z"/>
					</g>
				</g>
			</g>
			<g>
				<g>
					<g>
						<path class="st8" d="M615.8,219.1c0,0-0.4-12.5,2.9-13.2c1.9-0.4,2.9,5.2,2.9,5.2s6.6-9.6,10-11.3c4.1-2,8.7,3.8,8.4,6.9
							c-0.3,3-12.6,18.9-12.6,18.9L615.8,219.1z"/>
					</g>
				</g>
			</g>
			<g>
				<g>
					<g>
						<path class="st15" d="M545.9,247.7l37.7,6.4l29.8-40l18.7,11l-28,46.9c-2.5,4.8-7.4,7.9-12.8,8.1l-39.2-3.8"/>
					</g>
				</g>
			</g>
			<g>
				<g>
					<g>
						<path class="st13" d="M538.4,239.9c0,0,6-2.2,14.7,7.7c6,6.9,14.2,24.3,12.3,30.6c-3.1,10.1-10.6,27.8-10.6,27.8
							s9.3,41.2,8.8,57.8c0,0-17.1,4-36.2,4.2c-23.8,0.2-41-3-41-3s9.5-47.4,9-54.2c-0.5-6.8-7.3-30-7.9-43.7
							c-0.6-13.7,13.4-25.8,18.5-26.2C511.1,240.3,538.4,239.9,538.4,239.9z"/>
					</g>
				</g>
			</g>
			<g>
				<g>
					<g>
						<path class="st14" d="M557.3,253.2c1,2.1,2,4.2,3.1,6.4c1,2.1,2,4.3,3,6.4l1.5,3.2c0.5,1.1,0.9,2.3,1.1,3.4
							c0.4,2.4,0.2,4.9-0.7,7.2l-5,13.2c-1.7,4.4-3.4,8.8-5.1,13.2l0-0.3l1.4,6.8l1.3,6.8c0.4,2.3,0.9,4.6,1.3,6.8
							c0.4,2.3,0.8,4.6,1.2,6.9c-0.5-2.3-1.1-4.5-1.6-6.8c-0.5-2.3-1-4.5-1.5-6.8l-1.5-6.8l-1.4-6.8l0-0.1l0.1-0.1
							c1.7-4.4,3.3-8.8,5-13.2l5.1-13.2c0.9-2.1,1.2-4.4,0.8-6.7c-0.2-1.1-0.5-2.2-1-3.3l-1.4-3.2c-0.9-2.2-1.9-4.3-2.8-6.5
							C559.1,257.5,558.2,255.3,557.3,253.2z"/>
					</g>
				</g>
			</g>
			<g>
				<path class="st8" d="M529.8,362.5c0,0,7,3.7,9.8,4.9c6.6,2.8,23.6,2.9,27.4,1.4c3.8-1.6-6.4-6.7-13.2-9.1
					c-6.8-2.5-16-7.8-16-7.8L529.8,362.5z"/>
			</g>
			<g>
				<g>
					<g>
						<path class="st13" d="M488.1,259.8L471,308.4c-3.2,9.2,0.1,19.3,8.2,24.8l52.1,35.4l13.4-16.9l-45.1-37.5l8.1-31.6"/>
					</g>
				</g>
			</g>
			<g>
				<g>
					<g>
						<path class="st8" d="M513.5,218l1.6,23.7c0.2,2.6,2.4,4.5,5,4.3l14-1.2c2.6-0.2,4.4-2.5,4.2-5l-1.3-14.6L513.5,218z"/>
					</g>
				</g>
			</g>
			<g>
				<g>
					<g>
						<path class="st8" d="M514.5,232.2l21.1-1c6.5-0.7,11.2-6.4,10.8-12.9l-2.4-35.5l-37.9,6.1l-0.3,25.7c0,0,2.6,5.6,7.6,3.3
							L514.5,232.2z"/>
					</g>
				</g>
			</g>
			<g>
				<g>
					<g>
						<polygon class="st18" points="538.1,236.4 518.8,232 537.6,230.9 						"/>
					</g>
				</g>
			</g>
			<g>
				<g>
					<g>
						<path class="st4" d="M505.9,212.7c0,0,15.9-5,20-14.4c4.2-9.5,12.8-14.4,18.1-15.4c5.3-1-5.5-16.2-25.3-14.8
							c-19.8,1.4-21.7,18.4-21.7,18.4S495.4,209.3,505.9,212.7z"/>
					</g>
				</g>
			</g>
			<g>
				<path class="st14" d="M505.9,289.5l-6.1,24.8l-0.1-0.3l22.7,18.6c7.6,6.2,15.1,12.5,22.6,18.7c0.2,0.2,0.3,0.5,0.1,0.8
					L531.7,369c-0.2,0.3-0.6,0.3-0.8,0.1l0,0c-8.3-5.6-16.5-11.2-24.7-16.8l-24.7-16.8c-1-0.7-2.1-1.4-3.1-2.1
					c-0.5-0.4-1-0.7-1.5-1.2c-0.5-0.4-1-0.8-1.4-1.3c-1.8-1.8-3.3-3.9-4.3-6.2c-2.1-4.6-2.6-10-1.1-14.8c0.2-0.6,0.4-1.2,0.6-1.8
					l0.6-1.8l1.3-3.5l2.6-7l5.2-14l-4.9,14.1l-2.4,7.1l-1.2,3.5l-0.6,1.8c-0.2,0.6-0.4,1.2-0.5,1.8c-1.3,4.7-0.8,9.9,1.3,14.3
					c1,2.2,2.5,4.2,4.2,5.9c0.4,0.4,0.9,0.8,1.4,1.2c0.5,0.4,1,0.7,1.5,1.1c1,0.7,2.1,1.4,3.1,2.1l24.8,16.7
					c8.3,5.6,16.5,11.1,24.8,16.7l-0.8,0.1l13.4-16.9l0.1,0.8c-7.5-6.3-15-12.5-22.5-18.8l-22.4-18.9l0,0c-0.1-0.1-0.1-0.2-0.1-0.3
					L505.9,289.5z"/>
			</g>
		</g>
		<g>
			<g>
				<g>
					<g>
						<defs>
							
								<ellipse id="SVGID_17_" transform="matrix(0.2298 -0.9732 0.9732 0.2298 189.6855 659.5931)" cx="511.6" cy="210" rx="9.6" ry="9.6"/>
						</defs>
						<use xlink:href="#SVGID_17_"  style="overflow:visible;fill:#F9ED68;"/>
						<clipPath id="SVGID_18_">
							<use xlink:href="#SVGID_17_"  style="overflow:visible;"/>
						</clipPath>
						<g style="clip-path:url(#SVGID_18_);">
							
								<image style="overflow:visible;" width="21" height="20" xlink:href="DBEC22187FB1B3E4.png"  transform="matrix(1 0 0 1 501 199.9)">
							</image>
						</g>
					</g>
				</g>
			</g>
			<g>
				<g>
					<g>
						<defs>
							<path id="SVGID_19_" d="M511.6,210.8c-0.3,0-0.6-0.2-0.8-0.5c0-0.1-4-9.2-6-19.4c-1.2-6-1.5-11.2-0.9-15.4
								c0.7-5.4,3-9.3,6.6-11.6c7.6-4.6,13.7-4.4,17.6-3.3c4.2,1.1,6.6,3.4,6.7,3.5c0.3,0.3,0.4,0.9,0,1.2c-0.3,0.3-0.9,0.4-1.2,0
								c0,0-2.2-2.1-6-3.1c-5.1-1.3-10.5-0.3-16.2,3.2c-14.2,8.7,0.8,44,1,44.3c0.2,0.4,0,0.9-0.4,1.1
								C511.8,210.8,511.7,210.8,511.6,210.8z"/>
						</defs>
						<use xlink:href="#SVGID_19_"  style="overflow:visible;fill:#F9ED68;"/>
						<clipPath id="SVGID_20_">
							<use xlink:href="#SVGID_19_"  style="overflow:visible;"/>
						</clipPath>
						<g style="clip-path:url(#SVGID_20_);">
							
								<image style="overflow:visible;" width="32" height="52" xlink:href="DBEC22187FB1B3E5.png"  transform="matrix(1 0 0 1 503 158.9)">
							</image>
						</g>
					</g>
				</g>
			</g>
			<g>
				<g>
					<g>
						<defs>
							
								<ellipse id="SVGID_21_" transform="matrix(0.2298 -0.9732 0.9732 0.2298 189.6856 659.5932)" cx="511.6" cy="210" rx="6.8" ry="6.8"/>
						</defs>
						<use xlink:href="#SVGID_21_"  style="overflow:visible;fill:#F9ED68;"/>
						<clipPath id="SVGID_22_">
							<use xlink:href="#SVGID_21_"  style="overflow:visible;"/>
						</clipPath>
						<g style="clip-path:url(#SVGID_22_);">
							
								<image style="overflow:visible;" width="19" height="20" xlink:href="C920ED8A74AEFAA1.png"  transform="matrix(1 0 0 1 502 199.9)">
							</image>
						</g>
					</g>
				</g>
			</g>
		</g>
		<g>
			<g>
				<g>
					<g>
						<defs>
							<path id="SVGID_23_" d="M542.2,222.8c-0.4,0-0.8-0.3-0.8-0.8c0-0.5,0.3-0.9,0.8-0.9c0,0,4.5-0.5,7.4-4.5
								c2.7-3.8,3.1-9.5,1.2-16.9c-0.1-0.5,0.2-0.9,0.6-1c0.5-0.1,0.9,0.2,1,0.6c2,7.9,1.5,14.1-1.5,18.3
								C547.6,222.3,542.5,222.8,542.2,222.8C542.3,222.8,542.3,222.8,542.2,222.8z"/>
						</defs>
						<use xlink:href="#SVGID_23_"  style="overflow:visible;fill:#F9ED68;"/>
						<clipPath id="SVGID_24_">
							<use xlink:href="#SVGID_23_"  style="overflow:visible;"/>
						</clipPath>
						<g style="clip-path:url(#SVGID_24_);">
							
								<image style="overflow:visible;" width="13" height="25" xlink:href="C920ED8A74AEFAA2.png"  transform="matrix(1 0 0 1 541 197.9)">
							</image>
						</g>
					</g>
				</g>
			</g>
			<g>
				<g>
					<path class="st19" d="M542.6,224.6l-4,1c-1.3,0.3-2.7-0.5-3-1.9l0,0c-0.3-1.3,0.5-2.7,1.9-3l4-1c1.3-0.3,2.7,0.5,3,1.9l0,0
						C544.8,222.9,543.9,224.3,542.6,224.6z"/>
				</g>
			</g>
		</g>
	</g>
	<g>
		<g>
			<g>
				<g>
					<g>
						<defs>
							<path id="SVGID_25_" d="M385,475.1c-0.4,0-0.7-0.3-0.8-0.6c-5.2-20.6-17.2-34.5-17.3-34.6c-0.3-0.4-0.3-0.9,0.1-1.2
								c0.4-0.3,0.9-0.3,1.2,0.1c0.1,0.1,12.3,14.3,17.7,35.3c0.1,0.5-0.2,0.9-0.6,1C385.2,475.1,385.1,475.1,385,475.1z"/>
						</defs>
						<use xlink:href="#SVGID_25_"  style="overflow:visible;fill:#FFF761;"/>
						<clipPath id="SVGID_26_">
							<use xlink:href="#SVGID_25_"  style="overflow:visible;"/>
						</clipPath>
						<g style="clip-path:url(#SVGID_26_);">
							
								<image style="overflow:visible;" width="20" height="38" xlink:href="C920ED8A74AEFAA0.png"  transform="matrix(1 0 0 1 366 437.9)">
							</image>
						</g>
					</g>
				</g>
			</g>
		</g>
		<g>
			<g>
				<path class="st8" d="M470.4,524.3c0,0,5-11.6,8.3-10.9c1.9,0.4,0.4,6,0.4,6s10.2-6,14-6c4.6-0.1,6.3,7.2,4.7,9.9
					s-19.7,11.9-19.7,11.9L470.4,524.3z"/>
			</g>
			<g>
				<path class="st11" d="M373.4,842.8l-1.4,22.1c-0.1,1,0.7,1.8,1.7,1.8h38.6c1.1,0,1.7-1.4,1-2.2c-1.8-2-6.1-4.7-16.2-5.9l-0.1-12
					L373.4,842.8z"/>
			</g>
			<g>
				<path class="st11" d="M311.5,843.8l-3.3,21.1c0.1,1-0.7,1.8-1.7,1.8h-38.6c-1.1,0-1.7-1.4-1-2.2c1.8-2,6.1-4.7,16.2-5.9
					l2.8-12.3L311.5,843.8z"/>
			</g>
			<g>
				<path class="st4" d="M322.3,636.3l-43.6,216.5l37.4,1.9c0,0,39.7-186.7,45.5-187.1c2.4-0.2,3.4,185.7,5.4,185.3
					c2-0.4,40.4,0.6,40.4,0.6s-5.2-219.9-5.1-219.9C402.3,633.6,322.3,636.3,322.3,636.3z"/>
			</g>
			<g>
				<path class="st11" d="M397.1,525.2c-1.2-3.8-4.5-8.8-11.1-9.2c-14-0.9-33.6-1.4-49.6,0.7c-5.4,0.7-12.8,2.4-15,12.2l3,72.2
					l-4.1,41.6h83.2l-4.5-49.4c-0.5-12.7,1-27.1,0.7-38.8C403.6,553.1,400.3,535.5,397.1,525.2z"/>
			</g>
			<g>
				<path class="st8" d="M374.1,612.6c0,0,5.4,5.7,18.9,5.7c10.3,0,17-8.1,17-8.1h-34.4L374.1,612.6z"/>
			</g>
			<g>
				<path class="st11" d="M321.9,526.9l-19.6,51.2c-2.8,7.3,1.2,15.5,8.8,17.8l62.2,18.5l9.1-17L328.9,579l10.9-27.5"/>
			</g>
			<g>
				<path class="st14" d="M338.2,555.5c-0.7,2-1.4,4-2.1,6l-2.2,5.9c-1.5,4-3,7.9-4.5,11.8l-0.3-0.7c4.2,1.4,8.5,2.8,12.7,4.3
					c4.2,1.5,8.5,2.9,12.7,4.4c4.2,1.5,8.4,3,12.6,4.5c2.1,0.8,4.2,1.5,6.3,2.3c2.1,0.8,4.2,1.6,6.3,2.4c-2.1-0.6-4.3-1.3-6.4-2
					c-2.1-0.7-4.3-1.3-6.4-2c-4.3-1.4-8.5-2.7-12.7-4.1c-4.2-1.4-8.5-2.8-12.7-4.3c-4.2-1.5-8.4-2.9-12.7-4.4l-0.6-0.2l0.2-0.5
					c1.6-3.9,3.2-7.8,4.8-11.7l2.5-5.8C336.5,559.4,337.3,557.4,338.2,555.5z"/>
			</g>
			<g>
				<path class="st14" d="M316,542.5c-3.6,9.8-7.2,19.6-10.9,29.4l-1.4,3.7l-0.7,1.8l-0.3,0.9l-0.3,0.9c-0.1,0.3-0.2,0.6-0.2,0.9
					c-0.1,0.3-0.1,0.6-0.2,0.9c-0.1,0.6-0.2,1.2-0.1,1.9c0,0.6,0.1,1.2,0.1,1.9c0,0.3,0.1,0.6,0.2,0.9l0.1,0.5l0.1,0.4
					c0.7,2.4,2.2,4.6,4.1,6.2c1,0.8,2,1.4,3.2,1.9c0.3,0.1,0.6,0.2,0.9,0.3c0.3,0.1,0.6,0.2,0.9,0.3l1.9,0.6c5,1.5,10,3,15,4.5
					l15,4.5c5,1.5,10,3,15,4.6c5,1.5,10,3.1,15,4.6l-0.3,0.1c2.2-3.5,4.3-7.1,6.5-10.6c-2,3.6-4.1,7.2-6.2,10.9l-0.1,0.2l-0.2,0
					c-5-1.4-10.1-2.8-15.1-4.3c-5-1.4-10.1-2.8-15.1-4.3l-15-4.4c-5-1.5-10-2.9-15-4.4l-1.9-0.6c-0.6-0.2-1.3-0.4-1.9-0.7
					c-1.2-0.6-2.4-1.3-3.5-2.1c-2.1-1.8-3.6-4.1-4.4-6.7l-0.2-0.5l-0.1-0.5c-0.1-0.3-0.1-0.7-0.2-1c-0.1-0.7-0.2-1.4-0.1-2
					c0-0.7,0.1-1.4,0.1-2c0-0.3,0.1-0.7,0.2-1c0.1-0.3,0.1-0.7,0.3-1l0.3-1l0.4-0.9l0.7-1.8l1.4-3.6
					C308.1,561.9,312,552.2,316,542.5z"/>
			</g>
			<g>
				<g>
					<path class="st4" d="M342.6,610.1h80.1v-6.6h-80.1c-1.1,0-2,0.9-2,2v2.5C340.5,609.2,341.4,610.1,342.6,610.1z"/>
				</g>
				<g>
					<path class="st4" d="M375.7,610.1h78.5c2,0,3.6-1.6,3.6-3.6v-3.1h-82.1V610.1z"/>
				</g>
				<g>
					<path class="st13" d="M463.8,555.5h-75.2c-1.2,0-2.3,0.8-2.6,2l-10.4,46h82l8.6-44.9C466.7,557,465.4,555.5,463.8,555.5z"/>
				</g>
			</g>
			<g>
				<path class="st8" d="M406.3,613.6c0,0,6.6-4.2,4.7-6.4c-1.5-1.7-9.7-2.4-15.9-0.3c-3.5,1.2-7.6,3.7-7.6,3.7L406.3,613.6z"/>
			</g>
			<g>
				<g>
					<path class="st4" d="M380.2,457.5c0,0-0.9,22.4-1.6,25.3c-0.7,2.9-4.2-26.5-4.2-26.5L380.2,457.5z"/>
				</g>
				<g>
					<path class="st8" d="M345.2,492.2l1.7,24.8c0.2,2.7,2.5,4.7,5.2,4.5l14.6-1.2c2.7-0.2,4.6-2.6,4.4-5.2l-1.3-15.2L345.2,492.2z"
						/>
				</g>
				<g>
					<path class="st8" d="M346.2,507l22.1-1c6.8-0.7,11.7-6.7,11.3-13.4l-2.5-37.1l-39.6,6.4l-0.3,26.9c0,0,2.7,5.9,8,3.5L346.2,507
						z"/>
				</g>
				<g>
					<polygon class="st20" points="370.8,511.3 350.6,506.8 370.3,505.5 					"/>
				</g>
				<g>
					<path class="st4" d="M346.2,507c0,0-31.4-44.7-9-51.5c0,0,4.1-17.3,20.9-13.4c16.8,3.8,30,3.1,30,3.1s-8.2,15.5-14.8,18.8
						c-6.6,3.3-25.8,2.7-25.8,2.7l-2.4,14.6c0,0-5.1-0.6-5.1,3.6c0,4.2,5.1,6.4,5.1,6.4S347,503.2,346.2,507z"/>
				</g>
			</g>
		</g>
		<g>
			<g>
				<g>
					<g>
						<defs>
							
								<ellipse id="SVGID_27_" transform="matrix(0.7071 -0.7071 0.7071 0.7071 -241.6303 385.906)" cx="345" cy="484.6" rx="9.6" ry="9.6"/>
						</defs>
						<use xlink:href="#SVGID_27_"  style="overflow:visible;fill:#FFF761;"/>
						<clipPath id="SVGID_28_">
							<use xlink:href="#SVGID_27_"  style="overflow:visible;"/>
						</clipPath>
						<g style="clip-path:url(#SVGID_28_);">
							
								<image style="overflow:visible;" width="20" height="20" xlink:href="C920ED8A74AEFAAC.png"  transform="matrix(1 0 0 1 335 474.9)">
							</image>
						</g>
					</g>
				</g>
			</g>
			<g>
				<g>
					<g>
						<defs>
							<path id="SVGID_29_" d="M345,485.5c-0.3,0-0.6-0.2-0.8-0.5c0-0.1-4-9.2-6-19.4c-1.2-6-1.5-11.2-0.9-15.4
								c0.7-5.4,3-9.3,6.6-11.6c7.6-4.6,13.7-4.4,17.6-3.3c4.2,1.1,6.6,3.4,6.7,3.5c0.3,0.3,0.4,0.9,0,1.2c-0.3,0.3-0.9,0.4-1.2,0
								c0,0-2.2-2.1-6-3.1c-5.1-1.3-10.5-0.3-16.2,3.2c-14.2,8.7,0.8,44,1,44.3c0.2,0.4,0,0.9-0.4,1.1
								C345.2,485.5,345.1,485.5,345,485.5z"/>
						</defs>
						<use xlink:href="#SVGID_29_"  style="overflow:visible;fill:#FFF761;"/>
						<clipPath id="SVGID_30_">
							<use xlink:href="#SVGID_29_"  style="overflow:visible;"/>
						</clipPath>
						<g style="clip-path:url(#SVGID_30_);">
							
								<image style="overflow:visible;" width="33" height="52" xlink:href="C920ED8A74AEFAAD.png"  transform="matrix(1 0 0 1 336 433.9)">
							</image>
						</g>
					</g>
				</g>
			</g>
			<g>
				<g>
					<g>
						<defs>
							
								<ellipse id="SVGID_31_" transform="matrix(0.7071 -0.7071 0.7071 0.7071 -241.6303 385.906)" cx="345" cy="484.6" rx="6.8" ry="6.8"/>
						</defs>
						<use xlink:href="#SVGID_31_"  style="overflow:visible;fill:#FFF761;"/>
						<clipPath id="SVGID_32_">
							<use xlink:href="#SVGID_31_"  style="overflow:visible;"/>
						</clipPath>
						<g style="clip-path:url(#SVGID_32_);">
							
								<image style="overflow:visible;" width="20" height="19" xlink:href="C920ED8A74AEFAAE.png"  transform="matrix(1 0 0 1 335 474.9)">
							</image>
						</g>
					</g>
				</g>
			</g>
		</g>
		<g>
			<g>
				<g>
					<g>
						<g>
							<defs>
								<path id="SVGID_33_" d="M375.7,497.5c-0.4,0-0.8-0.3-0.8-0.8c0-0.5,0.3-0.9,0.8-0.9c0,0,4.5-0.5,7.4-4.5
									c2.7-3.8,3.1-9.5,1.2-16.9c-0.1-0.5,0.2-0.9,0.6-1c0.5-0.1,0.9,0.2,1,0.6c2,7.9,1.5,14.1-1.5,18.3
									C381.1,497,376,497.5,375.7,497.5C375.8,497.5,375.7,497.5,375.7,497.5z"/>
							</defs>
							<clipPath id="SVGID_34_">
								<use xlink:href="#SVGID_33_"  style="overflow:visible;"/>
							</clipPath>
						</g>
					</g>
				</g>
			</g>
			<g>
				<g>
					<g>
						<g>
							<defs>
								<path id="SVGID_35_" d="M375.7,497.5c-0.4,0-0.8-0.3-0.8-0.8c0-0.5,0.3-0.9,0.8-0.9c0,0,4.5-0.5,7.4-4.5
									c2.7-3.8,3.1-9.5,1.2-16.9c-0.1-0.5,0.2-0.9,0.6-1c0.5-0.1,0.9,0.2,1,0.6c2,7.9,1.5,14.1-1.5,18.3
									C381.1,497,376,497.5,375.7,497.5C375.8,497.5,375.7,497.5,375.7,497.5z"/>
							</defs>
							<use xlink:href="#SVGID_35_"  style="overflow:visible;fill:#FFF761;"/>
							<clipPath id="SVGID_36_">
								<use xlink:href="#SVGID_35_"  style="overflow:visible;"/>
							</clipPath>
							<g style="clip-path:url(#SVGID_36_);">
								
									<image style="overflow:visible;" width="14" height="25" xlink:href="C920ED8A74AEFAAF.png"  transform="matrix(1 0 0 1 374 472.9)">
								</image>
							</g>
						</g>
					</g>
				</g>
				<g>
					<g>
						<path class="st21" d="M376,499.3l-4,1c-1.3,0.3-2.7-0.5-3-1.9l0,0c-0.3-1.3,0.5-2.7,1.9-3l4-1c1.3-0.3,2.7,0.5,3,1.9l0,0
							C378.2,497.6,377.4,499,376,499.3z"/>
					</g>
				</g>
			</g>
			<g>
				<g>
					<g>
						<g>
							<defs>
								<path id="SVGID_37_" d="M375.7,497.5c-0.4,0-0.8-0.3-0.8-0.8c0-0.5,0.3-0.9,0.8-0.9c0,0,4.5-0.5,7.4-4.5
									c2.7-3.8,3.1-9.5,1.2-16.9c-0.1-0.5,0.2-0.9,0.6-1c0.5-0.1,0.9,0.2,1,0.6c2,7.9,1.5,14.1-1.5,18.3
									C381.1,497,376,497.5,375.7,497.5C375.8,497.5,375.7,497.5,375.7,497.5z"/>
							</defs>
							<clipPath id="SVGID_38_">
								<use xlink:href="#SVGID_37_"  style="overflow:visible;"/>
							</clipPath>
						</g>
					</g>
				</g>
			</g>
		</g>
	</g>
</g>
</svg>
