<svg id="Layer_1" data-name="Layer 1" xmlns="http://www.w3.org/2000/svg" xmlns:xlink="http://www.w3.org/1999/xlink" viewBox="0 0 116.02 116.02"><defs><style>.cls-1{fill:none;}.cls-2{clip-path:url(#clip-path);}.cls-3{fill:url(#linear-gradient);}.cls-4{clip-path:url(#clip-path-2);}.cls-5{fill:#74a5c4;}.cls-6{fill:url(#linear-gradient-2);}.cls-7{fill:#fff;}</style><clipPath id="clip-path"><path class="cls-1" d="M-44.57,45.86a58,58,0,0,1-58,58,58,58,0,0,1-58-58,58,58,0,0,1,58-58A58,58,0,0,1-44.57,45.86Z"/></clipPath><linearGradient id="linear-gradient" x1="-140.52" y1="87.01" x2="26.21" y2="87.01" gradientUnits="userSpaceOnUse"><stop offset="0" stop-color="#873749"/><stop offset="0.69" stop-color="#af4056"/><stop offset="1" stop-color="#c3455c"/></linearGradient><clipPath id="clip-path-2"><path class="cls-1" d="M116,58A58,58,0,1,1,58,0,58,58,0,0,1,116,58Z"/></clipPath><linearGradient id="linear-gradient-2" x1="17.71" y1="101.71" x2="160.23" y2="101.71" gradientUnits="userSpaceOnUse"><stop offset="0" stop-color="#4285ae"/><stop offset="0.15" stop-color="#508eb4"/><stop offset="0.43" stop-color="#649bbd"/><stop offset="0.72" stop-color="#70a2c2"/><stop offset="1" stop-color="#74a5c4"/></linearGradient></defs><g class="cls-2"><path class="cls-3" d="M-73.67,22.83l-1-1.06s-4.55-3.72-4.47-3.26a21.13,21.13,0,0,0-10.13-2.67h-.34A26,26,0,0,0-104,21a26,26,0,0,0-14.39-5.12h-.34a21.9,21.9,0,0,0-19.41,12.51,26.3,26.3,0,0,0,.11,21.9,26.23,26.23,0,0,0,1.68,3.13,50,50,0,0,0,5.35,7,55.75,55.75,0,0,0,4.27,4.29l.11.1,93.38,93.37L26.21,122.7Z"/></g><g class="cls-4"><path class="cls-5" d="M116,58A58,58,0,1,1,58,0,58,58,0,0,1,116,58Z"/><path class="cls-6" d="M91.57,43.81l0-.3a1.34,1.34,0,0,0-.52-.88,1.32,1.32,0,0,0-.88-.25H90l-10.41,1.5a1.34,1.34,0,0,0-1,.81c-5.62-2-25.49-8.6-33.45-2.64l-12,.56L22.84,41.11a1.35,1.35,0,0,0-1,.26,1.33,1.33,0,0,0-.52.89L17.72,69.52a1.85,1.85,0,0,0,0,.23,1.35,1.35,0,0,0,.32.81,1.36,1.36,0,0,0,.81.44,85.44,85.44,0,0,0,9.35,8.46l84.37,84.37,47.67-51.35Z"/></g><path class="cls-7" d="M99.69,70.32,95.75,40.58a1.18,1.18,0,0,0-.46-.78,1.14,1.14,0,0,0-.87-.23L83.06,41.21a1.17,1.17,0,0,0-1,.8c0,.18-.11.37-.15.58-4.93-1.81-23.13-8-31.88-3.35a1.45,1.45,0,0,0-.3,0h-.05l-1,0a1,1,0,0,0-.39-.05l-11.26.53a2.14,2.14,0,0,0-1-.49l-12.32-2a2.17,2.17,0,0,0-2.5,1.86L17.28,68.82a2.18,2.18,0,0,0,2.15,2.46h.06L31.25,71a2.19,2.19,0,0,0,2-1.59l.48-1.74L53.51,81l.17.1a16,16,0,0,0,4,1.28,11.53,11.53,0,0,0,1.77.15,5.75,5.75,0,0,0,5-2.33,9,9,0,0,0,2.69.45A6.29,6.29,0,0,0,72.25,78a1.48,1.48,0,0,0,.09-1.6,6.08,6.08,0,0,0,.61,0q.31,0,.63,0A7.62,7.62,0,0,0,79.24,73a1.45,1.45,0,0,0,.27-.88,6.74,6.74,0,0,0,4.16-2.22A9,9,0,0,0,85,68.07l1,3a1.18,1.18,0,0,0,1.12.79h0l11.37-.17a1.15,1.15,0,0,0,.88-.41A1.2,1.2,0,0,0,99.69,70.32ZM79.15,69.17c-3.68-.88-8-3.68-11.67-7.49a1.47,1.47,0,0,0-2.13,2c1.73,1.81,6.07,5.92,11.34,7.78a4.72,4.72,0,0,1-3.35,2c-3.36.29-6.91-3.12-6.94-3.16l-.11-.1-5-4a1.46,1.46,0,1,0-1.82,2.29l5,4A16.42,16.42,0,0,0,70.18,76a1.42,1.42,0,0,0-.3.3,3.19,3.19,0,0,1-2.25,1.39c-2.35.31-5.38-1.67-6.36-2.47l-5-4a1.47,1.47,0,1,0-1.83,2.3l5,4A18.7,18.7,0,0,0,61.61,79c-2,1.54-6-.17-6.55-.44L34.6,64.67l0-.14,0-.09c.73-3.09,2.77-19.5,3.13-22.39l9.27-.39c-7.18,8-2.54,21.85,7.14,7.93l4.66-.9s13.51,8.45,19,12.31c1.86,1.32,4,3.08,4.76,5.38a5.17,5.17,0,0,1-1,1.45A3.57,3.57,0,0,1,79.15,69.17Zm8.84.29L86.77,66c-.13-.6-.28-1.31-.44-2.11l.26-.32L84.07,48.27a21.67,21.67,0,0,1,.11-4.85l9.4-1.35,3.61,27.25Z"/></svg>