<svg id="Layer_1" data-name="Layer 1" xmlns="http://www.w3.org/2000/svg" xmlns:xlink="http://www.w3.org/1999/xlink" viewBox="0 0 116.02 116.02"><defs><style>.cls-1{fill:none;}.cls-2{clip-path:url(#clip-path);}.cls-3{fill:#c3455c;}.cls-4{fill:url(#linear-gradient);}.cls-5{fill:#fff;}</style><clipPath id="clip-path"><path class="cls-1" d="M116,58A58,58,0,1,1,58,0,58,58,0,0,1,116,58Z"/></clipPath><linearGradient id="linear-gradient" x1="20.08" y1="99.16" x2="186.8" y2="99.16" gradientUnits="userSpaceOnUse"><stop offset="0" stop-color="#873749"/><stop offset="0.69" stop-color="#af4056"/><stop offset="1" stop-color="#c3455c"/></linearGradient></defs><g class="cls-2"><path class="cls-3" d="M116,58A58,58,0,1,1,58,0,58,58,0,0,1,116,58Z"/><path class="cls-4" d="M86.93,35l-1.06-1.06s-4.54-3.72-4.47-3.26A21,21,0,0,0,71.28,28h-.35a26,26,0,0,0-14.37,5.12A26,26,0,0,0,42.17,28h-.35A21.93,21.93,0,0,0,22.41,40.5a26.3,26.3,0,0,0,.11,21.9,27.75,27.75,0,0,0,1.68,3.13,51.54,51.54,0,0,0,5.35,7,57.48,57.48,0,0,0,4.27,4.28l.11.1,93.38,93.38,59.49-35.48Z"/></g><path class="cls-5" d="M78.26,60.44a5,5,0,0,0-4.68-4.32,4,4,0,0,0-2.5.89,1,1,0,0,0-.42-.3L60.05,52.45h0s0-.07,0-.11a4,4,0,0,0-2.79-3.83A4,4,0,1,0,54,55.85a3.85,3.85,0,0,0,1,.42,1,1,0,0,0,0,.3l1.07,7.73a1.16,1.16,0,0,0,.33.64,4,4,0,0,0-2.18,1.64h0L44,61.87a4,4,0,0,0,.51-1.93,4.06,4.06,0,0,0-2.78-3.84,4,4,0,1,0-3.16,7.4,3.88,3.88,0,0,0,1.89.49,3.94,3.94,0,0,0,1.87-.48,1.14,1.14,0,0,0,.28.21l10.76,4.91a1.73,1.73,0,0,0,.31.07s0,0,0,.08a4.06,4.06,0,0,0,2.79,3.84,4,4,0,1,0,3.17-7.4,3.89,3.89,0,0,0-1.4-.44,1.1,1.1,0,0,0,.2-.79l-1.08-7.73,0-.1a4,4,0,0,0,2.07-1.56l10.43,4.19a4.28,4.28,0,0,0-.26,1.39,4.38,4.38,0,0,0,8.74.26Z"/><path class="cls-5" d="M94.66,39.55A23.62,23.62,0,0,0,82.75,28.1,22.18,22.18,0,0,0,73.38,26H73c-6.57.12-11.82,2.91-16.22,6.07a35.63,35.63,0,0,0-7-3.93A24.62,24.62,0,0,0,40.33,26H40A23.31,23.31,0,0,0,19.31,39.29a28.53,28.53,0,0,0,1.94,26.95A60.55,60.55,0,0,0,31.89,78.76a97,97,0,0,0,11.68,9.31L56.8,97.31l.12-.09.5.35,4.26-2.77C65.9,92.07,78.49,82.25,82.08,79A60.81,60.81,0,0,0,92.72,66.51,28.55,28.55,0,0,0,94.66,39.55ZM48.41,82.08a90.34,90.34,0,0,1-10.85-8.66,52.65,52.65,0,0,1-9.29-10.91,21,21,0,0,1-1.51-19.75,15.82,15.82,0,0,1,14.06-9,17,17,0,0,1,6.3,1.39,46.52,46.52,0,0,1,9.55,6.52l.15-.12.47.39c4.83-3.93,9.94-8.06,16.48-8.18a14.39,14.39,0,0,1,5.39,1,16.16,16.16,0,0,1,8,7.73A21,21,0,0,1,85.7,62.25a52.9,52.9,0,0,1-9.29,10.9c-3.35,3-15.4,12.39-19.34,15Z"/></svg>