<?xml version="1.0" encoding="utf-8"?>
<!-- Generator: Adobe Illustrator 24.2.1, SVG Export Plug-In . SVG Version: 6.00 Build 0)  -->
<svg version="1.1" id="Camada_1" xmlns="http://www.w3.org/2000/svg" xmlns:xlink="http://www.w3.org/1999/xlink" x="0px" y="0px"
	 viewBox="0 0 1217 1080" style="enable-background:new 0 0 1217 1080;" xml:space="preserve">
<style type="text/css">
	.st0{clip-path:url(#SVGID_2_);}
	.st1{fill:url(#Caminho_7610_1_);}
	.st2{fill:#95E7EB;}
</style>
<g>
	<defs>
		<rect id="SVGID_1_" width="1217" height="1080"/>
	</defs>
	<clipPath id="SVGID_2_">
		<use xlink:href="#SVGID_1_"  style="overflow:visible;"/>
	</clipPath>
	<g id="logar" class="st0">
		<g id="Grupo_2364">
			
				<linearGradient id="Caminho_7610_1_" gradientUnits="userSpaceOnUse" x1="-350.2012" y1="1080" x2="-350.2012" y2="1079" gradientTransform="matrix(1174.6558 0 0 -1000.2753 411952.8438 1080297.25)">
				<stop  offset="0" style="stop-color:#0A243C"/>
				<stop  offset="1" style="stop-color:#0F467A"/>
			</linearGradient>
			<path id="Caminho_7610" class="st1" d="M-0.3,0h1174.7c-52.5,27.3-111.6,69.6-158.5,134.1c-124.7,171.1-6.3,262.9-26.7,377.3
				c-26.1,146-135.3,162.4-258.6,204.5c-77.1,26.3-131.9,60.8-179.4,149.2s-107.8,35-190,82.9C110.3,1094.2-0.3,887.5-0.3,887.5
				L-0.3,0z"/>
			<g id="Grupo_2220" transform="translate(-2053.753 -1249.093)">
				<g id="Layer_5" transform="translate(1964.417 1980.461)">
					<path id="Caminho_8908" class="st2" d="M89.3,348.7V63.2c29.3-134.5,77.2-9.7,184.6-26.5c444.4-69.3,411.8-8.1,517.8,8.2
						c159.7,24.6,344.4,20.7,295.6,75.4c-26,29.2-17.4,37,53,57.1c85.6,24.5,110.1,36.7,126.4,73.4c22.5,50.6-34.6,98-34.6,98
						L89.3,348.7z"/>
				</g>
			</g>
		</g>
	</g>
</g>
</svg>
