<svg xmlns="http://www.w3.org/2000/svg" width="1001.633" height="853.398" viewBox="0 0 1001.633 853.398">
  <g id="proposito" transform="translate(16.272 -1140)">
    <path id="Caminho_8633" data-name="Caminho 8633" d="M998.881,300.5c-50.081,4.048-83.566,44.772-140.43,35.684-59.464-9.49-97.507-164.184-230.78-207.026C524.185,95.909,306.435,105.4,208.9,324.276c-97.562,218.929-4.746,464,159.438,468.744,118.982,3.458,204.586-78.472,302.174-80.885,90.483-2.2,193.809,84.4,275.981,102.333,130.859,28.5,196.436-131.1,218.9-228.42C1186.818,493.232,1146.389,288.592,998.881,300.5Z" transform="translate(-185.385 1044.182)" fill="#74e3e9"/>
    <g id="Grupo_2268" data-name="Grupo 2268" transform="translate(-2282.863 -144.301)">
      <g id="Grupo_2225" data-name="Grupo 2225" transform="translate(2527.287 1492.829)">
        <path id="Caminho_9544" data-name="Caminho 9544" d="M2426.425,1336.841c.937,1.256.2,4.568.2,4.568s-16.51,2.1-21.856.732a27.547,27.547,0,0,1-5.868-3.017c-.39-.251-1.029-1.641-1.4-1.849-.663-.456-1.024.3-1.595-.115a17.629,17.629,0,0,1-2.512-1.895c-1.419-8.314.522-11.692.522-11.692s14.115-5.185,16.715-1.6C2416.831,1330.378,2424.367,1334.1,2426.425,1336.841Z" transform="translate(-2338.274 -697.733)" fill="#163f59"/>
        <path id="Caminho_9545" data-name="Caminho 9545" d="M2398.168,1330.09l2.444,13.455h6.468s.731-1.895,1.824-1.895c.937,0,2.122,1.895,3.4,1.895h33.27s.6-2.831-.137-3.817c-.366-.481-2.556-1.346-3.995-1.78-6.78-2.007-26.1-8.221-29.485-14.979C2407.9,1314.7,2398.168,1330.09,2398.168,1330.09Z" transform="translate(-2222.872 -701.787)" fill="#163f59"/>
        <g id="Grupo_2222" data-name="Grupo 2222" transform="translate(0 76.843)">
          <path id="Caminho_9546" data-name="Caminho 9546" d="M2408.959,1333.88l-13.779-7.67-1.629-1.717,1.917-3.068,3.034.368-.556-8.977,14.447-2.551,7.4-3.48-6.824,24.363" transform="translate(-2323.719 -1078.71)" fill="#e9d6b8"/>
          <path id="Caminho_9547" data-name="Caminho 9547" d="M2399.312,1317.164s-15.437,17.013,32.128,61.935c47.57,44.966,56.252,31.811,56.252,31.811l14.384-9.567,10.643-50.014-22.974-5.322-2.487,2.946s-4.936.478-7.424-3.036c-2.468-3.519-18.222-15.347-40.942-44.556C2428.412,1287.911,2402.263,1313.852,2399.312,1317.164Z" transform="translate(-2250.143 -1281.014)" fill="#d1dbea"/>
          <path id="Caminho_9548" data-name="Caminho 9548" d="M2421.875,1354.6s48-.866,51.819-50.834c1.166-14.845,4.956-.478,7.56,13.7,2.629,14.181-6.146,54.145-31.792,70.224-25.646,16.054-36.586,19.981-46.492,13.45C2393.079,1394.589,2421.875,1354.6,2421.875,1354.6Z" transform="translate(-2163.111 -1281.432)" fill="#e9d6b8"/>
          <path id="Caminho_9549" data-name="Caminho 9549" d="M2441.829,1495.882s-7.448,10.779-12.955.685c-12.628-23.271-31.4-80.8-32.041-106.969-.888-37.52,5.458-63.647,5.458-63.647l40.015-13.016Z" transform="translate(-2253.806 -944.349)" fill="#1f6cd1"/>
          <path id="Caminho_9550" data-name="Caminho 9550" d="M2455.7,1309.129l1.829,172.028-36.357,20.049s-21.832-41.013-24.549-93.4c-1.166-22.266-1.736-72.141,10.711-89.11C2424.179,1295.7,2455.7,1309.129,2455.7,1309.129Z" transform="translate(-2269.027 -1112.572)" fill="#1f6cd1"/>
          <path id="Caminho_9551" data-name="Caminho 9551" d="M2511.462,1310.4l-5.941,59.557-16.169,64.581-17.193,60.337-61.408,167.531-17.857,1.461s2.215-125.762,24.027-162.415c11.55-19.41,11.55-62.481,16.9-108.864.961-8.36-3.771-27.222-3.014-34.848,3.014-30.055,18.476-52.57,18.476-52.57Z" transform="translate(-2338.061 -1113.848)" fill="#2c7eea"/>
          <path id="Caminho_9552" data-name="Caminho 9552" d="M2511.61,1481.677l-78.762-1.758-33.636-112.61s-21.832-68.122,20-68.99c41.815-.866,90-.866,90-.866S2543.772,1360.961,2511.61,1481.677Z" transform="translate(-2324.35 -1282.495)" fill="#d1dbea"/>
          <path id="Caminho_9553" data-name="Caminho 9553" d="M2423.769,1304.078l49.9,60.725s-1.829,8.836-5.8,4.131c-.5-.546,1.917-2.354-1.122-3.995-12.262-6.694-41.04-16.993-51.7-27.292a177.361,177.361,0,0,1-23.983-29.458Z" transform="translate(-2377.845 -1137.803)" fill="#e9d6b8"/>
          <path id="Caminho_9554" data-name="Caminho 9554" d="M2396.816,1298.145s36.674,63.188,26.241,133.137c-.8,5.5-7.355,9.431-7.355,9.431l-9.023-7.855S2407.391,1353.682,2396.816,1298.145Z" transform="translate(-2252.347 -1267.36)" fill="#ff6440"/>
          <path id="Caminho_9555" data-name="Caminho 9555" d="M2421.564,1309.753l-1.985,13.962-23.953-22.681v-3.5Z" transform="translate(-2278.403 -1280.653)" fill="#b0bfde"/>
          <path id="Caminho_9556" data-name="Caminho 9556" d="M2403.257,1297.676l4.17,18.164-10.618-9.155Z" transform="translate(-2252.534 -1277.585)" fill="#b0bfde"/>
          <path id="Caminho_9557" data-name="Caminho 9557" d="M2400.2,1315.356l6.258-11.282,2.761-4.385a9.365,9.365,0,0,0,6.375,1.895l-6.214,7.538-5.687,10.231-3.243,15.574Z" transform="translate(-2178.481 -1233.646)" fill="#b0bfde"/>
          <path id="Caminho_9558" data-name="Caminho 9558" d="M2469.142,1364.311l-27.4,78.9-5.917,2.351,3.292,5.255-33.777,5.89-14.847-25.8,39.464-107.081s15.252-22.5,49.209-26.241C2503.812,1294.889,2471.127,1357.755,2469.142,1364.311Z" transform="translate(-2390.492 -1281.504)" fill="#d1dbea"/>
          <path id="Caminho_9559" data-name="Caminho 9559" d="M2391.051,1303.666s23.041,4.317,35.123,6.168l-2.58,1,3.292,5.255-11.7,1.939-17.032.366-2.668-6.28,5-1.256Z" transform="translate(-2378.26 -1146.777)" fill="#b0bfde"/>
          <path id="Caminho_9560" data-name="Caminho 9560" d="M2395.5,1296.8c.907,4.341,2.488,11.031,4.243,14.959,2.722,6.1,26.353,13.952,29.982,14.842,3.658.868-.883-18.34-.883-22.7,0-3.334-2.17-2.307.454-7.1Z" transform="translate(-2281.24 -1296.797)" fill="#e9d6b8"/>
        </g>
        <g id="Grupo_2223" data-name="Grupo 2223" transform="translate(96.164)">
          <path id="Retângulo_1351" data-name="Retângulo 1351" d="M.3,0H44.285a.3.3,0,0,1,.3.3V59.147a.3.3,0,0,1-.3.3H.3a.3.3,0,0,1-.3-.3V.3A.3.3,0,0,1,.3,0Z" transform="translate(6.133 22.26) rotate(-9.103)" fill="#e9d6b8"/>
          <path id="Caminho_9561" data-name="Caminho 9561" d="M2404.589,1310.023s3.385-5.024,3.727-7.858c.161-1.415-1.985-6.324-5.687-7.762-3.726-1.417-5.96,2.67-5.96,2.67s5.911,2.168,6.351,3.241C2403.5,1301.415,2404.589,1310.023,2404.589,1310.023Z" transform="translate(-2351.814 -1278.739)" fill="#163f59"/>
          <path id="Caminho_9562" data-name="Caminho 9562" d="M2402.054,1343.28s-7.4-16.6-7.351-21.829c.024-5.229.024-8.841,6.165-10.392,9.136-2.329,9.594-.388,13.637-3.929,4.063-3.541,11.072-11.669,13.794-12.786,4.448-1.873,11.984-1.488,13.7,7.214,1.234,6.417,5.575,7.353,5.482,7.626-.229.849-1.824,1.851-4.546,3.792-7.76,5.594-12.716,7.262-19.481,6.6-6.755-.641-19.451-2.375-20.09,2.648-.62,5.024,2.278,19.617,1.893,20.827C2404.887,1344.287,2403.317,1343.968,2402.054,1343.28Z" transform="translate(-2394.703 -1293.431)" fill="#194866"/>
          <path id="Caminho_9563" data-name="Caminho 9563" d="M2408.044,1309.491a2.327,2.327,0,0,1-1.917,2.626l-6.58,1.051a2.267,2.267,0,0,1-2.6-1.9L2395,1299.239a2.27,2.27,0,0,1,1.9-2.627l6.58-1.051a2.267,2.267,0,0,1,2.624,1.873Z" transform="translate(-2388.905 -1247.629)" fill="#e9d6b8"/>
          <path id="Caminho_9564" data-name="Caminho 9564" d="M2409.773,1309.229a2.264,2.264,0,0,1-1.9,2.6l-6.58,1.073a2.258,2.258,0,0,1-2.624-1.917l-1.961-12.013a2.328,2.328,0,0,1,1.937-2.627l6.56-1.073a2.325,2.325,0,0,1,2.624,1.919Z" transform="translate(-2351.356 -1253.67)" fill="#e9d6b8"/>
          <path id="Caminho_9565" data-name="Caminho 9565" d="M2395.18,1295.768s2.853,17.769,3.814,23.7c.844,5.368,4.887,16.786,35.147,11.9,17.93-2.854,15.164-15.918,14.457-20.259-.546-3.285-5.848-12.557-8.043-14.133l1.19,7.328a14.521,14.521,0,0,0-13.4-5.182c-13.75,2.193-15.579,10.755-21.627,11.577C2402.008,1311.342,2397.3,1304.308,2395.18,1295.768Z" transform="translate(-2384.263 -1242.425)" fill="#194866"/>
          <path id="Caminho_9566" data-name="Caminho 9566" d="M2399.158,1301.66l9.423-1.507a2.3,2.3,0,0,0,1.9-2.624l-.229-1.3-13.906,2.236.21,1.3A2.257,2.257,0,0,0,2399.158,1301.66Z" transform="translate(-2358.866 -1232.4)" fill="#e9d6b8"/>
        </g>
        <g id="Grupo_2224" data-name="Grupo 2224" transform="translate(307.009 67.342)">
          <path id="Caminho_9567" data-name="Caminho 9567" d="M2406.8,1336.645s-4.546-15.371-2.19-19.208c2.322-3.814,11.779-17.22,11.779-17.22l2.721-3.195s4.882,1.278-1.531,10.206c-6.463,8.928-1.122,6.416-1.122,6.416l8.726-5.687,11.165-6.094,4.663-3.38s2.488-2.146,3.468-2.1c2.878.115,1.737,2.446,1.737,2.446l-16.994,14.8,19.145-9.087s2.6-.71,3.419.546c.776,1.166,0,1.6,0,1.6l-19.359,15.733,10.365-3.492s2.555-.62,3.424.546c.931,1.28,1.214,1.6,1.214,1.6l-38.142,19.366Z" transform="translate(-2403.934 -1296.38)" fill="#e9d6b8"/>
          <path id="Caminho_9568" data-name="Caminho 9568" d="M2405.16,1303.945l13.823-5.551s2.946-1.6,4.751-1.415a2.094,2.094,0,0,1,1.985,2.146l-20.047,10.55Z" transform="translate(-2377.177 -1283.642)" fill="#e9d6b8"/>
        </g>
      </g>
      <g id="Grupo_2241" data-name="Grupo 2241" transform="translate(2384.228 1490.465)">
        <g id="Grupo_2226" data-name="Grupo 2226" transform="translate(222.347 261.447)">
          <path id="Caminho_9569" data-name="Caminho 9569" d="M2403.72,1374.7l72.412-59.33a5.986,5.986,0,1,0-7.6-9.248l-72.368,59.355a5.963,5.963,0,1,0,7.56,9.223Z" transform="translate(-2393.964 -1304.776)" fill="#282d33"/>
        </g>
        <path id="Caminho_9570" data-name="Caminho 9570" d="M2410.662,1483.822a116.569,116.569,0,1,1,180.317-147.779c2.419,2.924,34.4,46.359,36.294,117.953.863,21.376,24.246,46.539,24.339,46.473-13.974,11.44-25.461,20.849-39.44,32.311-4.268,3.519-8.565,7.011-12.789,10.482-14,11.445-25.671,21.034-39.64,32.475.088-.066-19.827-28.065-40.562-33.182C2449.278,1526.661,2413.057,1486.741,2410.662,1483.822Z" transform="translate(-2384.229 -1293.329)" fill="#f2b31b"/>
        <path id="Caminho_9571" data-name="Caminho 9571" d="M2553.126,1546.261c-9.916-10.85-30.211-29.941-44.922-33.548-66.407-15.118-100.087-53.277-100.433-53.667a101.374,101.374,0,0,1,156.842-128.482c.278.366,31.08,40.947,32.865,108.752.59,15.32,15.3,39.049,23.91,50.992Z" transform="translate(-2370.126 -1289.634)" fill="#fec12f"/>
        <g id="Grupo_2228" data-name="Grupo 2228" transform="translate(49.253 15.698)">
          <g id="Grupo_2227" data-name="Grupo 2227">
            <path id="Caminho_9572" data-name="Caminho 9572" d="M2530.46,1343.732a9.05,9.05,0,0,1-12.789-1.258,82.811,82.811,0,0,0-116.378-11.528,9.112,9.112,0,0,1-11.555-14.094,101.007,101.007,0,0,1,142.019,14.067A9.068,9.068,0,0,1,2530.46,1343.732Z" transform="translate(-2386.385 -1294.016)" fill="#fff"/>
          </g>
        </g>
        <g id="Grupo_2234" data-name="Grupo 2234" transform="translate(116.325 130.408)">
          <g id="Grupo_2230" data-name="Grupo 2230" transform="translate(0 51.539)">
            <g id="Grupo_2229" data-name="Grupo 2229">
              <path id="Caminho_9573" data-name="Caminho 9573" d="M2477.189,1389.922l-87.869-83.342,3.546-5.285,87.869,83.352Z" transform="translate(-2389.32 -1301.295)" fill="#484f59"/>
            </g>
          </g>
          <g id="Grupo_2232" data-name="Grupo 2232" transform="translate(63.448)">
            <g id="Grupo_2231" data-name="Grupo 2231">
              <path id="Caminho_9574" data-name="Caminho 9574" d="M2462.412,1401.592l-64.447-102.553-5.868,2.453,64.452,102.533Z" transform="translate(-2392.098 -1299.039)" fill="#484f59"/>
            </g>
          </g>
          <g id="Grupo_2233" data-name="Grupo 2233" transform="translate(10.13 7.011)">
            <path id="Caminho_9575" data-name="Caminho 9575" d="M2454.622,1307.13c-3.244,2.649-7.214.639-10.111-.822-1.239-.593-3.751-1.873-4.273-1.461s.249,3.151.615,4.453c.868,3.126,2.058,7.446-1.19,10.116-3.214,2.648-7.214.614-10.135-.846a26.727,26.727,0,0,0-2.6-1.21c.868,4.409,1.439,11.282-2.219,14.3-3.214,2.648-7.214.639-10.111-.822-1.234-.617-3.746-1.873-4.249-1.461s.229,3.127.59,4.451c.849,3.131,2.034,7.446-1.185,10.094-3.244,2.675-7.262.663-10.16-.8-1.19-.614-3.746-1.892-4.229-1.461-.522.415.229,3.131.571,4.456.868,3.129,2.058,7.443-1.209,10.116L2391.3,1352c.5-.41-.229-3.126-.6-4.451-.863-3.153-2.029-7.445,1.186-10.094,3.248-2.673,7.243-.663,10.145.8,1.21.614,3.746,1.87,4.248,1.461s-.209-3.129-.6-4.456c-.863-3.151-2.029-7.443,1.21-10.092s7.2-.663,10.145.8c1.21.617,3.7,1.895,4.248,1.463,1.21-1,1.068-6.6-.322-11.716a2.661,2.661,0,0,1,.888-2.809c3.244-2.649,7.219-.661,10.121.822,1.229.593,3.746,1.873,4.248,1.463.5-.434-.229-3.131-.595-4.431-.893-3.173-2.034-7.446,1.161-10.119,3.268-2.649,7.243-.661,10.165.8,1.209.639,3.721,1.9,4.229,1.461Z" transform="translate(-2389.766 -1299.344)" fill="#484f59"/>
          </g>
        </g>
        <path id="Caminho_9576" data-name="Caminho 9576" d="M2483.638,1302.4l38.64,47.156a7.576,7.576,0,0,1-1.025,10.645l-80.045,65.586a7.574,7.574,0,0,1-10.648-1.051l-38.635-47.158Z" transform="translate(-2216.094 -1095.259)" fill="#282d33"/>
        <g id="Grupo_2235" data-name="Grupo 2235" transform="translate(171.644 204.221)">
          <path id="Caminho_9577" data-name="Caminho 9577" d="M2497.028,1312.863l-95.526,78.284a5.971,5.971,0,1,1-7.555-9.248l95.5-78.262a5.97,5.97,0,1,1,7.58,9.226Z" transform="translate(-2391.743 -1302.272)" fill="#282d33"/>
        </g>
        <g id="Grupo_2236" data-name="Grupo 2236" transform="translate(174.37 241.208)">
          <path id="Caminho_9578" data-name="Caminho 9578" d="M2450.253,1309.761l-52.98,43.413a3.311,3.311,0,0,1-4.2-5.117l52.985-43.412a3.31,3.31,0,1,1,4.2,5.116Z" transform="translate(-2391.859 -1303.89)" fill="#484f59"/>
        </g>
        <g id="Grupo_2237" data-name="Grupo 2237" transform="translate(184.278 219.632)">
          <path id="Caminho_9579" data-name="Caminho 9579" d="M2497.554,1313.542l-95.5,78.262a5.965,5.965,0,1,1-7.56-9.228l95.478-78.284a5.981,5.981,0,0,1,7.585,9.25Z" transform="translate(-2392.295 -1302.944)" fill="#282d33"/>
        </g>
        <g id="Grupo_2238" data-name="Grupo 2238" transform="translate(196.901 235.031)">
          <path id="Caminho_9580" data-name="Caminho 9580" d="M2498.115,1314.23l-95.531,78.262a5.971,5.971,0,0,1-7.555-9.248l95.5-78.262a5.98,5.98,0,1,1,7.585,9.248Z" transform="translate(-2392.847 -1303.62)" fill="#282d33"/>
        </g>
        <g id="Grupo_2239" data-name="Grupo 2239" transform="translate(186.413 255.902)">
          <path id="Caminho_9581" data-name="Caminho 9581" d="M2450.775,1310.42l-52.985,43.412a3.31,3.31,0,0,1-4.2-5.116l53-43.434a3.314,3.314,0,1,1,4.185,5.138Z" transform="translate(-2392.389 -1304.535)" fill="#484f59"/>
        </g>
        <g id="Grupo_2240" data-name="Grupo 2240" transform="translate(199.192 271.483)">
          <path id="Caminho_9582" data-name="Caminho 9582" d="M2451.323,1311.094l-52.979,43.412a3.326,3.326,0,0,1-4.663-.456,3.379,3.379,0,0,1,.478-4.68l52.96-43.391a3.31,3.31,0,1,1,4.2,5.114Z" transform="translate(-2392.951 -1305.217)" fill="#484f59"/>
        </g>
        <rect id="Retângulo_1352" data-name="Retângulo 1352" width="58.523" height="6.07" transform="matrix(0.773, -0.634, 0.634, 0.773, 195.869, 281.287)" fill="#30363d"/>
        <path id="Caminho_9583" data-name="Caminho 9583" d="M2442.471,1309.36l-45.249,37.1-3.883-4.69,45.273-37.091Z" transform="translate(-2185.199 -1045.478)" fill="#30363d"/>
        <path id="Caminho_9584" data-name="Caminho 9584" d="M2442.99,1310.031l-45.273,37.086-3.834-4.695,45.249-37.089Z" transform="translate(-2173.431 -1031.147)" fill="#30363d"/>
      </g>
      <g id="Grupo_2267" data-name="Grupo 2267" transform="translate(2722.849 1284.301)">
        <g id="Grupo_2244" data-name="Grupo 2244" transform="translate(179.829 247.988)">
          <g id="Grupo_2243" data-name="Grupo 2243" transform="translate(21.159)">
            <path id="Caminho_9585" data-name="Caminho 9585" d="M2409.828,1354.193a26.438,26.438,0,0,0,26.421,26.422l6.6-12.535c14.589,0,26.441-21.993,26.441-36.586v-9.911a26.44,26.44,0,0,0-26.441-26.422h-6.6a26.438,26.438,0,0,0-26.421,26.422Z" transform="translate(-2364.734 -1295.16)" fill="#ff6440"/>
            <path id="Caminho_9586" data-name="Caminho 9586" d="M2445.834,1296.3a37.653,37.653,0,0,1,4.292.273,34.6,34.6,0,0,0-.478,5.346c0,17.583,13.5,32.06,30.875,34.14a34.9,34.9,0,0,1-34.689,29.026c-19.393,0-35.123-15.393-35.123-34.37C2410.711,1311.712,2426.441,1296.3,2445.834,1296.3Z" transform="translate(-2345.546 -1270.265)" fill="#ff6440"/>
            <path id="Caminho_9587" data-name="Caminho 9587" d="M2417.259,1295.6a54.081,54.081,0,0,0,.619,7.424c2.668,16.966,13.018,29.848,24.276,31.445a79.706,79.706,0,0,0,3.746,20.461c2.093,6.69,9.906,13.772,9.906,13.772,1.941,11.828-38.386,29.231-37.45,27.309.98-1.895,10.892-15.847,14.155-28.658a25.948,25.948,0,0,0-4.063-21.351,21.606,21.606,0,0,0-15.462-7.307,3.121,3.121,0,0,1-2.214-.985,19.227,19.227,0,0,1-.795-5.524V1310.4A18.624,18.624,0,0,1,2417.259,1295.6Z" transform="translate(-2361.593 -1285.553)" fill="#e9d6b8"/>
            <path id="Caminho_9588" data-name="Caminho 9588" d="M2433.82,1397.669c4.473,10.938,28.47,10.938,32.9,0l25.485-78.882c4.453-10.938-.434-19.891-10.843-19.891H2453.32l-12.789,6.146-11.258-6.146h-6.784c-10.394,0-15.277,8.953-10.8,19.891Z" transform="translate(-2360.428 -1213.557)" fill="#dbdac6"/>
            <path id="Caminho_9589" data-name="Caminho 9589" d="M2434.5,1300.4l-25.28,76.272s-1.731,5.275,3.565,1.783c7.443-4.887,24.183-22.656,39.069-58.052C2462.768,1294.439,2441.209,1298.934,2434.5,1300.4Z" transform="translate(-2384.086 -1207.865)" fill="#dbdac6"/>
            <path id="Caminho_9590" data-name="Caminho 9590" d="M2423.213,1333.731c1.19-4.224,2.039-8.519,3.088-12.674,4.156-6.485,7.921-10.162,10.979-10.162,11.6-.068,17.75,39.576-5.98,115.166-1.3,4.2-22.085,80.25-22.085,77.167C2408.712,1441.771,2418.921,1349.1,2423.213,1333.731Z" transform="translate(-2378.51 -951.535)" fill="#e9d6b8"/>
            <path id="Caminho_9591" data-name="Caminho 9591" d="M2415.96,1338.095c-.937-4.317-2.171-8.472-3.175-12.674.639-7.675,2.263-12.652,4.955-14.091,10.209-5.48,34.162,26.719,48.415,104.662.819,4.339,17.881,81.274,16.442,78.582C2453.478,1440.426,2419.316,1353.691,2415.96,1338.095Z" transform="translate(-2300.235 -955.052)" fill="#e9d6b8"/>
            <path id="Caminho_9592" data-name="Caminho 9592" d="M2411.516,1307.962l7.541,8.24,7.536-10.872-4.526-6.69Z" transform="translate(-2327.885 -1219.177)" fill="#c9c8b6"/>
            <path id="Caminho_9593" data-name="Caminho 9593" d="M2414.659,1298.65l13.759,10.406-7.448,7.692-10.326-13.66Z" transform="translate(-2346.929 -1218.919)" fill="#c9c8b6"/>
            <path id="Caminho_9594" data-name="Caminho 9594" d="M2420.649,1396.844c-1.488-.41-2.971-.822-4.478-1.21a191.213,191.213,0,0,1,1.985-95.617l4.341-.983A195.591,195.591,0,0,0,2420.649,1396.844Z" transform="translate(-2338.035 -1210.52)" fill="#c9c8b6"/>
            <path id="Caminho_9595" data-name="Caminho 9595" d="M2410.359,1532.2a42.643,42.643,0,0,1-.82-8.7c.59-17.676-.136-35.626,2.761-69.217a899.53,899.53,0,0,1,23.041-136.656,74.338,74.338,0,0,1,4.848-14.569c12.531-1.758,25.28,6.782,38.3,10.458a127.554,127.554,0,0,1,11.823,32.27c14.115,57.779,21.193,91.163,24.939,119.185,3.79,27.175,4.248,48.961,6.165,63.44C2485.516,1588.126,2448.525,1476.982,2410.359,1532.2Z" transform="translate(-2371.114 -1127.876)" fill="#194866"/>
            <g id="Grupo_2242" data-name="Grupo 2242" transform="translate(0 41.654)">
              <path id="Caminho_9596" data-name="Caminho 9596" d="M2435.457,1396.756s5.273-1.576-2.375-30.051c-7.6-28.48-25.188-68.558-25.188-68.558l11.984,67.186S2425.59,1390.817,2435.457,1396.756Z" transform="translate(-2407.058 -1271.588)" fill="#e9d6b8"/>
              <path id="Caminho_9597" data-name="Caminho 9597" d="M2416.572,1345.421c-3.244-13.633,1.571-20.92,2.214-26.766a98.267,98.267,0,0,1,2.263-11.918c-4.619,4.27-3.7,8.7-4.892,11.3s-.478,1.824-1.941-2.948c-.844-2.717,2.4-8.606,4.024-12.65,1.414-3.517,1.141-5.458,1.141-5.458a56.581,56.581,0,0,0-6.165,9.889,73.209,73.209,0,0,0-5.326,15.732c-.317,3.153,1.556,12.333,3.907,18.659C2414.445,1348.389,2418.9,1355.264,2416.572,1345.421Z" transform="translate(-2407.855 -1296.984)" fill="#e9d6b8"/>
              <path id="Caminho_9598" data-name="Caminho 9598" d="M2407.875,1318.311s-.063-10.984.732-13.108c.595-1.485,4.434-7.992,4.434-7.992s.317,4.039-1.054,6.736C2410.6,1306.664,2407.875,1318.311,2407.875,1318.311Z" transform="translate(-2407.406 -1292.026)" fill="#e9d6b8"/>
            </g>
            <path id="Caminho_9599" data-name="Caminho 9599" d="M2408.2,1303.181c-.073,14.2,4.521,35.716,13.262,58.757q1.514,4.042,3.156,7.948c1.615,3.951,8.536-1.507,8.175-8.77-.712-14.067-6.307-30.282-14.208-51.153-1.342-3.585-2.76-7.058-4.2-10.416A50.976,50.976,0,0,0,2408.2,1303.181Z" transform="translate(-2400.506 -1199.34)" fill="#dbdac6"/>
          </g>
          <path id="Caminho_9600" data-name="Caminho 9600" d="M2408.93,1357.2s4.2-.022,14.867,2.261c6.234,1.324,10.594,3.2,13.564,1.895,4.936-2.124,8.707-23.68,9.365-39.347.093-1.761,10.73-5.87,10.228-3.929-6.395,25.283-6.78,41.31-7.375,44.829-1.049,5.982-3.77,11.4-6.711,11.577-5.755.366-32.245-11.784-34.4-12.857C2406.326,1360.508,2408.472,1356.418,2408.93,1357.2Z" transform="translate(-2393.674 -805.871)" fill="#e9d6b8"/>
          <path id="Caminho_9601" data-name="Caminho 9601" d="M2431.519,1344.7c2.536,15.206,1.3,28.087-2.717,28.748s-9.316-11.121-11.833-26.351c-2.507-15.211-1.273-28.068,2.746-28.731C2423.705,1317.708,2429.031,1329.492,2431.519,1344.7Z" transform="translate(-2216.005 -788.897)" fill="#ff6200"/>
          <path id="Caminho_9602" data-name="Caminho 9602" d="M2437.258,1359.614c3.492,10.826,2.009,21.51-1.985,22.151-4.043.661-8.38-7.626-9.731-18.93-1.687-14.274-.795-20.281-5.458-28.068-4.727-7.994-5.439-15.986-4.4-17.2s6.438,1.8,7.17,5.96a41.4,41.4,0,0,0,4.633,12.879C2430.361,1341,2433.673,1348.354,2437.258,1359.614Z" transform="translate(-2224.828 -811.667)" fill="#e9d6b8"/>
          <path id="Caminho_9603" data-name="Caminho 9603" d="M2428.537,1321.087c-4.248,5.755,16.579,11.465,22.354,11.945a64.969,64.969,0,0,1,8.882,1.254l.644.229a1.545,1.545,0,0,1-.137.478c-1.488,3.541-1.892,8.884-7.536,6.509l-35.352-14.867C2388.5,1314.488,2428.625,1320.95,2428.537,1321.087Z" transform="translate(-2406.931 -769.121)" fill="#ff6200"/>
        </g>
        <path id="Caminho_9607" data-name="Caminho 9607" d="M2417.4,1302.777s5.867-.5,10.208,24.117a281.4,281.4,0,0,1,3.424,33.045c.781,14.021-7.336-.5-7.336-.5l-8.535-27.085S2410.129,1310.655,2417.4,1302.777Z" transform="translate(-2084.442 -880.842)" fill="#dbdac6"/>
        <path id="Caminho_9608" data-name="Caminho 9608" d="M2425.952,1301.922c10.711,22.378,6.873,104.957,6.873,104.957s-8.443,30.233-19.271-78.926C2410.29,1295.184,2423.3,1296.416,2425.952,1301.922Z" transform="translate(-2093.846 -965.098)" fill="#dbdac6"/>
        <path id="Caminho_9609" data-name="Caminho 9609" d="M2422.228,1361.577l4.321-5.755,2.127-5.458-.117-9.524s-1.439-10.023-3.312-13.655c-1.922-3.585-4.248-18.591-4.96-20.371-.751-1.78-6.365-1.668-6.365-1.668s2.878,13.633,4.546,19.822c1.712,6.165,1.093,15.828,1.663,18.271a28.009,28.009,0,0,0,2.922,7.375s-.366-6.738-.663-8.494c-.317-1.758,1.81-1.166,1.81-1.166s1.483,9.2.839,11.762a14.916,14.916,0,0,1-2.073,4.587Z" transform="translate(-2074.414 -829.135)" fill="#e9d6b8"/>
        <g id="Grupo_2266" data-name="Grupo 2266">
          <path id="Caminho_9610" data-name="Caminho 9610" d="M2399.664,1515.162a10.449,10.449,0,0,0,6.375,13.359l42.722,15.118-13.95,39.462,89.586-12.7,69.036,24.412a10.411,10.411,0,0,0,13.335-6.37l79.226-223.893a10.425,10.425,0,0,0-6.375-13.335l-187.4-66.318a10.46,10.46,0,0,0-13.335,6.37Z" transform="translate(-2399.055 -1284.301)" fill="#9aecf4"/>
          <g id="Grupo_2265" data-name="Grupo 2265" transform="translate(67.384 47.031)">
            <g id="Grupo_2253" data-name="Grupo 2253" transform="translate(65.834 176.063)">
              <g id="Grupo_2249" data-name="Grupo 2249" transform="translate(24.002 8.497)">
                <rect id="Retângulo_1356" data-name="Retângulo 1356" width="12.739" height="12.74" transform="matrix(0.333, -0.943, 0.943, 0.333, 4.087, 16.085)" fill="#fff"/>
                <path id="Caminho_9611" data-name="Caminho 9611" d="M2423.955,1318.831l-18.018-6.372,6.394-18.015,18,6.37Zm-9.863-10.231,6,2.1,2.1-5.985-5.985-2.146Z" transform="translate(-2405.938 -1294.443)" fill="#fff"/>
              </g>
              <g id="Grupo_2250" data-name="Grupo 2250" transform="translate(24.392 27.763)">
                <path id="Caminho_9612" data-name="Caminho 9612" d="M2408.7,1311.042l-2.741-5.75,11.018-5.243,1.693-4.763,6,2.131-2.565,7.248Z" transform="translate(-2405.957 -1295.285)" fill="#fff"/>
              </g>
              <g id="Grupo_2251" data-name="Grupo 2251">
                <path id="Caminho_9613" data-name="Caminho 9613" d="M2417.09,1310.507l-12.023-4.246,4.258-12.013,12.023,4.248Z" transform="translate(-2401.013 -1290.181)" fill="#fff"/>
                <path id="Caminho_9614" data-name="Caminho 9614" d="M2422.909,1318.458l-18.022-6.37,6.375-18.018,18.018,6.373Zm-9.916-10.252,6.033,2.124,2.146-6-6.034-2.124Z" transform="translate(-2404.887 -1294.07)" fill="#fff"/>
              </g>
              <g id="Grupo_2252" data-name="Grupo 2252" transform="translate(0.396 19.266)">
                <path id="Caminho_9615" data-name="Caminho 9615" d="M2407.628,1310.669l-2.721-5.743,10.974-5.251,1.693-4.763,6.024,2.134-2.566,7.236Z" transform="translate(-2404.906 -1294.912)" fill="#fff"/>
              </g>
            </g>
            <g id="Grupo_2258" data-name="Grupo 2258" transform="translate(34.3)">
              <g id="Grupo_2254" data-name="Grupo 2254" transform="translate(0 10.657)">
                <rect id="Retângulo_1357" data-name="Retângulo 1357" width="12.734" height="12.729" transform="matrix(0.335, -0.942, 0.942, 0.335, 4.042, 16.046)" fill="#fff"/>
                <path id="Caminho_9616" data-name="Caminho 9616" d="M2421.5,1311.194l-17.993-6.394,6.346-17.974,18.018,6.348Zm-9.887-10.258,6.029,2.124,2.1-6-5.985-2.124Z" transform="translate(-2403.508 -1286.826)" fill="#fff"/>
              </g>
              <g id="Grupo_2255" data-name="Grupo 2255" transform="translate(5.302)">
                <path id="Caminho_9617" data-name="Caminho 9617" d="M2409.738,1302.126l-6-2.129,2.566-7.233,13.379-6.4,2.746,5.753-11,5.253Z" transform="translate(-2403.738 -1286.359)" fill="#fff"/>
              </g>
              <g id="Grupo_2256" data-name="Grupo 2256" transform="translate(24.024 19.129)">
                <rect id="Retângulo_1358" data-name="Retângulo 1358" width="12.732" height="12.727" transform="translate(4.053 16.079) rotate(-70.505)" fill="#fff"/>
                <path id="Caminho_9618" data-name="Caminho 9618" d="M2422.552,1311.609l-17.993-6.392,6.346-18.02,18.022,6.394Zm-9.886-10.275,6.009,2.146,2.122-6.031-6-2.1Z" transform="translate(-2404.559 -1287.197)" fill="#fff"/>
              </g>
              <g id="Grupo_2257" data-name="Grupo 2257" transform="translate(29.299 8.508)">
                <path id="Caminho_9619" data-name="Caminho 9619" d="M2410.812,1302.489l-6.019-2.119,2.585-7.248,13.384-6.39,2.741,5.743-10.994,5.241Z" transform="translate(-2404.793 -1286.732)" fill="#fff"/>
              </g>
            </g>
            <g id="Grupo_2264" data-name="Grupo 2264" transform="translate(0 53.315)">
              <g id="Grupo_2259" data-name="Grupo 2259" transform="translate(22.296)">
                <path id="Caminho_9620" data-name="Caminho 9620" d="M2525.083,1337.9l-122.1-43.2,2.141-6.007,122.08,43.2Z" transform="translate(-2402.984 -1288.695)" fill="#fff"/>
              </g>
              <g id="Grupo_2260" data-name="Grupo 2260" transform="translate(16.721 15.753)">
                <path id="Caminho_9621" data-name="Caminho 9621" d="M2524.837,1338.6l-122.1-43.208,2.141-6.011,122.1,43.21Z" transform="translate(-2402.738 -1289.385)" fill="#fff"/>
              </g>
              <g id="Grupo_2261" data-name="Grupo 2261" transform="translate(11.156 31.523)">
                <rect id="Retângulo_1359" data-name="Retângulo 1359" width="6.358" height="129.51" transform="translate(0 5.994) rotate(-70.509)" fill="#fff"/>
              </g>
              <g id="Grupo_2262" data-name="Grupo 2262" transform="translate(5.581 47.292)">
                <rect id="Retângulo_1360" data-name="Retângulo 1360" width="6.365" height="129.507" transform="matrix(0.334, -0.943, 0.943, 0.334, 0, 6.001)" fill="#fff"/>
              </g>
              <g id="Grupo_2263" data-name="Grupo 2263" transform="translate(0 63.047)">
                <rect id="Retângulo_1361" data-name="Retângulo 1361" width="6.366" height="57.31" transform="translate(0 6.002) rotate(-70.511)" fill="#fff"/>
              </g>
            </g>
          </g>
        </g>
      </g>
    </g>
  </g>
</svg>
