<?xml version="1.0" encoding="utf-8"?>
<!-- Generator: Adobe Illustrator 24.2.1, SVG Export Plug-In . SVG Version: 6.00 Build 0)  -->
<svg version="1.1" id="Camada_1" xmlns="http://www.w3.org/2000/svg" xmlns:xlink="http://www.w3.org/1999/xlink" x="0px" y="0px"
	 viewBox="0 0 1217.6 866.3" style="enable-background:new 0 0 1217.6 866.3;" xml:space="preserve">
<style type="text/css">
	.st0{fill:url(#Caminho_7759_1_);}
	.st1{fill:#60AEC6;}
	.st2{fill:#FFC1B5;}
	.st3{fill:#EAC3BE;}
	.st4{fill:#4D4FED;}
	.st5{fill:#FFFFFF;}
	.st6{fill:#283042;}
	.st7{fill:#FA7561;}
	.st8{fill:#B5CEE5;}
	.st9{fill:#E0665A;}
	.st10{fill:#FFC55E;}
	.st11{fill:url(#SVGID_1_);}
	.st12{fill:#576377;}
	.st13{fill:#81A0A5;}
	.st14{fill:url(#SVGID_2_);}
	.st15{fill:#181E28;}
	.st16{fill:url(#SVGID_3_);}
	.st17{fill:#F48BAA;}
	.st18{fill:url(#SVGID_4_);}
	.st19{fill:url(#SVGID_5_);}
	.st20{fill:url(#SVGID_6_);}
	.st21{fill:url(#SVGID_7_);}
	.st22{fill:#7B4D42;}
	.st23{fill:#88AFAA;}
</style>
<g id="topo-sobre" transform="translate(-833.312 -83.54)">
	
		<linearGradient id="Caminho_7759_1_" gradientUnits="userSpaceOnUse" x1="984.6964" y1="24.6143" x2="985.7155" y2="24.6143" gradientTransform="matrix(1033.9303 -460.4044 391.1344 878.3705 -1025673.375 431982.75)">
		<stop  offset="0" style="stop-color:#79C4C8"/>
		<stop  offset="1" style="stop-color:#C56A93"/>
	</linearGradient>
	<path id="Caminho_7759" class="st0" d="M1100.9,781.9c56.2-12.5,87.7-66,153.7-64c69.1,2.1,137.3,179.7,295.5,209.9
		c122.9,23.5,368.7-21.4,444.2-296.1s-69.4-551.1-256.7-531.4c-135.7,14.3-229.2,86.2-339.6,104.1c-102.4,16.6-225.6-57-320.6-40.2
		c-153.2,27-202,185.8-211.8,304.8C856.3,582.3,935.2,818.7,1100.9,781.9z"/>
	<g>
		<path class="st1" d="M1492.5,693.6c0,6.9,14.9,12.4,62.1,12.4c23,0,74.2-1.3,89.5-3.5c16.2-2.3,71.2-5,114.9,10.2
			c0.4,0.2,17.8,9.9,46.5-1.8c14.7-6,154.4,5.9,155.7,2.7l8-4.2c-168-1.4-151.7-12-163.2-18.7c-3.8-2.2-45.6-1.1-47-0.9
			c-65.1,11.8-103.6-0.5-110.4-0.8c-15.8-0.7-69-1.4-93.9-5.8C1505.6,674.7,1492.5,686.7,1492.5,693.6z"/>
		<path class="st2" d="M1493.8,474.2c-5.8,0.5-12.6,1.2-26.8-17c0,0,2.7-8.8,4.9-11.4c0,0,11.3,12.4,26,14.4
			c5.5,0.7,26.6-6,31.1-5.6c12.3,1,13.4,5,13.7,7.1l0,0c0.5,5.2-4.1,10.2-10.3,11L1493.8,474.2z"/>
		<path class="st3" d="M1542.7,461.6c-0.2-2-1.2-5.5-11.2-6.8c-0.7,0.6-1.5,1.1-2.4,1.5c-6.5,2.7-12.6,5.8-19.3,8.1
			c-6,2.1-10.4,4.6-16.2,5.3c-11.1,1.4-19.1-6.4-25.4-14.9c-0.7,1.4-1.2,2.4-1.2,2.4c14.2,18.2,21,17.5,26.8,17l38.6-1.6
			C1538.6,471.8,1543.2,466.8,1542.7,461.6z"/>
		<path class="st4" d="M1553.7,613.1c0.9,5.4,5.6,9.1,10.4,8.2l2.2-0.4c4.9-0.8,8-5.9,7.1-11.2l-7.3-55.4c-0.9-5.4-7.8-8.7-12.6-7.8
			l-2.2,0.4c-4.8,0.8-16,7.3-15.1,12.6L1553.7,613.1z"/>
		<path class="st5" d="M1529,685c0.3,4.1-6.8,4.8-32.1,9.3c-4.3,0.8-5.9-5.2-3-6.5c11.7-5.1,12.9-12.1,17.9-13.4
			c3.2-0.8,10-4.8,13.7-2.5C1527.5,673.1,1528.9,683.5,1529,685z"/>
		<path class="st5" d="M1604.8,646.6c3.3,2.4,0.5,7.6-7.7,27.3c-1.4,3.3-6.7,0.6-6.3-2.1c1.5-11.1-3.2-16.3-1.9-20.4
			c0.9-2.7,1-9.7,4.4-10.7C1595.1,640.1,1603.7,645.8,1604.8,646.6z"/>
		<path class="st4" d="M1588.6,653.9c5.3-2.6,3.2-1.9,8.3-3.8l0,0c3.6-3.3,4.8-5.1,1.6-8.3l-28.4-37.2c-3.3-3.2-8.8-3.1-12.4,0.2
			l-1.6,1.5c-3.6,3.3-3.9,8.6-0.6,11.8L1588.6,653.9z"/>
		<path class="st4" d="M1531.4,616c-0.5,5.4-4.7,9.5-9.4,9.1l-2.1-0.2c-4.7-0.4-8.2-5.1-7.7-10.6l2.6-55.8c0.5-5.4,6.8-9.3,11.5-8.9
			l2.1,0.2c4.7,0.4,16,5.8,15.5,11.2L1531.4,616z"/>
		<path class="st4" d="M1527.3,671.8c-0.5,5.4-3.2,9.6-8,9.2l0,0c-4.7-0.4-1-3.7-8.7-6.1l0.7-60.5c0.5-5.4,4.7-9.5,9.4-9.1l2.1,0.2
			c4.7,0.4,8.2,5.1,7.7,10.6L1527.3,671.8z"/>
		<path class="st6" d="M1587.2,652.3c3.4-2.2,11.5-2.8,9.9-9.5c-1.4-5.5-20.1-23.5-23.2-28.2c-3.8-5.8-5.9-10.4-7.5-23.5
			c-1.5-12.2-2.8-20.4-17.1-23.3c-6.1-1.2-10.6-1.8-16.9-2.2c-2.9-0.2-5.8-0.3-8.8-0.4c0.3,0-3.3-0.4-2.8-0.2c-1-0.3-1.3-0.4-1-0.2
			c-1.7-0.8-3.5-1.3-5.4-1.4l0.2-4.9c0.5-5.4,6.8-9.3,11.5-8.9l2.1,0.2c2.5,0.2,6.9,1.8,10.4,4.2c3.4-3.5,9.4-6.5,12.6-7.1l2.2-0.4
			c4.8-0.8,11.7,2.5,12.6,7.8l7,52.8c0.2,0.5,0.4,1.1,0.6,1.6l24.7,32.9c1.5,1,2.9,4.4,0.5,6.3c-0.6,0.5-9.6,5.9-10.3,5.8
			C1588.7,652.9,1586.3,652.9,1587.2,652.3z"/>
		<path class="st6" d="M1541,574l-9.6,41.9c-0.1,1.4-0.5,2.7-1,3.8l-3.1,52c-0.5,5.4-3.4,9.6-8,9.2c0,0,4.7,0.3,6.1-19.7
			C1526.8,642.3,1524.8,611.5,1541,574z"/>
		<path class="st7" d="M1542.7,461.6c-0.3-2.1,1.2-7.5-11.2-8.6c-1.8-0.1-18.1,3.3-23.2,4.5c-2,7.1-0.3,9.9,1.8,22.6l22.3-2.9
			C1538.6,476.4,1543.2,466.8,1542.7,461.6z"/>
		<path class="st8" d="M1542.7,461.6c-0.3-2.1,1.2-7.5-11.2-8.6c-0.7-0.1,0.8,0.4-2.6,1c0.4,1.9-4.4,3.9-6.7,4.8
			c-2.4,1-0.5,2.2-0.9,4.6c-0.5,2.9-2.7,5.5-4.5,7.9c-1.9,2.5-4.4,4.3-7.2,5.7c0.2,1,0.3,2,0.5,3.1l22.3-2.9
			C1538.6,476.4,1543.2,466.8,1542.7,461.6z"/>
		<path class="st7" d="M1568.8,505.6c0.3,29.4-1.5,48.1-0.8,57.5c0.3,4.5-62.5,5.8-55-9.7c7.4-15.1,4-78.6,7.3-93.3
			c2.4-10.2,20.7-7.3,26.5-7.4c6.3-0.1,12.9,6.8,17.2,13.4C1566.8,470.4,1568.6,487.7,1568.8,505.6z"/>
		<path class="st9" d="M1567.2,478.9c-0.3-1.6-5.4-14.3-4.5,0c-3.2,1.1-4.1,7.3-7.5,7l-0.3,2.2c0.4-0.3,2.8-0.4,3.2-0.7
			c0.3-0.2,0.7-0.4,1-0.6c0,0,4.5,3,4.8,56.5c0.2,23.2-13.2,22.8-13.2,22.8c-0.6,4.5,0.7,2.7,5.4,4c3.5,0.9,11.6-5.6,12-6.8l0,0
			C1568,563.1,1571.6,502.5,1567.2,478.9z"/>
		<g>
			<path class="st2" d="M1704,519l19.7-32.7c0.9-1.1,1.9-2.6,3-4.3c3.8,4.4,8.7,7.8,14.3,9.8c-0.8,2.4-2,4.3-2.1,5.1l-24.2,29.3
				c-4.7,5-9.5,7.8-13.4,4.6C1697.3,527.7,1700.4,523.3,1704,519z"/>
		</g>
		<g>
			<path class="st2" d="M1713.3,527.5c3.5-4.4,9.6-19,5.9-22.4l0,0c-3.7-3.4-6.7,3.3-10.1,7.7l-31.6,38.7c-2.3,3.8-9.6,3.8-6.3,7.1
				c4.7,4.7,14.3-3.2,15.1-4.2L1713.3,527.5z"/>
		</g>
		<path class="st3" d="M1726.7,482c-1.1,1.6-2.1,3.2-3,4.3l-7.3,12.1c0.4,0.4,4.8,9.9,5.1,10.6c1.9,5.4-1.2,8.8-6.3,14.7
			c-6.6,7.6-27.3,27.9-33.3,32.6c-2,1.6-5.5,2.9-7.7,3.7c4.9,0.7,11.5-4.8,12.1-5.6l26.1-25.9c0.8-0.7,1.5-1.4,2.3-2.2l24.2-29.3
			c0.1-0.8,1.3-2.7,2.1-5.1C1735.4,489.8,1730.5,486.4,1726.7,482z"/>
		<g>
			<path class="st10" d="M1740.2,504.2c-0.4-0.3-13.5,12.1-13.8,11.6c-4.1-9.5-6-13.9-10.6-19.1l2.6-6.2c4.3-8.3,14-16.1,23.1-12
				l2.7,2c5-0.1-3.2,6.8-2.9,12.4L1740.2,504.2z"/>
		</g>
		<g>
			<path class="st10" d="M1744.3,480.6l-2.7-2c-5-2.3-10.2-0.9-14.6,2.1c-0.1,0.4-0.3,0.9-0.6,1.3c-2.6,4.2-2.7,12.3-2.3,16.9
				c0.4,4.4,1,8.2,0.3,12.5c0.6,1.4,1.2,2.8,1.9,4.4c0.2,0.5,13.3-11.9,13.8-11.6l1.2-11.2C1741.1,487.3,1749.3,480.4,1744.3,480.6z
				"/>
		</g>
		<g>
			<path class="st5" d="M1753.1,691.1c0,4.1-7.1,4.1-32.2,6.4c-4.3,0.4-5.3-5.6-2.4-6.6c11.9-4,13.7-10.7,18.7-11.6
				c3.2-0.5,10.2-3.8,13.6-1.3C1752.6,679.4,1753.1,689.7,1753.1,691.1z"/>
		</g>
		<g>
			<path class="st6" d="M1761.2,623.9c-0.9,5.3-5.4,8.9-10,8.1l-2.1-0.4c-4.6-0.8-7.6-5.7-6.6-11l7.2-54.3c0.9-5.3,7.4-8.6,12-7.8
				l2.1,0.4c4.6,0.8,15.2,7,14.2,12.3L1761.2,623.9z"/>
		</g>
		<g>
			<path class="st6" d="M1752.5,678.1c-0.9,5.3-4,9.2-8.6,8.4l0,0c-4.6-0.8-0.7-3.7-8-6.7l5.8-59.1c0.9-5.3,5.4-8.9,9.9-8.1l2.1,0.4
				c4.6,0.8,7.6,5.7,6.6,11L1752.5,678.1z"/>
		</g>
		<g>
			<path class="st5" d="M1769.5,704.9c-0.7,1.1-11.7-1.2-11.7-1.2c-2.5,0-2.9-4.3-1-5.6c7.6-5.5,9.1-11.9,12.3-13.4
				c2-1,16.4-1.7,18.3,0.1C1788.4,685.7,1770.2,703.8,1769.5,704.9z"/>
		</g>
		<g>
			<path class="st5" d="M1788.1,693.8c-0.3,3.7-2.1,5.1-17.8,11c-2.7,1-2.9-4.3-1-5.7c7.6-5.5,9.1-11.9,12.3-13.4c2-1,4-5.3,6-3.5
				C1788.6,683.2,1788.2,692.5,1788.1,693.8z"/>
		</g>
		<g>
			<path class="st6" d="M1774.1,583.6l-12.9,40.2c-0.2,1.3-0.7,2.6-1.3,3.7l-7.4,50.6c-0.9,5.3-4.2,9.1-8.6,8.4
				c0,0,4.6,0.7,7.7-18.8C1754.5,649.2,1755.1,618.9,1774.1,583.6z"/>
		</g>
		<g>
			<path class="st6" d="M1791.4,629.5c-0.6,5.1-8.9,8.2-13.3,7.7l0.5,0c-4.4-0.5-7.5-5-6.9-10.1l-3.6-52.6c0.6-5.1,11.6-8.1,16-7.6
				l2,0.2c4.4,0.5,12.8-6.1,12.2-1L1791.4,629.5z"/>
		</g>
		<g>
			<path class="st6" d="M1786.8,681.4c-0.6,5.1-3.3,8.9-7.7,8.4l0,0c-4.4-0.5-0.9-3.5-7.9-6l0.6-54.6c0.6-5.1,6.4-10.6,10.8-10.1
				l2,0.2c4.4,0.5,7.5,5,6.9,10.1L1786.8,681.4z"/>
		</g>
		<path class="st6" d="M1788.4,628.7c3.7-28.1,8.9-42.9-0.7-47.5c-3.7-1.8-26.9-1.8-38-11.4c-0.1-0.1-0.2-0.1-0.4-0.2l0.4-3.3
			c0.9-5.3,7.4-8.6,12-7.8l2.1,0.4c3.8,0.7,11.9,5.2,13.8,9.7c2.1-1.3,4.5-1.9,6.5-1.7l2,0.2c4.4,0.5,12.8-6.1,12.2-1l-7,63.4
			l-4.6,51.9c-0.2,2-0.8,3.8-1.7,5.2C1784.2,688.1,1787.6,635.2,1788.4,628.7z"/>
		<g>
			<path class="st10" d="M1780.5,511.2c7.8,20.4,19.8,43.3,19.8,60.2c0,4.5-56.2,19.8-54.6,3c1.6-16.4-21.6-68.9-23.5-83.6
				c-1.3-10.2,14.2-20,19.8-20.8c15-2.3,19.1,3,22.6,8.2C1771.3,488,1774.3,494.8,1780.5,511.2z"/>
		</g>
		<path class="st10" d="M1761.5,482.2c-4-0.7,2,4.4-1.5,2.4c-0.5,1.9-0.9,3.7-1.4,5l-8.9,37.7c-0.1,0.2-0.1,0.4-0.2,0.6l-11,16.2
			l0.5-0.7c1.3,2.5,2.1,5.9,2.1,5.9l15.2-15.4c0.8-1.1,2.9-2.5,3.2-3.7c0.3-0.6,0.6-1.2,0.8-1.8l9.7-40.7
			C1768.7,484.6,1762.2,485.7,1761.5,482.2z"/>
		<g>
			
				<linearGradient id="SVGID_1_" gradientUnits="userSpaceOnUse" x1="1710.4315" y1="464.0215" x2="1719.3706" y2="487.7015" gradientTransform="matrix(-0.9827 0.1852 0.1852 0.9827 3328.5024 -321.4402)">
				<stop  offset="0" style="stop-color:#E83F3E"/>
				<stop  offset="0.196" style="stop-color:#EF6460"/>
				<stop  offset="0.4408" style="stop-color:#F68C85"/>
				<stop  offset="0.6648" style="stop-color:#FBA99F"/>
				<stop  offset="0.8586" style="stop-color:#FEBBAF"/>
				<stop  offset="1" style="stop-color:#FFC1B5"/>
			</linearGradient>
			<path class="st11" d="M1726,478.2c0.9,2.3,5.3,2.8,9.9,1l0,0c4.6-1.8,7.6-5.1,6.7-7.4l-6.7-17.6c-0.9-2.3-5.3-2.8-9.9-1l0,0
				c-4.6,1.8-7.6,5.1-6.7,7.4L1726,478.2z"/>
		</g>
		<g>
			<path class="st2" d="M1708.1,449.4c1.9,7.5,5.8,22.2,11.2,21.8c16.8-1.2,25.4-10.1,16.1-31.2c-4.2-9.5-14.7-14-23.5-10
				C1703,434,1705.5,439.3,1708.1,449.4z"/>
		</g>
		<g>
			<path class="st12" d="M1702.4,449.3c-5.5-17.1,8.7-19.9,16.5-21.8c6.2-1.5,17-1.9,19.7,14.6c1.6,9.8,0.8,10.5,1,11.1
				c-2.8,1.9-3.1-12.1-9-11.7c-6.4,0.4-11.8,4-17.7,6.4C1705.4,451.2,1703.3,451,1702.4,449.3z"/>
		</g>
		<g>
			<path class="st6" d="M1718.8,427.5c5.3-1.3,13.8-1.8,18,8.2c-1.8,1.6-3.6,3.3-5.6,4.8c-0.7,0.5-4.6,1.6-5.5,2
				c-5.6,0.9-7.5,3.3-12.8,5.5c-7.6,3.2-8,9.3-8.9,7.5C1689.5,432.8,1711.1,429.4,1718.8,427.5z"/>
		</g>
		<g>
			<path class="st2" d="M1740.5,448.4c0.8,2.2,0.3,4.4-1.2,5c-1.5,0.6-3.4-0.7-4.3-2.9c-0.8-2.2-0.3-4.4,1.2-5
				C1737.8,444.9,1739.7,446.2,1740.5,448.4z"/>
		</g>
		<path class="st2" d="M1710.8,563.4c0.9-0.3,1.3-1.3,1-2.2l0,0c-0.3-0.9-1.3-1.3-2.2-1l-4.2,1.6c-0.9,0.3-1.3,1.3-1,2.2l0,0
			c0.3,0.9,1.3,1.3,2.2,1L1710.8,563.4z"/>
		<path class="st2" d="M1714.7,563.7c0.9,0,1.7-0.7,1.7-1.6l0,0c0-0.9-0.7-1.7-1.6-1.7l-4.5-0.2c-0.9,0-1.7,0.7-1.7,1.6l0,0
			c0,0.9,0.7,1.7,1.6,1.7L1714.7,563.7z"/>
		<path class="st2" d="M1678.5,551.4c0.9-0.3,1.3-1.3,1-2.2l0,0c-0.3-0.9-1.3-1.3-2.2-1l-4.2,1.6c-0.9,0.3-1.3,1.3-1,2.2l0,0
			c0.3,0.9,1.3,1.3,2.2,1L1678.5,551.4z"/>
		<path class="st2" d="M1682.4,551.7c0.9,0,1.7-0.7,1.7-1.6l0,0c0-0.9-0.7-1.7-1.6-1.7l-4.5-0.2c-0.9,0-1.7,0.7-1.7,1.6l0,0
			c0,0.9,0.7,1.7,1.6,1.7L1682.4,551.7z"/>
		<g>
			<path class="st5" d="M1977,662.7c-14-7.7-25.5-16.4-37.2-25.2c-31.3-23.7-63.7-48.2-148.6-54c-60.4-4.2-98-23.1-137.7-43.2
				c-34.9-17.7-70.9-35.9-123.3-42.8c-4.2-0.6-30.5-3.6-34.9-4l-4.3,8.5c5.4,0.5,34.1,3.8,39.2,4.5c50,6.2,85.8,24.8,119.3,41.7
				c38.8,19.6,78.9,39.9,141.1,44.2c82.3,5.7,112.2,28.3,143.9,52.2c12.8,9.7,25.8,19.5,42.6,28.1V662.7z"/>
		</g>
		<g>
			<path class="st13" d="M1977,671.6c-15.7-8.3-28.4-17.7-40.8-27.1c-31.3-23.7-59.7-47.1-145.1-54c-60.4-4.9-98-23.1-137.7-43.2
				c-46.3-23.5-90.7-40.6-147.3-46.1c-4.9-0.5-4.6-7.1-6.5-7.3c-3.6-0.4-0.7-0.1-4.4-0.5l-2.7,8.6c87.4,7.2,120,27.4,156.9,46.1
				c38.8,19.6,78.9,39.9,141.1,44.2c82.3,5.7,112.2,28.3,143.9,52.2c12.8,9.7,25.8,19.5,42.6,28.1V671.6z"/>
		</g>
		<g>
			<path class="st2" d="M1742.3,521.7l10.6-37.3c0.5-1.3,1.1-3.1,1.6-4.9c4.9,3.2,10.6,5,16.5,5.3c-0.1,2.5-0.7,4.7-1.4,6.4
				l-14.8,35c-2.2,5.2-7.7,7.9-12.3,6C1737.9,530.3,1740.1,526.9,1742.3,521.7z"/>
		</g>
		<g>
			<path class="st2" d="M1752.1,531.3c3.5-4.4,3.3-10.7-0.4-14l0,0c-3.7-3.4-5.5-0.3-9,4.1l-33,42.1c-2.4,3.8-9.6,3.8-6.3,7.1
				c4.7,4.7,14.3-3.2,15.1-4.1L1752.1,531.3z"/>
		</g>
		<g>
			<path class="st10" d="M1744.5,495.2c0.5-0.1,2.7,0.8,3.2,0.7c6.5-1.2,14.4-1,21.1-1.1l1.8-3.8c2.4-5.1-2.4-23.9-17.9-21.1
				l-2.7,1.9c-4.5-2.1,0.3,7.5-2.1,12.6L1744.5,495.2z"/>
		</g>
		<g>
			<path class="st3" d="M1750.1,528.3c-11.5,15.5-30.5,37-30.5,37l0,0l32.4-34c0.8-1,1.5-2.2,1.9-3.4c0.3-0.5,0.7-1.1,0.9-1.7
				l13.5-31.9c-1.5,0.2-18,1.3-19.5,1c14.8,0.4,13.5,4.4,13,5.9"/>
		</g>
		<path class="st2" d="M1528.7,511.9c-3.1,4.8-5.9,7.9-1.6,10.6l0,0c4.3,2.7,10.3,1,13.4-3.8l21.1-32.4c3.1-4.8,6.4-15.1-4.4-25.3
			l0.3,1.4c-4.3-2.7-8.3,9.3-11.4,14.1L1528.7,511.9z"/>
		<linearGradient id="SVGID_2_" gradientUnits="userSpaceOnUse" x1="1549.818" y1="427.1258" x2="1532.0205" y2="452.9688">
			<stop  offset="0" style="stop-color:#E83F3E"/>
			<stop  offset="1" style="stop-color:#FFC1B5"/>
		</linearGradient>
		<path class="st14" d="M1528.5,454.7c0,2.5,4.1,4.6,9.1,4.5l0,0c5-0.1,9-2.1,9-4.7l-0.2-19.2c0-2.5-4.1-4.6-9.1-4.5l0,0
			c-5,0.1-9.1,2.1-9,4.7L1528.5,454.7z"/>
		<path class="st2" d="M1521.1,421.9c-0.8,7.8-1,22.5,4.3,24.1c16.5,4.8,27-1.1,25.6-24.5c-0.6-10.6-9.1-16.7-18.9-16
			C1522.3,406.2,1522.3,411.4,1521.1,421.9z"/>
		<path class="st10" d="M1516.3,418.6c0.9-18.2,15.3-15.9,23.5-14.9c6.5,0.8,16.9,4.2,13.6,21c-1.9,10-3,10.3-3,11
			c-3.3,0.8,1.3-12.6-4.4-14.3c-6.2-1.9-12.7-0.4-19.2-0.2C1518.4,421.5,1516.5,420.6,1516.3,418.6z"/>
		<path class="st10" d="M1516.3,418.6c0.9-18.2,15.3-15.9,23.5-14.9c6.5,0.8,16.9,4.2,13.6,21c-1.9,10-3,10.3-3,11
			c-3.3,0.8,1.3-12.6-4.4-14.3c-6.2-1.9-12.7-0.4-19.2-0.2C1518.4,421.5,1516.5,420.6,1516.3,418.6z"/>
		<path class="st10" d="M1539.7,403.7c5.5,0.7,13.8,3.2,14.2,14.3c-2.3,0.9-3,3.1-5.4,3.8c-0.9,0.2-7,0-8,0
			c-5.7-1.2-7.9-0.8-13.8-0.6c-8.4,0.3-11.4,0.2-11.7-1.8C1509.3,392.5,1531.6,402.8,1539.7,403.7z"/>
		<path class="st2" d="M1553,431.4c0,2.4-1.3,4.3-3,4.4c-1.6,0-3-1.9-3-4.3c0-2.4,1.3-4.3,2.9-4.4C1551.6,427.1,1553,429,1553,431.4
			z"/>
		<g>
			<path class="st5" d="M1428.6,447.9c-0.7,2.3-3.2,3.6-5.6,2.9l-36.2-11.6c-2.3-0.7-3.6-3.2-2.9-5.6l0,0c0.7-2.3,3.2-3.6,5.6-2.9
				l36.2,11.6C1428,443,1429.3,445.5,1428.6,447.9L1428.6,447.9z"/>
			<path class="st5" d="M1411.7,500.6c-0.7,2.3-3.2,3.6-5.6,2.9l-36.2-11.6c-2.3-0.7-3.6-3.2-2.9-5.6l0,0c0.7-2.3,3.2-3.6,5.6-2.9
				l36.2,11.6C1411.2,495.7,1412.5,498.2,1411.7,500.6L1411.7,500.6z"/>
			<path class="st13" d="M1425.7,442.3l-6.8-2.2c-1.1,2.9-2.1,5.9-7.9,4l-25.2-8c-0.9-0.3-1.6-0.7-2.2-1.2c0,1.9,1.2,3.7,3.1,4.3
				l36.2,11.6c2.3,0.7,4.8-0.5,5.6-2.9C1429.3,445.5,1428,443,1425.7,442.3z"/>
			<path class="st13" d="M1408.9,495l-6.8-2.2c-1.1,2.9-2.1,5.9-7.9,4l-25.2-8c-0.9-0.3-1.6-0.7-2.2-1.2c0,1.9,1.2,3.7,3.1,4.3
				l36.2,11.6c2.3,0.7,4.8-0.5,5.6-2.9C1412.5,498.2,1411.2,495.7,1408.9,495z"/>
			<path class="st6" d="M1464.9,439.2l-28.6,89.5c24.3,7,50-6.6,57.7-30.9C1501.9,473.5,1488.8,447.6,1464.9,439.2z"/>
			<path class="st15" d="M1495.4,474.3c-1.4,31.6-18.2,36.6-28.5,34.2c-10.6-2.4-10.7-13.3-8.8-22.2c3-14.8,5.2-29.8,8.5-44.6
				c0.1-0.6,0.4-1.1,0.6-1.6c-0.7-0.3-1.5-0.6-2.3-0.9l-28.6,89.5c24.3,7,50-6.6,57.7-30.9C1496.6,489.9,1496.9,481.8,1495.4,474.3z
				"/>
			<path class="st6" d="M1439.9,418.7L1439.9,418.7L1439.9,418.7c-5.5-1.8-11.4,1.3-13.2,6.8l-29.4,92.1c-1.8,5.5,1.3,11.4,6.8,13.2
				l0,0l0,0c30.5,8.7,40.2,3.7,55.4-44.1C1475.7,436,1469.8,429.3,1439.9,418.7z"/>
			<path class="st15" d="M1429.9,523.7c-10.4-2-25.3-3.3-25.3-16.3c0-7.4,0.9-12.7,2.2-19.3l-9.4,29.5c-1.8,5.5,1.3,11.4,6.8,13.2
				l0,0c26.2,7.5,37.1,4.8,49.3-26.5C1449,510.8,1437.6,525.2,1429.9,523.7z"/>
		</g>
		<path class="st2" d="M1320.9,413.5c1.9,5.4-0.5,11.4-5.2,13.3l0,0c-4.7,2-5.3-1.6-7.2-7l-17.3-51.6c-1-4.4,0.5-2.8,5.1-4.4
			c3.4-1.2,4,3.3,4.4,4.5L1320.9,413.5z"/>
		<path class="st2" d="M1291,367.2c-0.9-5.2-3.7-10,0.1-11.3c3.8-1.3,8.7,1.4,8.8,6.7c0.1,7.8,5,11.9,1.2,13.1
			c-2.6,0.9-10.6-0.7-13.2-4.9L1291,367.2z"/>
		<path class="st2" d="M1298.9,379.1c0.7,0.8,0.6,2-0.3,2.7l0,0c-0.8,0.7-2,0.6-2.7-0.3l-3.3-4c-0.7-0.8-0.6-2.1,0.3-2.7l0,0
			c0.8-0.7,2-0.5,2.7,0.3L1298.9,379.1z"/>
		<g>
			<path class="st6" d="M1291.7,370.7l13.5-109.7c-34.6-3.4-65.3,17.4-68.9,47.2C1232.6,337.9,1257.3,365.6,1291.7,370.7z"/>
			<path class="st15" d="M1241.1,335.9c-6.9-37,14.3-46.1,28.7-45.4c14.9,0.7,18,13.4,18,24.2c0,17.8,1.2,35.7,0.9,53.5
				c0,0.7-0.2,1.4-0.4,2c1.1,0.2,2.2,0.4,3.3,0.6l13.5-109.7c-34.6-3.4-65.3,17.4-68.9,47.2C1235.1,317.9,1237,327.3,1241.1,335.9z"
				/>
			<path class="st6" d="M1331.1,389.6L1331.1,389.6L1331.1,389.6c7.9,1,15-3.7,15.8-10.5l13.9-112.9c0.8-6.8-4.9-13-12.8-14l0,0l0,0
				c-43.4-4.2-55,3.5-62.2,62.1C1278.1,376.6,1288,383.2,1331.1,389.6z"/>
			<path class="st15" d="M1315.4,265.5c14.5,0.3,34.9-1.1,38.5,14c2.1,8.6,2.3,14.9,2.4,22.9l4.5-36.2c0.8-6.8-4.9-13-12.8-14l0,0
				c-37.3-3.6-51.1,1.6-58.8,40.5C1293.3,284.3,1304.5,265.3,1315.4,265.5z"/>
		</g>
		<path class="st2" d="M1530.4,523.9c5.7-0.3,10.4-4.7,10.4-9.8l0,0c0-5.1-3.5-4.3-9.2-4l-54.3,3.3c-4.5,0.8-2.4,1.5-2.1,6.3
			c0.2,3.6,4.6,2.4,5.8,2.4L1530.4,523.9z"/>
		<path class="st3" d="M1557.3,461l0.3,1.4c-4.3-2.7-8.3,9.3-11.4,14.1l-5.9,12.1c4.7,0.3,8.4,1.2,12.8,2.3c4,1-11.2,21.5-15.5,28
			c-3.1,4.7-31.4,3.7-33.9,4.1l26.8,1c0.5,0,0.9-0.1,1.4-0.2c3.3-0.1,6.7-1.9,8.7-5.1l21.1-32.4C1564.8,481.5,1568,471.2,1557.3,461
			z"/>
		<path class="st7" d="M1535.7,485.8c0.5,0,2.5,1.2,3,1.2c6.8,0,14.6,1.6,21.3,2.7l2.5-3.4c3.3-4.7,5.5-16-4.8-26.6l0.2,1.4
			c-4.2-2.9-8.6,8.9-12,13.6L1535.7,485.8z"/>
		<path class="st2" d="M1476.2,513.6c-5.2,1.1-10.7,0.3-10.4,4.3c0.3,4,4.5,7.5,9.5,5.6c7.2-2.8,12.9,0.2,12.6-3.8
			c-0.2-2.7-4.6-9.5-9.5-10.4L1476.2,513.6z"/>
		<path class="st2" d="M1478.8,513.5c1,0.3,2.1-0.3,2.4-1.3l0,0c0.3-1-0.3-2.1-1.3-2.4l-5-1.5c-1-0.3-2.1,0.3-2.4,1.3l0,0
			c-0.3,1,0.3,2.1,1.3,2.4L1478.8,513.5z"/>
		<path class="st1" d="M1325.8,669.2c0,6.9-15,10.6-62.1,12.4c-91.1,3.6-55.8-19.2-95.7-26.2c-17.3-3-33.6,11.8-67.9,7.1
			c-5.9-0.8-12,4.5-18,4c-20-1.4-50.8,4.1-72.9-2.2c-9.2-2.6-88.1-0.8-101.5-1.4l-5.2-4c70.4-1.3,65.7-15.6,151.7-12.8
			c9.3,0.3,34.1-5.4,42.8-2.7c24.8,7.7,47,1.5,65.8,3c36.1,2.9,29,18.7,91.1,12.5C1303.5,653.9,1325.8,662.3,1325.8,669.2z"/>
		<path class="st5" d="M1286.9,664c0.2,4.1,7.4,3.8,33.1,4.8c4.4,0.2,5.1-5.9,2.1-6.8c-12.3-3.5-14.5-10.2-19.6-10.8
			c-3.3-0.4-10.6-3.4-13.9-0.6C1286.7,652,1286.8,662.5,1286.9,664z"/>
		<path class="st6" d="M1275,596c1.2,5.3,5.9,8.8,10.6,7.7l2.1-0.5c4.6-1.1,7.4-6.2,6.2-11.5l-10.2-54.9c-1.2-5.3-8-8.3-12.6-7.3
			l-2.1,0.5c-4.6,1-15,8-13.8,13.3L1275,596z"/>
		<path class="st6" d="M1286.8,650.7c1.2,5.3,4.5,9.1,9.2,8.1l0,0c4.6-1.1,0.5-3.8,7.7-7.3l-9-59.8c-1.2-5.3-5.9-8.8-10.6-7.7
			l-2.1,0.5c-4.6,1-7.4,6.2-6.2,11.5L1286.8,650.7z"/>
		<path class="st6" d="M1259.7,555.7L1275,596c0.3,1.3,0.8,2.6,1.6,3.7l10.2,51.1c1.2,5.3,4.7,9.1,9.2,8.1c0,0-4.6,1-8.8-18.7
			C1283.1,621.4,1280.9,590.6,1259.7,555.7z"/>
		<path class="st5" d="M1201.9,648.9c-1.9,3.7,4.4,7.1,25.9,21.1c3.7,2.4,7.5-2.5,5.2-4.8c-8.8-9.3-7.2-16.2-11.3-19.3
			c-2.6-2-7.4-8.3-11.6-7.7C1207.9,638.6,1202.6,647.6,1201.9,648.9z"/>
		<path class="st6" d="M1226.6,584.4c-1.7,5.2,0.6,10.6,5.1,12.1l2,0.7c4.5,1.5,9.5-1.6,11.2-6.7l19.3-52.4
			c1.7-5.2-2.6-11.3-7.1-12.7l-2-0.7c-4.5-1.5-17-0.9-18.7,4.3L1226.6,584.4z"/>
		<path class="st6" d="M1208.6,637.5c-1.7,5.2-0.8,10.2,3.7,11.6l0,0c4.5,1.5,2.4-3,10.4-2.3l22.9-56c1.7-5.2-0.6-10.6-5.1-12.1
			l-2-0.7c-4.5-1.5-9.5,1.6-11.2,6.7L1208.6,637.5z"/>
		<path class="st6" d="M1234.1,542.1l-7.5,42.4c-0.4,1.3-0.6,2.7-0.5,3.9l-17.4,49.1c-1.7,5.2-0.6,10.2,3.7,11.6c0,0-4.5-1.5,2-20.6
			C1220.5,610.4,1234.4,582.9,1234.1,542.1z"/>
		<path class="st8" d="M1245.2,437.2c0.3-2.1-1.2-7.5,11.2-8.6c0.7-0.1-0.8,0.4,2.6,1c-0.4,1.9,4.4,3.9,6.7,4.8
			c2.4,1,0.5,2.2,0.9,4.6c0.5,2.9,2.7,5.5,4.5,7.9c1.9,2.5,4.4,4.3,7.2,5.7c-0.2,1-0.3,2-0.5,3.1l-22.3-2.9
			C1249.3,452.1,1244.7,442.4,1245.2,437.2z"/>
		<path class="st2" d="M1320.6,414.5c-2.3-4.5-5.6-2-10.7,0.7l-36.9,14.1c-1.8,1-4.5,1.9-7.2,3c-0.1,0.2-0.1,0.3-0.2,0.5
			c-0.9,2.2-0.3,4.7-0.7,7c-0.3,1.9-0.8,3.7-1.1,5.6c7,4,13.7,2.2,17.5,0.2l34.2-18.1C1320.7,424.8,1322.9,419,1320.6,414.5z"/>
		<path class="st3" d="M1321.5,418.2c0-5.1-1.4-5.7-1.3-6.2l-4.9-10.9c5.3,13.4,5.6,20.8,0.6,23.4c-6.9,3.7-28.6,16.9-29.3,12.8
			c-0.7-4.4-1.3-8.2-1.1-12.9l-12.6,4.8c-2.1,1.1-5.3,2.2-8.3,3.5c1.6,4.6,2.6,9.4,2.8,14.3c5.6,1.8,10.8,0.3,13.9-1.4l34.2-18.1
			C1319,425.7,1321.3,422.6,1321.5,418.2z"/>
		<path class="st5" d="M1282.6,425.6c4.8,4.5,1.8,12,2.3,18.8l-3.7,2.2c-4.9,2.9-21.8,4.2-22.2-5.7c-0.4-9.2,4.5-11.4,9.5-12.9
			L1282.6,425.6z"/>
		<path class="st5" d="M1230.1,481.2c-0.3,29.4,1.5,48.1,0.8,57.5c-0.3,4.5,62.5,5.8,55-9.7c-7.4-15.1-4-78.6-7.3-93.3
			c-2.4-10.2-20.7-7.3-26.5-7.4c-6.3-0.1-14.3,6.8-18.6,13.4C1230.7,446.1,1230.3,463.3,1230.1,481.2z"/>
		<path class="st6" d="M1111.2,412c0,22.8-7.8,9.3-10,27.9c-1.1,9.3-7.7,0-7.1-15.7c0.3-8.4,7.2-17.4,7.2-25.3
			c0-22.8-19.9-14.4-13.8-21.2C1096.1,368,1111.2,389.2,1111.2,412z"/>
		
			<linearGradient id="SVGID_3_" gradientUnits="userSpaceOnUse" x1="1752.8414" y1="647.5295" x2="1751.1847" y2="637.0484" gradientTransform="matrix(1 0 0 1 -639.3555 0)">
			<stop  offset="0" style="stop-color:#FFC1B5"/>
			<stop  offset="0.2954" style="stop-color:#F99E95"/>
			<stop  offset="0.9468" style="stop-color:#E94645"/>
			<stop  offset="1" style="stop-color:#E83F3E"/>
		</linearGradient>
		<path class="st16" d="M1116.4,652.2c0,1.9-1.4,3.5-3.2,3.5l0,0c-1.8,0-3.2-1.6-3.2-3.5v-12.5c0-1.9,1.4-3.5,3.2-3.5l0,0
			c1.8,0,3.2,1.6,3.2,3.5V652.2z"/>
		<g>
			<path class="st10" d="M1094,503.8c10.3-5.3,15.8-3.8,19,4.6c9.2,23.7,11.6,62.3,11.6,70c0,15.4-8.5,66.3-8.5,66.3s-8.3,3-8.2,0.7
				c1-35.8-2.9-33.1-2.8-45.8c0.1-7.4,2.5-14.2,1.9-20.5c-0.2-2-9.4-18.7-11.7-24.6c-6-15.6-8.8-27.5-11.1-35.3
				C1082.1,511.6,1090.1,505.7,1094,503.8z"/>
		</g>
		<g>
			<path class="st17" d="M1094,503.8c0.7-0.4,1.4-0.7,2-1c-1.1,3.3-1.6,6.8-1.4,10.5c0.3,4.5,1.1,9.3,2.1,13.7c0,0,0-0.1,0,0
				c0,0,0,0,0,0c0.1,0.6,0.2,18.9,3.3,25.4c3,6.4,11.2,23.7,10.6,28.9c-0.4,3.4-1,16.7-1,20.1c0,6,1.5,32.2,1.3,44.3
				c-2.3,0.6-3.1,1.1-3.1-0.2c1-35.8-2.9-33.1-2.8-45.8c0.1-7.4,2.5-14.2,1.9-20.5c-0.2-2-9.4-18.7-11.7-24.6
				c-6-15.6-8.8-27.5-11.1-35.3C1082.1,511.6,1090.1,505.7,1094,503.8z"/>
		</g>
		<path class="st10" d="M1077.6,502.1l0.4-0.4c0,16.3,2.7,16,20.5,16c17.7,0,14.6-1.3,14.6-17.5l-3.8-2L1077.6,502.1z"/>
		
			<linearGradient id="SVGID_4_" gradientUnits="userSpaceOnUse" x1="1714.0266" y1="647.5298" x2="1712.3699" y2="637.0486" gradientTransform="matrix(1 0 0 1 -639.3555 0)">
			<stop  offset="0" style="stop-color:#FFC1B5"/>
			<stop  offset="0.2954" style="stop-color:#F99E95"/>
			<stop  offset="0.9468" style="stop-color:#E94645"/>
			<stop  offset="1" style="stop-color:#E83F3E"/>
		</linearGradient>
		<path class="st18" d="M1077.6,652.2c0,1.9-1.4,3.5-3.2,3.5l0,0c-1.8,0-3.2-1.6-3.2-3.5v-12.5c0-1.9,1.4-3.5,3.2-3.5l0,0
			c1.8,0,3.2,1.6,3.2,3.5V652.2z"/>
		<path class="st10" d="M1078,641.7c0,0-7.7,0.8-7.7-1.9c0.2-24.5,1.2-45.1,0.8-62.3c-0.1-4.7-8.3-75.7,6.6-77.6
			c13.6-1.7,15-0.1,18.8,8.1c3.2,6.8-4.7,65.5-7.2,71.2c-0.8,1.9-2.5,11.7-2.9,13.7C1080.8,621.6,1078,641.7,1078,641.7z"/>
		
			<linearGradient id="SVGID_5_" gradientUnits="userSpaceOnUse" x1="1733.2849" y1="473.2116" x2="1737.9187" y2="497.8553" gradientTransform="matrix(1 0 0 1 -639.3555 0)">
			<stop  offset="0" style="stop-color:#E83F3E"/>
			<stop  offset="5.316222e-02" style="stop-color:#E94645"/>
			<stop  offset="0.7046" style="stop-color:#F99E95"/>
			<stop  offset="1" style="stop-color:#FFC1B5"/>
		</linearGradient>
		<path class="st19" d="M1074.1,464.7l4,23.1c2.6,5.8,2.6,8.4-0.2,13c-1.6,2.6,34.5,2.3,33.2-0.5c-3-6.2,2.2-12,2.2-14.6l0.5-21
			H1074.1z"/>
		<path class="st3" d="M1074.1,464.7l4,23.1c2.6,5.8,2.6,8.4-0.2,13c-1.6,2.6,34.5,2.3,33.2-0.5c-3-6.2,2.2-12,2.2-14.6l0.5-21
			H1074.1z"/>
		<path class="st4" d="M1129,463.1c0.8,1,5.4,8.3,9.8,4.3l-0.6,0.3c4.4-4,3.9-9.4,3.9-9.4l-26.6-30.2c-4-4.4-10.8-4.7-15.2-0.7l0,0
			c-4.4,4-0.8,8.6,3.2,13L1129,463.1z"/>
		<path class="st2" d="M1179.5,486.2c4.5,0.3,7.6-3.4,7.9-5.4c0.3-2-8.7-0.1-12.7-0.7c-4-0.6-5.5,1.7-5.8,3.6
			C1168.7,485.7,1173.3,485.9,1179.5,486.2z"/>
		<path class="st4" d="M1167.9,485.4c1.1,0.7,5,2.1,5,2.1c1.4-4.4,3.4-8.6,3.4-8.6l-34.1-20.7c-4.9-2.9-10-1.8-11.4,2.7l0,0
			c-1.4,4.4,3.2,7.6,8.1,10.5L1167.9,485.4z"/>
		<path class="st6" d="M1134.4,462.9c-3-2.8-8.6-12.3-10.8-15.7c-4.7-7.2-11.8-16.1-19.7-19.6c-0.8-0.3-1.4-0.8-1.8-1.3
			c-0.6,0.4-1.2,0.8-1.7,1.3c-4.4,4-0.8,8.6,3.2,13l25.5,22.7c0.5,0.6,2.3,3.4,4.6,4.7c1.5,1.3,3.4,2.5,5.3,3.7l29,13.9
			c1.1,0.7,5,2.1,5,2.1c0.2-0.7,0.5-1.4,0.7-2.1C1141.1,470.8,1138.8,467.1,1134.4,462.9z"/>
		<path class="st4" d="M1118.2,491.3c3.3,0,1.4-46.1,1.4-46.1c0-13.8-2.7-22.5-22.4-22.5c-19.7,0-29.3,11.3-29.3,25
			c0,0,5.4,36.6,5.7,42.7C1073.7,496.5,1105.6,491.3,1118.2,491.3z"/>
		<path class="st6" d="M1088.7,485.7c-15.8-7.6-15.6-28-14.2-43.7c-1.4-1.7-2.8-3.5-4.2-5.3c-1.6,3.4-2.5,7.1-2.5,11.1
			c0,0,5.4,36.6,5.7,42.7c0.3,6.1,32.1,0.9,44.7,0.9c0.6,0,1-1.6,1.4-4.1C1109.2,489.3,1098.1,490.2,1088.7,485.7z"/>
		<path class="st4" d="M1066,474.7c-0.2,1.3,0,9.9-5.8,8.6h0.6c-5.8-1.2-9-5-9-5l8.6-40.7c1.2-5.8,7-9.5,12.8-8.3l0,0
			c5.8,1.2,5.1,7,3.8,12.8L1066,474.7z"/>
		
			<linearGradient id="SVGID_6_" gradientUnits="userSpaceOnUse" x1="1719.23" y1="416.2035" x2="1745.0728" y2="416.2035" gradientTransform="matrix(1 0 0 1 -639.3555 0)">
			<stop  offset="0" style="stop-color:#E83F3E"/>
			<stop  offset="1" style="stop-color:#FFC1B5"/>
		</linearGradient>
		<path class="st20" d="M1082.2,425c-7.4,2.5,4.5,3.6,9.6,3.6c5.1,0,18.7-2,12.1-5.4c-11.2-5.6,0.1-19.4-11-19.4
			C1083.1,403.8,1094.6,420.8,1082.2,425z"/>
		<path class="st2" d="M1079,398.8c0,5.6,11.9,14.3,14.6,14.3c2.7,0,11.9-9.3,11.1-13.2c-1.8-9.7-1.2-21.3-8.8-21.3
			C1088.4,378.4,1079,388.3,1079,398.8z"/>
		<path class="st6" d="M1063.8,412c0,22.8,9.9,13.5,12.1,32c1.1,9.3,19.7-4.1,19.1-19.9c-0.3-8.4-13-17.4-13-25.3
			c0-22.8,13.6-14.4,7.6-21.2C1081,368,1063.8,389.2,1063.8,412z"/>
		<path class="st6" d="M1107.7,386.9c0.3,2-21.7,4.2-26.5,4.2c-4.8,0,3.1-7.7,3.1-9.7c0-2,5.1-5.9,9.8-5.9
			C1099,375.4,1106.3,378.4,1107.7,386.9z"/>
		<path class="st5" d="M1108.6,651.5c0,2.2-3.9,9.7,2.6,9.7c15.9,0,25.1-0.4,23.8-2.1c-3.7-4.8-16.2-1.2-16.8-8.2
			C1117.8,646.6,1108.6,649.3,1108.6,651.5z"/>
		<path class="st5" d="M1068.8,651.5c0,2.2-7,9.7-1.1,9.7c14.5,0,15.5-0.1,14.7-2.1c-1.7-4.8-4.4-2.8-5-9.8
			C1077.2,645,1068.8,649.3,1068.8,651.5z"/>
		<path class="st8" d="M1285.9,529c-6.3-12.8-4.8-60.6-6.2-83.6c-2.8,14.2-2.4,28.8-2.1,43.2c0.2,10.5,2.6,24.4,0.7,34.8
			c-1.9,10-9.5,15.1-20.7,15.2c-6.6,0.1-13.1-0.1-19.8-0.2c-2.3,0-4.5-0.1-6.7-0.3c0,0.2,0,0.4,0,0.6
			C1230.7,543.2,1293.5,544.5,1285.9,529z"/>
		<path class="st8" d="M1280.7,431.8c-5-0.5-9.3-3.3-12.8-2.9c-1.4,0.1-2.7-0.1-3.7-0.8l-19.4,5.1v17.9l29-11.5
			c1.7-0.7,3.1-1.7,4.3-2.9c0.6-0.5,1.2-1,1.7-1.6C1279.6,434.8,1281.1,431.9,1280.7,431.8z"/>
		
			<linearGradient id="SVGID_7_" gradientUnits="userSpaceOnUse" x1="1256.4495" y1="402.7291" x2="1238.652" y2="428.572" gradientTransform="matrix(-1 0 0 1 2494.5439 0)">
			<stop  offset="0" style="stop-color:#E83F3E"/>
			<stop  offset="1" style="stop-color:#FFC1B5"/>
		</linearGradient>
		<path class="st21" d="M1259.4,430.3c0,2.5-4.1,4.6-9.1,4.5l0,0c-5-0.1-9-2.1-9-4.7l0.2-19.2c0-2.5,4.1-4.6,9.1-4.5l0,0
			c5,0,9.1,2.1,9,4.7L1259.4,430.3z"/>
		<path class="st2" d="M1266.8,397.5c0.8,7.8,1,22.5-4.3,24.1c-16.5,4.8-27-1.1-25.6-24.5c0.6-10.6,9.1-16.7,18.9-16
			C1265.6,381.8,1265.6,387,1266.8,397.5z"/>
		<path class="st22" d="M1246.4,414.3c-3.9-1.1-5.9-4.6-7-8.2c-0.8-0.5-1.7-1.1-2.5-1.6c1.2,17.2,11.1,21.3,25.6,17.1
			c2.4-0.7,3.7-4.1,4.3-8.4c-2.4,0-4.9-0.6-7.4-0.5C1254.4,412.8,1251.6,415.8,1246.4,414.3z"/>
		<path class="st22" d="M1267.5,394.2c1.1-15.2-11.2-15.9-19.3-14.9c-6.5,0.8-16.9,4.2-13.6,21c1.9,10,3,10.3,3,11
			c3.3,0.8-1.3-12.6,4.4-14.3c6.2-1.9,12.7-0.4,19.2-0.2C1269.5,397.1,1267.2,396.2,1267.5,394.2z"/>
		<path class="st2" d="M1234.9,407c0,2.4,1.3,4.3,3,4.4c1.6,0,3-1.9,3-4.3c0-2.4-1.3-4.3-2.9-4.4
			C1236.3,402.7,1235,404.6,1234.9,407z"/>
		<path class="st2" d="M1276.2,403.4c-3.8-3.4-6,0.2-9.7,4.5l-29.2,26.6c-1.3,1.5-3.5,3.4-5.6,5.4c0,0.2,0,0.3,0,0.5
			c-0.1,2.4,1.4,4.5,1.9,6.8c0.4,1.9,0.7,3.8,1,5.6c7.9,1.1,13.6-3,16.4-6.2l25.2-29.3C1280,413,1280,406.7,1276.2,403.4z"/>
		<path class="st2" d="M1279.6,410.2c-1.1,5.6-6.2,9.5-11.3,8.8l0,0c-5.1-0.7-3.8-4.1-2.6-9.7l11.4-53.2c1.4-4.3,1.9-2.1,6.6-1.2
			c3.6,0.7,1.7,4.9,1.5,6.1L1279.6,410.2z"/>
		<path class="st2" d="M1277.5,355.1c1.9-4.9,1.9-10.5,5.8-9.7c3.9,0.9,6.8,5.6,4.2,10.2c-3.8,6.7-1.7,12.8-5.7,11.9
			c-2.7-0.6-8.7-6-8.9-11L1277.5,355.1z"/>
		<path class="st2" d="M1277,357.5c0.2,1.1-0.6,2-1.6,2.2l0,0c-1.1,0.2-2-0.6-2.2-1.6l-0.8-5.1c-0.2-1.1,0.6-2,1.6-2.2l0,0
			c1.1-0.2,2,0.6,2.2,1.6L1277,357.5z"/>
		<path class="st3" d="M1279.9,407c-0.1-0.5,0.4-2.5,0.3-2.9l2.8-25c0.3,2.6-3.9,31.1-7.6,35.4c-5,5.9-20.4,26.2-22.5,22.7
			c-2.3-3.9-4.2-7.1-5.8-11.6l-10,9.1c-1.5,1.8-4.1,4-6.5,6.3c3.1,3.7,5.8,7.8,7.8,12.3c5.9-0.4,10.1-3.7,12.4-6.3l25.2-29.3
			C1278.8,414.5,1279.4,412.3,1279.9,407z"/>
		<path class="st5" d="M1244.9,427.6c6.1,2.5,6.1,10.5,9.1,16.7l-2.6,3.4c-3.5,4.5-18.7,11.8-22.8,2.8c-3.8-8.5,0-12.2,4.1-15.5
			L1244.9,427.6z"/>
		<path class="st2" d="M1096.4,497.7c-0.3,0.6-0.3,1.2,0.1,1.4l3.9,2.4c0.4,0.2,1,0,1.3-0.6l0,0c0.3-0.5,0.3-1.2-0.1-1.4l-3.9-2.4
			C1097.3,496.9,1096.7,497.2,1096.4,497.7L1096.4,497.7z"/>
		<g>
			<path class="st5" d="M1236.9,305.5c0-0.2,0.1-0.5,0.1-0.7c0.1-0.8,0.3-1.4,0.6-2l-0.5-4.3c-37.3,4.6-36.3,41.8-35.3,81.3
				c1,35.2,2,75.2-23.9,97.9c-22.5,19.8-62.4,24.8-121.9,15.3c-25.9-4.1-48,9-69.3,21.7c-19.1,11.3-32.5,28.7-113.3,20.7v6.9
				c1.2,0.1,58.3,0.1,59.5,0.1c20.6,0,39.3-11.1,57.3-21.8c20.3-12,41.3-24.5,64.7-20.8c61.7,9.8,103.4,4.2,127.5-17
				c28.3-24.9,27.2-66.5,26.2-103.3C1207.6,336.5,1208.3,309.7,1236.9,305.5z"/>
		</g>
		<g>
			<path class="st23" d="M1236.9,305.5c0-0.2,0.1-0.5,0.1-0.7c0.1-0.8,0.3-1.4,0.6-2l-0.5-4.3c-0.9,0.1-1.7,0.2-2.5,0.4
				c0,1.1-0.2,4.7-1.5,5c-23.9,6.4-23.7,25.7-26,35.8c-0.4,1.5-0.1,26.8,0.3,40c1,35.2,4.5,73.4-26.6,103.5
				c-21.5,20.8-65.1,24.8-124.6,15.3c-25.9-4.1-47.7,10.9-69.3,23.1c-35.7,20.1-41.5,22.5-113.3,18v2.7c1.2,0.1,58.3,0.1,59.5,0.1
				c20.6,0,39.3-11.1,57.3-21.8c20.3-12,41.3-24.5,64.7-20.8c61.7,9.8,103.4,4.2,127.5-17c28.3-24.9,27.2-66.5,26.2-103.3
				C1207.6,336.5,1208.3,309.7,1236.9,305.5z"/>
		</g>
		<path class="st2" d="M1093.4,498.5l-5.7-1.1c-0.5,0.6,0.1,1.1-0.7,1.3c-0.6,0.9-1.4,1.6-2.5,1.9c-0.3,0.6-0.7,1.1-1.2,1.5l9.9,3.9
			c5.3,2.7,9.6-3.8,7.9-4.8C1099.5,500.3,1097.9,501.3,1093.4,498.5z"/>
		<path class="st2" d="M1092.5,500c0.2,0.6,0.7,1,1.2,0.8l4.3-1.6c0.4-0.2,0.6-0.8,0.4-1.4l0,0c-0.2-0.6-0.7-1-1.2-0.8l-4.3,1.6
			C1092.4,498.8,1092.3,499.4,1092.5,500L1092.5,500z"/>
		<path class="st3" d="M1098.9,504.7c-4.5,1.3-9.3-1.4-13-4c-0.2-0.1-0.4-0.3-0.5-0.5c-0.3,0.2-0.6,0.3-0.9,0.4
			c-0.3,0.6-0.7,1.1-1.2,1.5l9.9,3.9c5.6,1.8,7.9-1.8,8.3-4C1101.5,502.1,1100.2,504.4,1098.9,504.7z"/>
		<path class="st4" d="M1089,497.7l-14.9-11.1c0,0-11.8-3.9-6.9-15.1c0,0-6.3-15-9.7-10.1l-4.1,10.1c-2.9,8.9-2.3,12.5,4.5,16.4
			l25.5,14.5L1089,497.7z"/>
		<path class="st6" d="M1324.9,319.7c-3.5,36.9,3.5,67.7,15.8,68.9c12.3,1.2,25.1-27.7,28.7-64.6c3.5-36.9-3.5-67.7-15.8-68.9
			C1341.3,253.9,1328.4,282.9,1324.9,319.7z"/>
		<path class="st15" d="M1324.9,319.7c-3.5,36.9,3.5,67.7,15.8,68.9c12.3,1.2,25.1-27.7,28.7-64.6c3.5-36.9-3.5-67.7-15.8-68.9
			C1341.3,253.9,1328.4,282.9,1324.9,319.7z"/>
		<path class="st6" d="M1329.5,320.2c-2.8,29.2,2.8,53.7,12.5,54.6c9.7,0.9,19.9-22,22.7-51.2c2.8-29.2-2.8-53.7-12.5-54.6
			C1342.5,268,1332.3,290.9,1329.5,320.2z"/>
		<path class="st15" d="M1346.4,298.5c-0.5,4.6,1.5,8.6,4.5,8.9c3,0.3,5.8-3.2,6.3-7.7c0.5-4.6-1.5-8.6-4.5-8.9
			C1349.7,290.4,1346.9,293.9,1346.4,298.5z"/>
		<path class="st15" d="M1339.2,346.3c-0.5,4.6,1.4,8.6,4.4,8.9c3,0.3,5.8-3.1,6.3-7.7c0.5-4.6-1.4-8.6-4.4-8.9
			C1342.6,338.3,1339.8,341.8,1339.2,346.3z"/>
	</g>
</g>
</svg>
